G75*
%MOIN*%
%OFA0B0*%
%FSLAX25Y25*%
%IPPOS*%
%LPD*%
%AMOC8*
5,1,8,0,0,1.08239X$1,22.5*
%
%ADD10C,0.05600*%
%ADD11C,0.06000*%
%ADD12R,0.04252X0.04134*%
%ADD13C,0.05150*%
%ADD14C,0.06600*%
%ADD15R,0.10000X0.10000*%
%ADD16R,0.06299X0.15748*%
%ADD17C,0.01000*%
%ADD18C,0.04356*%
%ADD19C,0.01600*%
%ADD20C,0.02400*%
%ADD21C,0.03962*%
%ADD22C,0.01200*%
D10*
X0034300Y0014000D02*
X0034300Y0019600D01*
X0044300Y0019600D02*
X0044300Y0014000D01*
X0054300Y0014000D02*
X0054300Y0019600D01*
X0064300Y0019600D02*
X0064300Y0014000D01*
X0066800Y0086500D02*
X0066800Y0092100D01*
X0056800Y0092100D02*
X0056800Y0086500D01*
X0076800Y0086500D02*
X0076800Y0092100D01*
X0086800Y0092100D02*
X0086800Y0086500D01*
X0096800Y0086500D02*
X0096800Y0092100D01*
X0106800Y0092100D02*
X0106800Y0086500D01*
X0134000Y0127800D02*
X0139600Y0127800D01*
X0139600Y0137800D02*
X0134000Y0137800D01*
X0134000Y0147800D02*
X0139600Y0147800D01*
X0139600Y0157800D02*
X0134000Y0157800D01*
X0027100Y0186800D02*
X0021500Y0186800D01*
X0021500Y0196800D02*
X0027100Y0196800D01*
D11*
X0033200Y0070100D02*
X0033200Y0064100D01*
X0033200Y0044500D02*
X0033200Y0038500D01*
X0015400Y0038500D02*
X0015400Y0044500D01*
X0015400Y0064100D02*
X0015400Y0070100D01*
X0057900Y0070100D02*
X0057900Y0064100D01*
X0057900Y0044500D02*
X0057900Y0038500D01*
X0075700Y0038500D02*
X0075700Y0044500D01*
X0075700Y0064100D02*
X0075700Y0070100D01*
X0105400Y0070100D02*
X0105400Y0064100D01*
X0105400Y0044500D02*
X0105400Y0038500D01*
X0123200Y0038500D02*
X0123200Y0044500D01*
X0123200Y0064100D02*
X0123200Y0070100D01*
D12*
X0086800Y0042745D03*
X0086800Y0035855D03*
X0044300Y0035855D03*
X0044300Y0042745D03*
D13*
X0056800Y0184300D03*
X0066800Y0184300D03*
X0076800Y0184300D03*
X0086800Y0184300D03*
X0096800Y0184300D03*
X0096800Y0224300D03*
X0106800Y0224300D03*
X0086800Y0224300D03*
X0076800Y0224300D03*
X0066800Y0224300D03*
X0056800Y0224300D03*
D14*
X0036800Y0167600D02*
X0036800Y0161000D01*
X0026800Y0161000D02*
X0026800Y0167600D01*
X0016800Y0167600D02*
X0016800Y0161000D01*
D15*
X0039300Y0182550D03*
X0039300Y0201050D03*
D16*
X0129300Y0113808D03*
X0129300Y0089792D03*
D17*
X0007100Y0022372D02*
X0007100Y0234544D01*
X0007632Y0234237D01*
X0010378Y0233501D01*
X0013222Y0233501D01*
X0015968Y0234237D01*
X0018431Y0235658D01*
X0020442Y0237669D01*
X0021863Y0240132D01*
X0022599Y0242878D01*
X0022599Y0245722D01*
X0021863Y0248468D01*
X0020442Y0250931D01*
X0019872Y0251500D01*
X0058300Y0251500D01*
X0058300Y0243886D01*
X0058886Y0243300D01*
X0128501Y0243300D01*
X0128501Y0242878D01*
X0129237Y0240132D01*
X0130658Y0237669D01*
X0132669Y0235658D01*
X0135132Y0234237D01*
X0137878Y0233501D01*
X0140722Y0233501D01*
X0143468Y0234237D01*
X0145931Y0235658D01*
X0146500Y0236228D01*
X0146500Y0022372D01*
X0145931Y0022942D01*
X0143468Y0024363D01*
X0140722Y0025099D01*
X0137878Y0025099D01*
X0135132Y0024363D01*
X0132669Y0022942D01*
X0130658Y0020931D01*
X0129237Y0018468D01*
X0128501Y0015722D01*
X0128501Y0012878D01*
X0129237Y0010132D01*
X0130658Y0007669D01*
X0131228Y0007100D01*
X0022372Y0007100D01*
X0022942Y0007669D01*
X0024363Y0010132D01*
X0025099Y0012878D01*
X0025099Y0015722D01*
X0024363Y0018468D01*
X0022942Y0020931D01*
X0020931Y0022942D01*
X0018468Y0024363D01*
X0015722Y0025099D01*
X0012878Y0025099D01*
X0010132Y0024363D01*
X0007669Y0022942D01*
X0007100Y0022372D01*
X0007100Y0022769D02*
X0007496Y0022769D01*
X0007100Y0023767D02*
X0009099Y0023767D01*
X0007100Y0024766D02*
X0011634Y0024766D01*
X0007100Y0025764D02*
X0032719Y0025764D01*
X0033047Y0025900D02*
X0030731Y0024941D01*
X0028959Y0023169D01*
X0028000Y0020853D01*
X0028000Y0012747D01*
X0028959Y0010431D01*
X0030731Y0008659D01*
X0033047Y0007700D01*
X0035553Y0007700D01*
X0037869Y0008659D01*
X0039641Y0010431D01*
X0040381Y0012219D01*
X0040622Y0011746D01*
X0041020Y0011199D01*
X0041499Y0010720D01*
X0042046Y0010322D01*
X0042649Y0010015D01*
X0043293Y0009806D01*
X0043900Y0009710D01*
X0043900Y0016400D01*
X0044700Y0016400D01*
X0044700Y0017200D01*
X0043900Y0017200D01*
X0043900Y0023890D01*
X0043293Y0023794D01*
X0042649Y0023585D01*
X0042046Y0023278D01*
X0041499Y0022880D01*
X0041020Y0022401D01*
X0040622Y0021854D01*
X0040381Y0021381D01*
X0039641Y0023169D01*
X0037869Y0024941D01*
X0035553Y0025900D01*
X0033047Y0025900D01*
X0030556Y0024766D02*
X0016966Y0024766D01*
X0019501Y0023767D02*
X0029558Y0023767D01*
X0028793Y0022769D02*
X0021104Y0022769D01*
X0022102Y0021770D02*
X0028380Y0021770D01*
X0028000Y0020772D02*
X0023033Y0020772D01*
X0023610Y0019773D02*
X0028000Y0019773D01*
X0028000Y0018775D02*
X0024186Y0018775D01*
X0024549Y0017776D02*
X0028000Y0017776D01*
X0028000Y0016778D02*
X0024816Y0016778D01*
X0025084Y0015779D02*
X0028000Y0015779D01*
X0028000Y0014781D02*
X0025099Y0014781D01*
X0025099Y0013782D02*
X0028000Y0013782D01*
X0028000Y0012784D02*
X0025074Y0012784D01*
X0024806Y0011785D02*
X0028398Y0011785D01*
X0028812Y0010787D02*
X0024539Y0010787D01*
X0024165Y0009788D02*
X0029602Y0009788D01*
X0030601Y0008790D02*
X0023588Y0008790D01*
X0023012Y0007791D02*
X0032827Y0007791D01*
X0035773Y0007791D02*
X0062827Y0007791D01*
X0063047Y0007700D02*
X0065553Y0007700D01*
X0067869Y0008659D01*
X0069641Y0010431D01*
X0070600Y0012747D01*
X0070600Y0020853D01*
X0069641Y0023169D01*
X0067869Y0024941D01*
X0065553Y0025900D01*
X0063047Y0025900D01*
X0060731Y0024941D01*
X0058959Y0023169D01*
X0058219Y0021381D01*
X0057978Y0021854D01*
X0057580Y0022401D01*
X0057101Y0022880D01*
X0056554Y0023278D01*
X0055951Y0023585D01*
X0055307Y0023794D01*
X0054700Y0023890D01*
X0054700Y0017200D01*
X0053900Y0017200D01*
X0053900Y0023890D01*
X0053293Y0023794D01*
X0052649Y0023585D01*
X0052046Y0023278D01*
X0051499Y0022880D01*
X0051020Y0022401D01*
X0050622Y0021854D01*
X0050315Y0021251D01*
X0050106Y0020607D01*
X0050000Y0019938D01*
X0050000Y0017200D01*
X0053900Y0017200D01*
X0053900Y0016400D01*
X0054700Y0016400D01*
X0054700Y0009710D01*
X0055307Y0009806D01*
X0055951Y0010015D01*
X0056554Y0010322D01*
X0057101Y0010720D01*
X0057580Y0011199D01*
X0057978Y0011746D01*
X0058219Y0012219D01*
X0058959Y0010431D01*
X0060731Y0008659D01*
X0063047Y0007700D01*
X0065773Y0007791D02*
X0130588Y0007791D01*
X0130012Y0008790D02*
X0067999Y0008790D01*
X0068998Y0009788D02*
X0129435Y0009788D01*
X0129061Y0010787D02*
X0069788Y0010787D01*
X0070202Y0011785D02*
X0128794Y0011785D01*
X0128526Y0012784D02*
X0070600Y0012784D01*
X0070600Y0013782D02*
X0128501Y0013782D01*
X0128501Y0014781D02*
X0070600Y0014781D01*
X0070600Y0015779D02*
X0128516Y0015779D01*
X0128784Y0016778D02*
X0113998Y0016778D01*
X0114905Y0017153D02*
X0116447Y0018695D01*
X0117281Y0020710D01*
X0117281Y0022890D01*
X0116447Y0024905D01*
X0114905Y0026447D01*
X0112890Y0027281D01*
X0110710Y0027281D01*
X0108695Y0026447D01*
X0108349Y0026100D01*
X0087751Y0026100D01*
X0087405Y0026447D01*
X0085390Y0027281D01*
X0083210Y0027281D01*
X0081195Y0026447D01*
X0079653Y0024905D01*
X0078819Y0022890D01*
X0078819Y0020710D01*
X0079653Y0018695D01*
X0081195Y0017153D01*
X0083210Y0016319D01*
X0085390Y0016319D01*
X0087405Y0017153D01*
X0087751Y0017500D01*
X0108349Y0017500D01*
X0108695Y0017153D01*
X0110710Y0016319D01*
X0112890Y0016319D01*
X0114905Y0017153D01*
X0115528Y0017776D02*
X0129051Y0017776D01*
X0129414Y0018775D02*
X0116480Y0018775D01*
X0116893Y0019773D02*
X0129990Y0019773D01*
X0130567Y0020772D02*
X0117281Y0020772D01*
X0117281Y0021770D02*
X0131498Y0021770D01*
X0132496Y0022769D02*
X0117281Y0022769D01*
X0116918Y0023767D02*
X0134099Y0023767D01*
X0136634Y0024766D02*
X0116504Y0024766D01*
X0115587Y0025764D02*
X0146500Y0025764D01*
X0146500Y0024766D02*
X0141966Y0024766D01*
X0144501Y0023767D02*
X0146500Y0023767D01*
X0146500Y0022769D02*
X0146104Y0022769D01*
X0146500Y0026763D02*
X0114142Y0026763D01*
X0109458Y0026763D02*
X0086642Y0026763D01*
X0086300Y0032288D02*
X0084477Y0032288D01*
X0084095Y0032390D01*
X0083753Y0032588D01*
X0083474Y0032867D01*
X0083276Y0033209D01*
X0083174Y0033591D01*
X0083174Y0035355D01*
X0086300Y0035355D01*
X0087300Y0035355D01*
X0087300Y0032288D01*
X0089123Y0032288D01*
X0089505Y0032390D01*
X0089847Y0032588D01*
X0090126Y0032867D01*
X0090324Y0033209D01*
X0090426Y0033591D01*
X0090426Y0035355D01*
X0087300Y0035355D01*
X0087300Y0036355D01*
X0090426Y0036355D01*
X0090426Y0037511D01*
X0090909Y0037711D01*
X0091893Y0038695D01*
X0092426Y0039982D01*
X0092426Y0045508D01*
X0091893Y0046794D01*
X0091500Y0047188D01*
X0091500Y0053470D01*
X0091614Y0053584D01*
X0092478Y0055671D01*
X0092478Y0057929D01*
X0091614Y0060016D01*
X0091355Y0060274D01*
X0100900Y0069819D01*
X0100900Y0067600D01*
X0104900Y0067600D01*
X0104900Y0066600D01*
X0105900Y0066600D01*
X0105900Y0067600D01*
X0109900Y0067600D01*
X0109900Y0070454D01*
X0109789Y0071154D01*
X0109570Y0071827D01*
X0109249Y0072459D01*
X0109219Y0072500D01*
X0112655Y0072500D01*
X0114236Y0073155D01*
X0117945Y0076864D01*
X0118600Y0078445D01*
X0118600Y0097655D01*
X0117945Y0099236D01*
X0114236Y0102945D01*
X0112655Y0103600D01*
X0108581Y0103600D01*
X0107478Y0104703D01*
X0107478Y0105429D01*
X0106614Y0107516D01*
X0105016Y0109114D01*
X0102929Y0109978D01*
X0100671Y0109978D01*
X0098584Y0109114D01*
X0096986Y0107516D01*
X0096122Y0105429D01*
X0096122Y0103171D01*
X0096986Y0101084D01*
X0098584Y0099486D01*
X0100671Y0098622D01*
X0101397Y0098622D01*
X0103155Y0096864D01*
X0104364Y0095655D01*
X0104372Y0095651D01*
X0103999Y0095380D01*
X0103520Y0094901D01*
X0103122Y0094354D01*
X0102881Y0093881D01*
X0102141Y0095669D01*
X0100369Y0097441D01*
X0098053Y0098400D01*
X0096281Y0098400D01*
X0096100Y0098581D01*
X0096100Y0122519D01*
X0097081Y0123500D01*
X0123115Y0123500D01*
X0122650Y0122378D01*
X0122650Y0105238D01*
X0123183Y0103951D01*
X0124168Y0102967D01*
X0125454Y0102434D01*
X0133146Y0102434D01*
X0134432Y0102967D01*
X0135417Y0103951D01*
X0135950Y0105238D01*
X0135950Y0121500D01*
X0140853Y0121500D01*
X0143169Y0122459D01*
X0144941Y0124231D01*
X0145900Y0126547D01*
X0145900Y0129053D01*
X0144941Y0131369D01*
X0143510Y0132800D01*
X0144941Y0134231D01*
X0145900Y0136547D01*
X0145900Y0139053D01*
X0144941Y0141369D01*
X0143510Y0142800D01*
X0144941Y0144231D01*
X0145900Y0146547D01*
X0145900Y0149053D01*
X0144941Y0151369D01*
X0143169Y0153141D01*
X0141381Y0153881D01*
X0141854Y0154122D01*
X0142401Y0154520D01*
X0142880Y0154999D01*
X0143278Y0155546D01*
X0143585Y0156149D01*
X0143794Y0156793D01*
X0143890Y0157400D01*
X0137200Y0157400D01*
X0137200Y0158200D01*
X0136400Y0158200D01*
X0136400Y0162100D01*
X0133662Y0162100D01*
X0132993Y0161994D01*
X0132349Y0161785D01*
X0131746Y0161478D01*
X0131199Y0161080D01*
X0130720Y0160601D01*
X0130322Y0160054D01*
X0130015Y0159451D01*
X0129806Y0158807D01*
X0129710Y0158200D01*
X0136400Y0158200D01*
X0136400Y0157400D01*
X0129710Y0157400D01*
X0129806Y0156793D01*
X0130015Y0156149D01*
X0130322Y0155546D01*
X0130720Y0154999D01*
X0131199Y0154520D01*
X0131746Y0154122D01*
X0132219Y0153881D01*
X0130431Y0153141D01*
X0128659Y0151369D01*
X0127700Y0149053D01*
X0127700Y0146547D01*
X0128659Y0144231D01*
X0130090Y0142800D01*
X0128659Y0141369D01*
X0127700Y0139053D01*
X0127700Y0138930D01*
X0127516Y0139114D01*
X0125429Y0139978D01*
X0124703Y0139978D01*
X0124236Y0140445D01*
X0122655Y0141100D01*
X0088445Y0141100D01*
X0086864Y0140445D01*
X0083155Y0136736D01*
X0082500Y0135155D01*
X0082500Y0112478D01*
X0080671Y0112478D01*
X0078584Y0111614D01*
X0078070Y0111100D01*
X0053445Y0111100D01*
X0051864Y0110445D01*
X0040655Y0099236D01*
X0040000Y0097655D01*
X0040000Y0060530D01*
X0039486Y0060016D01*
X0038622Y0057929D01*
X0038622Y0055671D01*
X0039486Y0053584D01*
X0040000Y0053070D01*
X0040000Y0047588D01*
X0039262Y0046850D01*
X0038710Y0048182D01*
X0037900Y0048992D01*
X0037900Y0059608D01*
X0038710Y0060418D01*
X0039700Y0062807D01*
X0039700Y0071393D01*
X0038710Y0073782D01*
X0036882Y0075610D01*
X0034493Y0076600D01*
X0031907Y0076600D01*
X0029518Y0075610D01*
X0027690Y0073782D01*
X0026700Y0071393D01*
X0026700Y0062807D01*
X0027690Y0060418D01*
X0028500Y0059608D01*
X0028500Y0048992D01*
X0027690Y0048182D01*
X0026700Y0045793D01*
X0026700Y0037207D01*
X0027690Y0034818D01*
X0029518Y0032990D01*
X0031907Y0032000D01*
X0034493Y0032000D01*
X0036882Y0032990D01*
X0038710Y0034818D01*
X0039700Y0037207D01*
X0039700Y0038202D01*
X0040191Y0037711D01*
X0040674Y0037511D01*
X0040674Y0036355D01*
X0043800Y0036355D01*
X0043800Y0035355D01*
X0044800Y0035355D01*
X0044800Y0032288D01*
X0046623Y0032288D01*
X0047005Y0032390D01*
X0047347Y0032588D01*
X0047626Y0032867D01*
X0047824Y0033209D01*
X0047926Y0033591D01*
X0047926Y0035355D01*
X0044800Y0035355D01*
X0044800Y0036355D01*
X0047926Y0036355D01*
X0047926Y0037511D01*
X0048409Y0037711D01*
X0049393Y0038695D01*
X0049926Y0039982D01*
X0049926Y0045508D01*
X0049393Y0046794D01*
X0048600Y0047588D01*
X0048600Y0053070D01*
X0049114Y0053584D01*
X0049978Y0055671D01*
X0049978Y0057929D01*
X0049114Y0060016D01*
X0048600Y0060530D01*
X0048600Y0095019D01*
X0056081Y0102500D01*
X0078070Y0102500D01*
X0078584Y0101986D01*
X0080671Y0101122D01*
X0082500Y0101122D01*
X0082500Y0096710D01*
X0081800Y0096010D01*
X0080369Y0097441D01*
X0078053Y0098400D01*
X0075547Y0098400D01*
X0073231Y0097441D01*
X0071800Y0096010D01*
X0070369Y0097441D01*
X0068053Y0098400D01*
X0065547Y0098400D01*
X0063231Y0097441D01*
X0061800Y0096010D01*
X0060369Y0097441D01*
X0058053Y0098400D01*
X0055547Y0098400D01*
X0053231Y0097441D01*
X0051459Y0095669D01*
X0050500Y0093353D01*
X0050500Y0085247D01*
X0051459Y0082931D01*
X0053231Y0081159D01*
X0055547Y0080200D01*
X0058053Y0080200D01*
X0060369Y0081159D01*
X0061800Y0082590D01*
X0063231Y0081159D01*
X0065547Y0080200D01*
X0068053Y0080200D01*
X0070369Y0081159D01*
X0071800Y0082590D01*
X0073231Y0081159D01*
X0075547Y0080200D01*
X0078053Y0080200D01*
X0080369Y0081159D01*
X0081800Y0082590D01*
X0083231Y0081159D01*
X0085547Y0080200D01*
X0088053Y0080200D01*
X0090369Y0081159D01*
X0091800Y0082590D01*
X0093231Y0081159D01*
X0095547Y0080200D01*
X0098053Y0080200D01*
X0100369Y0081159D01*
X0102141Y0082931D01*
X0102881Y0084719D01*
X0103122Y0084246D01*
X0103520Y0083699D01*
X0103999Y0083220D01*
X0104546Y0082822D01*
X0105149Y0082515D01*
X0105793Y0082306D01*
X0106400Y0082210D01*
X0106400Y0088900D01*
X0107200Y0088900D01*
X0107200Y0082210D01*
X0107807Y0082306D01*
X0108451Y0082515D01*
X0109054Y0082822D01*
X0109601Y0083220D01*
X0110000Y0083619D01*
X0110000Y0081100D01*
X0100945Y0081100D01*
X0099364Y0080445D01*
X0083155Y0064236D01*
X0082500Y0062655D01*
X0082500Y0060530D01*
X0081986Y0060016D01*
X0081122Y0057929D01*
X0081122Y0055671D01*
X0081986Y0053584D01*
X0082100Y0053470D01*
X0082100Y0047188D01*
X0081762Y0046850D01*
X0081210Y0048182D01*
X0080946Y0048446D01*
X0080946Y0060154D01*
X0081210Y0060418D01*
X0082200Y0062807D01*
X0082200Y0071393D01*
X0081210Y0073782D01*
X0079382Y0075610D01*
X0076993Y0076600D01*
X0074407Y0076600D01*
X0072018Y0075610D01*
X0070190Y0073782D01*
X0069200Y0071393D01*
X0069200Y0062807D01*
X0070190Y0060418D01*
X0071546Y0059061D01*
X0071546Y0049539D01*
X0070190Y0048182D01*
X0069200Y0045793D01*
X0069200Y0037207D01*
X0070190Y0034818D01*
X0072018Y0032990D01*
X0074407Y0032000D01*
X0076993Y0032000D01*
X0079382Y0032990D01*
X0081210Y0034818D01*
X0082200Y0037207D01*
X0082200Y0038202D01*
X0082691Y0037711D01*
X0083174Y0037511D01*
X0083174Y0036355D01*
X0086300Y0036355D01*
X0086300Y0035355D01*
X0086300Y0032288D01*
X0086300Y0032754D02*
X0087300Y0032754D01*
X0087300Y0033752D02*
X0086300Y0033752D01*
X0086300Y0034751D02*
X0087300Y0034751D01*
X0087300Y0035749D02*
X0101836Y0035749D01*
X0101968Y0035568D02*
X0102468Y0035068D01*
X0103041Y0034651D01*
X0103673Y0034330D01*
X0104346Y0034111D01*
X0104900Y0034023D01*
X0104900Y0041000D01*
X0100900Y0041000D01*
X0100900Y0038146D01*
X0101011Y0037446D01*
X0101230Y0036773D01*
X0101551Y0036141D01*
X0101968Y0035568D01*
X0102904Y0034751D02*
X0090426Y0034751D01*
X0090426Y0033752D02*
X0118755Y0033752D01*
X0119518Y0032990D02*
X0121907Y0032000D01*
X0124493Y0032000D01*
X0126882Y0032990D01*
X0128710Y0034818D01*
X0129700Y0037207D01*
X0129700Y0045793D01*
X0128710Y0048182D01*
X0127900Y0048992D01*
X0127900Y0059608D01*
X0128710Y0060418D01*
X0129700Y0062807D01*
X0129700Y0071393D01*
X0128710Y0073782D01*
X0126882Y0075610D01*
X0124493Y0076600D01*
X0121907Y0076600D01*
X0119518Y0075610D01*
X0117690Y0073782D01*
X0116700Y0071393D01*
X0116700Y0062807D01*
X0117690Y0060418D01*
X0118500Y0059608D01*
X0118500Y0048992D01*
X0117690Y0048182D01*
X0116700Y0045793D01*
X0116700Y0037207D01*
X0117690Y0034818D01*
X0119518Y0032990D01*
X0120087Y0032754D02*
X0090013Y0032754D01*
X0090426Y0036748D02*
X0101242Y0036748D01*
X0100963Y0037746D02*
X0090944Y0037746D01*
X0091914Y0038745D02*
X0100900Y0038745D01*
X0100900Y0039743D02*
X0092327Y0039743D01*
X0092426Y0040742D02*
X0100900Y0040742D01*
X0100900Y0042000D02*
X0104900Y0042000D01*
X0104900Y0048977D01*
X0104346Y0048889D01*
X0103673Y0048670D01*
X0103041Y0048349D01*
X0102468Y0047932D01*
X0101968Y0047432D01*
X0101551Y0046859D01*
X0101230Y0046227D01*
X0101011Y0045554D01*
X0100900Y0044854D01*
X0100900Y0042000D01*
X0100900Y0042739D02*
X0092426Y0042739D01*
X0092426Y0043737D02*
X0100900Y0043737D01*
X0100900Y0044736D02*
X0092426Y0044736D01*
X0092332Y0045734D02*
X0101070Y0045734D01*
X0101487Y0046733D02*
X0091919Y0046733D01*
X0091500Y0047732D02*
X0102268Y0047732D01*
X0103856Y0048730D02*
X0091500Y0048730D01*
X0091500Y0049729D02*
X0118500Y0049729D01*
X0118500Y0050727D02*
X0091500Y0050727D01*
X0091500Y0051726D02*
X0118500Y0051726D01*
X0118500Y0052724D02*
X0091500Y0052724D01*
X0091671Y0053723D02*
X0118500Y0053723D01*
X0118500Y0054721D02*
X0092085Y0054721D01*
X0092478Y0055720D02*
X0118500Y0055720D01*
X0118500Y0056718D02*
X0092478Y0056718D01*
X0092478Y0057717D02*
X0118500Y0057717D01*
X0118500Y0058715D02*
X0092152Y0058715D01*
X0091739Y0059714D02*
X0104337Y0059714D01*
X0104346Y0059711D02*
X0104900Y0059623D01*
X0104900Y0066600D01*
X0100900Y0066600D01*
X0100900Y0063746D01*
X0101011Y0063046D01*
X0101230Y0062373D01*
X0101551Y0061741D01*
X0101968Y0061168D01*
X0102468Y0060668D01*
X0103041Y0060251D01*
X0103673Y0059930D01*
X0104346Y0059711D01*
X0104900Y0059714D02*
X0105900Y0059714D01*
X0105900Y0059623D02*
X0106454Y0059711D01*
X0107127Y0059930D01*
X0107759Y0060251D01*
X0108332Y0060668D01*
X0108832Y0061168D01*
X0109249Y0061741D01*
X0109570Y0062373D01*
X0109789Y0063046D01*
X0109900Y0063746D01*
X0109900Y0066600D01*
X0105900Y0066600D01*
X0105900Y0059623D01*
X0106463Y0059714D02*
X0118394Y0059714D01*
X0117568Y0060712D02*
X0108376Y0060712D01*
X0109226Y0061711D02*
X0117154Y0061711D01*
X0116741Y0062709D02*
X0109680Y0062709D01*
X0109894Y0063708D02*
X0116700Y0063708D01*
X0116700Y0064706D02*
X0109900Y0064706D01*
X0109900Y0065705D02*
X0116700Y0065705D01*
X0116700Y0066703D02*
X0105900Y0066703D01*
X0105900Y0065705D02*
X0104900Y0065705D01*
X0104900Y0066703D02*
X0097784Y0066703D01*
X0096786Y0065705D02*
X0100900Y0065705D01*
X0100900Y0064706D02*
X0095787Y0064706D01*
X0094789Y0063708D02*
X0100906Y0063708D01*
X0101120Y0062709D02*
X0093790Y0062709D01*
X0092792Y0061711D02*
X0101574Y0061711D01*
X0102424Y0060712D02*
X0091793Y0060712D01*
X0086621Y0067702D02*
X0082200Y0067702D01*
X0082200Y0068700D02*
X0087619Y0068700D01*
X0088618Y0069699D02*
X0082200Y0069699D01*
X0082200Y0070697D02*
X0089616Y0070697D01*
X0090615Y0071696D02*
X0082075Y0071696D01*
X0081661Y0072694D02*
X0091613Y0072694D01*
X0092612Y0073693D02*
X0081247Y0073693D01*
X0080301Y0074691D02*
X0093610Y0074691D01*
X0094609Y0075690D02*
X0079190Y0075690D01*
X0079218Y0080682D02*
X0084382Y0080682D01*
X0082710Y0081681D02*
X0080890Y0081681D01*
X0074382Y0080682D02*
X0069218Y0080682D01*
X0070890Y0081681D02*
X0072710Y0081681D01*
X0072210Y0075690D02*
X0048600Y0075690D01*
X0048600Y0076688D02*
X0095607Y0076688D01*
X0096606Y0077687D02*
X0048600Y0077687D01*
X0048600Y0078685D02*
X0097604Y0078685D01*
X0098603Y0079684D02*
X0048600Y0079684D01*
X0048600Y0080682D02*
X0054382Y0080682D01*
X0052710Y0081681D02*
X0048600Y0081681D01*
X0048600Y0082679D02*
X0051711Y0082679D01*
X0051150Y0083678D02*
X0048600Y0083678D01*
X0048600Y0084676D02*
X0050736Y0084676D01*
X0050500Y0085675D02*
X0048600Y0085675D01*
X0048600Y0086673D02*
X0050500Y0086673D01*
X0050500Y0087672D02*
X0048600Y0087672D01*
X0048600Y0088670D02*
X0050500Y0088670D01*
X0050500Y0089669D02*
X0048600Y0089669D01*
X0048600Y0090668D02*
X0050500Y0090668D01*
X0050500Y0091666D02*
X0048600Y0091666D01*
X0048600Y0092665D02*
X0050500Y0092665D01*
X0050628Y0093663D02*
X0048600Y0093663D01*
X0048600Y0094662D02*
X0051042Y0094662D01*
X0051456Y0095660D02*
X0049241Y0095660D01*
X0050240Y0096659D02*
X0052449Y0096659D01*
X0051238Y0097657D02*
X0053753Y0097657D01*
X0052237Y0098656D02*
X0082500Y0098656D01*
X0082500Y0099654D02*
X0053235Y0099654D01*
X0054234Y0100653D02*
X0082500Y0100653D01*
X0082500Y0097657D02*
X0079847Y0097657D01*
X0081151Y0096659D02*
X0082449Y0096659D01*
X0079393Y0101651D02*
X0055232Y0101651D01*
X0059847Y0097657D02*
X0063753Y0097657D01*
X0062449Y0096659D02*
X0061151Y0096659D01*
X0052329Y0110638D02*
X0007100Y0110638D01*
X0007100Y0111636D02*
X0078639Y0111636D01*
X0082500Y0112635D02*
X0007100Y0112635D01*
X0007100Y0113633D02*
X0082500Y0113633D01*
X0082500Y0114632D02*
X0007100Y0114632D01*
X0007100Y0115630D02*
X0082500Y0115630D01*
X0082500Y0116629D02*
X0007100Y0116629D01*
X0007100Y0117627D02*
X0082500Y0117627D01*
X0082500Y0118626D02*
X0007100Y0118626D01*
X0007100Y0119624D02*
X0082500Y0119624D01*
X0082500Y0120623D02*
X0007100Y0120623D01*
X0007100Y0121621D02*
X0082500Y0121621D01*
X0082500Y0122620D02*
X0007100Y0122620D01*
X0007100Y0123618D02*
X0082500Y0123618D01*
X0082500Y0124617D02*
X0007100Y0124617D01*
X0007100Y0125615D02*
X0082500Y0125615D01*
X0082500Y0126614D02*
X0007100Y0126614D01*
X0007100Y0127612D02*
X0082500Y0127612D01*
X0082500Y0128611D02*
X0007100Y0128611D01*
X0007100Y0129609D02*
X0082500Y0129609D01*
X0082500Y0130608D02*
X0007100Y0130608D01*
X0007100Y0131606D02*
X0082500Y0131606D01*
X0082500Y0132605D02*
X0007100Y0132605D01*
X0007100Y0133603D02*
X0082500Y0133603D01*
X0082500Y0134602D02*
X0007100Y0134602D01*
X0007100Y0135601D02*
X0082684Y0135601D01*
X0083098Y0136599D02*
X0007100Y0136599D01*
X0007100Y0137598D02*
X0084016Y0137598D01*
X0085015Y0138596D02*
X0007100Y0138596D01*
X0007100Y0139595D02*
X0086013Y0139595D01*
X0087221Y0140593D02*
X0007100Y0140593D01*
X0007100Y0141592D02*
X0128882Y0141592D01*
X0128338Y0140593D02*
X0123879Y0140593D01*
X0126355Y0139595D02*
X0127924Y0139595D01*
X0129881Y0142590D02*
X0007100Y0142590D01*
X0007100Y0143589D02*
X0129302Y0143589D01*
X0128512Y0144587D02*
X0007100Y0144587D01*
X0007100Y0145586D02*
X0128098Y0145586D01*
X0127700Y0146584D02*
X0007100Y0146584D01*
X0007100Y0147583D02*
X0127700Y0147583D01*
X0127700Y0148581D02*
X0007100Y0148581D01*
X0007100Y0149580D02*
X0127918Y0149580D01*
X0128332Y0150578D02*
X0007100Y0150578D01*
X0007100Y0151577D02*
X0095087Y0151577D01*
X0095710Y0151319D02*
X0093695Y0152153D01*
X0093349Y0152500D01*
X0053445Y0152500D01*
X0051864Y0153155D01*
X0050655Y0154364D01*
X0045655Y0159364D01*
X0045000Y0160945D01*
X0045000Y0174052D01*
X0044996Y0174050D01*
X0033604Y0174050D01*
X0032317Y0174583D01*
X0031333Y0175567D01*
X0030800Y0176854D01*
X0030800Y0177850D01*
X0027615Y0177850D01*
X0025888Y0178566D01*
X0023953Y0180500D01*
X0020247Y0180500D01*
X0017931Y0181459D01*
X0016159Y0183231D01*
X0015200Y0185547D01*
X0015200Y0188053D01*
X0016159Y0190369D01*
X0017590Y0191800D01*
X0016159Y0193231D01*
X0015200Y0195547D01*
X0015200Y0198053D01*
X0016159Y0200369D01*
X0017931Y0202141D01*
X0020247Y0203100D01*
X0023953Y0203100D01*
X0025888Y0205034D01*
X0027615Y0205750D01*
X0030800Y0205750D01*
X0030800Y0206746D01*
X0031333Y0208033D01*
X0032317Y0209017D01*
X0033604Y0209550D01*
X0044996Y0209550D01*
X0046283Y0209017D01*
X0047267Y0208033D01*
X0047800Y0206746D01*
X0047800Y0204381D01*
X0051736Y0200445D01*
X0052945Y0199236D01*
X0053600Y0197655D01*
X0053600Y0189550D01*
X0055592Y0190375D01*
X0058008Y0190375D01*
X0060241Y0189450D01*
X0061800Y0187891D01*
X0063359Y0189450D01*
X0065592Y0190375D01*
X0068008Y0190375D01*
X0070241Y0189450D01*
X0071800Y0187891D01*
X0073359Y0189450D01*
X0075592Y0190375D01*
X0078008Y0190375D01*
X0080241Y0189450D01*
X0081800Y0187891D01*
X0083359Y0189450D01*
X0085592Y0190375D01*
X0088008Y0190375D01*
X0090241Y0189450D01*
X0091800Y0187891D01*
X0093359Y0189450D01*
X0095592Y0190375D01*
X0098008Y0190375D01*
X0100241Y0189450D01*
X0101950Y0187741D01*
X0102875Y0185508D01*
X0102875Y0183092D01*
X0101950Y0180859D01*
X0100241Y0179150D01*
X0098008Y0178225D01*
X0095592Y0178225D01*
X0093359Y0179150D01*
X0091800Y0180709D01*
X0090241Y0179150D01*
X0088008Y0178225D01*
X0085592Y0178225D01*
X0083359Y0179150D01*
X0081800Y0180709D01*
X0080241Y0179150D01*
X0078008Y0178225D01*
X0075592Y0178225D01*
X0073359Y0179150D01*
X0071800Y0180709D01*
X0070241Y0179150D01*
X0068008Y0178225D01*
X0065592Y0178225D01*
X0063359Y0179150D01*
X0061800Y0180709D01*
X0060241Y0179150D01*
X0058008Y0178225D01*
X0055592Y0178225D01*
X0053600Y0179050D01*
X0053600Y0163581D01*
X0056081Y0161100D01*
X0093349Y0161100D01*
X0093695Y0161447D01*
X0095710Y0162281D01*
X0097890Y0162281D01*
X0099905Y0161447D01*
X0101447Y0159905D01*
X0102281Y0157890D01*
X0102281Y0155710D01*
X0101447Y0153695D01*
X0099905Y0152153D01*
X0097890Y0151319D01*
X0095710Y0151319D01*
X0098513Y0151577D02*
X0128867Y0151577D01*
X0129866Y0152575D02*
X0100327Y0152575D01*
X0101325Y0153574D02*
X0131476Y0153574D01*
X0131147Y0154572D02*
X0101810Y0154572D01*
X0102224Y0155571D02*
X0130310Y0155571D01*
X0129879Y0156569D02*
X0102281Y0156569D01*
X0102281Y0157568D02*
X0136400Y0157568D01*
X0137200Y0157568D02*
X0146500Y0157568D01*
X0146500Y0158566D02*
X0143832Y0158566D01*
X0143794Y0158807D02*
X0143585Y0159451D01*
X0143278Y0160054D01*
X0142880Y0160601D01*
X0142401Y0161080D01*
X0141854Y0161478D01*
X0141251Y0161785D01*
X0140607Y0161994D01*
X0139938Y0162100D01*
X0137200Y0162100D01*
X0137200Y0158200D01*
X0143890Y0158200D01*
X0143794Y0158807D01*
X0143527Y0159565D02*
X0146500Y0159565D01*
X0146500Y0160563D02*
X0142907Y0160563D01*
X0141689Y0161562D02*
X0146500Y0161562D01*
X0146500Y0162560D02*
X0054621Y0162560D01*
X0055619Y0161562D02*
X0093973Y0161562D01*
X0099627Y0161562D02*
X0131911Y0161562D01*
X0130693Y0160563D02*
X0100788Y0160563D01*
X0101587Y0159565D02*
X0130073Y0159565D01*
X0129768Y0158566D02*
X0102001Y0158566D01*
X0098760Y0178537D02*
X0146500Y0178537D01*
X0146500Y0179535D02*
X0100626Y0179535D01*
X0101625Y0180534D02*
X0146500Y0180534D01*
X0146500Y0181532D02*
X0102229Y0181532D01*
X0102642Y0182531D02*
X0146500Y0182531D01*
X0146500Y0183529D02*
X0102875Y0183529D01*
X0102875Y0184528D02*
X0146500Y0184528D01*
X0146500Y0185526D02*
X0102867Y0185526D01*
X0102454Y0186525D02*
X0146500Y0186525D01*
X0146500Y0187523D02*
X0102040Y0187523D01*
X0101169Y0188522D02*
X0146500Y0188522D01*
X0146500Y0189520D02*
X0100072Y0189520D01*
X0094840Y0178537D02*
X0088760Y0178537D01*
X0090626Y0179535D02*
X0092974Y0179535D01*
X0091975Y0180534D02*
X0091625Y0180534D01*
X0091169Y0188522D02*
X0092431Y0188522D01*
X0093528Y0189520D02*
X0090072Y0189520D01*
X0083528Y0189520D02*
X0080072Y0189520D01*
X0081169Y0188522D02*
X0082431Y0188522D01*
X0081975Y0180534D02*
X0081625Y0180534D01*
X0080626Y0179535D02*
X0082974Y0179535D01*
X0084840Y0178537D02*
X0078760Y0178537D01*
X0074840Y0178537D02*
X0068760Y0178537D01*
X0070626Y0179535D02*
X0072974Y0179535D01*
X0071975Y0180534D02*
X0071625Y0180534D01*
X0071169Y0188522D02*
X0072431Y0188522D01*
X0073528Y0189520D02*
X0070072Y0189520D01*
X0063528Y0189520D02*
X0060072Y0189520D01*
X0061169Y0188522D02*
X0062431Y0188522D01*
X0061975Y0180534D02*
X0061625Y0180534D01*
X0060626Y0179535D02*
X0062974Y0179535D01*
X0064840Y0178537D02*
X0058760Y0178537D01*
X0054840Y0178537D02*
X0053600Y0178537D01*
X0053600Y0177538D02*
X0146500Y0177538D01*
X0146500Y0176539D02*
X0053600Y0176539D01*
X0053600Y0175541D02*
X0146500Y0175541D01*
X0146500Y0174542D02*
X0053600Y0174542D01*
X0053600Y0173544D02*
X0146500Y0173544D01*
X0146500Y0172545D02*
X0053600Y0172545D01*
X0053600Y0171547D02*
X0146500Y0171547D01*
X0146500Y0170548D02*
X0053600Y0170548D01*
X0053600Y0169550D02*
X0146500Y0169550D01*
X0146500Y0168551D02*
X0053600Y0168551D01*
X0053600Y0167553D02*
X0146500Y0167553D01*
X0146500Y0166554D02*
X0053600Y0166554D01*
X0053600Y0165556D02*
X0146500Y0165556D01*
X0146500Y0164557D02*
X0053600Y0164557D01*
X0053622Y0163559D02*
X0146500Y0163559D01*
X0146500Y0156569D02*
X0143721Y0156569D01*
X0143290Y0155571D02*
X0146500Y0155571D01*
X0146500Y0154572D02*
X0142453Y0154572D01*
X0142124Y0153574D02*
X0146500Y0153574D01*
X0146500Y0152575D02*
X0143734Y0152575D01*
X0144733Y0151577D02*
X0146500Y0151577D01*
X0146500Y0150578D02*
X0145268Y0150578D01*
X0145682Y0149580D02*
X0146500Y0149580D01*
X0146500Y0148581D02*
X0145900Y0148581D01*
X0145900Y0147583D02*
X0146500Y0147583D01*
X0146500Y0146584D02*
X0145900Y0146584D01*
X0145502Y0145586D02*
X0146500Y0145586D01*
X0146500Y0144587D02*
X0145088Y0144587D01*
X0144298Y0143589D02*
X0146500Y0143589D01*
X0146500Y0142590D02*
X0143719Y0142590D01*
X0144718Y0141592D02*
X0146500Y0141592D01*
X0146500Y0140593D02*
X0145262Y0140593D01*
X0145676Y0139595D02*
X0146500Y0139595D01*
X0146500Y0138596D02*
X0145900Y0138596D01*
X0145900Y0137598D02*
X0146500Y0137598D01*
X0146500Y0136599D02*
X0145900Y0136599D01*
X0145508Y0135601D02*
X0146500Y0135601D01*
X0146500Y0134602D02*
X0145094Y0134602D01*
X0144313Y0133603D02*
X0146500Y0133603D01*
X0146500Y0132605D02*
X0143705Y0132605D01*
X0144703Y0131606D02*
X0146500Y0131606D01*
X0146500Y0130608D02*
X0145256Y0130608D01*
X0145670Y0129609D02*
X0146500Y0129609D01*
X0146500Y0128611D02*
X0145900Y0128611D01*
X0145900Y0127612D02*
X0146500Y0127612D01*
X0146500Y0126614D02*
X0145900Y0126614D01*
X0145514Y0125615D02*
X0146500Y0125615D01*
X0146500Y0124617D02*
X0145101Y0124617D01*
X0144328Y0123618D02*
X0146500Y0123618D01*
X0146500Y0122620D02*
X0143329Y0122620D01*
X0141146Y0121621D02*
X0146500Y0121621D01*
X0146500Y0120623D02*
X0135950Y0120623D01*
X0135950Y0119624D02*
X0146500Y0119624D01*
X0146500Y0118626D02*
X0135950Y0118626D01*
X0135950Y0117627D02*
X0146500Y0117627D01*
X0146500Y0116629D02*
X0135950Y0116629D01*
X0135950Y0115630D02*
X0146500Y0115630D01*
X0146500Y0114632D02*
X0135950Y0114632D01*
X0135950Y0113633D02*
X0146500Y0113633D01*
X0146500Y0112635D02*
X0135950Y0112635D01*
X0135950Y0111636D02*
X0146500Y0111636D01*
X0146500Y0110638D02*
X0135950Y0110638D01*
X0135950Y0109639D02*
X0146500Y0109639D01*
X0146500Y0108641D02*
X0135950Y0108641D01*
X0135950Y0107642D02*
X0146500Y0107642D01*
X0146500Y0106644D02*
X0135950Y0106644D01*
X0135950Y0105645D02*
X0146500Y0105645D01*
X0146500Y0104647D02*
X0135705Y0104647D01*
X0135114Y0103648D02*
X0146500Y0103648D01*
X0146500Y0102650D02*
X0133667Y0102650D01*
X0132647Y0099166D02*
X0129800Y0099166D01*
X0129800Y0090292D01*
X0133950Y0090292D01*
X0133950Y0097864D01*
X0133847Y0098245D01*
X0133650Y0098587D01*
X0133371Y0098866D01*
X0133029Y0099064D01*
X0132647Y0099166D01*
X0133581Y0098656D02*
X0146500Y0098656D01*
X0146500Y0099654D02*
X0117527Y0099654D01*
X0118186Y0098656D02*
X0125019Y0098656D01*
X0124950Y0098587D02*
X0124753Y0098245D01*
X0124650Y0097864D01*
X0124650Y0090292D01*
X0128800Y0090292D01*
X0128800Y0089292D01*
X0129800Y0089292D01*
X0129800Y0080418D01*
X0132647Y0080418D01*
X0133029Y0080520D01*
X0133371Y0080718D01*
X0133650Y0080997D01*
X0133847Y0081339D01*
X0133950Y0081721D01*
X0133950Y0089292D01*
X0129800Y0089292D01*
X0129800Y0090292D01*
X0128800Y0090292D01*
X0128800Y0099166D01*
X0125953Y0099166D01*
X0125571Y0099064D01*
X0125229Y0098866D01*
X0124950Y0098587D01*
X0124650Y0097657D02*
X0118599Y0097657D01*
X0118600Y0096659D02*
X0124650Y0096659D01*
X0124650Y0095660D02*
X0118600Y0095660D01*
X0118600Y0094662D02*
X0124650Y0094662D01*
X0124650Y0093663D02*
X0118600Y0093663D01*
X0118600Y0092665D02*
X0124650Y0092665D01*
X0124650Y0091666D02*
X0118600Y0091666D01*
X0118600Y0090668D02*
X0124650Y0090668D01*
X0124650Y0089292D02*
X0124650Y0081721D01*
X0124753Y0081339D01*
X0124950Y0080997D01*
X0125229Y0080718D01*
X0125571Y0080520D01*
X0125953Y0080418D01*
X0128800Y0080418D01*
X0128800Y0089292D01*
X0124650Y0089292D01*
X0124650Y0088670D02*
X0118600Y0088670D01*
X0118600Y0087672D02*
X0124650Y0087672D01*
X0124650Y0086673D02*
X0118600Y0086673D01*
X0118600Y0085675D02*
X0124650Y0085675D01*
X0124650Y0084676D02*
X0118600Y0084676D01*
X0118600Y0083678D02*
X0124650Y0083678D01*
X0124650Y0082679D02*
X0118600Y0082679D01*
X0118600Y0081681D02*
X0124661Y0081681D01*
X0125291Y0080682D02*
X0118600Y0080682D01*
X0118600Y0079684D02*
X0146500Y0079684D01*
X0146500Y0080682D02*
X0133309Y0080682D01*
X0133939Y0081681D02*
X0146500Y0081681D01*
X0146500Y0082679D02*
X0133950Y0082679D01*
X0133950Y0083678D02*
X0146500Y0083678D01*
X0146500Y0084676D02*
X0133950Y0084676D01*
X0133950Y0085675D02*
X0146500Y0085675D01*
X0146500Y0086673D02*
X0133950Y0086673D01*
X0133950Y0087672D02*
X0146500Y0087672D01*
X0146500Y0088670D02*
X0133950Y0088670D01*
X0133950Y0090668D02*
X0146500Y0090668D01*
X0146500Y0091666D02*
X0133950Y0091666D01*
X0133950Y0092665D02*
X0146500Y0092665D01*
X0146500Y0093663D02*
X0133950Y0093663D01*
X0133950Y0094662D02*
X0146500Y0094662D01*
X0146500Y0095660D02*
X0133950Y0095660D01*
X0133950Y0096659D02*
X0146500Y0096659D01*
X0146500Y0097657D02*
X0133950Y0097657D01*
X0129800Y0097657D02*
X0128800Y0097657D01*
X0128800Y0096659D02*
X0129800Y0096659D01*
X0129800Y0095660D02*
X0128800Y0095660D01*
X0128800Y0094662D02*
X0129800Y0094662D01*
X0129800Y0093663D02*
X0128800Y0093663D01*
X0128800Y0092665D02*
X0129800Y0092665D01*
X0129800Y0091666D02*
X0128800Y0091666D01*
X0128800Y0090668D02*
X0129800Y0090668D01*
X0129800Y0089669D02*
X0146500Y0089669D01*
X0146500Y0078685D02*
X0118600Y0078685D01*
X0118286Y0077687D02*
X0146500Y0077687D01*
X0146500Y0076688D02*
X0117769Y0076688D01*
X0116771Y0075690D02*
X0119710Y0075690D01*
X0118599Y0074691D02*
X0115772Y0074691D01*
X0114774Y0073693D02*
X0117653Y0073693D01*
X0117239Y0072694D02*
X0113124Y0072694D01*
X0109613Y0071696D02*
X0116825Y0071696D01*
X0116700Y0070697D02*
X0109861Y0070697D01*
X0109900Y0069699D02*
X0116700Y0069699D01*
X0116700Y0068700D02*
X0109900Y0068700D01*
X0109900Y0067702D02*
X0116700Y0067702D01*
X0110000Y0081681D02*
X0100890Y0081681D01*
X0099937Y0080682D02*
X0099218Y0080682D01*
X0101889Y0082679D02*
X0104827Y0082679D01*
X0106400Y0082679D02*
X0107200Y0082679D01*
X0107200Y0083678D02*
X0106400Y0083678D01*
X0106400Y0084676D02*
X0107200Y0084676D01*
X0107200Y0085675D02*
X0106400Y0085675D01*
X0106400Y0086673D02*
X0107200Y0086673D01*
X0107200Y0087672D02*
X0106400Y0087672D01*
X0106400Y0088670D02*
X0107200Y0088670D01*
X0103541Y0083678D02*
X0102450Y0083678D01*
X0102864Y0084676D02*
X0102903Y0084676D01*
X0108773Y0082679D02*
X0110000Y0082679D01*
X0103346Y0094662D02*
X0102558Y0094662D01*
X0102144Y0095660D02*
X0104359Y0095660D01*
X0103360Y0096659D02*
X0101151Y0096659D01*
X0102362Y0097657D02*
X0099847Y0097657D01*
X0100590Y0098656D02*
X0096100Y0098656D01*
X0096100Y0099654D02*
X0098416Y0099654D01*
X0097418Y0100653D02*
X0096100Y0100653D01*
X0096100Y0101651D02*
X0096751Y0101651D01*
X0096338Y0102650D02*
X0096100Y0102650D01*
X0096100Y0103648D02*
X0096122Y0103648D01*
X0096100Y0104647D02*
X0096122Y0104647D01*
X0096100Y0105645D02*
X0096211Y0105645D01*
X0096100Y0106644D02*
X0096625Y0106644D01*
X0097112Y0107642D02*
X0096100Y0107642D01*
X0096100Y0108641D02*
X0098111Y0108641D01*
X0099853Y0109639D02*
X0096100Y0109639D01*
X0096100Y0110638D02*
X0122650Y0110638D01*
X0122650Y0111636D02*
X0096100Y0111636D01*
X0096100Y0112635D02*
X0122650Y0112635D01*
X0122650Y0113633D02*
X0096100Y0113633D01*
X0096100Y0114632D02*
X0122650Y0114632D01*
X0122650Y0115630D02*
X0096100Y0115630D01*
X0096100Y0116629D02*
X0122650Y0116629D01*
X0122650Y0117627D02*
X0096100Y0117627D01*
X0096100Y0118626D02*
X0122650Y0118626D01*
X0122650Y0119624D02*
X0096100Y0119624D01*
X0096100Y0120623D02*
X0122650Y0120623D01*
X0122650Y0121621D02*
X0096100Y0121621D01*
X0096201Y0122620D02*
X0122751Y0122620D01*
X0122650Y0109639D02*
X0103747Y0109639D01*
X0105489Y0108641D02*
X0122650Y0108641D01*
X0122650Y0107642D02*
X0106488Y0107642D01*
X0106975Y0106644D02*
X0122650Y0106644D01*
X0122650Y0105645D02*
X0107389Y0105645D01*
X0107534Y0104647D02*
X0122895Y0104647D01*
X0123486Y0103648D02*
X0108533Y0103648D01*
X0114531Y0102650D02*
X0124933Y0102650D01*
X0128800Y0098656D02*
X0129800Y0098656D01*
X0128800Y0089669D02*
X0118600Y0089669D01*
X0116528Y0100653D02*
X0146500Y0100653D01*
X0146500Y0101651D02*
X0115530Y0101651D01*
X0128800Y0088670D02*
X0129800Y0088670D01*
X0129800Y0087672D02*
X0128800Y0087672D01*
X0128800Y0086673D02*
X0129800Y0086673D01*
X0129800Y0085675D02*
X0128800Y0085675D01*
X0128800Y0084676D02*
X0129800Y0084676D01*
X0129800Y0083678D02*
X0128800Y0083678D01*
X0128800Y0082679D02*
X0129800Y0082679D01*
X0129800Y0081681D02*
X0128800Y0081681D01*
X0128800Y0080682D02*
X0129800Y0080682D01*
X0126690Y0075690D02*
X0146500Y0075690D01*
X0146500Y0074691D02*
X0127801Y0074691D01*
X0128747Y0073693D02*
X0146500Y0073693D01*
X0146500Y0072694D02*
X0129161Y0072694D01*
X0129575Y0071696D02*
X0146500Y0071696D01*
X0146500Y0070697D02*
X0129700Y0070697D01*
X0129700Y0069699D02*
X0146500Y0069699D01*
X0146500Y0068700D02*
X0129700Y0068700D01*
X0129700Y0067702D02*
X0146500Y0067702D01*
X0146500Y0066703D02*
X0129700Y0066703D01*
X0129700Y0065705D02*
X0146500Y0065705D01*
X0146500Y0064706D02*
X0129700Y0064706D01*
X0129700Y0063708D02*
X0146500Y0063708D01*
X0146500Y0062709D02*
X0129659Y0062709D01*
X0129246Y0061711D02*
X0146500Y0061711D01*
X0146500Y0060712D02*
X0128832Y0060712D01*
X0128006Y0059714D02*
X0146500Y0059714D01*
X0146500Y0058715D02*
X0127900Y0058715D01*
X0127900Y0057717D02*
X0146500Y0057717D01*
X0146500Y0056718D02*
X0127900Y0056718D01*
X0127900Y0055720D02*
X0146500Y0055720D01*
X0146500Y0054721D02*
X0127900Y0054721D01*
X0127900Y0053723D02*
X0146500Y0053723D01*
X0146500Y0052724D02*
X0127900Y0052724D01*
X0127900Y0051726D02*
X0146500Y0051726D01*
X0146500Y0050727D02*
X0127900Y0050727D01*
X0127900Y0049729D02*
X0146500Y0049729D01*
X0146500Y0048730D02*
X0128162Y0048730D01*
X0128897Y0047732D02*
X0146500Y0047732D01*
X0146500Y0046733D02*
X0129311Y0046733D01*
X0129700Y0045734D02*
X0146500Y0045734D01*
X0146500Y0044736D02*
X0129700Y0044736D01*
X0129700Y0043737D02*
X0146500Y0043737D01*
X0146500Y0042739D02*
X0129700Y0042739D01*
X0129700Y0041740D02*
X0146500Y0041740D01*
X0146500Y0040742D02*
X0129700Y0040742D01*
X0129700Y0039743D02*
X0146500Y0039743D01*
X0146500Y0038745D02*
X0129700Y0038745D01*
X0129700Y0037746D02*
X0146500Y0037746D01*
X0146500Y0036748D02*
X0129510Y0036748D01*
X0129096Y0035749D02*
X0146500Y0035749D01*
X0146500Y0034751D02*
X0128643Y0034751D01*
X0127645Y0033752D02*
X0146500Y0033752D01*
X0146500Y0032754D02*
X0126313Y0032754D01*
X0117757Y0034751D02*
X0107896Y0034751D01*
X0107759Y0034651D02*
X0108332Y0035068D01*
X0108832Y0035568D01*
X0109249Y0036141D01*
X0109570Y0036773D01*
X0109789Y0037446D01*
X0109900Y0038146D01*
X0109900Y0041000D01*
X0105900Y0041000D01*
X0105900Y0042000D01*
X0104900Y0042000D01*
X0104900Y0041000D01*
X0105900Y0041000D01*
X0105900Y0034023D01*
X0106454Y0034111D01*
X0107127Y0034330D01*
X0107759Y0034651D01*
X0108964Y0035749D02*
X0117304Y0035749D01*
X0116890Y0036748D02*
X0109558Y0036748D01*
X0109837Y0037746D02*
X0116700Y0037746D01*
X0116700Y0038745D02*
X0109900Y0038745D01*
X0109900Y0039743D02*
X0116700Y0039743D01*
X0116700Y0040742D02*
X0109900Y0040742D01*
X0109900Y0042000D02*
X0109900Y0044854D01*
X0109789Y0045554D01*
X0109570Y0046227D01*
X0109249Y0046859D01*
X0108832Y0047432D01*
X0108332Y0047932D01*
X0107759Y0048349D01*
X0107127Y0048670D01*
X0106454Y0048889D01*
X0105900Y0048977D01*
X0105900Y0042000D01*
X0109900Y0042000D01*
X0109900Y0042739D02*
X0116700Y0042739D01*
X0116700Y0043737D02*
X0109900Y0043737D01*
X0109900Y0044736D02*
X0116700Y0044736D01*
X0116700Y0045734D02*
X0109730Y0045734D01*
X0109313Y0046733D02*
X0117089Y0046733D01*
X0117503Y0047732D02*
X0108532Y0047732D01*
X0106944Y0048730D02*
X0118238Y0048730D01*
X0116700Y0041740D02*
X0105900Y0041740D01*
X0105900Y0040742D02*
X0104900Y0040742D01*
X0104900Y0041740D02*
X0092426Y0041740D01*
X0086300Y0035749D02*
X0081596Y0035749D01*
X0082010Y0036748D02*
X0083174Y0036748D01*
X0082656Y0037746D02*
X0082200Y0037746D01*
X0083174Y0034751D02*
X0081143Y0034751D01*
X0080145Y0033752D02*
X0083174Y0033752D01*
X0083587Y0032754D02*
X0078813Y0032754D01*
X0081958Y0026763D02*
X0007100Y0026763D01*
X0007100Y0027761D02*
X0146500Y0027761D01*
X0146500Y0028760D02*
X0007100Y0028760D01*
X0007100Y0029758D02*
X0146500Y0029758D01*
X0146500Y0030757D02*
X0007100Y0030757D01*
X0007100Y0031755D02*
X0146500Y0031755D01*
X0109602Y0016778D02*
X0086498Y0016778D01*
X0082102Y0016778D02*
X0070600Y0016778D01*
X0070600Y0017776D02*
X0080572Y0017776D01*
X0079620Y0018775D02*
X0070600Y0018775D01*
X0070600Y0019773D02*
X0079207Y0019773D01*
X0078819Y0020772D02*
X0070600Y0020772D01*
X0070220Y0021770D02*
X0078819Y0021770D01*
X0078819Y0022769D02*
X0069807Y0022769D01*
X0069042Y0023767D02*
X0079182Y0023767D01*
X0079596Y0024766D02*
X0068044Y0024766D01*
X0065881Y0025764D02*
X0080513Y0025764D01*
X0072587Y0032754D02*
X0047513Y0032754D01*
X0047926Y0033752D02*
X0071255Y0033752D01*
X0070257Y0034751D02*
X0060396Y0034751D01*
X0060259Y0034651D02*
X0060832Y0035068D01*
X0061332Y0035568D01*
X0061749Y0036141D01*
X0062070Y0036773D01*
X0062289Y0037446D01*
X0062400Y0038146D01*
X0062400Y0041000D01*
X0058400Y0041000D01*
X0058400Y0042000D01*
X0057400Y0042000D01*
X0057400Y0048977D01*
X0056846Y0048889D01*
X0056173Y0048670D01*
X0055541Y0048349D01*
X0054968Y0047932D01*
X0054468Y0047432D01*
X0054051Y0046859D01*
X0053730Y0046227D01*
X0053511Y0045554D01*
X0053400Y0044854D01*
X0053400Y0042000D01*
X0057400Y0042000D01*
X0057400Y0041000D01*
X0053400Y0041000D01*
X0053400Y0038146D01*
X0053511Y0037446D01*
X0053730Y0036773D01*
X0054051Y0036141D01*
X0054468Y0035568D01*
X0054968Y0035068D01*
X0055541Y0034651D01*
X0056173Y0034330D01*
X0056846Y0034111D01*
X0057400Y0034023D01*
X0057400Y0041000D01*
X0058400Y0041000D01*
X0058400Y0034023D01*
X0058954Y0034111D01*
X0059627Y0034330D01*
X0060259Y0034651D01*
X0061464Y0035749D02*
X0069804Y0035749D01*
X0069390Y0036748D02*
X0062058Y0036748D01*
X0062337Y0037746D02*
X0069200Y0037746D01*
X0069200Y0038745D02*
X0062400Y0038745D01*
X0062400Y0039743D02*
X0069200Y0039743D01*
X0069200Y0040742D02*
X0062400Y0040742D01*
X0062400Y0042000D02*
X0062400Y0044854D01*
X0062289Y0045554D01*
X0062070Y0046227D01*
X0061749Y0046859D01*
X0061332Y0047432D01*
X0060832Y0047932D01*
X0060259Y0048349D01*
X0059627Y0048670D01*
X0058954Y0048889D01*
X0058400Y0048977D01*
X0058400Y0042000D01*
X0062400Y0042000D01*
X0062400Y0042739D02*
X0069200Y0042739D01*
X0069200Y0043737D02*
X0062400Y0043737D01*
X0062400Y0044736D02*
X0069200Y0044736D01*
X0069200Y0045734D02*
X0062230Y0045734D01*
X0061813Y0046733D02*
X0069589Y0046733D01*
X0070003Y0047732D02*
X0061032Y0047732D01*
X0059444Y0048730D02*
X0070738Y0048730D01*
X0071546Y0049729D02*
X0048600Y0049729D01*
X0048600Y0050727D02*
X0071546Y0050727D01*
X0071546Y0051726D02*
X0048600Y0051726D01*
X0048600Y0052724D02*
X0071546Y0052724D01*
X0071546Y0053723D02*
X0049171Y0053723D01*
X0049585Y0054721D02*
X0071546Y0054721D01*
X0071546Y0055720D02*
X0049978Y0055720D01*
X0049978Y0056718D02*
X0071546Y0056718D01*
X0071546Y0057717D02*
X0049978Y0057717D01*
X0049652Y0058715D02*
X0071546Y0058715D01*
X0070894Y0059714D02*
X0058963Y0059714D01*
X0058954Y0059711D02*
X0059627Y0059930D01*
X0060259Y0060251D01*
X0060832Y0060668D01*
X0061332Y0061168D01*
X0061749Y0061741D01*
X0062070Y0062373D01*
X0062289Y0063046D01*
X0062400Y0063746D01*
X0062400Y0066600D01*
X0058400Y0066600D01*
X0058400Y0067600D01*
X0057400Y0067600D01*
X0057400Y0074577D01*
X0056846Y0074489D01*
X0056173Y0074270D01*
X0055541Y0073949D01*
X0054968Y0073532D01*
X0054468Y0073032D01*
X0054051Y0072459D01*
X0053730Y0071827D01*
X0053511Y0071154D01*
X0053400Y0070454D01*
X0053400Y0067600D01*
X0057400Y0067600D01*
X0057400Y0066600D01*
X0053400Y0066600D01*
X0053400Y0063746D01*
X0053511Y0063046D01*
X0053730Y0062373D01*
X0054051Y0061741D01*
X0054468Y0061168D01*
X0054968Y0060668D01*
X0055541Y0060251D01*
X0056173Y0059930D01*
X0056846Y0059711D01*
X0057400Y0059623D01*
X0057400Y0066600D01*
X0058400Y0066600D01*
X0058400Y0059623D01*
X0058954Y0059711D01*
X0058400Y0059714D02*
X0057400Y0059714D01*
X0056837Y0059714D02*
X0049239Y0059714D01*
X0048600Y0060712D02*
X0054924Y0060712D01*
X0054074Y0061711D02*
X0048600Y0061711D01*
X0048600Y0062709D02*
X0053620Y0062709D01*
X0053406Y0063708D02*
X0048600Y0063708D01*
X0048600Y0064706D02*
X0053400Y0064706D01*
X0053400Y0065705D02*
X0048600Y0065705D01*
X0048600Y0066703D02*
X0057400Y0066703D01*
X0057400Y0065705D02*
X0058400Y0065705D01*
X0058400Y0066703D02*
X0069200Y0066703D01*
X0069200Y0065705D02*
X0062400Y0065705D01*
X0062400Y0064706D02*
X0069200Y0064706D01*
X0069200Y0063708D02*
X0062394Y0063708D01*
X0062180Y0062709D02*
X0069241Y0062709D01*
X0069654Y0061711D02*
X0061726Y0061711D01*
X0060876Y0060712D02*
X0070068Y0060712D01*
X0069200Y0067702D02*
X0062400Y0067702D01*
X0062400Y0067600D02*
X0062400Y0070454D01*
X0062289Y0071154D01*
X0062070Y0071827D01*
X0061749Y0072459D01*
X0061332Y0073032D01*
X0060832Y0073532D01*
X0060259Y0073949D01*
X0059627Y0074270D01*
X0058954Y0074489D01*
X0058400Y0074577D01*
X0058400Y0067600D01*
X0062400Y0067600D01*
X0062400Y0068700D02*
X0069200Y0068700D01*
X0069200Y0069699D02*
X0062400Y0069699D01*
X0062361Y0070697D02*
X0069200Y0070697D01*
X0069325Y0071696D02*
X0062113Y0071696D01*
X0061577Y0072694D02*
X0069739Y0072694D01*
X0070153Y0073693D02*
X0060611Y0073693D01*
X0058400Y0073693D02*
X0057400Y0073693D01*
X0057400Y0072694D02*
X0058400Y0072694D01*
X0058400Y0071696D02*
X0057400Y0071696D01*
X0057400Y0070697D02*
X0058400Y0070697D01*
X0058400Y0069699D02*
X0057400Y0069699D01*
X0057400Y0068700D02*
X0058400Y0068700D01*
X0058400Y0067702D02*
X0057400Y0067702D01*
X0057400Y0064706D02*
X0058400Y0064706D01*
X0058400Y0063708D02*
X0057400Y0063708D01*
X0057400Y0062709D02*
X0058400Y0062709D01*
X0058400Y0061711D02*
X0057400Y0061711D01*
X0057400Y0060712D02*
X0058400Y0060712D01*
X0053400Y0067702D02*
X0048600Y0067702D01*
X0048600Y0068700D02*
X0053400Y0068700D01*
X0053400Y0069699D02*
X0048600Y0069699D01*
X0048600Y0070697D02*
X0053439Y0070697D01*
X0053687Y0071696D02*
X0048600Y0071696D01*
X0048600Y0072694D02*
X0054223Y0072694D01*
X0055189Y0073693D02*
X0048600Y0073693D01*
X0048600Y0074691D02*
X0071099Y0074691D01*
X0064382Y0080682D02*
X0059218Y0080682D01*
X0060890Y0081681D02*
X0062710Y0081681D01*
X0071151Y0096659D02*
X0072449Y0096659D01*
X0073753Y0097657D02*
X0069847Y0097657D01*
X0051058Y0109639D02*
X0007100Y0109639D01*
X0007100Y0108641D02*
X0050060Y0108641D01*
X0049061Y0107642D02*
X0007100Y0107642D01*
X0007100Y0106644D02*
X0048063Y0106644D01*
X0047064Y0105645D02*
X0030692Y0105645D01*
X0031046Y0105550D02*
X0028248Y0106300D01*
X0025352Y0106300D01*
X0022554Y0105550D01*
X0020046Y0104102D01*
X0017998Y0102054D01*
X0016550Y0099546D01*
X0015800Y0096748D01*
X0015800Y0093852D01*
X0016550Y0091054D01*
X0017998Y0088546D01*
X0020046Y0086498D01*
X0022554Y0085050D01*
X0025352Y0084300D01*
X0028248Y0084300D01*
X0031046Y0085050D01*
X0033554Y0086498D01*
X0035602Y0088546D01*
X0037050Y0091054D01*
X0037800Y0093852D01*
X0037800Y0096748D01*
X0037050Y0099546D01*
X0035602Y0102054D01*
X0033554Y0104102D01*
X0031046Y0105550D01*
X0032611Y0104647D02*
X0046066Y0104647D01*
X0045067Y0103648D02*
X0034008Y0103648D01*
X0035007Y0102650D02*
X0044069Y0102650D01*
X0043070Y0101651D02*
X0035835Y0101651D01*
X0036411Y0100653D02*
X0042072Y0100653D01*
X0041073Y0099654D02*
X0036988Y0099654D01*
X0037289Y0098656D02*
X0040414Y0098656D01*
X0040001Y0097657D02*
X0037556Y0097657D01*
X0037800Y0096659D02*
X0040000Y0096659D01*
X0040000Y0095660D02*
X0037800Y0095660D01*
X0037800Y0094662D02*
X0040000Y0094662D01*
X0040000Y0093663D02*
X0037749Y0093663D01*
X0037482Y0092665D02*
X0040000Y0092665D01*
X0040000Y0091666D02*
X0037214Y0091666D01*
X0036827Y0090668D02*
X0040000Y0090668D01*
X0040000Y0089669D02*
X0036251Y0089669D01*
X0035674Y0088670D02*
X0040000Y0088670D01*
X0040000Y0087672D02*
X0034728Y0087672D01*
X0033730Y0086673D02*
X0040000Y0086673D01*
X0040000Y0085675D02*
X0032129Y0085675D01*
X0029653Y0084676D02*
X0040000Y0084676D01*
X0040000Y0083678D02*
X0007100Y0083678D01*
X0007100Y0084676D02*
X0023947Y0084676D01*
X0021471Y0085675D02*
X0007100Y0085675D01*
X0007100Y0086673D02*
X0019870Y0086673D01*
X0018872Y0087672D02*
X0007100Y0087672D01*
X0007100Y0088670D02*
X0017926Y0088670D01*
X0017349Y0089669D02*
X0007100Y0089669D01*
X0007100Y0090668D02*
X0016773Y0090668D01*
X0016386Y0091666D02*
X0007100Y0091666D01*
X0007100Y0092665D02*
X0016118Y0092665D01*
X0015851Y0093663D02*
X0007100Y0093663D01*
X0007100Y0094662D02*
X0015800Y0094662D01*
X0015800Y0095660D02*
X0007100Y0095660D01*
X0007100Y0096659D02*
X0015800Y0096659D01*
X0016044Y0097657D02*
X0007100Y0097657D01*
X0007100Y0098656D02*
X0016311Y0098656D01*
X0016612Y0099654D02*
X0007100Y0099654D01*
X0007100Y0100653D02*
X0017189Y0100653D01*
X0017765Y0101651D02*
X0007100Y0101651D01*
X0007100Y0102650D02*
X0018593Y0102650D01*
X0019592Y0103648D02*
X0007100Y0103648D01*
X0007100Y0104647D02*
X0020989Y0104647D01*
X0022908Y0105645D02*
X0007100Y0105645D01*
X0007100Y0082679D02*
X0040000Y0082679D01*
X0040000Y0081681D02*
X0007100Y0081681D01*
X0007100Y0080682D02*
X0040000Y0080682D01*
X0040000Y0079684D02*
X0007100Y0079684D01*
X0007100Y0078685D02*
X0040000Y0078685D01*
X0040000Y0077687D02*
X0007100Y0077687D01*
X0007100Y0076688D02*
X0040000Y0076688D01*
X0040000Y0075690D02*
X0036690Y0075690D01*
X0037801Y0074691D02*
X0040000Y0074691D01*
X0040000Y0073693D02*
X0038747Y0073693D01*
X0039161Y0072694D02*
X0040000Y0072694D01*
X0040000Y0071696D02*
X0039575Y0071696D01*
X0039700Y0070697D02*
X0040000Y0070697D01*
X0040000Y0069699D02*
X0039700Y0069699D01*
X0039700Y0068700D02*
X0040000Y0068700D01*
X0040000Y0067702D02*
X0039700Y0067702D01*
X0039700Y0066703D02*
X0040000Y0066703D01*
X0040000Y0065705D02*
X0039700Y0065705D01*
X0039700Y0064706D02*
X0040000Y0064706D01*
X0040000Y0063708D02*
X0039700Y0063708D01*
X0039659Y0062709D02*
X0040000Y0062709D01*
X0040000Y0061711D02*
X0039246Y0061711D01*
X0038832Y0060712D02*
X0040000Y0060712D01*
X0039361Y0059714D02*
X0038006Y0059714D01*
X0037900Y0058715D02*
X0038948Y0058715D01*
X0038622Y0057717D02*
X0037900Y0057717D01*
X0037900Y0056718D02*
X0038622Y0056718D01*
X0038622Y0055720D02*
X0037900Y0055720D01*
X0037900Y0054721D02*
X0039015Y0054721D01*
X0039429Y0053723D02*
X0037900Y0053723D01*
X0037900Y0052724D02*
X0040000Y0052724D01*
X0040000Y0051726D02*
X0037900Y0051726D01*
X0037900Y0050727D02*
X0040000Y0050727D01*
X0040000Y0049729D02*
X0037900Y0049729D01*
X0038162Y0048730D02*
X0040000Y0048730D01*
X0040000Y0047732D02*
X0038897Y0047732D01*
X0039700Y0037746D02*
X0040156Y0037746D01*
X0040674Y0036748D02*
X0039510Y0036748D01*
X0039096Y0035749D02*
X0043800Y0035749D01*
X0043800Y0035355D02*
X0040674Y0035355D01*
X0040674Y0033591D01*
X0040776Y0033209D01*
X0040974Y0032867D01*
X0041253Y0032588D01*
X0041595Y0032390D01*
X0041977Y0032288D01*
X0043800Y0032288D01*
X0043800Y0035355D01*
X0043800Y0034751D02*
X0044800Y0034751D01*
X0044800Y0035749D02*
X0054336Y0035749D01*
X0053742Y0036748D02*
X0047926Y0036748D01*
X0048444Y0037746D02*
X0053463Y0037746D01*
X0053400Y0038745D02*
X0049414Y0038745D01*
X0049827Y0039743D02*
X0053400Y0039743D01*
X0053400Y0040742D02*
X0049926Y0040742D01*
X0049926Y0041740D02*
X0057400Y0041740D01*
X0057400Y0040742D02*
X0058400Y0040742D01*
X0058400Y0041740D02*
X0069200Y0041740D01*
X0058400Y0042739D02*
X0057400Y0042739D01*
X0057400Y0043737D02*
X0058400Y0043737D01*
X0058400Y0044736D02*
X0057400Y0044736D01*
X0057400Y0045734D02*
X0058400Y0045734D01*
X0058400Y0046733D02*
X0057400Y0046733D01*
X0057400Y0047732D02*
X0058400Y0047732D01*
X0058400Y0048730D02*
X0057400Y0048730D01*
X0056356Y0048730D02*
X0048600Y0048730D01*
X0048600Y0047732D02*
X0054768Y0047732D01*
X0053987Y0046733D02*
X0049419Y0046733D01*
X0049832Y0045734D02*
X0053570Y0045734D01*
X0053400Y0044736D02*
X0049926Y0044736D01*
X0049926Y0043737D02*
X0053400Y0043737D01*
X0053400Y0042739D02*
X0049926Y0042739D01*
X0047926Y0034751D02*
X0055404Y0034751D01*
X0057400Y0034751D02*
X0058400Y0034751D01*
X0058400Y0035749D02*
X0057400Y0035749D01*
X0057400Y0036748D02*
X0058400Y0036748D01*
X0058400Y0037746D02*
X0057400Y0037746D01*
X0057400Y0038745D02*
X0058400Y0038745D01*
X0058400Y0039743D02*
X0057400Y0039743D01*
X0062719Y0025764D02*
X0035881Y0025764D01*
X0038044Y0024766D02*
X0060556Y0024766D01*
X0059558Y0023767D02*
X0055390Y0023767D01*
X0054700Y0023767D02*
X0053900Y0023767D01*
X0053210Y0023767D02*
X0045390Y0023767D01*
X0045307Y0023794D02*
X0044700Y0023890D01*
X0044700Y0017200D01*
X0048600Y0017200D01*
X0048600Y0019938D01*
X0048494Y0020607D01*
X0048285Y0021251D01*
X0047978Y0021854D01*
X0047580Y0022401D01*
X0047101Y0022880D01*
X0046554Y0023278D01*
X0045951Y0023585D01*
X0045307Y0023794D01*
X0044700Y0023767D02*
X0043900Y0023767D01*
X0043210Y0023767D02*
X0039042Y0023767D01*
X0039807Y0022769D02*
X0041388Y0022769D01*
X0040580Y0021770D02*
X0040220Y0021770D01*
X0043900Y0021770D02*
X0044700Y0021770D01*
X0044700Y0020772D02*
X0043900Y0020772D01*
X0043900Y0019773D02*
X0044700Y0019773D01*
X0044700Y0018775D02*
X0043900Y0018775D01*
X0043900Y0017776D02*
X0044700Y0017776D01*
X0044700Y0016778D02*
X0053900Y0016778D01*
X0053900Y0016400D02*
X0050000Y0016400D01*
X0050000Y0013662D01*
X0050106Y0012993D01*
X0050315Y0012349D01*
X0050622Y0011746D01*
X0051020Y0011199D01*
X0051499Y0010720D01*
X0052046Y0010322D01*
X0052649Y0010015D01*
X0053293Y0009806D01*
X0053900Y0009710D01*
X0053900Y0016400D01*
X0053900Y0015779D02*
X0054700Y0015779D01*
X0054700Y0014781D02*
X0053900Y0014781D01*
X0053900Y0013782D02*
X0054700Y0013782D01*
X0054700Y0012784D02*
X0053900Y0012784D01*
X0053900Y0011785D02*
X0054700Y0011785D01*
X0054700Y0010787D02*
X0053900Y0010787D01*
X0053900Y0009788D02*
X0054700Y0009788D01*
X0055195Y0009788D02*
X0059602Y0009788D01*
X0058812Y0010787D02*
X0057168Y0010787D01*
X0057997Y0011785D02*
X0058398Y0011785D01*
X0060601Y0008790D02*
X0037999Y0008790D01*
X0038998Y0009788D02*
X0043405Y0009788D01*
X0043900Y0009788D02*
X0044700Y0009788D01*
X0044700Y0009710D02*
X0045307Y0009806D01*
X0045951Y0010015D01*
X0046554Y0010322D01*
X0047101Y0010720D01*
X0047580Y0011199D01*
X0047978Y0011746D01*
X0048285Y0012349D01*
X0048494Y0012993D01*
X0048600Y0013662D01*
X0048600Y0016400D01*
X0044700Y0016400D01*
X0044700Y0009710D01*
X0045195Y0009788D02*
X0053405Y0009788D01*
X0051432Y0010787D02*
X0047168Y0010787D01*
X0047997Y0011785D02*
X0050603Y0011785D01*
X0050174Y0012784D02*
X0048426Y0012784D01*
X0048600Y0013782D02*
X0050000Y0013782D01*
X0050000Y0014781D02*
X0048600Y0014781D01*
X0048600Y0015779D02*
X0050000Y0015779D01*
X0050000Y0017776D02*
X0048600Y0017776D01*
X0048600Y0018775D02*
X0050000Y0018775D01*
X0050000Y0019773D02*
X0048600Y0019773D01*
X0048441Y0020772D02*
X0050159Y0020772D01*
X0050580Y0021770D02*
X0048020Y0021770D01*
X0047212Y0022769D02*
X0051388Y0022769D01*
X0053900Y0022769D02*
X0054700Y0022769D01*
X0054700Y0021770D02*
X0053900Y0021770D01*
X0053900Y0020772D02*
X0054700Y0020772D01*
X0054700Y0019773D02*
X0053900Y0019773D01*
X0053900Y0018775D02*
X0054700Y0018775D01*
X0054700Y0017776D02*
X0053900Y0017776D01*
X0058020Y0021770D02*
X0058380Y0021770D01*
X0058793Y0022769D02*
X0057212Y0022769D01*
X0044700Y0022769D02*
X0043900Y0022769D01*
X0043900Y0015779D02*
X0044700Y0015779D01*
X0044700Y0014781D02*
X0043900Y0014781D01*
X0043900Y0013782D02*
X0044700Y0013782D01*
X0044700Y0012784D02*
X0043900Y0012784D01*
X0043900Y0011785D02*
X0044700Y0011785D01*
X0044700Y0010787D02*
X0043900Y0010787D01*
X0041432Y0010787D02*
X0039788Y0010787D01*
X0040202Y0011785D02*
X0040603Y0011785D01*
X0041087Y0032754D02*
X0036313Y0032754D01*
X0037645Y0033752D02*
X0040674Y0033752D01*
X0040674Y0034751D02*
X0038643Y0034751D01*
X0043800Y0033752D02*
X0044800Y0033752D01*
X0044800Y0032754D02*
X0043800Y0032754D01*
X0030087Y0032754D02*
X0007100Y0032754D01*
X0007100Y0033752D02*
X0028755Y0033752D01*
X0027757Y0034751D02*
X0017896Y0034751D01*
X0017759Y0034651D02*
X0018332Y0035068D01*
X0018832Y0035568D01*
X0019249Y0036141D01*
X0019570Y0036773D01*
X0019789Y0037446D01*
X0019900Y0038146D01*
X0019900Y0041000D01*
X0015900Y0041000D01*
X0015900Y0042000D01*
X0014900Y0042000D01*
X0014900Y0048977D01*
X0014346Y0048889D01*
X0013673Y0048670D01*
X0013041Y0048349D01*
X0012468Y0047932D01*
X0011968Y0047432D01*
X0011551Y0046859D01*
X0011230Y0046227D01*
X0011011Y0045554D01*
X0010900Y0044854D01*
X0010900Y0042000D01*
X0014900Y0042000D01*
X0014900Y0041000D01*
X0010900Y0041000D01*
X0010900Y0038146D01*
X0011011Y0037446D01*
X0011230Y0036773D01*
X0011551Y0036141D01*
X0011968Y0035568D01*
X0012468Y0035068D01*
X0013041Y0034651D01*
X0013673Y0034330D01*
X0014346Y0034111D01*
X0014900Y0034023D01*
X0014900Y0041000D01*
X0015900Y0041000D01*
X0015900Y0034023D01*
X0016454Y0034111D01*
X0017127Y0034330D01*
X0017759Y0034651D01*
X0018964Y0035749D02*
X0027304Y0035749D01*
X0026890Y0036748D02*
X0019558Y0036748D01*
X0019837Y0037746D02*
X0026700Y0037746D01*
X0026700Y0038745D02*
X0019900Y0038745D01*
X0019900Y0039743D02*
X0026700Y0039743D01*
X0026700Y0040742D02*
X0019900Y0040742D01*
X0019900Y0042000D02*
X0019900Y0044854D01*
X0019789Y0045554D01*
X0019570Y0046227D01*
X0019249Y0046859D01*
X0018832Y0047432D01*
X0018332Y0047932D01*
X0017759Y0048349D01*
X0017127Y0048670D01*
X0016454Y0048889D01*
X0015900Y0048977D01*
X0015900Y0042000D01*
X0019900Y0042000D01*
X0019900Y0042739D02*
X0026700Y0042739D01*
X0026700Y0043737D02*
X0019900Y0043737D01*
X0019900Y0044736D02*
X0026700Y0044736D01*
X0026700Y0045734D02*
X0019730Y0045734D01*
X0019313Y0046733D02*
X0027089Y0046733D01*
X0027503Y0047732D02*
X0018532Y0047732D01*
X0016944Y0048730D02*
X0028238Y0048730D01*
X0028500Y0049729D02*
X0007100Y0049729D01*
X0007100Y0050727D02*
X0028500Y0050727D01*
X0028500Y0051726D02*
X0007100Y0051726D01*
X0007100Y0052724D02*
X0028500Y0052724D01*
X0028500Y0053723D02*
X0007100Y0053723D01*
X0007100Y0054721D02*
X0028500Y0054721D01*
X0028500Y0055720D02*
X0007100Y0055720D01*
X0007100Y0056718D02*
X0028500Y0056718D01*
X0028500Y0057717D02*
X0007100Y0057717D01*
X0007100Y0058715D02*
X0028500Y0058715D01*
X0028394Y0059714D02*
X0016463Y0059714D01*
X0016454Y0059711D02*
X0017127Y0059930D01*
X0017759Y0060251D01*
X0018332Y0060668D01*
X0018832Y0061168D01*
X0019249Y0061741D01*
X0019570Y0062373D01*
X0019789Y0063046D01*
X0019900Y0063746D01*
X0019900Y0066600D01*
X0015900Y0066600D01*
X0015900Y0067600D01*
X0014900Y0067600D01*
X0014900Y0074577D01*
X0014346Y0074489D01*
X0013673Y0074270D01*
X0013041Y0073949D01*
X0012468Y0073532D01*
X0011968Y0073032D01*
X0011551Y0072459D01*
X0011230Y0071827D01*
X0011011Y0071154D01*
X0010900Y0070454D01*
X0010900Y0067600D01*
X0014900Y0067600D01*
X0014900Y0066600D01*
X0010900Y0066600D01*
X0010900Y0063746D01*
X0011011Y0063046D01*
X0011230Y0062373D01*
X0011551Y0061741D01*
X0011968Y0061168D01*
X0012468Y0060668D01*
X0013041Y0060251D01*
X0013673Y0059930D01*
X0014346Y0059711D01*
X0014900Y0059623D01*
X0014900Y0066600D01*
X0015900Y0066600D01*
X0015900Y0059623D01*
X0016454Y0059711D01*
X0015900Y0059714D02*
X0014900Y0059714D01*
X0014337Y0059714D02*
X0007100Y0059714D01*
X0007100Y0060712D02*
X0012424Y0060712D01*
X0011574Y0061711D02*
X0007100Y0061711D01*
X0007100Y0062709D02*
X0011120Y0062709D01*
X0010906Y0063708D02*
X0007100Y0063708D01*
X0007100Y0064706D02*
X0010900Y0064706D01*
X0010900Y0065705D02*
X0007100Y0065705D01*
X0007100Y0066703D02*
X0014900Y0066703D01*
X0014900Y0065705D02*
X0015900Y0065705D01*
X0015900Y0066703D02*
X0026700Y0066703D01*
X0026700Y0065705D02*
X0019900Y0065705D01*
X0019900Y0064706D02*
X0026700Y0064706D01*
X0026700Y0063708D02*
X0019894Y0063708D01*
X0019680Y0062709D02*
X0026741Y0062709D01*
X0027154Y0061711D02*
X0019226Y0061711D01*
X0018376Y0060712D02*
X0027568Y0060712D01*
X0026700Y0067702D02*
X0019900Y0067702D01*
X0019900Y0067600D02*
X0019900Y0070454D01*
X0019789Y0071154D01*
X0019570Y0071827D01*
X0019249Y0072459D01*
X0018832Y0073032D01*
X0018332Y0073532D01*
X0017759Y0073949D01*
X0017127Y0074270D01*
X0016454Y0074489D01*
X0015900Y0074577D01*
X0015900Y0067600D01*
X0019900Y0067600D01*
X0019900Y0068700D02*
X0026700Y0068700D01*
X0026700Y0069699D02*
X0019900Y0069699D01*
X0019861Y0070697D02*
X0026700Y0070697D01*
X0026825Y0071696D02*
X0019613Y0071696D01*
X0019077Y0072694D02*
X0027239Y0072694D01*
X0027653Y0073693D02*
X0018111Y0073693D01*
X0015900Y0073693D02*
X0014900Y0073693D01*
X0014900Y0072694D02*
X0015900Y0072694D01*
X0015900Y0071696D02*
X0014900Y0071696D01*
X0014900Y0070697D02*
X0015900Y0070697D01*
X0015900Y0069699D02*
X0014900Y0069699D01*
X0014900Y0068700D02*
X0015900Y0068700D01*
X0015900Y0067702D02*
X0014900Y0067702D01*
X0014900Y0064706D02*
X0015900Y0064706D01*
X0015900Y0063708D02*
X0014900Y0063708D01*
X0014900Y0062709D02*
X0015900Y0062709D01*
X0015900Y0061711D02*
X0014900Y0061711D01*
X0014900Y0060712D02*
X0015900Y0060712D01*
X0010900Y0067702D02*
X0007100Y0067702D01*
X0007100Y0068700D02*
X0010900Y0068700D01*
X0010900Y0069699D02*
X0007100Y0069699D01*
X0007100Y0070697D02*
X0010939Y0070697D01*
X0011187Y0071696D02*
X0007100Y0071696D01*
X0007100Y0072694D02*
X0011723Y0072694D01*
X0012689Y0073693D02*
X0007100Y0073693D01*
X0007100Y0074691D02*
X0028599Y0074691D01*
X0029710Y0075690D02*
X0007100Y0075690D01*
X0007100Y0048730D02*
X0013856Y0048730D01*
X0014900Y0048730D02*
X0015900Y0048730D01*
X0015900Y0047732D02*
X0014900Y0047732D01*
X0014900Y0046733D02*
X0015900Y0046733D01*
X0015900Y0045734D02*
X0014900Y0045734D01*
X0014900Y0044736D02*
X0015900Y0044736D01*
X0015900Y0043737D02*
X0014900Y0043737D01*
X0014900Y0042739D02*
X0015900Y0042739D01*
X0015900Y0041740D02*
X0026700Y0041740D01*
X0015900Y0040742D02*
X0014900Y0040742D01*
X0014900Y0041740D02*
X0007100Y0041740D01*
X0007100Y0040742D02*
X0010900Y0040742D01*
X0010900Y0039743D02*
X0007100Y0039743D01*
X0007100Y0038745D02*
X0010900Y0038745D01*
X0010963Y0037746D02*
X0007100Y0037746D01*
X0007100Y0036748D02*
X0011242Y0036748D01*
X0011836Y0035749D02*
X0007100Y0035749D01*
X0007100Y0034751D02*
X0012904Y0034751D01*
X0014900Y0034751D02*
X0015900Y0034751D01*
X0015900Y0035749D02*
X0014900Y0035749D01*
X0014900Y0036748D02*
X0015900Y0036748D01*
X0015900Y0037746D02*
X0014900Y0037746D01*
X0014900Y0038745D02*
X0015900Y0038745D01*
X0015900Y0039743D02*
X0014900Y0039743D01*
X0010900Y0042739D02*
X0007100Y0042739D01*
X0007100Y0043737D02*
X0010900Y0043737D01*
X0010900Y0044736D02*
X0007100Y0044736D01*
X0007100Y0045734D02*
X0011070Y0045734D01*
X0011487Y0046733D02*
X0007100Y0046733D01*
X0007100Y0047732D02*
X0012268Y0047732D01*
X0007100Y0152575D02*
X0053263Y0152575D01*
X0051445Y0153574D02*
X0007100Y0153574D01*
X0007100Y0154572D02*
X0014549Y0154572D01*
X0015447Y0154200D02*
X0012948Y0155235D01*
X0011035Y0157148D01*
X0010000Y0159647D01*
X0010000Y0168953D01*
X0011035Y0171452D01*
X0012948Y0173365D01*
X0015447Y0174400D01*
X0018153Y0174400D01*
X0020652Y0173365D01*
X0021800Y0172217D01*
X0022948Y0173365D01*
X0025447Y0174400D01*
X0028153Y0174400D01*
X0030652Y0173365D01*
X0032565Y0171452D01*
X0032964Y0170487D01*
X0033139Y0170727D01*
X0033673Y0171261D01*
X0034284Y0171705D01*
X0034957Y0172048D01*
X0035676Y0172282D01*
X0036300Y0172381D01*
X0036300Y0164800D01*
X0037300Y0164800D01*
X0037300Y0172381D01*
X0037924Y0172282D01*
X0038643Y0172048D01*
X0039316Y0171705D01*
X0039927Y0171261D01*
X0040461Y0170727D01*
X0040905Y0170116D01*
X0041248Y0169443D01*
X0041482Y0168724D01*
X0041600Y0167978D01*
X0041600Y0164800D01*
X0037300Y0164800D01*
X0037300Y0163800D01*
X0041600Y0163800D01*
X0041600Y0160622D01*
X0041482Y0159876D01*
X0041248Y0159157D01*
X0040905Y0158484D01*
X0040461Y0157873D01*
X0039927Y0157339D01*
X0039316Y0156895D01*
X0038643Y0156552D01*
X0037924Y0156318D01*
X0037300Y0156219D01*
X0037300Y0163800D01*
X0036300Y0163800D01*
X0036300Y0156219D01*
X0035676Y0156318D01*
X0034957Y0156552D01*
X0034284Y0156895D01*
X0033673Y0157339D01*
X0033139Y0157873D01*
X0032964Y0158113D01*
X0032565Y0157148D01*
X0030652Y0155235D01*
X0028153Y0154200D01*
X0025447Y0154200D01*
X0022948Y0155235D01*
X0021800Y0156383D01*
X0020652Y0155235D01*
X0018153Y0154200D01*
X0015447Y0154200D01*
X0012613Y0155571D02*
X0007100Y0155571D01*
X0007100Y0156569D02*
X0011614Y0156569D01*
X0010861Y0157568D02*
X0007100Y0157568D01*
X0007100Y0158566D02*
X0010448Y0158566D01*
X0010034Y0159565D02*
X0007100Y0159565D01*
X0007100Y0160563D02*
X0010000Y0160563D01*
X0010000Y0161562D02*
X0007100Y0161562D01*
X0007100Y0162560D02*
X0010000Y0162560D01*
X0010000Y0163559D02*
X0007100Y0163559D01*
X0007100Y0164557D02*
X0010000Y0164557D01*
X0010000Y0165556D02*
X0007100Y0165556D01*
X0007100Y0166554D02*
X0010000Y0166554D01*
X0010000Y0167553D02*
X0007100Y0167553D01*
X0007100Y0168551D02*
X0010000Y0168551D01*
X0010247Y0169550D02*
X0007100Y0169550D01*
X0007100Y0170548D02*
X0010661Y0170548D01*
X0011130Y0171547D02*
X0007100Y0171547D01*
X0007100Y0172545D02*
X0012129Y0172545D01*
X0013381Y0173544D02*
X0007100Y0173544D01*
X0007100Y0174542D02*
X0032415Y0174542D01*
X0031359Y0175541D02*
X0007100Y0175541D01*
X0007100Y0176539D02*
X0030930Y0176539D01*
X0030800Y0177538D02*
X0007100Y0177538D01*
X0007100Y0178537D02*
X0025958Y0178537D01*
X0024918Y0179535D02*
X0007100Y0179535D01*
X0007100Y0180534D02*
X0020166Y0180534D01*
X0017858Y0181532D02*
X0007100Y0181532D01*
X0007100Y0182531D02*
X0016860Y0182531D01*
X0016036Y0183529D02*
X0007100Y0183529D01*
X0007100Y0184528D02*
X0015622Y0184528D01*
X0015209Y0185526D02*
X0007100Y0185526D01*
X0007100Y0186525D02*
X0015200Y0186525D01*
X0015200Y0187523D02*
X0007100Y0187523D01*
X0007100Y0188522D02*
X0015394Y0188522D01*
X0015808Y0189520D02*
X0007100Y0189520D01*
X0007100Y0190519D02*
X0016309Y0190519D01*
X0017308Y0191517D02*
X0007100Y0191517D01*
X0007100Y0192516D02*
X0016875Y0192516D01*
X0016042Y0193514D02*
X0007100Y0193514D01*
X0007100Y0194513D02*
X0015628Y0194513D01*
X0015215Y0195511D02*
X0007100Y0195511D01*
X0007100Y0196510D02*
X0015200Y0196510D01*
X0015200Y0197508D02*
X0007100Y0197508D01*
X0007100Y0198507D02*
X0015388Y0198507D01*
X0015801Y0199505D02*
X0007100Y0199505D01*
X0007100Y0200504D02*
X0016294Y0200504D01*
X0017293Y0201502D02*
X0007100Y0201502D01*
X0007100Y0202501D02*
X0018800Y0202501D01*
X0024352Y0203499D02*
X0007100Y0203499D01*
X0007100Y0204498D02*
X0025351Y0204498D01*
X0027003Y0205496D02*
X0007100Y0205496D01*
X0007100Y0206495D02*
X0030800Y0206495D01*
X0031109Y0207493D02*
X0007100Y0207493D01*
X0007100Y0208492D02*
X0031792Y0208492D01*
X0033460Y0209490D02*
X0007100Y0209490D01*
X0007100Y0210489D02*
X0102689Y0210489D01*
X0102500Y0210945D02*
X0103155Y0209364D01*
X0111122Y0201397D01*
X0111122Y0200671D01*
X0111986Y0198584D01*
X0113584Y0196986D01*
X0115671Y0196122D01*
X0117929Y0196122D01*
X0120016Y0196986D01*
X0121614Y0198584D01*
X0122478Y0200671D01*
X0122478Y0202929D01*
X0121614Y0205016D01*
X0120016Y0206614D01*
X0117929Y0207478D01*
X0117203Y0207478D01*
X0111100Y0213581D01*
X0111100Y0220009D01*
X0111950Y0220859D01*
X0112875Y0223092D01*
X0112875Y0225508D01*
X0111950Y0227741D01*
X0110241Y0229450D01*
X0108008Y0230375D01*
X0105592Y0230375D01*
X0103359Y0229450D01*
X0101800Y0227891D01*
X0100241Y0229450D01*
X0098008Y0230375D01*
X0095592Y0230375D01*
X0093359Y0229450D01*
X0091800Y0227891D01*
X0090241Y0229450D01*
X0088008Y0230375D01*
X0085592Y0230375D01*
X0083359Y0229450D01*
X0081800Y0227891D01*
X0080241Y0229450D01*
X0078008Y0230375D01*
X0075592Y0230375D01*
X0073359Y0229450D01*
X0071800Y0227891D01*
X0070241Y0229450D01*
X0068008Y0230375D01*
X0065592Y0230375D01*
X0063359Y0229450D01*
X0061800Y0227891D01*
X0060241Y0229450D01*
X0058008Y0230375D01*
X0055592Y0230375D01*
X0053359Y0229450D01*
X0051650Y0227741D01*
X0050725Y0225508D01*
X0050725Y0223092D01*
X0051650Y0220859D01*
X0053359Y0219150D01*
X0055592Y0218225D01*
X0058008Y0218225D01*
X0060241Y0219150D01*
X0061800Y0220709D01*
X0063359Y0219150D01*
X0065592Y0218225D01*
X0068008Y0218225D01*
X0070241Y0219150D01*
X0071800Y0220709D01*
X0073359Y0219150D01*
X0075592Y0218225D01*
X0078008Y0218225D01*
X0080241Y0219150D01*
X0081800Y0220709D01*
X0083359Y0219150D01*
X0085592Y0218225D01*
X0088008Y0218225D01*
X0090241Y0219150D01*
X0091800Y0220709D01*
X0093359Y0219150D01*
X0095592Y0218225D01*
X0098008Y0218225D01*
X0100241Y0219150D01*
X0101800Y0220709D01*
X0102500Y0220009D01*
X0102500Y0210945D01*
X0102500Y0211487D02*
X0007100Y0211487D01*
X0007100Y0212486D02*
X0102500Y0212486D01*
X0102500Y0213484D02*
X0007100Y0213484D01*
X0007100Y0214483D02*
X0102500Y0214483D01*
X0102500Y0215481D02*
X0007100Y0215481D01*
X0007100Y0216480D02*
X0102500Y0216480D01*
X0102500Y0217478D02*
X0007100Y0217478D01*
X0007100Y0218477D02*
X0054984Y0218477D01*
X0053033Y0219475D02*
X0007100Y0219475D01*
X0007100Y0220474D02*
X0052035Y0220474D01*
X0051396Y0221472D02*
X0007100Y0221472D01*
X0007100Y0222471D02*
X0050982Y0222471D01*
X0050725Y0223470D02*
X0007100Y0223470D01*
X0007100Y0224468D02*
X0050725Y0224468D01*
X0050725Y0225467D02*
X0007100Y0225467D01*
X0007100Y0226465D02*
X0051121Y0226465D01*
X0051535Y0227464D02*
X0007100Y0227464D01*
X0007100Y0228462D02*
X0052371Y0228462D01*
X0053385Y0229461D02*
X0007100Y0229461D01*
X0007100Y0230459D02*
X0146500Y0230459D01*
X0146500Y0229461D02*
X0110215Y0229461D01*
X0111229Y0228462D02*
X0146500Y0228462D01*
X0146500Y0227464D02*
X0112065Y0227464D01*
X0112479Y0226465D02*
X0146500Y0226465D01*
X0146500Y0225467D02*
X0112875Y0225467D01*
X0112875Y0224468D02*
X0146500Y0224468D01*
X0146500Y0223470D02*
X0112875Y0223470D01*
X0112618Y0222471D02*
X0146500Y0222471D01*
X0146500Y0221472D02*
X0112204Y0221472D01*
X0111565Y0220474D02*
X0146500Y0220474D01*
X0146500Y0219475D02*
X0111100Y0219475D01*
X0111100Y0218477D02*
X0146500Y0218477D01*
X0146500Y0217478D02*
X0111100Y0217478D01*
X0111100Y0216480D02*
X0146500Y0216480D01*
X0146500Y0215481D02*
X0111100Y0215481D01*
X0111100Y0214483D02*
X0146500Y0214483D01*
X0146500Y0213484D02*
X0111197Y0213484D01*
X0112195Y0212486D02*
X0146500Y0212486D01*
X0146500Y0211487D02*
X0113194Y0211487D01*
X0114192Y0210489D02*
X0146500Y0210489D01*
X0146500Y0209490D02*
X0115191Y0209490D01*
X0116189Y0208492D02*
X0146500Y0208492D01*
X0146500Y0207493D02*
X0117188Y0207493D01*
X0120135Y0206495D02*
X0146500Y0206495D01*
X0146500Y0205496D02*
X0121134Y0205496D01*
X0121828Y0204498D02*
X0146500Y0204498D01*
X0146500Y0203499D02*
X0122242Y0203499D01*
X0122478Y0202501D02*
X0146500Y0202501D01*
X0146500Y0201502D02*
X0122478Y0201502D01*
X0122409Y0200504D02*
X0146500Y0200504D01*
X0146500Y0199505D02*
X0121995Y0199505D01*
X0121537Y0198507D02*
X0146500Y0198507D01*
X0146500Y0197508D02*
X0120538Y0197508D01*
X0118865Y0196510D02*
X0146500Y0196510D01*
X0146500Y0195511D02*
X0053600Y0195511D01*
X0053600Y0194513D02*
X0146500Y0194513D01*
X0146500Y0193514D02*
X0053600Y0193514D01*
X0053600Y0192516D02*
X0146500Y0192516D01*
X0146500Y0191517D02*
X0053600Y0191517D01*
X0053600Y0190519D02*
X0146500Y0190519D01*
X0137200Y0161562D02*
X0136400Y0161562D01*
X0136400Y0160563D02*
X0137200Y0160563D01*
X0137200Y0159565D02*
X0136400Y0159565D01*
X0136400Y0158566D02*
X0137200Y0158566D01*
X0114735Y0196510D02*
X0053600Y0196510D01*
X0053600Y0197508D02*
X0113062Y0197508D01*
X0112063Y0198507D02*
X0053247Y0198507D01*
X0052676Y0199505D02*
X0111605Y0199505D01*
X0111191Y0200504D02*
X0051677Y0200504D01*
X0050679Y0201502D02*
X0111017Y0201502D01*
X0110018Y0202501D02*
X0049680Y0202501D01*
X0048682Y0203499D02*
X0109020Y0203499D01*
X0108021Y0204498D02*
X0047800Y0204498D01*
X0047800Y0205496D02*
X0107023Y0205496D01*
X0106024Y0206495D02*
X0047800Y0206495D01*
X0047491Y0207493D02*
X0105026Y0207493D01*
X0104027Y0208492D02*
X0046808Y0208492D01*
X0045140Y0209490D02*
X0103102Y0209490D01*
X0102500Y0218477D02*
X0098616Y0218477D01*
X0100567Y0219475D02*
X0102500Y0219475D01*
X0102035Y0220474D02*
X0101565Y0220474D01*
X0101229Y0228462D02*
X0102371Y0228462D01*
X0103385Y0229461D02*
X0100215Y0229461D01*
X0094984Y0218477D02*
X0088616Y0218477D01*
X0090567Y0219475D02*
X0093033Y0219475D01*
X0092035Y0220474D02*
X0091565Y0220474D01*
X0091229Y0228462D02*
X0092371Y0228462D01*
X0093385Y0229461D02*
X0090215Y0229461D01*
X0083385Y0229461D02*
X0080215Y0229461D01*
X0081229Y0228462D02*
X0082371Y0228462D01*
X0082035Y0220474D02*
X0081565Y0220474D01*
X0080567Y0219475D02*
X0083033Y0219475D01*
X0084984Y0218477D02*
X0078616Y0218477D01*
X0074984Y0218477D02*
X0068616Y0218477D01*
X0070567Y0219475D02*
X0073033Y0219475D01*
X0072035Y0220474D02*
X0071565Y0220474D01*
X0071229Y0228462D02*
X0072371Y0228462D01*
X0073385Y0229461D02*
X0070215Y0229461D01*
X0063385Y0229461D02*
X0060215Y0229461D01*
X0061229Y0228462D02*
X0062371Y0228462D01*
X0062035Y0220474D02*
X0061565Y0220474D01*
X0060567Y0219475D02*
X0063033Y0219475D01*
X0064984Y0218477D02*
X0058616Y0218477D01*
X0058746Y0243440D02*
X0022599Y0243440D01*
X0022599Y0244438D02*
X0058300Y0244438D01*
X0058300Y0245437D02*
X0022599Y0245437D01*
X0022408Y0246435D02*
X0058300Y0246435D01*
X0058300Y0247434D02*
X0022140Y0247434D01*
X0021873Y0248432D02*
X0058300Y0248432D01*
X0058300Y0249431D02*
X0021308Y0249431D01*
X0020731Y0250429D02*
X0058300Y0250429D01*
X0058300Y0251428D02*
X0019945Y0251428D01*
X0022482Y0242441D02*
X0128618Y0242441D01*
X0128885Y0241443D02*
X0022215Y0241443D01*
X0021947Y0240444D02*
X0129153Y0240444D01*
X0129633Y0239446D02*
X0021467Y0239446D01*
X0020891Y0238447D02*
X0130209Y0238447D01*
X0130879Y0237449D02*
X0020221Y0237449D01*
X0019223Y0236450D02*
X0131877Y0236450D01*
X0133027Y0235452D02*
X0018073Y0235452D01*
X0016343Y0234453D02*
X0134757Y0234453D01*
X0143843Y0234453D02*
X0146500Y0234453D01*
X0146500Y0233455D02*
X0007100Y0233455D01*
X0007100Y0234453D02*
X0007257Y0234453D01*
X0007100Y0232456D02*
X0146500Y0232456D01*
X0146500Y0231458D02*
X0007100Y0231458D01*
X0020219Y0173544D02*
X0023381Y0173544D01*
X0022129Y0172545D02*
X0021471Y0172545D01*
X0030219Y0173544D02*
X0045000Y0173544D01*
X0045000Y0172545D02*
X0031471Y0172545D01*
X0032470Y0171547D02*
X0034066Y0171547D01*
X0033009Y0170548D02*
X0032939Y0170548D01*
X0036300Y0170548D02*
X0037300Y0170548D01*
X0037300Y0169550D02*
X0036300Y0169550D01*
X0036300Y0168551D02*
X0037300Y0168551D01*
X0037300Y0167553D02*
X0036300Y0167553D01*
X0036300Y0166554D02*
X0037300Y0166554D01*
X0037300Y0165556D02*
X0036300Y0165556D01*
X0037300Y0164557D02*
X0045000Y0164557D01*
X0045000Y0163559D02*
X0041600Y0163559D01*
X0041600Y0162560D02*
X0045000Y0162560D01*
X0045000Y0161562D02*
X0041600Y0161562D01*
X0041591Y0160563D02*
X0045158Y0160563D01*
X0045572Y0159565D02*
X0041381Y0159565D01*
X0040947Y0158566D02*
X0046453Y0158566D01*
X0047451Y0157568D02*
X0040156Y0157568D01*
X0038677Y0156569D02*
X0048450Y0156569D01*
X0049448Y0155571D02*
X0030987Y0155571D01*
X0031986Y0156569D02*
X0034923Y0156569D01*
X0036300Y0156569D02*
X0037300Y0156569D01*
X0037300Y0157568D02*
X0036300Y0157568D01*
X0036300Y0158566D02*
X0037300Y0158566D01*
X0037300Y0159565D02*
X0036300Y0159565D01*
X0036300Y0160563D02*
X0037300Y0160563D01*
X0037300Y0161562D02*
X0036300Y0161562D01*
X0036300Y0162560D02*
X0037300Y0162560D01*
X0037300Y0163559D02*
X0036300Y0163559D01*
X0033444Y0157568D02*
X0032739Y0157568D01*
X0029051Y0154572D02*
X0050447Y0154572D01*
X0045000Y0165556D02*
X0041600Y0165556D01*
X0041600Y0166554D02*
X0045000Y0166554D01*
X0045000Y0167553D02*
X0041600Y0167553D01*
X0041509Y0168551D02*
X0045000Y0168551D01*
X0045000Y0169550D02*
X0041194Y0169550D01*
X0040591Y0170548D02*
X0045000Y0170548D01*
X0045000Y0171547D02*
X0039534Y0171547D01*
X0037300Y0171547D02*
X0036300Y0171547D01*
X0024549Y0154572D02*
X0019051Y0154572D01*
X0020987Y0155571D02*
X0022613Y0155571D01*
X0081332Y0060712D02*
X0082500Y0060712D01*
X0082500Y0061711D02*
X0081746Y0061711D01*
X0082159Y0062709D02*
X0082522Y0062709D01*
X0082200Y0063708D02*
X0082936Y0063708D01*
X0083625Y0064706D02*
X0082200Y0064706D01*
X0082200Y0065705D02*
X0084624Y0065705D01*
X0085622Y0066703D02*
X0082200Y0066703D01*
X0081861Y0059714D02*
X0080946Y0059714D01*
X0080946Y0058715D02*
X0081448Y0058715D01*
X0081122Y0057717D02*
X0080946Y0057717D01*
X0080946Y0056718D02*
X0081122Y0056718D01*
X0081122Y0055720D02*
X0080946Y0055720D01*
X0080946Y0054721D02*
X0081515Y0054721D01*
X0081929Y0053723D02*
X0080946Y0053723D01*
X0080946Y0052724D02*
X0082100Y0052724D01*
X0082100Y0051726D02*
X0080946Y0051726D01*
X0080946Y0050727D02*
X0082100Y0050727D01*
X0082100Y0049729D02*
X0080946Y0049729D01*
X0080946Y0048730D02*
X0082100Y0048730D01*
X0082100Y0047732D02*
X0081397Y0047732D01*
X0098783Y0067702D02*
X0100900Y0067702D01*
X0100900Y0068700D02*
X0099781Y0068700D01*
X0100780Y0069699D02*
X0100900Y0069699D01*
X0104900Y0064706D02*
X0105900Y0064706D01*
X0105900Y0063708D02*
X0104900Y0063708D01*
X0104900Y0062709D02*
X0105900Y0062709D01*
X0105900Y0061711D02*
X0104900Y0061711D01*
X0104900Y0060712D02*
X0105900Y0060712D01*
X0105900Y0048730D02*
X0104900Y0048730D01*
X0104900Y0047732D02*
X0105900Y0047732D01*
X0105900Y0046733D02*
X0104900Y0046733D01*
X0104900Y0045734D02*
X0105900Y0045734D01*
X0105900Y0044736D02*
X0104900Y0044736D01*
X0104900Y0043737D02*
X0105900Y0043737D01*
X0105900Y0042739D02*
X0104900Y0042739D01*
X0104900Y0039743D02*
X0105900Y0039743D01*
X0105900Y0038745D02*
X0104900Y0038745D01*
X0104900Y0037746D02*
X0105900Y0037746D01*
X0105900Y0036748D02*
X0104900Y0036748D01*
X0104900Y0035749D02*
X0105900Y0035749D01*
X0105900Y0034751D02*
X0104900Y0034751D01*
X0094382Y0080682D02*
X0089218Y0080682D01*
X0090890Y0081681D02*
X0092710Y0081681D01*
X0145573Y0235452D02*
X0146500Y0235452D01*
D18*
X0139300Y0226800D03*
X0116800Y0201800D03*
X0124300Y0134300D03*
X0101800Y0104300D03*
X0081800Y0106800D03*
X0086800Y0056800D03*
X0044300Y0056800D03*
X0034300Y0226800D03*
D19*
X0039300Y0201050D02*
X0045050Y0201050D01*
X0049300Y0196800D01*
X0049300Y0161800D01*
X0054300Y0156800D01*
X0096800Y0156800D01*
X0096800Y0141800D02*
X0114300Y0141800D01*
X0129300Y0156800D01*
X0135800Y0156800D01*
X0136800Y0157800D01*
X0136800Y0159300D01*
X0139300Y0161800D01*
X0139300Y0226800D01*
X0139300Y0204300D01*
X0116800Y0201800D02*
X0106800Y0211800D01*
X0106800Y0224300D01*
X0137800Y0156800D02*
X0141800Y0156800D01*
X0146800Y0151800D01*
X0146800Y0091800D01*
X0144792Y0089792D01*
X0131800Y0089792D01*
X0129300Y0087292D01*
X0129300Y0084300D01*
X0120245Y0084300D01*
X0119300Y0083355D01*
X0119300Y0079300D01*
X0106800Y0066800D01*
X0105700Y0066800D01*
X0105400Y0067100D01*
X0105400Y0041500D01*
X0111800Y0021800D02*
X0084300Y0021800D01*
X0075700Y0041500D02*
X0076246Y0042046D01*
X0086800Y0056800D02*
X0086800Y0061800D01*
X0101800Y0076800D01*
X0111800Y0076800D01*
X0114300Y0079300D01*
X0114300Y0096800D01*
X0111800Y0099300D01*
X0106800Y0099300D01*
X0101800Y0104300D01*
X0091800Y0096800D02*
X0096800Y0091800D01*
X0096800Y0089300D01*
X0091800Y0096800D02*
X0091800Y0124300D01*
X0095300Y0127800D01*
X0129300Y0127800D01*
X0129300Y0113808D01*
X0129300Y0127800D02*
X0136800Y0127800D01*
X0124300Y0134300D02*
X0121800Y0136800D01*
X0089300Y0136800D01*
X0086800Y0134300D01*
X0086800Y0094300D01*
X0081800Y0106800D02*
X0054300Y0106800D01*
X0044300Y0096800D01*
X0044300Y0056800D01*
X0044300Y0042745D01*
X0044300Y0035855D02*
X0044300Y0034300D01*
X0057900Y0041500D02*
X0057900Y0067100D01*
X0075700Y0067100D02*
X0075946Y0067100D01*
X0076246Y0066800D01*
X0076246Y0067646D01*
X0129300Y0089300D02*
X0129300Y0089792D01*
X0131800Y0089792D01*
X0015400Y0067100D02*
X0015400Y0041500D01*
D20*
X0015400Y0033200D01*
X0016800Y0031800D01*
X0044300Y0031800D01*
X0051800Y0031800D01*
X0081800Y0031800D01*
X0100400Y0031800D01*
X0105400Y0036800D01*
X0105400Y0041500D01*
X0123200Y0041500D02*
X0123200Y0067100D01*
X0086800Y0056800D02*
X0086800Y0042745D01*
X0086800Y0035855D02*
X0085855Y0035855D01*
X0081800Y0031800D01*
X0076246Y0042046D02*
X0076246Y0066800D01*
X0057900Y0041500D02*
X0057900Y0037900D01*
X0051800Y0031800D01*
X0044300Y0031800D02*
X0044300Y0035855D01*
X0044300Y0031800D02*
X0044300Y0016800D01*
X0054300Y0016800D01*
X0054300Y0011800D01*
X0033200Y0041500D02*
X0033200Y0067100D01*
X0015400Y0067100D02*
X0012900Y0078200D01*
X0009300Y0081800D01*
X0009300Y0141800D02*
X0031800Y0141800D01*
X0036800Y0146800D01*
X0036800Y0164300D01*
X0039300Y0182550D02*
X0028550Y0182550D01*
X0024300Y0186800D01*
X0024300Y0196800D02*
X0028550Y0201050D01*
X0039300Y0201050D01*
X0034300Y0226800D02*
X0014300Y0226800D01*
X0006800Y0219300D01*
X0006800Y0144300D01*
X0009300Y0141800D01*
X0136800Y0157800D02*
X0137800Y0156800D01*
D21*
X0139300Y0204300D03*
X0096800Y0156800D03*
X0096800Y0141800D03*
X0119300Y0083355D03*
X0111800Y0021800D03*
X0084300Y0021800D03*
D22*
X0086800Y0089300D02*
X0086800Y0094300D01*
M02*
