%
M48
M72
T01C0.02362
T02C0.02756
T03C0.03150
T04C0.03600
T05C0.04000
T06C0.04400
T07C0.12598
T08C0.13000
%
T01
X84300Y21800
X111800Y21800
X119300Y83355
X96800Y141800
X96800Y156800
X139300Y204300
T02
X139300Y226800
X116800Y201800
X124300Y134300
X101800Y104300
X81800Y106800
X86800Y56800
X44300Y56800
X34300Y226800
T03
X56800Y224300
X66800Y224300
X76800Y224300
X86800Y224300
X96800Y224300
X106800Y224300
X96800Y184300
X86800Y184300
X76800Y184300
X66800Y184300
X56800Y184300
T04
X24300Y186800
X24300Y196800
X56800Y89300
X66800Y89300
X76800Y89300
X86800Y89300
X96800Y89300
X106800Y89300
X136800Y127800
X136800Y137800
X136800Y147800
X136800Y157800
X64300Y16800
X54300Y16800
X44300Y16800
X34300Y16800
T05
X33200Y41500
X33200Y67100
X15400Y67100
X15400Y41500
X57900Y41500
X57900Y67100
X75700Y67100
X75700Y41500
X105400Y41500
X105400Y67100
X123200Y67100
X123200Y41500
T06
X36800Y164300
X26800Y164300
X16800Y164300
T07
X14300Y14300
X139300Y14300
X139300Y244300
X11800Y244300
T08
X26800Y95300
M30
