G75*
%MOIN*%
%OFA0B0*%
%FSLAX25Y25*%
%IPPOS*%
%LPD*%
%AMOC8*
5,1,8,0,0,1.08239X$1,22.5*
%
%ADD10C,0.13398*%
%ADD11C,0.06400*%
%ADD12C,0.06800*%
%ADD13R,0.05052X0.04934*%
%ADD14C,0.05950*%
%ADD15C,0.07400*%
%ADD16C,0.13800*%
%ADD17R,0.10800X0.10800*%
%ADD18R,0.07099X0.16548*%
%ADD19C,0.05156*%
%ADD20C,0.04762*%
D10*
X0014300Y0014300D03*
X0139300Y0014300D03*
X0139300Y0244300D03*
X0011800Y0244300D03*
D11*
X0021500Y0196800D02*
X0027100Y0196800D01*
X0027100Y0186800D02*
X0021500Y0186800D01*
X0056800Y0092100D02*
X0056800Y0086500D01*
X0066800Y0086500D02*
X0066800Y0092100D01*
X0076800Y0092100D02*
X0076800Y0086500D01*
X0086800Y0086500D02*
X0086800Y0092100D01*
X0096800Y0092100D02*
X0096800Y0086500D01*
X0106800Y0086500D02*
X0106800Y0092100D01*
X0134000Y0127800D02*
X0139600Y0127800D01*
X0139600Y0137800D02*
X0134000Y0137800D01*
X0134000Y0147800D02*
X0139600Y0147800D01*
X0139600Y0157800D02*
X0134000Y0157800D01*
X0064300Y0019600D02*
X0064300Y0014000D01*
X0054300Y0014000D02*
X0054300Y0019600D01*
X0044300Y0019600D02*
X0044300Y0014000D01*
X0034300Y0014000D02*
X0034300Y0019600D01*
D12*
X0033200Y0038500D02*
X0033200Y0044500D01*
X0033200Y0064100D02*
X0033200Y0070100D01*
X0015400Y0070100D02*
X0015400Y0064100D01*
X0015400Y0044500D02*
X0015400Y0038500D01*
X0057900Y0038500D02*
X0057900Y0044500D01*
X0057900Y0064100D02*
X0057900Y0070100D01*
X0075700Y0070100D02*
X0075700Y0064100D01*
X0075700Y0044500D02*
X0075700Y0038500D01*
X0105400Y0038500D02*
X0105400Y0044500D01*
X0105400Y0064100D02*
X0105400Y0070100D01*
X0123200Y0070100D02*
X0123200Y0064100D01*
X0123200Y0044500D02*
X0123200Y0038500D01*
D13*
X0086800Y0035855D03*
X0086800Y0042745D03*
X0044300Y0042745D03*
X0044300Y0035855D03*
D14*
X0056800Y0184300D03*
X0066800Y0184300D03*
X0076800Y0184300D03*
X0086800Y0184300D03*
X0096800Y0184300D03*
X0096800Y0224300D03*
X0106800Y0224300D03*
X0086800Y0224300D03*
X0076800Y0224300D03*
X0066800Y0224300D03*
X0056800Y0224300D03*
D15*
X0036800Y0167600D02*
X0036800Y0161000D01*
X0026800Y0161000D02*
X0026800Y0167600D01*
X0016800Y0167600D02*
X0016800Y0161000D01*
D16*
X0026800Y0095300D03*
D17*
X0039300Y0182550D03*
X0039300Y0201050D03*
D18*
X0129300Y0113808D03*
X0129300Y0089792D03*
D19*
X0124300Y0134300D03*
X0101800Y0104300D03*
X0081800Y0106800D03*
X0086800Y0056800D03*
X0044300Y0056800D03*
X0116800Y0201800D03*
X0139300Y0226800D03*
X0034300Y0226800D03*
D20*
X0096800Y0156800D03*
X0096800Y0141800D03*
X0119300Y0083355D03*
X0111800Y0021800D03*
X0084300Y0021800D03*
X0139300Y0204300D03*
M02*
