G75*
%MOIN*%
%OFA0B0*%
%FSLAX25Y25*%
%IPPOS*%
%LPD*%
%AMOC8*
5,1,8,0,0,1.08239X$1,22.5*
%
%ADD10C,0.00600*%
%ADD11C,0.00400*%
%ADD12C,0.00300*%
%ADD13R,0.01670X0.00334*%
%ADD14R,0.03000X0.00333*%
%ADD15R,0.04000X0.00333*%
%ADD16R,0.04670X0.00334*%
%ADD17R,0.05000X0.00333*%
%ADD18R,0.05670X0.00333*%
%ADD19R,0.05670X0.00334*%
%ADD20R,0.06000X0.00333*%
%ADD21R,0.06330X0.00334*%
%ADD22R,0.06670X0.00333*%
%ADD23R,0.02000X0.00334*%
%ADD24R,0.07000X0.00334*%
%ADD25R,0.03340X0.00333*%
%ADD26R,0.04330X0.00333*%
%ADD27R,0.07000X0.00333*%
%ADD28R,0.05330X0.00334*%
%ADD29R,0.02330X0.00333*%
%ADD30R,0.03670X0.00333*%
%ADD31R,0.07670X0.00334*%
%ADD32R,0.06670X0.00334*%
%ADD33R,0.04330X0.00334*%
%ADD34R,0.08330X0.00333*%
%ADD35R,0.09000X0.00333*%
%ADD36R,0.09670X0.00334*%
%ADD37R,0.05340X0.00334*%
%ADD38R,0.10000X0.00333*%
%ADD39R,0.05340X0.00333*%
%ADD40R,0.10340X0.00333*%
%ADD41R,0.11000X0.00334*%
%ADD42R,0.06660X0.00334*%
%ADD43R,0.06000X0.00334*%
%ADD44R,0.11330X0.00333*%
%ADD45R,0.11660X0.00333*%
%ADD46R,0.06340X0.00333*%
%ADD47R,0.10330X0.00333*%
%ADD48R,0.06330X0.00333*%
%ADD49R,0.09340X0.00333*%
%ADD50R,0.08670X0.00334*%
%ADD51R,0.07660X0.00333*%
%ADD52R,0.03330X0.00333*%
%ADD53R,0.07330X0.00333*%
%ADD54R,0.02670X0.00333*%
%ADD55R,0.01340X0.00334*%
%ADD56R,0.00660X0.00333*%
%ADD57R,0.04670X0.00333*%
%ADD58R,0.00330X0.00333*%
%ADD59R,0.03660X0.00334*%
%ADD60R,0.04000X0.00334*%
%ADD61R,0.06340X0.00334*%
%ADD62R,0.02660X0.00333*%
%ADD63R,0.04660X0.00333*%
%ADD64R,0.00670X0.00333*%
%ADD65R,0.08330X0.00334*%
%ADD66R,0.08660X0.00333*%
%ADD67R,0.08000X0.00333*%
%ADD68R,0.09670X0.00333*%
%ADD69R,0.10340X0.00334*%
%ADD70R,0.03000X0.00334*%
%ADD71R,0.11000X0.00333*%
%ADD72R,0.02340X0.00333*%
%ADD73R,0.01660X0.00333*%
%ADD74R,0.10000X0.00334*%
%ADD75R,0.08000X0.00334*%
%ADD76R,0.01000X0.00334*%
%ADD77R,0.10670X0.00333*%
%ADD78R,0.10660X0.00333*%
%ADD79R,0.09340X0.00334*%
%ADD80R,0.01330X0.00334*%
%ADD81R,0.05330X0.00333*%
%ADD82R,0.02000X0.00333*%
%ADD83R,0.00670X0.00334*%
%ADD84R,0.05000X0.00334*%
%ADD85R,0.03670X0.00334*%
%ADD86R,0.03660X0.00333*%
%ADD87R,0.07670X0.00333*%
%ADD88R,0.08660X0.00334*%
%ADD89R,0.01000X0.00333*%
%ADD90R,0.09330X0.00333*%
%ADD91R,0.01330X0.00333*%
%ADD92R,0.09330X0.00334*%
%ADD93R,0.16000X0.00333*%
%ADD94R,0.10670X0.00334*%
%ADD95R,0.16660X0.00334*%
%ADD96R,0.16670X0.00333*%
%ADD97R,0.11670X0.00333*%
%ADD98R,0.11660X0.00334*%
%ADD99R,0.16670X0.00334*%
%ADD100R,0.16660X0.00333*%
%ADD101R,0.09000X0.00334*%
%ADD102R,0.16340X0.00334*%
%ADD103R,0.08670X0.00333*%
%ADD104R,0.16330X0.00333*%
%ADD105R,0.15670X0.00333*%
%ADD106R,0.00660X0.00334*%
%ADD107R,0.05660X0.00333*%
%ADD108R,0.01670X0.00333*%
%ADD109R,0.04340X0.00334*%
%ADD110R,0.03330X0.00334*%
%ADD111R,0.00340X0.00333*%
%ADD112R,0.05660X0.00334*%
%ADD113R,0.07330X0.00334*%
%ADD114R,0.08340X0.00333*%
%ADD115R,0.07340X0.00333*%
%ADD116R,0.06660X0.00333*%
%ADD117R,0.01340X0.00333*%
%ADD118R,0.02330X0.00334*%
%ADD119R,0.04340X0.00333*%
%ADD120R,0.02670X0.00334*%
%ADD121R,0.11340X0.00333*%
%ADD122C,0.00500*%
%ADD123C,0.00200*%
%ADD124R,0.03000X0.02500*%
%ADD125R,0.05000X0.11000*%
%ADD126C,0.00800*%
%ADD127C,0.00080*%
D10*
X0042243Y0110100D02*
X0041175Y0111168D01*
X0041175Y0112235D01*
X0042243Y0113303D01*
X0044378Y0113303D01*
X0045446Y0114370D01*
X0045446Y0115438D01*
X0044378Y0116505D01*
X0042243Y0116505D01*
X0041175Y0115438D01*
X0042243Y0110100D02*
X0044378Y0110100D01*
X0045446Y0111168D01*
X0049756Y0110100D02*
X0049756Y0116505D01*
X0051891Y0116505D02*
X0047621Y0116505D01*
X0054053Y0116505D02*
X0056188Y0116505D01*
X0055121Y0116505D02*
X0055121Y0110100D01*
X0056188Y0110100D02*
X0054053Y0110100D01*
X0058363Y0111168D02*
X0058363Y0116505D01*
X0062634Y0116505D02*
X0062634Y0111168D01*
X0061566Y0110100D01*
X0059431Y0110100D01*
X0058363Y0111168D01*
X0064809Y0111168D02*
X0065876Y0110100D01*
X0068012Y0110100D01*
X0069079Y0111168D01*
X0069079Y0115438D01*
X0068012Y0116505D01*
X0065876Y0116505D01*
X0064809Y0115438D01*
X0071254Y0115438D02*
X0071254Y0113303D01*
X0072322Y0112235D01*
X0075525Y0112235D01*
X0075525Y0110100D02*
X0075525Y0116505D01*
X0072322Y0116505D01*
X0071254Y0115438D01*
X0073389Y0112235D02*
X0071254Y0110100D01*
X0077686Y0110100D02*
X0079822Y0110100D01*
X0078754Y0110100D02*
X0078754Y0116505D01*
X0079822Y0116505D02*
X0077686Y0116505D01*
X0081997Y0115438D02*
X0083064Y0116505D01*
X0085200Y0116505D01*
X0086267Y0115438D01*
X0086267Y0111168D01*
X0085200Y0110100D01*
X0083064Y0110100D01*
X0081997Y0111168D01*
X0088442Y0116505D02*
X0092713Y0116505D01*
X0094888Y0116505D02*
X0099158Y0116505D01*
X0099158Y0110100D01*
X0101333Y0111168D02*
X0101333Y0115438D01*
X0102401Y0116505D01*
X0104536Y0116505D01*
X0105604Y0115438D01*
X0105604Y0111168D01*
X0104536Y0110100D01*
X0102401Y0110100D01*
X0101333Y0111168D01*
X0099158Y0113303D02*
X0097023Y0113303D01*
X0090577Y0110100D02*
X0090577Y0116505D01*
X0107779Y0115438D02*
X0108846Y0116505D01*
X0110982Y0116505D01*
X0112049Y0115438D01*
X0112049Y0114370D01*
X0110982Y0113303D01*
X0108846Y0113303D01*
X0107779Y0112235D01*
X0107779Y0111168D01*
X0108846Y0110100D01*
X0110982Y0110100D01*
X0112049Y0111168D01*
D11*
X0033699Y0173101D02*
X0033098Y0172500D01*
X0031897Y0172500D01*
X0031297Y0173101D01*
X0031297Y0173701D01*
X0031897Y0174302D01*
X0033098Y0174302D01*
X0033699Y0174902D01*
X0033699Y0175503D01*
X0033098Y0176103D01*
X0031897Y0176103D01*
X0031297Y0175503D01*
X0030016Y0175503D02*
X0029415Y0176103D01*
X0028214Y0176103D01*
X0027614Y0175503D01*
X0028214Y0174302D02*
X0027614Y0173701D01*
X0027614Y0173101D01*
X0028214Y0172500D01*
X0029415Y0172500D01*
X0030016Y0173101D01*
X0029415Y0174302D02*
X0028214Y0174302D01*
X0029415Y0174302D02*
X0030016Y0174902D01*
X0030016Y0175503D01*
X0028815Y0176704D02*
X0028815Y0171899D01*
X0025132Y0172500D02*
X0025132Y0176103D01*
X0026333Y0176103D02*
X0023931Y0176103D01*
X0022649Y0174902D02*
X0021448Y0176103D01*
X0021448Y0172500D01*
X0022649Y0172500D02*
X0020247Y0172500D01*
X0018966Y0173101D02*
X0018966Y0175503D01*
X0018366Y0176103D01*
X0017165Y0176103D01*
X0016564Y0175503D01*
X0018966Y0173101D01*
X0018366Y0172500D01*
X0017165Y0172500D01*
X0016564Y0173101D01*
X0016564Y0175503D01*
X0015283Y0175503D02*
X0015283Y0173101D01*
X0012881Y0175503D01*
X0012881Y0173101D01*
X0013482Y0172500D01*
X0014683Y0172500D01*
X0015283Y0173101D01*
X0015283Y0175503D02*
X0014683Y0176103D01*
X0013482Y0176103D01*
X0012881Y0175503D01*
X0032498Y0176704D02*
X0032498Y0171899D01*
X0054868Y0247000D02*
X0057937Y0247000D01*
X0056403Y0247000D02*
X0056403Y0251604D01*
X0057937Y0250069D01*
X0059472Y0248535D02*
X0059472Y0251604D01*
X0059472Y0248535D02*
X0061006Y0247000D01*
X0062541Y0248535D01*
X0062541Y0251604D01*
X0065610Y0251604D02*
X0065610Y0247000D01*
X0064076Y0247000D02*
X0067145Y0247000D01*
X0068680Y0249302D02*
X0071749Y0249302D01*
X0073284Y0250837D02*
X0074051Y0251604D01*
X0075586Y0251604D01*
X0076353Y0250837D01*
X0076353Y0247767D01*
X0075586Y0247000D01*
X0074051Y0247000D01*
X0073284Y0247767D01*
X0077888Y0251604D02*
X0080957Y0251604D01*
X0080957Y0247000D01*
X0082491Y0247000D02*
X0082491Y0250069D01*
X0084026Y0251604D01*
X0085561Y0250069D01*
X0085561Y0247000D01*
X0085561Y0249302D02*
X0082491Y0249302D01*
X0080957Y0249302D02*
X0079422Y0249302D01*
X0087095Y0249302D02*
X0090165Y0249302D01*
X0091699Y0249302D02*
X0091699Y0247767D01*
X0092467Y0247000D01*
X0094001Y0247000D01*
X0094769Y0247767D01*
X0096303Y0247767D02*
X0096303Y0250837D01*
X0099373Y0247767D01*
X0098605Y0247000D01*
X0097071Y0247000D01*
X0096303Y0247767D01*
X0094769Y0249302D02*
X0093234Y0250069D01*
X0092467Y0250069D01*
X0091699Y0249302D01*
X0091699Y0251604D02*
X0094769Y0251604D01*
X0094769Y0249302D01*
X0096303Y0250837D02*
X0097071Y0251604D01*
X0098605Y0251604D01*
X0099373Y0250837D01*
X0099373Y0247767D01*
X0100907Y0247000D02*
X0103976Y0247000D01*
X0102442Y0247000D02*
X0102442Y0251604D01*
X0103976Y0250069D01*
X0105511Y0248535D02*
X0105511Y0247767D01*
X0106278Y0247000D01*
X0107813Y0247000D01*
X0108580Y0247767D01*
X0108580Y0249302D01*
X0106278Y0249302D01*
X0105511Y0248535D01*
X0107046Y0250837D02*
X0105511Y0251604D01*
X0107046Y0250837D02*
X0108580Y0249302D01*
X0110115Y0247000D02*
X0113184Y0247000D01*
X0111650Y0247000D02*
X0111650Y0251604D01*
X0113184Y0250069D01*
X0114719Y0249302D02*
X0117788Y0249302D01*
X0119323Y0250837D02*
X0120090Y0251604D01*
X0121625Y0251604D01*
X0122392Y0250837D01*
X0122392Y0247767D01*
X0121625Y0247000D01*
X0120090Y0247000D01*
X0119323Y0247767D01*
X0123927Y0247000D02*
X0125461Y0248535D01*
X0124694Y0248535D02*
X0126996Y0248535D01*
X0126996Y0247000D02*
X0126996Y0251604D01*
X0124694Y0251604D01*
X0123927Y0250837D01*
X0123927Y0249302D01*
X0124694Y0248535D01*
X0128531Y0249302D02*
X0129298Y0248535D01*
X0131600Y0248535D01*
X0131600Y0247000D02*
X0131600Y0251604D01*
X0129298Y0251604D01*
X0128531Y0250837D01*
X0128531Y0249302D01*
X0067145Y0250069D02*
X0065610Y0251604D01*
D12*
X0041148Y0028126D02*
X0041765Y0027509D01*
X0042999Y0027509D01*
X0043616Y0028126D01*
X0044831Y0028126D02*
X0045448Y0027509D01*
X0046682Y0027509D01*
X0047300Y0028126D01*
X0047300Y0030595D01*
X0046682Y0031212D01*
X0045448Y0031212D01*
X0044831Y0030595D01*
X0043616Y0030595D02*
X0042999Y0031212D01*
X0041765Y0031212D01*
X0041148Y0030595D01*
X0041148Y0029978D01*
X0041765Y0029361D01*
X0041148Y0028743D01*
X0041148Y0028126D01*
X0041765Y0029361D02*
X0042382Y0029361D01*
X0084715Y0030243D02*
X0087184Y0030243D01*
X0085332Y0032094D01*
X0085332Y0028391D01*
X0088398Y0029008D02*
X0089015Y0028391D01*
X0090249Y0028391D01*
X0090867Y0029008D01*
X0090867Y0031477D01*
X0090249Y0032094D01*
X0089015Y0032094D01*
X0088398Y0031477D01*
X0110639Y0119785D02*
X0110022Y0120402D01*
X0110022Y0122871D01*
X0112490Y0120402D01*
X0111873Y0119785D01*
X0110639Y0119785D01*
X0112490Y0120402D02*
X0112490Y0122871D01*
X0111873Y0123488D01*
X0110639Y0123488D01*
X0110022Y0122871D01*
X0113705Y0122871D02*
X0113705Y0120402D01*
X0114322Y0119785D01*
X0115556Y0119785D01*
X0116173Y0120402D01*
X0113705Y0122871D01*
X0114322Y0123488D01*
X0115556Y0123488D01*
X0116173Y0122871D01*
X0116173Y0120402D01*
X0117388Y0119785D02*
X0119857Y0119785D01*
X0118622Y0119785D02*
X0118622Y0123488D01*
X0119857Y0122253D01*
X0121071Y0122871D02*
X0121688Y0123488D01*
X0122923Y0123488D01*
X0123540Y0122871D01*
X0123540Y0120402D01*
X0122923Y0119785D01*
X0121688Y0119785D01*
X0121071Y0120402D01*
X0053883Y0207950D02*
X0052031Y0207950D01*
X0051414Y0208567D01*
X0051414Y0211036D01*
X0052031Y0211653D01*
X0053883Y0211653D01*
X0053883Y0207950D01*
X0050199Y0207950D02*
X0047731Y0207950D01*
X0048965Y0207950D02*
X0048965Y0211653D01*
X0050199Y0210419D01*
X0046516Y0211036D02*
X0046516Y0208567D01*
X0044048Y0211036D01*
X0044048Y0208567D01*
X0044665Y0207950D01*
X0045899Y0207950D01*
X0046516Y0208567D01*
X0046516Y0211036D02*
X0045899Y0211653D01*
X0044665Y0211653D01*
X0044048Y0211036D01*
X0042833Y0211036D02*
X0042833Y0208567D01*
X0040364Y0211036D01*
X0040364Y0208567D01*
X0040982Y0207950D01*
X0042216Y0207950D01*
X0042833Y0208567D01*
X0042833Y0211036D02*
X0042216Y0211653D01*
X0040982Y0211653D01*
X0040364Y0211036D01*
D13*
X0080634Y0153468D03*
X0082964Y0164468D03*
X0066634Y0143468D03*
X0091964Y0129468D03*
D14*
X0091969Y0129801D03*
X0091299Y0145801D03*
X0082969Y0164134D03*
X0076299Y0152801D03*
X0075629Y0128134D03*
D15*
X0081469Y0128801D03*
X0086469Y0137134D03*
X0091799Y0130134D03*
X0088799Y0149801D03*
X0083129Y0163801D03*
X0055469Y0144801D03*
D16*
X0068464Y0136468D03*
X0081464Y0128468D03*
X0083134Y0163468D03*
D17*
X0082969Y0163134D03*
X0091969Y0157801D03*
X0088629Y0150134D03*
X0083629Y0145134D03*
X0083629Y0144801D03*
X0086629Y0121801D03*
X0069629Y0118134D03*
X0063969Y0131134D03*
X0068629Y0135801D03*
X0068629Y0136134D03*
X0068629Y0136801D03*
X0068629Y0137134D03*
X0060969Y0137801D03*
D18*
X0055964Y0144134D03*
X0060964Y0150801D03*
X0065634Y0145134D03*
X0069634Y0134134D03*
X0072964Y0126134D03*
X0069634Y0118801D03*
X0060634Y0124134D03*
X0079634Y0155134D03*
X0082964Y0162801D03*
X0082634Y0142801D03*
X0096634Y0139134D03*
D19*
X0086964Y0136468D03*
X0082964Y0146468D03*
X0082964Y0162468D03*
X0074964Y0129468D03*
D20*
X0069799Y0133801D03*
X0064129Y0130801D03*
X0061129Y0125134D03*
X0060799Y0138134D03*
X0069799Y0119134D03*
X0082799Y0146801D03*
X0082469Y0147134D03*
X0089129Y0152134D03*
X0089799Y0153134D03*
X0090129Y0153801D03*
X0090799Y0154801D03*
X0091469Y0156134D03*
X0091799Y0156801D03*
X0082799Y0161801D03*
X0082799Y0162134D03*
X0066129Y0159134D03*
X0086469Y0122134D03*
X0091469Y0130801D03*
D21*
X0088634Y0151468D03*
X0089964Y0153468D03*
X0090634Y0154468D03*
X0082634Y0161468D03*
X0070634Y0153468D03*
X0063634Y0129468D03*
X0062964Y0128468D03*
X0069634Y0119468D03*
D22*
X0070464Y0121134D03*
X0071134Y0122134D03*
X0071464Y0122801D03*
X0072134Y0123801D03*
X0073134Y0125801D03*
X0087134Y0136134D03*
X0077134Y0151134D03*
X0079464Y0155801D03*
X0080134Y0156801D03*
X0081464Y0159134D03*
X0082134Y0160134D03*
X0082464Y0160801D03*
X0082464Y0161134D03*
X0066464Y0158801D03*
D23*
X0065799Y0160468D03*
X0061799Y0136468D03*
X0063129Y0132468D03*
D24*
X0071969Y0123468D03*
X0071299Y0122468D03*
X0070629Y0121468D03*
X0056299Y0143468D03*
X0081629Y0159468D03*
X0082299Y0160468D03*
D25*
X0065799Y0160134D03*
X0086799Y0121134D03*
D26*
X0072634Y0126801D03*
X0060634Y0122801D03*
X0076634Y0152134D03*
X0065964Y0159801D03*
X0091964Y0158134D03*
D27*
X0081969Y0159801D03*
X0081299Y0158801D03*
X0080969Y0158134D03*
X0080629Y0157801D03*
X0080299Y0157134D03*
X0079629Y0156134D03*
X0081629Y0147801D03*
X0092299Y0144134D03*
X0096299Y0139801D03*
X0072969Y0125134D03*
X0072629Y0124801D03*
X0072299Y0124134D03*
X0071629Y0123134D03*
X0070299Y0120801D03*
X0070969Y0132801D03*
X0070629Y0133134D03*
X0061629Y0150134D03*
D28*
X0066134Y0159468D03*
X0088464Y0150468D03*
X0069464Y0118468D03*
D29*
X0060634Y0122134D03*
X0071634Y0151801D03*
X0075964Y0153134D03*
X0091964Y0159134D03*
X0096964Y0138134D03*
D30*
X0091964Y0158801D03*
D31*
X0066634Y0158468D03*
D32*
X0065464Y0145468D03*
X0060464Y0138468D03*
X0070134Y0133468D03*
X0073134Y0125468D03*
X0072464Y0124468D03*
X0070134Y0120468D03*
X0078134Y0138468D03*
X0082134Y0142468D03*
X0082134Y0147468D03*
X0079464Y0155468D03*
X0080464Y0157468D03*
X0081134Y0158468D03*
X0086134Y0122468D03*
D33*
X0086634Y0121468D03*
X0079964Y0154468D03*
X0091964Y0158468D03*
X0065964Y0144468D03*
D34*
X0064964Y0146134D03*
X0066964Y0158134D03*
D35*
X0067299Y0157801D03*
X0062299Y0149134D03*
X0074299Y0130801D03*
X0095299Y0140801D03*
D36*
X0094634Y0141468D03*
X0067634Y0157468D03*
D37*
X0072799Y0126468D03*
X0091799Y0157468D03*
D38*
X0089469Y0133134D03*
X0084799Y0124134D03*
X0067799Y0157134D03*
X0059799Y0139801D03*
X0057799Y0141801D03*
X0057469Y0142134D03*
D39*
X0065799Y0144801D03*
X0068799Y0137801D03*
X0068799Y0135134D03*
X0060799Y0123801D03*
X0076799Y0151801D03*
X0079799Y0154801D03*
X0070799Y0153134D03*
X0081799Y0128134D03*
X0091799Y0157134D03*
D40*
X0093299Y0142801D03*
X0094299Y0141801D03*
X0068299Y0156801D03*
D41*
X0068629Y0156468D03*
X0069629Y0155468D03*
X0064299Y0147468D03*
X0093299Y0142468D03*
D42*
X0079799Y0156468D03*
X0073799Y0142468D03*
X0069799Y0138468D03*
X0061799Y0126468D03*
D43*
X0060799Y0124468D03*
X0077129Y0151468D03*
X0091129Y0155468D03*
X0091469Y0156468D03*
X0096469Y0139468D03*
D44*
X0083134Y0125801D03*
X0078464Y0148801D03*
X0069134Y0156134D03*
D45*
X0069299Y0155801D03*
D46*
X0063299Y0129134D03*
X0063299Y0128801D03*
X0062299Y0127134D03*
X0061299Y0125801D03*
X0088299Y0150801D03*
X0090299Y0154134D03*
X0091299Y0155801D03*
X0091299Y0131134D03*
D47*
X0082964Y0126134D03*
X0069634Y0155134D03*
D48*
X0055964Y0143801D03*
X0063964Y0130134D03*
X0062634Y0128134D03*
X0062634Y0127801D03*
X0061964Y0126801D03*
X0061634Y0126134D03*
X0060964Y0124801D03*
X0069964Y0120134D03*
X0081964Y0127801D03*
X0088634Y0151134D03*
X0088964Y0151801D03*
X0089634Y0152801D03*
X0090964Y0155134D03*
D49*
X0073799Y0131134D03*
X0062799Y0148801D03*
X0069799Y0154801D03*
D50*
X0070134Y0154468D03*
X0062134Y0149468D03*
X0085464Y0123468D03*
D51*
X0070299Y0154134D03*
X0065299Y0145801D03*
X0060299Y0138801D03*
D52*
X0063464Y0131801D03*
X0072464Y0127134D03*
X0081134Y0129134D03*
X0080134Y0154134D03*
D53*
X0077464Y0150801D03*
X0081134Y0148134D03*
X0087464Y0135801D03*
X0070464Y0153801D03*
D54*
X0071464Y0152134D03*
X0066464Y0143801D03*
X0061464Y0136801D03*
X0063464Y0132134D03*
X0055464Y0145134D03*
X0069464Y0117134D03*
X0080464Y0153801D03*
D55*
X0075799Y0153468D03*
X0071799Y0151468D03*
X0075799Y0127468D03*
D56*
X0090799Y0146801D03*
X0080799Y0153134D03*
D57*
X0083464Y0144134D03*
X0083464Y0143801D03*
X0071134Y0152801D03*
X0060464Y0123134D03*
X0069464Y0117801D03*
D58*
X0066964Y0142801D03*
X0080964Y0152801D03*
D59*
X0071299Y0152468D03*
X0075299Y0128468D03*
D60*
X0069469Y0117468D03*
X0063799Y0131468D03*
X0060799Y0151468D03*
X0076469Y0152468D03*
D61*
X0064299Y0130468D03*
X0062299Y0127468D03*
X0061299Y0125468D03*
X0061299Y0150468D03*
X0089299Y0152468D03*
X0092299Y0144468D03*
D62*
X0060799Y0151801D03*
D63*
X0060799Y0151134D03*
X0086799Y0136801D03*
X0091799Y0145134D03*
X0096799Y0138801D03*
D64*
X0080464Y0130134D03*
X0076134Y0127134D03*
X0072134Y0151134D03*
D65*
X0077634Y0150468D03*
X0072964Y0131468D03*
X0095634Y0140468D03*
D66*
X0087799Y0135134D03*
X0077799Y0150134D03*
X0056799Y0142801D03*
D67*
X0056469Y0143134D03*
X0061799Y0149801D03*
X0082469Y0127134D03*
X0085799Y0123134D03*
X0090799Y0131801D03*
D68*
X0089964Y0132801D03*
X0087964Y0134801D03*
X0077964Y0149801D03*
X0064634Y0146801D03*
D69*
X0078299Y0149468D03*
X0088299Y0134468D03*
D70*
X0088969Y0149468D03*
D71*
X0088299Y0134134D03*
X0088629Y0133801D03*
X0083969Y0124801D03*
X0078299Y0149134D03*
X0058629Y0141134D03*
D72*
X0086299Y0137801D03*
X0089299Y0149134D03*
D73*
X0089299Y0148801D03*
D74*
X0063129Y0148468D03*
D75*
X0074469Y0130468D03*
X0080469Y0148468D03*
X0087469Y0135468D03*
D76*
X0089629Y0148468D03*
D77*
X0064464Y0147134D03*
X0063464Y0148134D03*
X0059464Y0140134D03*
D78*
X0063799Y0147801D03*
X0093799Y0142134D03*
D79*
X0082799Y0126468D03*
X0064799Y0146468D03*
D80*
X0091134Y0146468D03*
D81*
X0092134Y0144801D03*
X0083464Y0145801D03*
X0083134Y0146134D03*
X0083134Y0143134D03*
X0075134Y0129134D03*
X0069134Y0134801D03*
D82*
X0075799Y0127801D03*
X0091129Y0146134D03*
D83*
X0055464Y0145468D03*
D84*
X0055629Y0144468D03*
X0068629Y0137468D03*
X0068629Y0135468D03*
X0060629Y0123468D03*
X0083299Y0143468D03*
X0083629Y0144468D03*
X0083629Y0145468D03*
X0091629Y0130468D03*
D85*
X0096964Y0138468D03*
X0091634Y0145468D03*
X0060634Y0122468D03*
D86*
X0061299Y0137134D03*
X0066299Y0144134D03*
D87*
X0071964Y0132134D03*
X0085964Y0122801D03*
X0095964Y0140134D03*
X0092634Y0143801D03*
D88*
X0092799Y0143468D03*
D89*
X0071629Y0128134D03*
X0062969Y0132801D03*
X0061969Y0136134D03*
X0066969Y0143134D03*
D90*
X0085134Y0123801D03*
X0095134Y0141134D03*
X0093134Y0143134D03*
D91*
X0073134Y0142801D03*
X0069464Y0116801D03*
D92*
X0057134Y0142468D03*
X0090134Y0132468D03*
D93*
X0077469Y0142134D03*
X0077129Y0141801D03*
D94*
X0084464Y0124468D03*
X0089134Y0133468D03*
X0058134Y0141468D03*
D95*
X0076799Y0141468D03*
D96*
X0076464Y0141134D03*
X0076134Y0140801D03*
X0075464Y0139801D03*
D97*
X0058964Y0140801D03*
D98*
X0059299Y0140468D03*
X0083299Y0125468D03*
D99*
X0076134Y0140468D03*
D100*
X0075799Y0140134D03*
D101*
X0059969Y0139468D03*
D102*
X0075299Y0139468D03*
D103*
X0082464Y0126801D03*
X0090464Y0132134D03*
X0060134Y0139134D03*
D104*
X0074964Y0139134D03*
D105*
X0074634Y0138801D03*
D106*
X0085799Y0138468D03*
D107*
X0069299Y0138134D03*
D108*
X0071964Y0127801D03*
X0085964Y0138134D03*
D109*
X0061299Y0137468D03*
D110*
X0086464Y0137468D03*
D111*
X0062299Y0135801D03*
D112*
X0069299Y0134468D03*
D113*
X0071464Y0132468D03*
X0082134Y0127468D03*
X0091134Y0131468D03*
D114*
X0072299Y0131801D03*
D115*
X0074799Y0130134D03*
D116*
X0074799Y0129801D03*
X0070799Y0121801D03*
X0069799Y0119801D03*
X0063799Y0129801D03*
D117*
X0080799Y0129801D03*
X0086799Y0120801D03*
D118*
X0080964Y0129468D03*
D119*
X0075299Y0128801D03*
D120*
X0072134Y0127468D03*
D121*
X0083799Y0125134D03*
D122*
X0047300Y0144300D02*
X0047300Y0095300D01*
X0043800Y0095300D01*
X0043800Y0089300D01*
X0047300Y0089300D01*
X0047300Y0081800D01*
X0006300Y0081800D01*
X0006300Y0089300D01*
X0009800Y0089300D01*
X0009800Y0095300D01*
X0006300Y0095300D01*
X0006300Y0144300D01*
X0047300Y0144300D01*
X0045599Y0176776D02*
X0033812Y0176776D01*
X0034038Y0176776D01*
X0033812Y0176776D02*
X0033001Y0176776D01*
X0033001Y0206717D01*
X0043812Y0206717D01*
X0045599Y0206717D01*
X0045599Y0176776D01*
X0041050Y0193050D02*
X0037550Y0193050D01*
X0039300Y0194550D01*
X0041050Y0193050D01*
X0041050Y0194550D02*
X0037550Y0194550D01*
X0043812Y0206717D02*
X0044788Y0206717D01*
X0031856Y0108053D02*
X0030722Y0106919D01*
X0030722Y0104650D01*
X0029399Y0104650D02*
X0027131Y0104650D01*
X0028265Y0104650D02*
X0028265Y0108053D01*
X0029399Y0106919D01*
X0030722Y0106351D02*
X0032990Y0106351D01*
X0032990Y0106919D02*
X0031856Y0108053D01*
X0032990Y0106919D02*
X0032990Y0104650D01*
X0019700Y0095300D02*
X0019702Y0095474D01*
X0019709Y0095648D01*
X0019719Y0095822D01*
X0019734Y0095996D01*
X0019753Y0096169D01*
X0019777Y0096342D01*
X0019805Y0096514D01*
X0019836Y0096685D01*
X0019873Y0096856D01*
X0019913Y0097025D01*
X0019957Y0097194D01*
X0020006Y0097361D01*
X0020058Y0097527D01*
X0020115Y0097692D01*
X0020176Y0097855D01*
X0020240Y0098017D01*
X0020309Y0098177D01*
X0020382Y0098336D01*
X0020458Y0098492D01*
X0020538Y0098647D01*
X0020622Y0098800D01*
X0020710Y0098950D01*
X0020802Y0099098D01*
X0020897Y0099245D01*
X0020995Y0099388D01*
X0021097Y0099529D01*
X0021203Y0099668D01*
X0021312Y0099804D01*
X0021424Y0099938D01*
X0021539Y0100068D01*
X0021658Y0100196D01*
X0021780Y0100320D01*
X0021904Y0100442D01*
X0022032Y0100561D01*
X0022162Y0100676D01*
X0022296Y0100788D01*
X0022432Y0100897D01*
X0022571Y0101003D01*
X0022712Y0101105D01*
X0022855Y0101203D01*
X0023002Y0101298D01*
X0023150Y0101390D01*
X0023300Y0101478D01*
X0023453Y0101562D01*
X0023608Y0101642D01*
X0023764Y0101718D01*
X0023923Y0101791D01*
X0024083Y0101860D01*
X0024245Y0101924D01*
X0024408Y0101985D01*
X0024573Y0102042D01*
X0024739Y0102094D01*
X0024906Y0102143D01*
X0025075Y0102187D01*
X0025244Y0102227D01*
X0025415Y0102264D01*
X0025586Y0102295D01*
X0025758Y0102323D01*
X0025931Y0102347D01*
X0026104Y0102366D01*
X0026278Y0102381D01*
X0026452Y0102391D01*
X0026626Y0102398D01*
X0026800Y0102400D01*
X0026974Y0102398D01*
X0027148Y0102391D01*
X0027322Y0102381D01*
X0027496Y0102366D01*
X0027669Y0102347D01*
X0027842Y0102323D01*
X0028014Y0102295D01*
X0028185Y0102264D01*
X0028356Y0102227D01*
X0028525Y0102187D01*
X0028694Y0102143D01*
X0028861Y0102094D01*
X0029027Y0102042D01*
X0029192Y0101985D01*
X0029355Y0101924D01*
X0029517Y0101860D01*
X0029677Y0101791D01*
X0029836Y0101718D01*
X0029992Y0101642D01*
X0030147Y0101562D01*
X0030300Y0101478D01*
X0030450Y0101390D01*
X0030598Y0101298D01*
X0030745Y0101203D01*
X0030888Y0101105D01*
X0031029Y0101003D01*
X0031168Y0100897D01*
X0031304Y0100788D01*
X0031438Y0100676D01*
X0031568Y0100561D01*
X0031696Y0100442D01*
X0031820Y0100320D01*
X0031942Y0100196D01*
X0032061Y0100068D01*
X0032176Y0099938D01*
X0032288Y0099804D01*
X0032397Y0099668D01*
X0032503Y0099529D01*
X0032605Y0099388D01*
X0032703Y0099245D01*
X0032798Y0099098D01*
X0032890Y0098950D01*
X0032978Y0098800D01*
X0033062Y0098647D01*
X0033142Y0098492D01*
X0033218Y0098336D01*
X0033291Y0098177D01*
X0033360Y0098017D01*
X0033424Y0097855D01*
X0033485Y0097692D01*
X0033542Y0097527D01*
X0033594Y0097361D01*
X0033643Y0097194D01*
X0033687Y0097025D01*
X0033727Y0096856D01*
X0033764Y0096685D01*
X0033795Y0096514D01*
X0033823Y0096342D01*
X0033847Y0096169D01*
X0033866Y0095996D01*
X0033881Y0095822D01*
X0033891Y0095648D01*
X0033898Y0095474D01*
X0033900Y0095300D01*
X0033898Y0095126D01*
X0033891Y0094952D01*
X0033881Y0094778D01*
X0033866Y0094604D01*
X0033847Y0094431D01*
X0033823Y0094258D01*
X0033795Y0094086D01*
X0033764Y0093915D01*
X0033727Y0093744D01*
X0033687Y0093575D01*
X0033643Y0093406D01*
X0033594Y0093239D01*
X0033542Y0093073D01*
X0033485Y0092908D01*
X0033424Y0092745D01*
X0033360Y0092583D01*
X0033291Y0092423D01*
X0033218Y0092264D01*
X0033142Y0092108D01*
X0033062Y0091953D01*
X0032978Y0091800D01*
X0032890Y0091650D01*
X0032798Y0091502D01*
X0032703Y0091355D01*
X0032605Y0091212D01*
X0032503Y0091071D01*
X0032397Y0090932D01*
X0032288Y0090796D01*
X0032176Y0090662D01*
X0032061Y0090532D01*
X0031942Y0090404D01*
X0031820Y0090280D01*
X0031696Y0090158D01*
X0031568Y0090039D01*
X0031438Y0089924D01*
X0031304Y0089812D01*
X0031168Y0089703D01*
X0031029Y0089597D01*
X0030888Y0089495D01*
X0030745Y0089397D01*
X0030598Y0089302D01*
X0030450Y0089210D01*
X0030300Y0089122D01*
X0030147Y0089038D01*
X0029992Y0088958D01*
X0029836Y0088882D01*
X0029677Y0088809D01*
X0029517Y0088740D01*
X0029355Y0088676D01*
X0029192Y0088615D01*
X0029027Y0088558D01*
X0028861Y0088506D01*
X0028694Y0088457D01*
X0028525Y0088413D01*
X0028356Y0088373D01*
X0028185Y0088336D01*
X0028014Y0088305D01*
X0027842Y0088277D01*
X0027669Y0088253D01*
X0027496Y0088234D01*
X0027322Y0088219D01*
X0027148Y0088209D01*
X0026974Y0088202D01*
X0026800Y0088200D01*
X0026626Y0088202D01*
X0026452Y0088209D01*
X0026278Y0088219D01*
X0026104Y0088234D01*
X0025931Y0088253D01*
X0025758Y0088277D01*
X0025586Y0088305D01*
X0025415Y0088336D01*
X0025244Y0088373D01*
X0025075Y0088413D01*
X0024906Y0088457D01*
X0024739Y0088506D01*
X0024573Y0088558D01*
X0024408Y0088615D01*
X0024245Y0088676D01*
X0024083Y0088740D01*
X0023923Y0088809D01*
X0023764Y0088882D01*
X0023608Y0088958D01*
X0023453Y0089038D01*
X0023300Y0089122D01*
X0023150Y0089210D01*
X0023002Y0089302D01*
X0022855Y0089397D01*
X0022712Y0089495D01*
X0022571Y0089597D01*
X0022432Y0089703D01*
X0022296Y0089812D01*
X0022162Y0089924D01*
X0022032Y0090039D01*
X0021904Y0090158D01*
X0021780Y0090280D01*
X0021658Y0090404D01*
X0021539Y0090532D01*
X0021424Y0090662D01*
X0021312Y0090796D01*
X0021203Y0090932D01*
X0021097Y0091071D01*
X0020995Y0091212D01*
X0020897Y0091355D01*
X0020802Y0091502D01*
X0020710Y0091650D01*
X0020622Y0091800D01*
X0020538Y0091953D01*
X0020458Y0092108D01*
X0020382Y0092264D01*
X0020309Y0092423D01*
X0020240Y0092583D01*
X0020176Y0092745D01*
X0020115Y0092908D01*
X0020058Y0093073D01*
X0020006Y0093239D01*
X0019957Y0093406D01*
X0019913Y0093575D01*
X0019873Y0093744D01*
X0019836Y0093915D01*
X0019805Y0094086D01*
X0019777Y0094258D01*
X0019753Y0094431D01*
X0019734Y0094604D01*
X0019719Y0094778D01*
X0019709Y0094952D01*
X0019702Y0095126D01*
X0019700Y0095300D01*
X0022217Y0103516D02*
X0021083Y0104650D01*
X0021650Y0104650D01*
X0021650Y0105217D01*
X0021083Y0105217D01*
X0021083Y0104650D01*
X0019823Y0105217D02*
X0019256Y0104650D01*
X0018122Y0104650D01*
X0017555Y0105217D01*
X0017555Y0106351D01*
X0018122Y0106919D01*
X0018689Y0106919D01*
X0019823Y0106351D01*
X0019823Y0108053D01*
X0017555Y0108053D01*
X0016232Y0106919D02*
X0016232Y0104650D01*
X0015098Y0104650D02*
X0015098Y0106351D01*
X0014531Y0106919D01*
X0013964Y0106351D01*
X0013964Y0104650D01*
X0012641Y0104650D02*
X0012641Y0106919D01*
X0012074Y0106919D01*
X0011507Y0106351D01*
X0010940Y0106919D01*
X0010372Y0106351D01*
X0010372Y0104650D01*
X0011507Y0104650D02*
X0011507Y0106351D01*
X0015098Y0106351D02*
X0015665Y0106919D01*
X0016232Y0106919D01*
X0023540Y0107486D02*
X0025808Y0105217D01*
X0025808Y0104650D01*
X0025808Y0108053D02*
X0023540Y0108053D01*
X0023540Y0107486D01*
D123*
X0008800Y0109300D02*
X0008800Y0141800D01*
X0044800Y0141800D01*
X0044800Y0109300D01*
X0008800Y0109300D01*
D124*
X0016800Y0156550D03*
X0026800Y0156550D03*
X0036800Y0156550D03*
D125*
X0036800Y0149800D03*
X0026800Y0149800D03*
X0016800Y0149800D03*
D126*
X0112765Y0114792D02*
X0112765Y0085265D01*
X0124969Y0085265D01*
X0133631Y0085265D02*
X0145835Y0085265D01*
X0145835Y0114792D01*
X0142292Y0118335D01*
X0133631Y0118335D01*
X0124969Y0118335D02*
X0116308Y0118335D01*
X0112765Y0114792D01*
D127*
X0133571Y0086702D02*
X0133373Y0087394D01*
X0133722Y0087499D01*
X0134069Y0087614D01*
X0134412Y0087736D01*
X0134753Y0087867D01*
X0135090Y0088006D01*
X0135424Y0088153D01*
X0135754Y0088309D01*
X0136080Y0088472D01*
X0136402Y0088643D01*
X0136720Y0088822D01*
X0137033Y0089009D01*
X0137342Y0089203D01*
X0137646Y0089405D01*
X0137945Y0089614D01*
X0138238Y0089830D01*
X0138527Y0090053D01*
X0138810Y0090283D01*
X0139087Y0090520D01*
X0139358Y0090764D01*
X0139624Y0091014D01*
X0139883Y0091271D01*
X0140136Y0091534D01*
X0140382Y0091803D01*
X0140622Y0092078D01*
X0140855Y0092358D01*
X0141081Y0092644D01*
X0141300Y0092936D01*
X0141512Y0093233D01*
X0141717Y0093535D01*
X0141914Y0093841D01*
X0142104Y0094153D01*
X0142286Y0094469D01*
X0142461Y0094789D01*
X0142627Y0095114D01*
X0142786Y0095442D01*
X0142936Y0095774D01*
X0143079Y0096110D01*
X0143213Y0096449D01*
X0143339Y0096792D01*
X0143457Y0097137D01*
X0143566Y0097485D01*
X0143667Y0097835D01*
X0143759Y0098188D01*
X0143842Y0098543D01*
X0143917Y0098900D01*
X0143983Y0099259D01*
X0144041Y0099619D01*
X0144089Y0099981D01*
X0144129Y0100343D01*
X0144160Y0100707D01*
X0144182Y0101071D01*
X0144196Y0101435D01*
X0144200Y0101800D01*
X0144196Y0102165D01*
X0144182Y0102529D01*
X0144160Y0102893D01*
X0144129Y0103257D01*
X0144089Y0103619D01*
X0144041Y0103981D01*
X0143983Y0104341D01*
X0143917Y0104700D01*
X0143842Y0105057D01*
X0143759Y0105412D01*
X0143667Y0105765D01*
X0143566Y0106115D01*
X0143457Y0106463D01*
X0143339Y0106808D01*
X0143213Y0107151D01*
X0143079Y0107490D01*
X0142936Y0107826D01*
X0142786Y0108158D01*
X0142627Y0108486D01*
X0142461Y0108811D01*
X0142286Y0109131D01*
X0142104Y0109447D01*
X0141914Y0109759D01*
X0141717Y0110065D01*
X0141512Y0110367D01*
X0141300Y0110664D01*
X0141081Y0110956D01*
X0140855Y0111242D01*
X0140622Y0111522D01*
X0140382Y0111797D01*
X0140136Y0112066D01*
X0139883Y0112329D01*
X0139624Y0112586D01*
X0139358Y0112836D01*
X0139087Y0113080D01*
X0138810Y0113317D01*
X0138527Y0113547D01*
X0138238Y0113770D01*
X0137945Y0113986D01*
X0137646Y0114195D01*
X0137342Y0114397D01*
X0137033Y0114591D01*
X0136720Y0114778D01*
X0136402Y0114957D01*
X0136080Y0115128D01*
X0135754Y0115291D01*
X0135424Y0115447D01*
X0135090Y0115594D01*
X0134753Y0115733D01*
X0134412Y0115864D01*
X0134069Y0115986D01*
X0133722Y0116101D01*
X0133373Y0116206D01*
X0133571Y0116898D01*
X0133572Y0116898D01*
X0133938Y0116788D01*
X0134301Y0116668D01*
X0134661Y0116540D01*
X0135018Y0116402D01*
X0135371Y0116257D01*
X0135721Y0116102D01*
X0136067Y0115940D01*
X0136409Y0115769D01*
X0136746Y0115589D01*
X0137079Y0115402D01*
X0137408Y0115206D01*
X0137731Y0115002D01*
X0138050Y0114791D01*
X0138363Y0114572D01*
X0138671Y0114346D01*
X0138973Y0114112D01*
X0139270Y0113870D01*
X0139561Y0113622D01*
X0139845Y0113366D01*
X0140123Y0113104D01*
X0140395Y0112835D01*
X0140660Y0112560D01*
X0140918Y0112278D01*
X0141170Y0111990D01*
X0141414Y0111696D01*
X0141651Y0111396D01*
X0141881Y0111090D01*
X0142103Y0110779D01*
X0142317Y0110463D01*
X0142524Y0110141D01*
X0142723Y0109815D01*
X0142914Y0109484D01*
X0143097Y0109148D01*
X0143271Y0108808D01*
X0143438Y0108464D01*
X0143595Y0108115D01*
X0143745Y0107763D01*
X0143886Y0107408D01*
X0144018Y0107049D01*
X0144141Y0106687D01*
X0144255Y0106323D01*
X0144361Y0105955D01*
X0144457Y0105585D01*
X0144545Y0105213D01*
X0144623Y0104839D01*
X0144693Y0104463D01*
X0144753Y0104086D01*
X0144804Y0103707D01*
X0144846Y0103327D01*
X0144878Y0102946D01*
X0144901Y0102564D01*
X0144915Y0102182D01*
X0144920Y0101800D01*
X0144915Y0101418D01*
X0144901Y0101036D01*
X0144878Y0100654D01*
X0144846Y0100273D01*
X0144804Y0099893D01*
X0144753Y0099514D01*
X0144693Y0099137D01*
X0144623Y0098761D01*
X0144545Y0098387D01*
X0144457Y0098015D01*
X0144361Y0097645D01*
X0144255Y0097277D01*
X0144141Y0096913D01*
X0144018Y0096551D01*
X0143886Y0096192D01*
X0143745Y0095837D01*
X0143595Y0095485D01*
X0143438Y0095136D01*
X0143271Y0094792D01*
X0143097Y0094452D01*
X0142914Y0094116D01*
X0142723Y0093785D01*
X0142524Y0093459D01*
X0142317Y0093137D01*
X0142103Y0092821D01*
X0141881Y0092510D01*
X0141651Y0092204D01*
X0141414Y0091904D01*
X0141170Y0091610D01*
X0140918Y0091322D01*
X0140660Y0091040D01*
X0140395Y0090765D01*
X0140123Y0090496D01*
X0139845Y0090234D01*
X0139561Y0089978D01*
X0139270Y0089730D01*
X0138973Y0089488D01*
X0138671Y0089254D01*
X0138363Y0089028D01*
X0138050Y0088809D01*
X0137731Y0088598D01*
X0137408Y0088394D01*
X0137079Y0088198D01*
X0136746Y0088011D01*
X0136409Y0087831D01*
X0136067Y0087660D01*
X0135721Y0087498D01*
X0135371Y0087343D01*
X0135018Y0087198D01*
X0134661Y0087060D01*
X0134301Y0086932D01*
X0133938Y0086812D01*
X0133572Y0086702D01*
X0133551Y0086774D01*
X0133915Y0086884D01*
X0134277Y0087003D01*
X0134635Y0087131D01*
X0134990Y0087267D01*
X0135342Y0087412D01*
X0135690Y0087566D01*
X0136034Y0087728D01*
X0136374Y0087898D01*
X0136710Y0088077D01*
X0137042Y0088263D01*
X0137369Y0088458D01*
X0137691Y0088661D01*
X0138008Y0088871D01*
X0138320Y0089089D01*
X0138626Y0089314D01*
X0138927Y0089547D01*
X0139222Y0089787D01*
X0139511Y0090035D01*
X0139794Y0090289D01*
X0140071Y0090550D01*
X0140342Y0090818D01*
X0140605Y0091092D01*
X0140862Y0091372D01*
X0141112Y0091659D01*
X0141356Y0091951D01*
X0141592Y0092250D01*
X0141820Y0092554D01*
X0142041Y0092864D01*
X0142255Y0093179D01*
X0142461Y0093499D01*
X0142659Y0093823D01*
X0142849Y0094153D01*
X0143030Y0094487D01*
X0143204Y0094826D01*
X0143370Y0095168D01*
X0143527Y0095515D01*
X0143675Y0095865D01*
X0143815Y0096219D01*
X0143947Y0096576D01*
X0144070Y0096936D01*
X0144183Y0097299D01*
X0144288Y0097665D01*
X0144385Y0098033D01*
X0144472Y0098403D01*
X0144550Y0098775D01*
X0144619Y0099150D01*
X0144679Y0099525D01*
X0144729Y0099902D01*
X0144771Y0100281D01*
X0144803Y0100660D01*
X0144826Y0101039D01*
X0144840Y0101420D01*
X0144845Y0101800D01*
X0144840Y0102180D01*
X0144826Y0102561D01*
X0144803Y0102940D01*
X0144771Y0103319D01*
X0144729Y0103698D01*
X0144679Y0104075D01*
X0144619Y0104450D01*
X0144550Y0104825D01*
X0144472Y0105197D01*
X0144385Y0105567D01*
X0144288Y0105935D01*
X0144183Y0106301D01*
X0144070Y0106664D01*
X0143947Y0107024D01*
X0143815Y0107381D01*
X0143675Y0107735D01*
X0143527Y0108085D01*
X0143370Y0108432D01*
X0143204Y0108774D01*
X0143030Y0109113D01*
X0142849Y0109447D01*
X0142659Y0109777D01*
X0142461Y0110101D01*
X0142255Y0110421D01*
X0142041Y0110736D01*
X0141820Y0111046D01*
X0141592Y0111350D01*
X0141356Y0111649D01*
X0141112Y0111941D01*
X0140862Y0112228D01*
X0140605Y0112508D01*
X0140342Y0112782D01*
X0140071Y0113050D01*
X0139794Y0113311D01*
X0139511Y0113565D01*
X0139222Y0113813D01*
X0138927Y0114053D01*
X0138626Y0114286D01*
X0138320Y0114511D01*
X0138008Y0114729D01*
X0137691Y0114939D01*
X0137369Y0115142D01*
X0137042Y0115337D01*
X0136710Y0115523D01*
X0136374Y0115702D01*
X0136034Y0115872D01*
X0135690Y0116034D01*
X0135342Y0116188D01*
X0134990Y0116333D01*
X0134635Y0116469D01*
X0134277Y0116597D01*
X0133915Y0116716D01*
X0133551Y0116826D01*
X0133530Y0116754D01*
X0133893Y0116644D01*
X0134252Y0116526D01*
X0134609Y0116399D01*
X0134963Y0116263D01*
X0135313Y0116119D01*
X0135659Y0115966D01*
X0136002Y0115805D01*
X0136340Y0115635D01*
X0136674Y0115457D01*
X0137004Y0115272D01*
X0137330Y0115078D01*
X0137650Y0114876D01*
X0137966Y0114667D01*
X0138276Y0114450D01*
X0138581Y0114226D01*
X0138880Y0113994D01*
X0139174Y0113755D01*
X0139462Y0113509D01*
X0139744Y0113256D01*
X0140019Y0112996D01*
X0140288Y0112730D01*
X0140551Y0112457D01*
X0140807Y0112178D01*
X0141055Y0111892D01*
X0141297Y0111601D01*
X0141532Y0111304D01*
X0141760Y0111002D01*
X0141980Y0110693D01*
X0142192Y0110380D01*
X0142397Y0110062D01*
X0142594Y0109738D01*
X0142783Y0109410D01*
X0142964Y0109078D01*
X0143137Y0108741D01*
X0143302Y0108400D01*
X0143458Y0108055D01*
X0143606Y0107706D01*
X0143745Y0107354D01*
X0143876Y0106999D01*
X0143998Y0106641D01*
X0144112Y0106279D01*
X0144216Y0105916D01*
X0144312Y0105549D01*
X0144399Y0105181D01*
X0144476Y0104810D01*
X0144545Y0104438D01*
X0144605Y0104064D01*
X0144655Y0103689D01*
X0144696Y0103312D01*
X0144729Y0102935D01*
X0144752Y0102557D01*
X0144765Y0102179D01*
X0144770Y0101800D01*
X0144765Y0101421D01*
X0144752Y0101043D01*
X0144729Y0100665D01*
X0144696Y0100288D01*
X0144655Y0099911D01*
X0144605Y0099536D01*
X0144545Y0099162D01*
X0144476Y0098790D01*
X0144399Y0098419D01*
X0144312Y0098051D01*
X0144216Y0097684D01*
X0144112Y0097321D01*
X0143998Y0096959D01*
X0143876Y0096601D01*
X0143745Y0096246D01*
X0143606Y0095894D01*
X0143458Y0095545D01*
X0143302Y0095200D01*
X0143137Y0094859D01*
X0142964Y0094522D01*
X0142783Y0094190D01*
X0142594Y0093862D01*
X0142397Y0093538D01*
X0142192Y0093220D01*
X0141980Y0092907D01*
X0141760Y0092598D01*
X0141532Y0092296D01*
X0141297Y0091999D01*
X0141055Y0091708D01*
X0140807Y0091422D01*
X0140551Y0091143D01*
X0140288Y0090870D01*
X0140019Y0090604D01*
X0139744Y0090344D01*
X0139462Y0090091D01*
X0139174Y0089845D01*
X0138880Y0089606D01*
X0138581Y0089374D01*
X0138276Y0089150D01*
X0137966Y0088933D01*
X0137650Y0088724D01*
X0137330Y0088522D01*
X0137004Y0088328D01*
X0136674Y0088143D01*
X0136340Y0087965D01*
X0136002Y0087795D01*
X0135659Y0087634D01*
X0135313Y0087481D01*
X0134963Y0087337D01*
X0134609Y0087201D01*
X0134252Y0087074D01*
X0133893Y0086956D01*
X0133530Y0086846D01*
X0133510Y0086918D01*
X0133870Y0087027D01*
X0134228Y0087145D01*
X0134583Y0087272D01*
X0134935Y0087407D01*
X0135283Y0087550D01*
X0135628Y0087703D01*
X0135969Y0087863D01*
X0136306Y0088032D01*
X0136639Y0088208D01*
X0136967Y0088393D01*
X0137291Y0088586D01*
X0137610Y0088787D01*
X0137924Y0088995D01*
X0138232Y0089211D01*
X0138536Y0089434D01*
X0138834Y0089665D01*
X0139126Y0089903D01*
X0139413Y0090148D01*
X0139693Y0090399D01*
X0139967Y0090658D01*
X0140235Y0090923D01*
X0140496Y0091195D01*
X0140751Y0091472D01*
X0140998Y0091756D01*
X0141239Y0092046D01*
X0141473Y0092342D01*
X0141699Y0092643D01*
X0141918Y0092950D01*
X0142130Y0093261D01*
X0142334Y0093578D01*
X0142530Y0093900D01*
X0142718Y0094227D01*
X0142898Y0094557D01*
X0143070Y0094893D01*
X0143234Y0095232D01*
X0143389Y0095575D01*
X0143537Y0095922D01*
X0143675Y0096272D01*
X0143806Y0096626D01*
X0143927Y0096983D01*
X0144040Y0097342D01*
X0144144Y0097704D01*
X0144239Y0098069D01*
X0144325Y0098436D01*
X0144403Y0098804D01*
X0144471Y0099175D01*
X0144530Y0099547D01*
X0144581Y0099921D01*
X0144622Y0100295D01*
X0144654Y0100671D01*
X0144677Y0101047D01*
X0144690Y0101423D01*
X0144695Y0101800D01*
X0144690Y0102177D01*
X0144677Y0102553D01*
X0144654Y0102929D01*
X0144622Y0103305D01*
X0144581Y0103679D01*
X0144530Y0104053D01*
X0144471Y0104425D01*
X0144403Y0104796D01*
X0144325Y0105164D01*
X0144239Y0105531D01*
X0144144Y0105896D01*
X0144040Y0106258D01*
X0143927Y0106617D01*
X0143806Y0106974D01*
X0143675Y0107328D01*
X0143537Y0107678D01*
X0143389Y0108025D01*
X0143234Y0108368D01*
X0143070Y0108707D01*
X0142898Y0109043D01*
X0142718Y0109373D01*
X0142530Y0109700D01*
X0142334Y0110022D01*
X0142130Y0110339D01*
X0141918Y0110650D01*
X0141699Y0110957D01*
X0141473Y0111258D01*
X0141239Y0111554D01*
X0140998Y0111844D01*
X0140751Y0112128D01*
X0140496Y0112405D01*
X0140235Y0112677D01*
X0139967Y0112942D01*
X0139693Y0113201D01*
X0139413Y0113452D01*
X0139126Y0113697D01*
X0138834Y0113935D01*
X0138536Y0114166D01*
X0138232Y0114389D01*
X0137924Y0114605D01*
X0137610Y0114813D01*
X0137291Y0115014D01*
X0136967Y0115207D01*
X0136639Y0115392D01*
X0136306Y0115568D01*
X0135969Y0115737D01*
X0135628Y0115897D01*
X0135283Y0116050D01*
X0134935Y0116193D01*
X0134583Y0116328D01*
X0134228Y0116455D01*
X0133870Y0116573D01*
X0133510Y0116682D01*
X0133489Y0116610D01*
X0133848Y0116501D01*
X0134204Y0116384D01*
X0134557Y0116258D01*
X0134907Y0116124D01*
X0135254Y0115981D01*
X0135597Y0115829D01*
X0135936Y0115670D01*
X0136272Y0115502D01*
X0136603Y0115326D01*
X0136930Y0115142D01*
X0137252Y0114950D01*
X0137569Y0114750D01*
X0137882Y0114543D01*
X0138189Y0114328D01*
X0138491Y0114106D01*
X0138787Y0113876D01*
X0139078Y0113640D01*
X0139363Y0113396D01*
X0139642Y0113145D01*
X0139915Y0112888D01*
X0140182Y0112624D01*
X0140442Y0112354D01*
X0140695Y0112078D01*
X0140941Y0111795D01*
X0141181Y0111507D01*
X0141413Y0111212D01*
X0141639Y0110913D01*
X0141857Y0110608D01*
X0142067Y0110297D01*
X0142270Y0109982D01*
X0142465Y0109662D01*
X0142652Y0109337D01*
X0142832Y0109007D01*
X0143003Y0108674D01*
X0143166Y0108336D01*
X0143321Y0107995D01*
X0143467Y0107649D01*
X0143605Y0107301D01*
X0143735Y0106949D01*
X0143856Y0106594D01*
X0143968Y0106236D01*
X0144072Y0105876D01*
X0144166Y0105513D01*
X0144252Y0105148D01*
X0144329Y0104781D01*
X0144397Y0104412D01*
X0144456Y0104042D01*
X0144506Y0103670D01*
X0144547Y0103298D01*
X0144579Y0102924D01*
X0144602Y0102550D01*
X0144615Y0102175D01*
X0144620Y0101800D01*
X0144615Y0101425D01*
X0144602Y0101050D01*
X0144579Y0100676D01*
X0144547Y0100302D01*
X0144506Y0099930D01*
X0144456Y0099558D01*
X0144397Y0099188D01*
X0144329Y0098819D01*
X0144252Y0098452D01*
X0144166Y0098087D01*
X0144072Y0097724D01*
X0143968Y0097364D01*
X0143856Y0097006D01*
X0143735Y0096651D01*
X0143605Y0096299D01*
X0143467Y0095951D01*
X0143321Y0095605D01*
X0143166Y0095264D01*
X0143003Y0094926D01*
X0142832Y0094593D01*
X0142652Y0094263D01*
X0142465Y0093938D01*
X0142270Y0093618D01*
X0142067Y0093303D01*
X0141857Y0092992D01*
X0141639Y0092687D01*
X0141413Y0092388D01*
X0141181Y0092093D01*
X0140941Y0091805D01*
X0140695Y0091522D01*
X0140442Y0091246D01*
X0140182Y0090976D01*
X0139915Y0090712D01*
X0139642Y0090455D01*
X0139363Y0090204D01*
X0139078Y0089960D01*
X0138787Y0089724D01*
X0138491Y0089494D01*
X0138189Y0089272D01*
X0137882Y0089057D01*
X0137569Y0088850D01*
X0137252Y0088650D01*
X0136930Y0088458D01*
X0136603Y0088274D01*
X0136272Y0088098D01*
X0135936Y0087930D01*
X0135597Y0087771D01*
X0135254Y0087619D01*
X0134907Y0087476D01*
X0134557Y0087342D01*
X0134204Y0087216D01*
X0133848Y0087099D01*
X0133489Y0086990D01*
X0133468Y0087062D01*
X0133826Y0087170D01*
X0134180Y0087287D01*
X0134531Y0087412D01*
X0134880Y0087546D01*
X0135225Y0087689D01*
X0135566Y0087839D01*
X0135904Y0087998D01*
X0136237Y0088165D01*
X0136567Y0088340D01*
X0136892Y0088523D01*
X0137213Y0088714D01*
X0137529Y0088913D01*
X0137839Y0089119D01*
X0138145Y0089333D01*
X0138446Y0089554D01*
X0138741Y0089783D01*
X0139030Y0090018D01*
X0139314Y0090261D01*
X0139592Y0090510D01*
X0139863Y0090766D01*
X0140128Y0091028D01*
X0140387Y0091297D01*
X0140639Y0091572D01*
X0140884Y0091854D01*
X0141123Y0092141D01*
X0141354Y0092433D01*
X0141578Y0092732D01*
X0141795Y0093035D01*
X0142005Y0093344D01*
X0142206Y0093658D01*
X0142401Y0093977D01*
X0142587Y0094300D01*
X0142765Y0094628D01*
X0142936Y0094960D01*
X0143098Y0095296D01*
X0143252Y0095636D01*
X0143398Y0095979D01*
X0143535Y0096326D01*
X0143664Y0096676D01*
X0143784Y0097029D01*
X0143896Y0097385D01*
X0143999Y0097744D01*
X0144093Y0098105D01*
X0144179Y0098468D01*
X0144255Y0098834D01*
X0144323Y0099201D01*
X0144382Y0099569D01*
X0144432Y0099939D01*
X0144472Y0100310D01*
X0144504Y0100682D01*
X0144527Y0101054D01*
X0144540Y0101427D01*
X0144545Y0101800D01*
X0144540Y0102173D01*
X0144527Y0102546D01*
X0144504Y0102918D01*
X0144472Y0103290D01*
X0144432Y0103661D01*
X0144382Y0104031D01*
X0144323Y0104399D01*
X0144255Y0104766D01*
X0144179Y0105132D01*
X0144093Y0105495D01*
X0143999Y0105856D01*
X0143896Y0106215D01*
X0143784Y0106571D01*
X0143664Y0106924D01*
X0143535Y0107274D01*
X0143398Y0107621D01*
X0143252Y0107964D01*
X0143098Y0108304D01*
X0142936Y0108640D01*
X0142765Y0108972D01*
X0142587Y0109300D01*
X0142401Y0109623D01*
X0142206Y0109942D01*
X0142005Y0110256D01*
X0141795Y0110565D01*
X0141578Y0110868D01*
X0141354Y0111167D01*
X0141123Y0111459D01*
X0140884Y0111746D01*
X0140639Y0112028D01*
X0140387Y0112303D01*
X0140128Y0112572D01*
X0139863Y0112834D01*
X0139592Y0113090D01*
X0139314Y0113339D01*
X0139030Y0113582D01*
X0138741Y0113817D01*
X0138446Y0114046D01*
X0138145Y0114267D01*
X0137839Y0114481D01*
X0137529Y0114687D01*
X0137213Y0114886D01*
X0136892Y0115077D01*
X0136567Y0115260D01*
X0136237Y0115435D01*
X0135904Y0115602D01*
X0135566Y0115761D01*
X0135225Y0115911D01*
X0134880Y0116054D01*
X0134531Y0116188D01*
X0134180Y0116313D01*
X0133826Y0116430D01*
X0133468Y0116538D01*
X0133448Y0116466D01*
X0133803Y0116358D01*
X0134156Y0116242D01*
X0134506Y0116117D01*
X0134852Y0115984D01*
X0135195Y0115842D01*
X0135535Y0115693D01*
X0135871Y0115534D01*
X0136203Y0115368D01*
X0136531Y0115194D01*
X0136855Y0115012D01*
X0137174Y0114822D01*
X0137488Y0114624D01*
X0137797Y0114419D01*
X0138102Y0114206D01*
X0138401Y0113986D01*
X0138694Y0113759D01*
X0138982Y0113524D01*
X0139265Y0113283D01*
X0139541Y0113035D01*
X0139811Y0112780D01*
X0140075Y0112519D01*
X0140332Y0112251D01*
X0140583Y0111977D01*
X0140827Y0111698D01*
X0141065Y0111412D01*
X0141295Y0111121D01*
X0141518Y0110824D01*
X0141734Y0110522D01*
X0141942Y0110214D01*
X0142143Y0109902D01*
X0142336Y0109585D01*
X0142522Y0109263D01*
X0142699Y0108937D01*
X0142869Y0108607D01*
X0143030Y0108272D01*
X0143184Y0107934D01*
X0143329Y0107592D01*
X0143465Y0107247D01*
X0143593Y0106899D01*
X0143713Y0106547D01*
X0143824Y0106193D01*
X0143927Y0105836D01*
X0144021Y0105477D01*
X0144106Y0105115D01*
X0144182Y0104752D01*
X0144249Y0104387D01*
X0144308Y0104020D01*
X0144357Y0103652D01*
X0144398Y0103283D01*
X0144429Y0102913D01*
X0144452Y0102542D01*
X0144465Y0102171D01*
X0144470Y0101800D01*
X0144465Y0101429D01*
X0144452Y0101058D01*
X0144429Y0100687D01*
X0144398Y0100317D01*
X0144357Y0099948D01*
X0144308Y0099580D01*
X0144249Y0099213D01*
X0144182Y0098848D01*
X0144106Y0098485D01*
X0144021Y0098123D01*
X0143927Y0097764D01*
X0143824Y0097407D01*
X0143713Y0097053D01*
X0143593Y0096701D01*
X0143465Y0096353D01*
X0143329Y0096008D01*
X0143184Y0095666D01*
X0143030Y0095328D01*
X0142869Y0094993D01*
X0142699Y0094663D01*
X0142522Y0094337D01*
X0142336Y0094015D01*
X0142143Y0093698D01*
X0141942Y0093386D01*
X0141734Y0093078D01*
X0141518Y0092776D01*
X0141295Y0092479D01*
X0141065Y0092188D01*
X0140827Y0091902D01*
X0140583Y0091623D01*
X0140332Y0091349D01*
X0140075Y0091081D01*
X0139811Y0090820D01*
X0139541Y0090565D01*
X0139265Y0090317D01*
X0138982Y0090076D01*
X0138694Y0089841D01*
X0138401Y0089614D01*
X0138102Y0089394D01*
X0137797Y0089181D01*
X0137488Y0088976D01*
X0137174Y0088778D01*
X0136855Y0088588D01*
X0136531Y0088406D01*
X0136203Y0088232D01*
X0135871Y0088066D01*
X0135535Y0087907D01*
X0135195Y0087758D01*
X0134852Y0087616D01*
X0134506Y0087483D01*
X0134156Y0087358D01*
X0133803Y0087242D01*
X0133448Y0087134D01*
X0133427Y0087206D01*
X0133781Y0087313D01*
X0134132Y0087429D01*
X0134480Y0087553D01*
X0134825Y0087686D01*
X0135166Y0087827D01*
X0135504Y0087976D01*
X0135839Y0088133D01*
X0136169Y0088299D01*
X0136495Y0088472D01*
X0136817Y0088653D01*
X0137135Y0088842D01*
X0137447Y0089039D01*
X0137755Y0089243D01*
X0138058Y0089455D01*
X0138356Y0089674D01*
X0138648Y0089900D01*
X0138934Y0090133D01*
X0139215Y0090374D01*
X0139490Y0090620D01*
X0139759Y0090874D01*
X0140022Y0091134D01*
X0140278Y0091400D01*
X0140527Y0091673D01*
X0140770Y0091951D01*
X0141006Y0092235D01*
X0141235Y0092525D01*
X0141457Y0092821D01*
X0141672Y0093121D01*
X0141880Y0093427D01*
X0142079Y0093738D01*
X0142272Y0094053D01*
X0142456Y0094373D01*
X0142633Y0094698D01*
X0142802Y0095027D01*
X0142962Y0095359D01*
X0143115Y0095696D01*
X0143259Y0096036D01*
X0143395Y0096380D01*
X0143523Y0096726D01*
X0143642Y0097076D01*
X0143753Y0097429D01*
X0143855Y0097784D01*
X0143948Y0098141D01*
X0144033Y0098501D01*
X0144108Y0098863D01*
X0144175Y0099226D01*
X0144234Y0099591D01*
X0144283Y0099957D01*
X0144323Y0100324D01*
X0144355Y0100692D01*
X0144377Y0101061D01*
X0144391Y0101431D01*
X0144395Y0101800D01*
X0144391Y0102169D01*
X0144377Y0102539D01*
X0144355Y0102908D01*
X0144323Y0103276D01*
X0144283Y0103643D01*
X0144234Y0104009D01*
X0144175Y0104374D01*
X0144108Y0104737D01*
X0144033Y0105099D01*
X0143948Y0105459D01*
X0143855Y0105816D01*
X0143753Y0106171D01*
X0143642Y0106524D01*
X0143523Y0106874D01*
X0143395Y0107220D01*
X0143259Y0107564D01*
X0143115Y0107904D01*
X0142962Y0108241D01*
X0142802Y0108573D01*
X0142633Y0108902D01*
X0142456Y0109227D01*
X0142272Y0109547D01*
X0142079Y0109862D01*
X0141880Y0110173D01*
X0141672Y0110479D01*
X0141457Y0110779D01*
X0141235Y0111075D01*
X0141006Y0111365D01*
X0140770Y0111649D01*
X0140527Y0111927D01*
X0140278Y0112200D01*
X0140022Y0112466D01*
X0139759Y0112726D01*
X0139490Y0112980D01*
X0139215Y0113226D01*
X0138934Y0113467D01*
X0138648Y0113700D01*
X0138356Y0113926D01*
X0138058Y0114145D01*
X0137755Y0114357D01*
X0137447Y0114561D01*
X0137135Y0114758D01*
X0136817Y0114947D01*
X0136495Y0115128D01*
X0136169Y0115301D01*
X0135839Y0115467D01*
X0135504Y0115624D01*
X0135166Y0115773D01*
X0134825Y0115914D01*
X0134480Y0116047D01*
X0134132Y0116171D01*
X0133781Y0116287D01*
X0133427Y0116394D01*
X0133406Y0116322D01*
X0133758Y0116215D01*
X0134108Y0116100D01*
X0134454Y0115976D01*
X0134797Y0115845D01*
X0135137Y0115704D01*
X0135473Y0115556D01*
X0135806Y0115399D01*
X0136135Y0115235D01*
X0136459Y0115062D01*
X0136780Y0114882D01*
X0137096Y0114694D01*
X0137407Y0114498D01*
X0137713Y0114295D01*
X0138014Y0114084D01*
X0138311Y0113866D01*
X0138601Y0113641D01*
X0138886Y0113409D01*
X0139166Y0113170D01*
X0139439Y0112924D01*
X0139707Y0112672D01*
X0139968Y0112413D01*
X0140223Y0112148D01*
X0140472Y0111877D01*
X0140713Y0111600D01*
X0140948Y0111317D01*
X0141176Y0111029D01*
X0141397Y0110735D01*
X0141611Y0110436D01*
X0141817Y0110132D01*
X0142016Y0109822D01*
X0142207Y0109508D01*
X0142391Y0109190D01*
X0142567Y0108867D01*
X0142735Y0108540D01*
X0142894Y0108209D01*
X0143046Y0107874D01*
X0143190Y0107535D01*
X0143325Y0107194D01*
X0143452Y0106849D01*
X0143571Y0106501D01*
X0143681Y0106150D01*
X0143782Y0105796D01*
X0143875Y0105441D01*
X0143959Y0105083D01*
X0144035Y0104723D01*
X0144101Y0104361D01*
X0144159Y0103998D01*
X0144208Y0103634D01*
X0144249Y0103268D01*
X0144280Y0102902D01*
X0144302Y0102535D01*
X0144316Y0102168D01*
X0144320Y0101800D01*
X0144316Y0101432D01*
X0144302Y0101065D01*
X0144280Y0100698D01*
X0144249Y0100332D01*
X0144208Y0099966D01*
X0144159Y0099602D01*
X0144101Y0099239D01*
X0144035Y0098877D01*
X0143959Y0098517D01*
X0143875Y0098159D01*
X0143782Y0097804D01*
X0143681Y0097450D01*
X0143571Y0097099D01*
X0143452Y0096751D01*
X0143325Y0096406D01*
X0143190Y0096065D01*
X0143046Y0095726D01*
X0142894Y0095391D01*
X0142735Y0095060D01*
X0142567Y0094733D01*
X0142391Y0094410D01*
X0142207Y0094092D01*
X0142016Y0093778D01*
X0141817Y0093468D01*
X0141611Y0093164D01*
X0141397Y0092865D01*
X0141176Y0092571D01*
X0140948Y0092283D01*
X0140713Y0092000D01*
X0140472Y0091723D01*
X0140223Y0091452D01*
X0139968Y0091187D01*
X0139707Y0090928D01*
X0139439Y0090676D01*
X0139166Y0090430D01*
X0138886Y0090191D01*
X0138601Y0089959D01*
X0138311Y0089734D01*
X0138014Y0089516D01*
X0137713Y0089305D01*
X0137407Y0089102D01*
X0137096Y0088906D01*
X0136780Y0088718D01*
X0136459Y0088538D01*
X0136135Y0088365D01*
X0135806Y0088201D01*
X0135473Y0088044D01*
X0135137Y0087896D01*
X0134797Y0087755D01*
X0134454Y0087624D01*
X0134108Y0087500D01*
X0133758Y0087385D01*
X0133406Y0087278D01*
X0133386Y0087351D01*
X0133736Y0087457D01*
X0134083Y0087571D01*
X0134428Y0087694D01*
X0134769Y0087825D01*
X0135108Y0087965D01*
X0135442Y0088112D01*
X0135773Y0088268D01*
X0136100Y0088432D01*
X0136423Y0088604D01*
X0136742Y0088783D01*
X0137057Y0088970D01*
X0137366Y0089165D01*
X0137671Y0089367D01*
X0137971Y0089577D01*
X0138266Y0089794D01*
X0138555Y0090018D01*
X0138839Y0090249D01*
X0139117Y0090487D01*
X0139389Y0090731D01*
X0139655Y0090982D01*
X0139915Y0091239D01*
X0140169Y0091503D01*
X0140416Y0091773D01*
X0140656Y0092048D01*
X0140890Y0092330D01*
X0141117Y0092617D01*
X0141337Y0092909D01*
X0141549Y0093207D01*
X0141754Y0093510D01*
X0141952Y0093818D01*
X0142143Y0094130D01*
X0142325Y0094447D01*
X0142500Y0094768D01*
X0142667Y0095094D01*
X0142827Y0095423D01*
X0142978Y0095756D01*
X0143120Y0096093D01*
X0143255Y0096433D01*
X0143381Y0096777D01*
X0143499Y0097123D01*
X0143609Y0097472D01*
X0143710Y0097824D01*
X0143802Y0098178D01*
X0143886Y0098534D01*
X0143961Y0098892D01*
X0144028Y0099251D01*
X0144085Y0099613D01*
X0144134Y0099975D01*
X0144174Y0100339D01*
X0144205Y0100703D01*
X0144227Y0101069D01*
X0144241Y0101434D01*
X0144245Y0101800D01*
X0144241Y0102166D01*
X0144227Y0102531D01*
X0144205Y0102897D01*
X0144174Y0103261D01*
X0144134Y0103625D01*
X0144085Y0103987D01*
X0144028Y0104349D01*
X0143961Y0104708D01*
X0143886Y0105066D01*
X0143802Y0105422D01*
X0143710Y0105776D01*
X0143609Y0106128D01*
X0143499Y0106477D01*
X0143381Y0106823D01*
X0143255Y0107167D01*
X0143120Y0107507D01*
X0142978Y0107844D01*
X0142827Y0108177D01*
X0142667Y0108506D01*
X0142500Y0108832D01*
X0142325Y0109153D01*
X0142143Y0109470D01*
X0141952Y0109782D01*
X0141754Y0110090D01*
X0141549Y0110393D01*
X0141337Y0110691D01*
X0141117Y0110983D01*
X0140890Y0111270D01*
X0140656Y0111552D01*
X0140416Y0111827D01*
X0140169Y0112097D01*
X0139915Y0112361D01*
X0139655Y0112618D01*
X0139389Y0112869D01*
X0139117Y0113113D01*
X0138839Y0113351D01*
X0138555Y0113582D01*
X0138266Y0113806D01*
X0137971Y0114023D01*
X0137671Y0114233D01*
X0137366Y0114435D01*
X0137057Y0114630D01*
X0136742Y0114817D01*
X0136423Y0114996D01*
X0136100Y0115168D01*
X0135773Y0115332D01*
X0135442Y0115488D01*
X0135108Y0115635D01*
X0134769Y0115775D01*
X0134428Y0115906D01*
X0134083Y0116029D01*
X0133736Y0116143D01*
X0133386Y0116249D01*
X0125029Y0116898D02*
X0125227Y0116206D01*
X0124878Y0116101D01*
X0124531Y0115986D01*
X0124188Y0115864D01*
X0123847Y0115733D01*
X0123510Y0115594D01*
X0123176Y0115447D01*
X0122846Y0115291D01*
X0122520Y0115128D01*
X0122198Y0114957D01*
X0121880Y0114778D01*
X0121567Y0114591D01*
X0121258Y0114397D01*
X0120954Y0114195D01*
X0120655Y0113986D01*
X0120362Y0113770D01*
X0120073Y0113547D01*
X0119790Y0113317D01*
X0119513Y0113080D01*
X0119242Y0112836D01*
X0118976Y0112586D01*
X0118717Y0112329D01*
X0118464Y0112066D01*
X0118218Y0111797D01*
X0117978Y0111522D01*
X0117745Y0111242D01*
X0117519Y0110956D01*
X0117300Y0110664D01*
X0117088Y0110367D01*
X0116883Y0110065D01*
X0116686Y0109759D01*
X0116496Y0109447D01*
X0116314Y0109131D01*
X0116139Y0108811D01*
X0115973Y0108486D01*
X0115814Y0108158D01*
X0115664Y0107826D01*
X0115521Y0107490D01*
X0115387Y0107151D01*
X0115261Y0106808D01*
X0115143Y0106463D01*
X0115034Y0106115D01*
X0114933Y0105765D01*
X0114841Y0105412D01*
X0114758Y0105057D01*
X0114683Y0104700D01*
X0114617Y0104341D01*
X0114559Y0103981D01*
X0114511Y0103619D01*
X0114471Y0103257D01*
X0114440Y0102893D01*
X0114418Y0102529D01*
X0114404Y0102165D01*
X0114400Y0101800D01*
X0114404Y0101435D01*
X0114418Y0101071D01*
X0114440Y0100707D01*
X0114471Y0100343D01*
X0114511Y0099981D01*
X0114559Y0099619D01*
X0114617Y0099259D01*
X0114683Y0098900D01*
X0114758Y0098543D01*
X0114841Y0098188D01*
X0114933Y0097835D01*
X0115034Y0097485D01*
X0115143Y0097137D01*
X0115261Y0096792D01*
X0115387Y0096449D01*
X0115521Y0096110D01*
X0115664Y0095774D01*
X0115814Y0095442D01*
X0115973Y0095114D01*
X0116139Y0094789D01*
X0116314Y0094469D01*
X0116496Y0094153D01*
X0116686Y0093841D01*
X0116883Y0093535D01*
X0117088Y0093233D01*
X0117300Y0092936D01*
X0117519Y0092644D01*
X0117745Y0092358D01*
X0117978Y0092078D01*
X0118218Y0091803D01*
X0118464Y0091534D01*
X0118717Y0091271D01*
X0118976Y0091014D01*
X0119242Y0090764D01*
X0119513Y0090520D01*
X0119790Y0090283D01*
X0120073Y0090053D01*
X0120362Y0089830D01*
X0120655Y0089614D01*
X0120954Y0089405D01*
X0121258Y0089203D01*
X0121567Y0089009D01*
X0121880Y0088822D01*
X0122198Y0088643D01*
X0122520Y0088472D01*
X0122846Y0088309D01*
X0123176Y0088153D01*
X0123510Y0088006D01*
X0123847Y0087867D01*
X0124188Y0087736D01*
X0124531Y0087614D01*
X0124878Y0087499D01*
X0125227Y0087394D01*
X0125029Y0086702D01*
X0125028Y0086702D01*
X0124662Y0086812D01*
X0124299Y0086932D01*
X0123939Y0087060D01*
X0123582Y0087198D01*
X0123229Y0087343D01*
X0122879Y0087498D01*
X0122533Y0087660D01*
X0122191Y0087831D01*
X0121854Y0088011D01*
X0121521Y0088198D01*
X0121192Y0088394D01*
X0120869Y0088598D01*
X0120550Y0088809D01*
X0120237Y0089028D01*
X0119929Y0089254D01*
X0119627Y0089488D01*
X0119330Y0089730D01*
X0119039Y0089978D01*
X0118755Y0090234D01*
X0118477Y0090496D01*
X0118205Y0090765D01*
X0117940Y0091040D01*
X0117682Y0091322D01*
X0117430Y0091610D01*
X0117186Y0091904D01*
X0116949Y0092204D01*
X0116719Y0092510D01*
X0116497Y0092821D01*
X0116283Y0093137D01*
X0116076Y0093459D01*
X0115877Y0093785D01*
X0115686Y0094116D01*
X0115503Y0094452D01*
X0115329Y0094792D01*
X0115162Y0095136D01*
X0115005Y0095485D01*
X0114855Y0095837D01*
X0114714Y0096192D01*
X0114582Y0096551D01*
X0114459Y0096913D01*
X0114345Y0097277D01*
X0114239Y0097645D01*
X0114143Y0098015D01*
X0114055Y0098387D01*
X0113977Y0098761D01*
X0113907Y0099137D01*
X0113847Y0099514D01*
X0113796Y0099893D01*
X0113754Y0100273D01*
X0113722Y0100654D01*
X0113699Y0101036D01*
X0113685Y0101418D01*
X0113680Y0101800D01*
X0113685Y0102182D01*
X0113699Y0102564D01*
X0113722Y0102946D01*
X0113754Y0103327D01*
X0113796Y0103707D01*
X0113847Y0104086D01*
X0113907Y0104463D01*
X0113977Y0104839D01*
X0114055Y0105213D01*
X0114143Y0105585D01*
X0114239Y0105955D01*
X0114345Y0106323D01*
X0114459Y0106687D01*
X0114582Y0107049D01*
X0114714Y0107408D01*
X0114855Y0107763D01*
X0115005Y0108115D01*
X0115162Y0108464D01*
X0115329Y0108808D01*
X0115503Y0109148D01*
X0115686Y0109484D01*
X0115877Y0109815D01*
X0116076Y0110141D01*
X0116283Y0110463D01*
X0116497Y0110779D01*
X0116719Y0111090D01*
X0116949Y0111396D01*
X0117186Y0111696D01*
X0117430Y0111990D01*
X0117682Y0112278D01*
X0117940Y0112560D01*
X0118205Y0112835D01*
X0118477Y0113104D01*
X0118755Y0113366D01*
X0119039Y0113622D01*
X0119330Y0113870D01*
X0119627Y0114112D01*
X0119929Y0114346D01*
X0120237Y0114572D01*
X0120550Y0114791D01*
X0120869Y0115002D01*
X0121192Y0115206D01*
X0121521Y0115402D01*
X0121854Y0115589D01*
X0122191Y0115769D01*
X0122533Y0115940D01*
X0122879Y0116102D01*
X0123229Y0116257D01*
X0123582Y0116402D01*
X0123939Y0116540D01*
X0124299Y0116668D01*
X0124662Y0116788D01*
X0125028Y0116898D01*
X0125049Y0116826D01*
X0124685Y0116716D01*
X0124323Y0116597D01*
X0123965Y0116469D01*
X0123610Y0116333D01*
X0123258Y0116188D01*
X0122910Y0116034D01*
X0122566Y0115872D01*
X0122226Y0115702D01*
X0121890Y0115523D01*
X0121558Y0115337D01*
X0121231Y0115142D01*
X0120909Y0114939D01*
X0120592Y0114729D01*
X0120280Y0114511D01*
X0119974Y0114286D01*
X0119673Y0114053D01*
X0119378Y0113813D01*
X0119089Y0113565D01*
X0118806Y0113311D01*
X0118529Y0113050D01*
X0118258Y0112782D01*
X0117995Y0112508D01*
X0117738Y0112228D01*
X0117488Y0111941D01*
X0117244Y0111649D01*
X0117008Y0111350D01*
X0116780Y0111046D01*
X0116559Y0110736D01*
X0116345Y0110421D01*
X0116139Y0110101D01*
X0115941Y0109777D01*
X0115751Y0109447D01*
X0115570Y0109113D01*
X0115396Y0108774D01*
X0115230Y0108432D01*
X0115073Y0108085D01*
X0114925Y0107735D01*
X0114785Y0107381D01*
X0114653Y0107024D01*
X0114530Y0106664D01*
X0114417Y0106301D01*
X0114312Y0105935D01*
X0114215Y0105567D01*
X0114128Y0105197D01*
X0114050Y0104825D01*
X0113981Y0104450D01*
X0113921Y0104075D01*
X0113871Y0103698D01*
X0113829Y0103319D01*
X0113797Y0102940D01*
X0113774Y0102561D01*
X0113760Y0102180D01*
X0113755Y0101800D01*
X0113760Y0101420D01*
X0113774Y0101039D01*
X0113797Y0100660D01*
X0113829Y0100281D01*
X0113871Y0099902D01*
X0113921Y0099525D01*
X0113981Y0099150D01*
X0114050Y0098775D01*
X0114128Y0098403D01*
X0114215Y0098033D01*
X0114312Y0097665D01*
X0114417Y0097299D01*
X0114530Y0096936D01*
X0114653Y0096576D01*
X0114785Y0096219D01*
X0114925Y0095865D01*
X0115073Y0095515D01*
X0115230Y0095168D01*
X0115396Y0094826D01*
X0115570Y0094487D01*
X0115751Y0094153D01*
X0115941Y0093823D01*
X0116139Y0093499D01*
X0116345Y0093179D01*
X0116559Y0092864D01*
X0116780Y0092554D01*
X0117008Y0092250D01*
X0117244Y0091951D01*
X0117488Y0091659D01*
X0117738Y0091372D01*
X0117995Y0091092D01*
X0118258Y0090818D01*
X0118529Y0090550D01*
X0118806Y0090289D01*
X0119089Y0090035D01*
X0119378Y0089787D01*
X0119673Y0089547D01*
X0119974Y0089314D01*
X0120280Y0089089D01*
X0120592Y0088871D01*
X0120909Y0088661D01*
X0121231Y0088458D01*
X0121558Y0088263D01*
X0121890Y0088077D01*
X0122226Y0087898D01*
X0122566Y0087728D01*
X0122910Y0087566D01*
X0123258Y0087412D01*
X0123610Y0087267D01*
X0123965Y0087131D01*
X0124323Y0087003D01*
X0124685Y0086884D01*
X0125049Y0086774D01*
X0125070Y0086846D01*
X0124707Y0086956D01*
X0124348Y0087074D01*
X0123991Y0087201D01*
X0123637Y0087337D01*
X0123287Y0087481D01*
X0122941Y0087634D01*
X0122598Y0087795D01*
X0122260Y0087965D01*
X0121926Y0088143D01*
X0121596Y0088328D01*
X0121270Y0088522D01*
X0120950Y0088724D01*
X0120634Y0088933D01*
X0120324Y0089150D01*
X0120019Y0089374D01*
X0119720Y0089606D01*
X0119426Y0089845D01*
X0119138Y0090091D01*
X0118856Y0090344D01*
X0118581Y0090604D01*
X0118312Y0090870D01*
X0118049Y0091143D01*
X0117793Y0091422D01*
X0117545Y0091708D01*
X0117303Y0091999D01*
X0117068Y0092296D01*
X0116840Y0092598D01*
X0116620Y0092907D01*
X0116408Y0093220D01*
X0116203Y0093538D01*
X0116006Y0093862D01*
X0115817Y0094190D01*
X0115636Y0094522D01*
X0115463Y0094859D01*
X0115298Y0095200D01*
X0115142Y0095545D01*
X0114994Y0095894D01*
X0114855Y0096246D01*
X0114724Y0096601D01*
X0114602Y0096959D01*
X0114488Y0097321D01*
X0114384Y0097684D01*
X0114288Y0098051D01*
X0114201Y0098419D01*
X0114124Y0098790D01*
X0114055Y0099162D01*
X0113995Y0099536D01*
X0113945Y0099911D01*
X0113904Y0100288D01*
X0113871Y0100665D01*
X0113848Y0101043D01*
X0113835Y0101421D01*
X0113830Y0101800D01*
X0113835Y0102179D01*
X0113848Y0102557D01*
X0113871Y0102935D01*
X0113904Y0103312D01*
X0113945Y0103689D01*
X0113995Y0104064D01*
X0114055Y0104438D01*
X0114124Y0104810D01*
X0114201Y0105181D01*
X0114288Y0105549D01*
X0114384Y0105916D01*
X0114488Y0106279D01*
X0114602Y0106641D01*
X0114724Y0106999D01*
X0114855Y0107354D01*
X0114994Y0107706D01*
X0115142Y0108055D01*
X0115298Y0108400D01*
X0115463Y0108741D01*
X0115636Y0109078D01*
X0115817Y0109410D01*
X0116006Y0109738D01*
X0116203Y0110062D01*
X0116408Y0110380D01*
X0116620Y0110693D01*
X0116840Y0111002D01*
X0117068Y0111304D01*
X0117303Y0111601D01*
X0117545Y0111892D01*
X0117793Y0112178D01*
X0118049Y0112457D01*
X0118312Y0112730D01*
X0118581Y0112996D01*
X0118856Y0113256D01*
X0119138Y0113509D01*
X0119426Y0113755D01*
X0119720Y0113994D01*
X0120019Y0114226D01*
X0120324Y0114450D01*
X0120634Y0114667D01*
X0120950Y0114876D01*
X0121270Y0115078D01*
X0121596Y0115272D01*
X0121926Y0115457D01*
X0122260Y0115635D01*
X0122598Y0115805D01*
X0122941Y0115966D01*
X0123287Y0116119D01*
X0123637Y0116263D01*
X0123991Y0116399D01*
X0124348Y0116526D01*
X0124707Y0116644D01*
X0125070Y0116754D01*
X0125090Y0116682D01*
X0124730Y0116573D01*
X0124372Y0116455D01*
X0124017Y0116328D01*
X0123665Y0116193D01*
X0123317Y0116050D01*
X0122972Y0115897D01*
X0122631Y0115737D01*
X0122294Y0115568D01*
X0121961Y0115392D01*
X0121633Y0115207D01*
X0121309Y0115014D01*
X0120990Y0114813D01*
X0120676Y0114605D01*
X0120368Y0114389D01*
X0120064Y0114166D01*
X0119766Y0113935D01*
X0119474Y0113697D01*
X0119187Y0113452D01*
X0118907Y0113201D01*
X0118633Y0112942D01*
X0118365Y0112677D01*
X0118104Y0112405D01*
X0117849Y0112128D01*
X0117602Y0111844D01*
X0117361Y0111554D01*
X0117127Y0111258D01*
X0116901Y0110957D01*
X0116682Y0110650D01*
X0116470Y0110339D01*
X0116266Y0110022D01*
X0116070Y0109700D01*
X0115882Y0109373D01*
X0115702Y0109043D01*
X0115530Y0108707D01*
X0115366Y0108368D01*
X0115211Y0108025D01*
X0115063Y0107678D01*
X0114925Y0107328D01*
X0114794Y0106974D01*
X0114673Y0106617D01*
X0114560Y0106258D01*
X0114456Y0105896D01*
X0114361Y0105531D01*
X0114275Y0105164D01*
X0114197Y0104796D01*
X0114129Y0104425D01*
X0114070Y0104053D01*
X0114019Y0103679D01*
X0113978Y0103305D01*
X0113946Y0102929D01*
X0113923Y0102553D01*
X0113910Y0102177D01*
X0113905Y0101800D01*
X0113910Y0101423D01*
X0113923Y0101047D01*
X0113946Y0100671D01*
X0113978Y0100295D01*
X0114019Y0099921D01*
X0114070Y0099547D01*
X0114129Y0099175D01*
X0114197Y0098804D01*
X0114275Y0098436D01*
X0114361Y0098069D01*
X0114456Y0097704D01*
X0114560Y0097342D01*
X0114673Y0096983D01*
X0114794Y0096626D01*
X0114925Y0096272D01*
X0115063Y0095922D01*
X0115211Y0095575D01*
X0115366Y0095232D01*
X0115530Y0094893D01*
X0115702Y0094557D01*
X0115882Y0094227D01*
X0116070Y0093900D01*
X0116266Y0093578D01*
X0116470Y0093261D01*
X0116682Y0092950D01*
X0116901Y0092643D01*
X0117127Y0092342D01*
X0117361Y0092046D01*
X0117602Y0091756D01*
X0117849Y0091472D01*
X0118104Y0091195D01*
X0118365Y0090923D01*
X0118633Y0090658D01*
X0118907Y0090399D01*
X0119187Y0090148D01*
X0119474Y0089903D01*
X0119766Y0089665D01*
X0120064Y0089434D01*
X0120368Y0089211D01*
X0120676Y0088995D01*
X0120990Y0088787D01*
X0121309Y0088586D01*
X0121633Y0088393D01*
X0121961Y0088208D01*
X0122294Y0088032D01*
X0122631Y0087863D01*
X0122972Y0087703D01*
X0123317Y0087550D01*
X0123665Y0087407D01*
X0124017Y0087272D01*
X0124372Y0087145D01*
X0124730Y0087027D01*
X0125090Y0086918D01*
X0125111Y0086990D01*
X0124752Y0087099D01*
X0124396Y0087216D01*
X0124043Y0087342D01*
X0123693Y0087476D01*
X0123346Y0087619D01*
X0123003Y0087771D01*
X0122664Y0087930D01*
X0122328Y0088098D01*
X0121997Y0088274D01*
X0121670Y0088458D01*
X0121348Y0088650D01*
X0121031Y0088850D01*
X0120718Y0089057D01*
X0120411Y0089272D01*
X0120109Y0089494D01*
X0119813Y0089724D01*
X0119522Y0089960D01*
X0119237Y0090204D01*
X0118958Y0090455D01*
X0118685Y0090712D01*
X0118418Y0090976D01*
X0118158Y0091246D01*
X0117905Y0091522D01*
X0117659Y0091805D01*
X0117419Y0092093D01*
X0117187Y0092388D01*
X0116961Y0092687D01*
X0116743Y0092992D01*
X0116533Y0093303D01*
X0116330Y0093618D01*
X0116135Y0093938D01*
X0115948Y0094263D01*
X0115768Y0094593D01*
X0115597Y0094926D01*
X0115434Y0095264D01*
X0115279Y0095605D01*
X0115133Y0095951D01*
X0114995Y0096299D01*
X0114865Y0096651D01*
X0114744Y0097006D01*
X0114632Y0097364D01*
X0114528Y0097724D01*
X0114434Y0098087D01*
X0114348Y0098452D01*
X0114271Y0098819D01*
X0114203Y0099188D01*
X0114144Y0099558D01*
X0114094Y0099930D01*
X0114053Y0100302D01*
X0114021Y0100676D01*
X0113998Y0101050D01*
X0113985Y0101425D01*
X0113980Y0101800D01*
X0113985Y0102175D01*
X0113998Y0102550D01*
X0114021Y0102924D01*
X0114053Y0103298D01*
X0114094Y0103670D01*
X0114144Y0104042D01*
X0114203Y0104412D01*
X0114271Y0104781D01*
X0114348Y0105148D01*
X0114434Y0105513D01*
X0114528Y0105876D01*
X0114632Y0106236D01*
X0114744Y0106594D01*
X0114865Y0106949D01*
X0114995Y0107301D01*
X0115133Y0107649D01*
X0115279Y0107995D01*
X0115434Y0108336D01*
X0115597Y0108674D01*
X0115768Y0109007D01*
X0115948Y0109337D01*
X0116135Y0109662D01*
X0116330Y0109982D01*
X0116533Y0110297D01*
X0116743Y0110608D01*
X0116961Y0110913D01*
X0117187Y0111212D01*
X0117419Y0111507D01*
X0117659Y0111795D01*
X0117905Y0112078D01*
X0118158Y0112354D01*
X0118418Y0112624D01*
X0118685Y0112888D01*
X0118958Y0113145D01*
X0119237Y0113396D01*
X0119522Y0113640D01*
X0119813Y0113876D01*
X0120109Y0114106D01*
X0120411Y0114328D01*
X0120718Y0114543D01*
X0121031Y0114750D01*
X0121348Y0114950D01*
X0121670Y0115142D01*
X0121997Y0115326D01*
X0122328Y0115502D01*
X0122664Y0115670D01*
X0123003Y0115829D01*
X0123346Y0115981D01*
X0123693Y0116124D01*
X0124043Y0116258D01*
X0124396Y0116384D01*
X0124752Y0116501D01*
X0125111Y0116610D01*
X0125132Y0116538D01*
X0124774Y0116430D01*
X0124420Y0116313D01*
X0124069Y0116188D01*
X0123720Y0116054D01*
X0123375Y0115911D01*
X0123034Y0115761D01*
X0122696Y0115602D01*
X0122363Y0115435D01*
X0122033Y0115260D01*
X0121708Y0115077D01*
X0121387Y0114886D01*
X0121071Y0114687D01*
X0120761Y0114481D01*
X0120455Y0114267D01*
X0120154Y0114046D01*
X0119859Y0113817D01*
X0119570Y0113582D01*
X0119286Y0113339D01*
X0119008Y0113090D01*
X0118737Y0112834D01*
X0118472Y0112572D01*
X0118213Y0112303D01*
X0117961Y0112028D01*
X0117716Y0111746D01*
X0117477Y0111459D01*
X0117246Y0111167D01*
X0117022Y0110868D01*
X0116805Y0110565D01*
X0116595Y0110256D01*
X0116394Y0109942D01*
X0116199Y0109623D01*
X0116013Y0109300D01*
X0115835Y0108972D01*
X0115664Y0108640D01*
X0115502Y0108304D01*
X0115348Y0107964D01*
X0115202Y0107621D01*
X0115065Y0107274D01*
X0114936Y0106924D01*
X0114816Y0106571D01*
X0114704Y0106215D01*
X0114601Y0105856D01*
X0114507Y0105495D01*
X0114421Y0105132D01*
X0114345Y0104766D01*
X0114277Y0104399D01*
X0114218Y0104031D01*
X0114168Y0103661D01*
X0114128Y0103290D01*
X0114096Y0102918D01*
X0114073Y0102546D01*
X0114060Y0102173D01*
X0114055Y0101800D01*
X0114060Y0101427D01*
X0114073Y0101054D01*
X0114096Y0100682D01*
X0114128Y0100310D01*
X0114168Y0099939D01*
X0114218Y0099569D01*
X0114277Y0099201D01*
X0114345Y0098834D01*
X0114421Y0098468D01*
X0114507Y0098105D01*
X0114601Y0097744D01*
X0114704Y0097385D01*
X0114816Y0097029D01*
X0114936Y0096676D01*
X0115065Y0096326D01*
X0115202Y0095979D01*
X0115348Y0095636D01*
X0115502Y0095296D01*
X0115664Y0094960D01*
X0115835Y0094628D01*
X0116013Y0094300D01*
X0116199Y0093977D01*
X0116394Y0093658D01*
X0116595Y0093344D01*
X0116805Y0093035D01*
X0117022Y0092732D01*
X0117246Y0092433D01*
X0117477Y0092141D01*
X0117716Y0091854D01*
X0117961Y0091572D01*
X0118213Y0091297D01*
X0118472Y0091028D01*
X0118737Y0090766D01*
X0119008Y0090510D01*
X0119286Y0090261D01*
X0119570Y0090018D01*
X0119859Y0089783D01*
X0120154Y0089554D01*
X0120455Y0089333D01*
X0120761Y0089119D01*
X0121071Y0088913D01*
X0121387Y0088714D01*
X0121708Y0088523D01*
X0122033Y0088340D01*
X0122363Y0088165D01*
X0122696Y0087998D01*
X0123034Y0087839D01*
X0123375Y0087689D01*
X0123720Y0087546D01*
X0124069Y0087412D01*
X0124420Y0087287D01*
X0124774Y0087170D01*
X0125132Y0087062D01*
X0125152Y0087134D01*
X0124797Y0087242D01*
X0124444Y0087358D01*
X0124094Y0087483D01*
X0123748Y0087616D01*
X0123405Y0087758D01*
X0123065Y0087907D01*
X0122729Y0088066D01*
X0122397Y0088232D01*
X0122069Y0088406D01*
X0121745Y0088588D01*
X0121426Y0088778D01*
X0121112Y0088976D01*
X0120803Y0089181D01*
X0120498Y0089394D01*
X0120199Y0089614D01*
X0119906Y0089841D01*
X0119618Y0090076D01*
X0119335Y0090317D01*
X0119059Y0090565D01*
X0118789Y0090820D01*
X0118525Y0091081D01*
X0118268Y0091349D01*
X0118017Y0091623D01*
X0117773Y0091902D01*
X0117535Y0092188D01*
X0117305Y0092479D01*
X0117082Y0092776D01*
X0116866Y0093078D01*
X0116658Y0093386D01*
X0116457Y0093698D01*
X0116264Y0094015D01*
X0116078Y0094337D01*
X0115901Y0094663D01*
X0115731Y0094993D01*
X0115570Y0095328D01*
X0115416Y0095666D01*
X0115271Y0096008D01*
X0115135Y0096353D01*
X0115007Y0096701D01*
X0114887Y0097053D01*
X0114776Y0097407D01*
X0114673Y0097764D01*
X0114579Y0098123D01*
X0114494Y0098485D01*
X0114418Y0098848D01*
X0114351Y0099213D01*
X0114292Y0099580D01*
X0114243Y0099948D01*
X0114202Y0100317D01*
X0114171Y0100687D01*
X0114148Y0101058D01*
X0114135Y0101429D01*
X0114130Y0101800D01*
X0114135Y0102171D01*
X0114148Y0102542D01*
X0114171Y0102913D01*
X0114202Y0103283D01*
X0114243Y0103652D01*
X0114292Y0104020D01*
X0114351Y0104387D01*
X0114418Y0104752D01*
X0114494Y0105115D01*
X0114579Y0105477D01*
X0114673Y0105836D01*
X0114776Y0106193D01*
X0114887Y0106547D01*
X0115007Y0106899D01*
X0115135Y0107247D01*
X0115271Y0107592D01*
X0115416Y0107934D01*
X0115570Y0108272D01*
X0115731Y0108607D01*
X0115901Y0108937D01*
X0116078Y0109263D01*
X0116264Y0109585D01*
X0116457Y0109902D01*
X0116658Y0110214D01*
X0116866Y0110522D01*
X0117082Y0110824D01*
X0117305Y0111121D01*
X0117535Y0111412D01*
X0117773Y0111698D01*
X0118017Y0111977D01*
X0118268Y0112251D01*
X0118525Y0112519D01*
X0118789Y0112780D01*
X0119059Y0113035D01*
X0119335Y0113283D01*
X0119618Y0113524D01*
X0119906Y0113759D01*
X0120199Y0113986D01*
X0120498Y0114206D01*
X0120803Y0114419D01*
X0121112Y0114624D01*
X0121426Y0114822D01*
X0121745Y0115012D01*
X0122069Y0115194D01*
X0122397Y0115368D01*
X0122729Y0115534D01*
X0123065Y0115693D01*
X0123405Y0115842D01*
X0123748Y0115984D01*
X0124094Y0116117D01*
X0124444Y0116242D01*
X0124797Y0116358D01*
X0125152Y0116466D01*
X0125173Y0116394D01*
X0124819Y0116287D01*
X0124468Y0116171D01*
X0124120Y0116047D01*
X0123775Y0115914D01*
X0123434Y0115773D01*
X0123096Y0115624D01*
X0122761Y0115467D01*
X0122431Y0115301D01*
X0122105Y0115128D01*
X0121783Y0114947D01*
X0121465Y0114758D01*
X0121153Y0114561D01*
X0120845Y0114357D01*
X0120542Y0114145D01*
X0120244Y0113926D01*
X0119952Y0113700D01*
X0119666Y0113467D01*
X0119385Y0113226D01*
X0119110Y0112980D01*
X0118841Y0112726D01*
X0118578Y0112466D01*
X0118322Y0112200D01*
X0118073Y0111927D01*
X0117830Y0111649D01*
X0117594Y0111365D01*
X0117365Y0111075D01*
X0117143Y0110779D01*
X0116928Y0110479D01*
X0116720Y0110173D01*
X0116521Y0109862D01*
X0116328Y0109547D01*
X0116144Y0109227D01*
X0115967Y0108902D01*
X0115798Y0108573D01*
X0115638Y0108241D01*
X0115485Y0107904D01*
X0115341Y0107564D01*
X0115205Y0107220D01*
X0115077Y0106874D01*
X0114958Y0106524D01*
X0114847Y0106171D01*
X0114745Y0105816D01*
X0114652Y0105459D01*
X0114567Y0105099D01*
X0114492Y0104737D01*
X0114425Y0104374D01*
X0114366Y0104009D01*
X0114317Y0103643D01*
X0114277Y0103276D01*
X0114245Y0102908D01*
X0114223Y0102539D01*
X0114209Y0102169D01*
X0114205Y0101800D01*
X0114209Y0101431D01*
X0114223Y0101061D01*
X0114245Y0100692D01*
X0114277Y0100324D01*
X0114317Y0099957D01*
X0114366Y0099591D01*
X0114425Y0099226D01*
X0114492Y0098863D01*
X0114567Y0098501D01*
X0114652Y0098141D01*
X0114745Y0097784D01*
X0114847Y0097429D01*
X0114958Y0097076D01*
X0115077Y0096726D01*
X0115205Y0096380D01*
X0115341Y0096036D01*
X0115485Y0095696D01*
X0115638Y0095359D01*
X0115798Y0095027D01*
X0115967Y0094698D01*
X0116144Y0094373D01*
X0116328Y0094053D01*
X0116521Y0093738D01*
X0116720Y0093427D01*
X0116928Y0093121D01*
X0117143Y0092821D01*
X0117365Y0092525D01*
X0117594Y0092235D01*
X0117830Y0091951D01*
X0118073Y0091673D01*
X0118322Y0091400D01*
X0118578Y0091134D01*
X0118841Y0090874D01*
X0119110Y0090620D01*
X0119385Y0090374D01*
X0119666Y0090133D01*
X0119952Y0089900D01*
X0120244Y0089674D01*
X0120542Y0089455D01*
X0120845Y0089243D01*
X0121153Y0089039D01*
X0121465Y0088842D01*
X0121783Y0088653D01*
X0122105Y0088472D01*
X0122431Y0088299D01*
X0122761Y0088133D01*
X0123096Y0087976D01*
X0123434Y0087827D01*
X0123775Y0087686D01*
X0124120Y0087553D01*
X0124468Y0087429D01*
X0124819Y0087313D01*
X0125173Y0087206D01*
X0125194Y0087278D01*
X0124842Y0087385D01*
X0124492Y0087500D01*
X0124146Y0087624D01*
X0123803Y0087755D01*
X0123463Y0087896D01*
X0123127Y0088044D01*
X0122794Y0088201D01*
X0122465Y0088365D01*
X0122141Y0088538D01*
X0121820Y0088718D01*
X0121504Y0088906D01*
X0121193Y0089102D01*
X0120887Y0089305D01*
X0120586Y0089516D01*
X0120289Y0089734D01*
X0119999Y0089959D01*
X0119714Y0090191D01*
X0119434Y0090430D01*
X0119161Y0090676D01*
X0118893Y0090928D01*
X0118632Y0091187D01*
X0118377Y0091452D01*
X0118128Y0091723D01*
X0117887Y0092000D01*
X0117652Y0092283D01*
X0117424Y0092571D01*
X0117203Y0092865D01*
X0116989Y0093164D01*
X0116783Y0093468D01*
X0116584Y0093778D01*
X0116393Y0094092D01*
X0116209Y0094410D01*
X0116033Y0094733D01*
X0115865Y0095060D01*
X0115706Y0095391D01*
X0115554Y0095726D01*
X0115410Y0096065D01*
X0115275Y0096406D01*
X0115148Y0096751D01*
X0115029Y0097099D01*
X0114919Y0097450D01*
X0114818Y0097804D01*
X0114725Y0098159D01*
X0114641Y0098517D01*
X0114565Y0098877D01*
X0114499Y0099239D01*
X0114441Y0099602D01*
X0114392Y0099966D01*
X0114351Y0100332D01*
X0114320Y0100698D01*
X0114298Y0101065D01*
X0114284Y0101432D01*
X0114280Y0101800D01*
X0114284Y0102168D01*
X0114298Y0102535D01*
X0114320Y0102902D01*
X0114351Y0103268D01*
X0114392Y0103634D01*
X0114441Y0103998D01*
X0114499Y0104361D01*
X0114565Y0104723D01*
X0114641Y0105083D01*
X0114725Y0105441D01*
X0114818Y0105796D01*
X0114919Y0106150D01*
X0115029Y0106501D01*
X0115148Y0106849D01*
X0115275Y0107194D01*
X0115410Y0107535D01*
X0115554Y0107874D01*
X0115706Y0108209D01*
X0115865Y0108540D01*
X0116033Y0108867D01*
X0116209Y0109190D01*
X0116393Y0109508D01*
X0116584Y0109822D01*
X0116783Y0110132D01*
X0116989Y0110436D01*
X0117203Y0110735D01*
X0117424Y0111029D01*
X0117652Y0111317D01*
X0117887Y0111600D01*
X0118128Y0111877D01*
X0118377Y0112148D01*
X0118632Y0112413D01*
X0118893Y0112672D01*
X0119161Y0112924D01*
X0119434Y0113170D01*
X0119714Y0113409D01*
X0119999Y0113641D01*
X0120289Y0113866D01*
X0120586Y0114084D01*
X0120887Y0114295D01*
X0121193Y0114498D01*
X0121504Y0114694D01*
X0121820Y0114882D01*
X0122141Y0115062D01*
X0122465Y0115235D01*
X0122794Y0115399D01*
X0123127Y0115556D01*
X0123463Y0115704D01*
X0123803Y0115845D01*
X0124146Y0115976D01*
X0124492Y0116100D01*
X0124842Y0116215D01*
X0125194Y0116322D01*
X0125214Y0116249D01*
X0124864Y0116143D01*
X0124517Y0116029D01*
X0124172Y0115906D01*
X0123831Y0115775D01*
X0123492Y0115635D01*
X0123158Y0115488D01*
X0122827Y0115332D01*
X0122500Y0115168D01*
X0122177Y0114996D01*
X0121858Y0114817D01*
X0121543Y0114630D01*
X0121234Y0114435D01*
X0120929Y0114233D01*
X0120629Y0114023D01*
X0120334Y0113806D01*
X0120045Y0113582D01*
X0119761Y0113351D01*
X0119483Y0113113D01*
X0119211Y0112869D01*
X0118945Y0112618D01*
X0118685Y0112361D01*
X0118431Y0112097D01*
X0118184Y0111827D01*
X0117944Y0111552D01*
X0117710Y0111270D01*
X0117483Y0110983D01*
X0117263Y0110691D01*
X0117051Y0110393D01*
X0116846Y0110090D01*
X0116648Y0109782D01*
X0116457Y0109470D01*
X0116275Y0109153D01*
X0116100Y0108832D01*
X0115933Y0108506D01*
X0115773Y0108177D01*
X0115622Y0107844D01*
X0115480Y0107507D01*
X0115345Y0107167D01*
X0115219Y0106823D01*
X0115101Y0106477D01*
X0114991Y0106128D01*
X0114890Y0105776D01*
X0114798Y0105422D01*
X0114714Y0105066D01*
X0114639Y0104708D01*
X0114572Y0104349D01*
X0114515Y0103987D01*
X0114466Y0103625D01*
X0114426Y0103261D01*
X0114395Y0102897D01*
X0114373Y0102531D01*
X0114359Y0102166D01*
X0114355Y0101800D01*
X0114359Y0101434D01*
X0114373Y0101069D01*
X0114395Y0100703D01*
X0114426Y0100339D01*
X0114466Y0099975D01*
X0114515Y0099613D01*
X0114572Y0099251D01*
X0114639Y0098892D01*
X0114714Y0098534D01*
X0114798Y0098178D01*
X0114890Y0097824D01*
X0114991Y0097472D01*
X0115101Y0097123D01*
X0115219Y0096777D01*
X0115345Y0096433D01*
X0115480Y0096093D01*
X0115622Y0095756D01*
X0115773Y0095423D01*
X0115933Y0095094D01*
X0116100Y0094768D01*
X0116275Y0094447D01*
X0116457Y0094130D01*
X0116648Y0093818D01*
X0116846Y0093510D01*
X0117051Y0093207D01*
X0117263Y0092909D01*
X0117483Y0092617D01*
X0117710Y0092330D01*
X0117944Y0092048D01*
X0118184Y0091773D01*
X0118431Y0091503D01*
X0118685Y0091239D01*
X0118945Y0090982D01*
X0119211Y0090731D01*
X0119483Y0090487D01*
X0119761Y0090249D01*
X0120045Y0090018D01*
X0120334Y0089794D01*
X0120629Y0089577D01*
X0120929Y0089367D01*
X0121234Y0089165D01*
X0121543Y0088970D01*
X0121858Y0088783D01*
X0122177Y0088604D01*
X0122500Y0088432D01*
X0122827Y0088268D01*
X0123158Y0088112D01*
X0123492Y0087965D01*
X0123831Y0087825D01*
X0124172Y0087694D01*
X0124517Y0087571D01*
X0124864Y0087457D01*
X0125214Y0087351D01*
M02*
