G75*
%MOIN*%
%OFA0B0*%
%FSLAX25Y25*%
%IPPOS*%
%LPD*%
%AMOC8*
5,1,8,0,0,1.08239X$1,22.5*
%
%ADD10C,0.01600*%
%ADD11C,0.00000*%
%ADD12C,0.05600*%
%ADD13R,0.05512X0.03937*%
%ADD14R,0.04331X0.03937*%
%ADD15R,0.03937X0.04331*%
%ADD16C,0.06000*%
%ADD17R,0.04134X0.04252*%
%ADD18R,0.04252X0.04134*%
%ADD19C,0.05150*%
%ADD20C,0.06600*%
%ADD21R,0.02200X0.05000*%
%ADD22R,0.05000X0.02200*%
%ADD23C,0.01000*%
%ADD24C,0.01200*%
%ADD25C,0.04356*%
%ADD26C,0.03962*%
%ADD27C,0.02400*%
D10*
X0001800Y0001800D02*
X0001800Y0256800D01*
X0151800Y0256800D01*
X0151800Y0001800D01*
X0001800Y0001800D01*
X0033746Y0040954D02*
X0033200Y0041500D01*
X0033746Y0040954D02*
X0044300Y0040954D01*
X0044300Y0047646D02*
X0044300Y0056800D01*
X0044300Y0063454D01*
X0056800Y0089300D02*
X0056800Y0114300D01*
X0068926Y0126426D01*
X0077400Y0126426D01*
X0077400Y0123276D02*
X0073276Y0123276D01*
X0061800Y0111800D01*
X0061800Y0099300D01*
X0066800Y0094300D01*
X0066800Y0089300D01*
X0071800Y0099300D02*
X0071800Y0109300D01*
X0074300Y0111800D01*
X0079300Y0111800D01*
X0083276Y0115776D01*
X0083276Y0117400D01*
X0086426Y0117400D02*
X0086426Y0138926D01*
X0089300Y0141800D01*
X0089300Y0148424D01*
X0089576Y0151200D01*
X0092725Y0151200D02*
X0092725Y0143375D01*
X0094300Y0141800D01*
X0095875Y0140225D01*
X0095875Y0117400D01*
X0095875Y0106170D01*
X0095245Y0104300D01*
X0099300Y0106800D02*
X0099300Y0117124D01*
X0099024Y0117400D01*
X0102174Y0117400D02*
X0102174Y0111426D01*
X0109300Y0104300D01*
X0136800Y0104300D01*
X0141800Y0101800D01*
X0141800Y0064300D01*
X0139300Y0061800D01*
X0134954Y0061800D01*
X0134300Y0062454D01*
X0134954Y0061800D02*
X0134954Y0048300D01*
X0134300Y0047646D01*
X0140954Y0047646D01*
X0141800Y0046800D01*
X0141800Y0034300D01*
X0139300Y0031800D01*
X0137745Y0031800D01*
X0141800Y0024300D02*
X0114300Y0024300D01*
X0111800Y0021800D01*
X0105400Y0020400D02*
X0105400Y0033200D01*
X0105400Y0041500D01*
X0105400Y0033200D02*
X0106800Y0031800D01*
X0130855Y0031800D01*
X0134300Y0040954D02*
X0123746Y0040954D01*
X0123200Y0041500D01*
X0141800Y0024300D02*
X0146800Y0029300D01*
X0146800Y0104300D01*
X0141800Y0109300D01*
X0109300Y0109300D01*
X0105324Y0113276D01*
X0105324Y0117400D01*
X0099300Y0106800D02*
X0101800Y0104300D01*
X0099300Y0096800D02*
X0096800Y0094300D01*
X0096800Y0089300D01*
X0099300Y0096800D02*
X0114300Y0096800D01*
X0115855Y0095245D01*
X0116800Y0095245D01*
X0115855Y0089300D02*
X0116800Y0088355D01*
X0119300Y0083355D01*
X0115855Y0089300D02*
X0106800Y0089300D01*
X0088355Y0108355D02*
X0092725Y0112725D01*
X0092725Y0117400D01*
X0089576Y0117400D02*
X0089576Y0114576D01*
X0081800Y0106800D01*
X0088355Y0108355D02*
X0088355Y0104300D01*
X0076800Y0094300D02*
X0076800Y0089300D01*
X0076800Y0094300D02*
X0071800Y0099300D01*
X0061800Y0126800D02*
X0057646Y0126800D01*
X0060875Y0132725D02*
X0046800Y0144300D01*
X0046800Y0201800D01*
X0039300Y0211800D01*
X0034300Y0211800D01*
X0024300Y0221800D01*
X0024300Y0238454D01*
X0043631Y0241800D02*
X0054300Y0241800D01*
X0056800Y0239300D01*
X0056800Y0224300D01*
X0066800Y0224300D02*
X0066800Y0204300D01*
X0074300Y0196800D01*
X0099300Y0196800D01*
X0106800Y0189300D01*
X0106800Y0175146D01*
X0096800Y0175146D02*
X0096800Y0184300D01*
X0096800Y0168454D02*
X0096249Y0167902D01*
X0086800Y0168454D02*
X0085954Y0168454D01*
X0073300Y0155800D01*
X0073300Y0146300D01*
X0074276Y0145324D01*
X0077400Y0145324D01*
X0077400Y0142174D02*
X0071426Y0142174D01*
X0069300Y0144300D01*
X0069300Y0159300D01*
X0076800Y0166800D01*
X0076800Y0175146D02*
X0076800Y0184300D01*
X0086800Y0184300D02*
X0086800Y0175146D01*
X0099300Y0148424D02*
X0099300Y0141800D01*
X0096800Y0141800D01*
X0094300Y0141800D01*
X0077400Y0139024D02*
X0069576Y0139024D01*
X0064300Y0144300D01*
X0064300Y0165954D01*
X0066800Y0168454D01*
X0067646Y0168454D01*
X0066800Y0175146D02*
X0066800Y0184300D01*
X0056800Y0184300D02*
X0056800Y0175146D01*
X0056800Y0168454D02*
X0056800Y0144300D01*
X0065225Y0135875D01*
X0077400Y0135875D01*
X0077400Y0132725D02*
X0060875Y0132725D01*
X0064576Y0129576D02*
X0061800Y0126800D01*
X0064576Y0129576D02*
X0077400Y0129576D01*
X0111200Y0132725D02*
X0115875Y0132725D01*
X0125954Y0122646D01*
X0125954Y0116800D01*
X0132646Y0116800D02*
X0141800Y0116800D01*
X0146800Y0121800D01*
X0146800Y0206800D01*
X0143040Y0210560D01*
X0138631Y0210560D01*
X0139300Y0204300D02*
X0138631Y0203631D01*
X0138631Y0200540D01*
X0138631Y0193060D02*
X0138631Y0183316D01*
X0136800Y0182646D01*
X0129969Y0196800D02*
X0129300Y0196800D01*
X0129300Y0199300D01*
X0121800Y0206800D01*
X0091800Y0206800D01*
X0086800Y0211800D01*
X0086800Y0224300D01*
X0076800Y0224300D02*
X0076800Y0204300D01*
X0079300Y0201800D01*
X0104300Y0201800D01*
X0116800Y0189300D01*
X0116800Y0175146D01*
X0126800Y0175146D02*
X0126800Y0189300D01*
X0116800Y0199300D01*
X0116800Y0201800D01*
X0129969Y0214300D02*
X0099300Y0214300D01*
X0096800Y0216800D01*
X0096800Y0224300D01*
X0138631Y0218040D02*
X0140560Y0218040D01*
X0140560Y0218060D01*
X0144300Y0221800D01*
X0144300Y0226800D01*
X0139300Y0226800D01*
X0086800Y0062454D02*
X0086800Y0056800D01*
X0086800Y0047646D01*
X0086800Y0040954D02*
X0076246Y0040954D01*
X0075700Y0041500D01*
X0076800Y0022646D02*
X0077646Y0021800D01*
X0084300Y0021800D01*
X0090954Y0021800D01*
X0091800Y0022646D01*
X0091800Y0015954D02*
X0100954Y0015954D01*
X0105400Y0020400D01*
X0091800Y0015954D02*
X0091800Y0010855D01*
X0085245Y0006800D01*
X0090245Y0015009D02*
X0091800Y0015954D01*
X0065146Y0015954D02*
X0064300Y0016800D01*
D11*
X0020300Y0095300D02*
X0020302Y0095461D01*
X0020308Y0095621D01*
X0020318Y0095782D01*
X0020332Y0095942D01*
X0020350Y0096102D01*
X0020371Y0096261D01*
X0020397Y0096420D01*
X0020427Y0096578D01*
X0020460Y0096735D01*
X0020498Y0096892D01*
X0020539Y0097047D01*
X0020584Y0097201D01*
X0020633Y0097354D01*
X0020686Y0097506D01*
X0020742Y0097657D01*
X0020803Y0097806D01*
X0020866Y0097954D01*
X0020934Y0098100D01*
X0021005Y0098244D01*
X0021079Y0098386D01*
X0021157Y0098527D01*
X0021239Y0098665D01*
X0021324Y0098802D01*
X0021412Y0098936D01*
X0021504Y0099068D01*
X0021599Y0099198D01*
X0021697Y0099326D01*
X0021798Y0099451D01*
X0021902Y0099573D01*
X0022009Y0099693D01*
X0022119Y0099810D01*
X0022232Y0099925D01*
X0022348Y0100036D01*
X0022467Y0100145D01*
X0022588Y0100250D01*
X0022712Y0100353D01*
X0022838Y0100453D01*
X0022966Y0100549D01*
X0023097Y0100642D01*
X0023231Y0100732D01*
X0023366Y0100819D01*
X0023504Y0100902D01*
X0023643Y0100982D01*
X0023785Y0101058D01*
X0023928Y0101131D01*
X0024073Y0101200D01*
X0024220Y0101266D01*
X0024368Y0101328D01*
X0024518Y0101386D01*
X0024669Y0101441D01*
X0024822Y0101492D01*
X0024976Y0101539D01*
X0025131Y0101582D01*
X0025287Y0101621D01*
X0025443Y0101657D01*
X0025601Y0101688D01*
X0025759Y0101716D01*
X0025918Y0101740D01*
X0026078Y0101760D01*
X0026238Y0101776D01*
X0026398Y0101788D01*
X0026559Y0101796D01*
X0026720Y0101800D01*
X0026880Y0101800D01*
X0027041Y0101796D01*
X0027202Y0101788D01*
X0027362Y0101776D01*
X0027522Y0101760D01*
X0027682Y0101740D01*
X0027841Y0101716D01*
X0027999Y0101688D01*
X0028157Y0101657D01*
X0028313Y0101621D01*
X0028469Y0101582D01*
X0028624Y0101539D01*
X0028778Y0101492D01*
X0028931Y0101441D01*
X0029082Y0101386D01*
X0029232Y0101328D01*
X0029380Y0101266D01*
X0029527Y0101200D01*
X0029672Y0101131D01*
X0029815Y0101058D01*
X0029957Y0100982D01*
X0030096Y0100902D01*
X0030234Y0100819D01*
X0030369Y0100732D01*
X0030503Y0100642D01*
X0030634Y0100549D01*
X0030762Y0100453D01*
X0030888Y0100353D01*
X0031012Y0100250D01*
X0031133Y0100145D01*
X0031252Y0100036D01*
X0031368Y0099925D01*
X0031481Y0099810D01*
X0031591Y0099693D01*
X0031698Y0099573D01*
X0031802Y0099451D01*
X0031903Y0099326D01*
X0032001Y0099198D01*
X0032096Y0099068D01*
X0032188Y0098936D01*
X0032276Y0098802D01*
X0032361Y0098665D01*
X0032443Y0098527D01*
X0032521Y0098386D01*
X0032595Y0098244D01*
X0032666Y0098100D01*
X0032734Y0097954D01*
X0032797Y0097806D01*
X0032858Y0097657D01*
X0032914Y0097506D01*
X0032967Y0097354D01*
X0033016Y0097201D01*
X0033061Y0097047D01*
X0033102Y0096892D01*
X0033140Y0096735D01*
X0033173Y0096578D01*
X0033203Y0096420D01*
X0033229Y0096261D01*
X0033250Y0096102D01*
X0033268Y0095942D01*
X0033282Y0095782D01*
X0033292Y0095621D01*
X0033298Y0095461D01*
X0033300Y0095300D01*
X0033298Y0095139D01*
X0033292Y0094979D01*
X0033282Y0094818D01*
X0033268Y0094658D01*
X0033250Y0094498D01*
X0033229Y0094339D01*
X0033203Y0094180D01*
X0033173Y0094022D01*
X0033140Y0093865D01*
X0033102Y0093708D01*
X0033061Y0093553D01*
X0033016Y0093399D01*
X0032967Y0093246D01*
X0032914Y0093094D01*
X0032858Y0092943D01*
X0032797Y0092794D01*
X0032734Y0092646D01*
X0032666Y0092500D01*
X0032595Y0092356D01*
X0032521Y0092214D01*
X0032443Y0092073D01*
X0032361Y0091935D01*
X0032276Y0091798D01*
X0032188Y0091664D01*
X0032096Y0091532D01*
X0032001Y0091402D01*
X0031903Y0091274D01*
X0031802Y0091149D01*
X0031698Y0091027D01*
X0031591Y0090907D01*
X0031481Y0090790D01*
X0031368Y0090675D01*
X0031252Y0090564D01*
X0031133Y0090455D01*
X0031012Y0090350D01*
X0030888Y0090247D01*
X0030762Y0090147D01*
X0030634Y0090051D01*
X0030503Y0089958D01*
X0030369Y0089868D01*
X0030234Y0089781D01*
X0030096Y0089698D01*
X0029957Y0089618D01*
X0029815Y0089542D01*
X0029672Y0089469D01*
X0029527Y0089400D01*
X0029380Y0089334D01*
X0029232Y0089272D01*
X0029082Y0089214D01*
X0028931Y0089159D01*
X0028778Y0089108D01*
X0028624Y0089061D01*
X0028469Y0089018D01*
X0028313Y0088979D01*
X0028157Y0088943D01*
X0027999Y0088912D01*
X0027841Y0088884D01*
X0027682Y0088860D01*
X0027522Y0088840D01*
X0027362Y0088824D01*
X0027202Y0088812D01*
X0027041Y0088804D01*
X0026880Y0088800D01*
X0026720Y0088800D01*
X0026559Y0088804D01*
X0026398Y0088812D01*
X0026238Y0088824D01*
X0026078Y0088840D01*
X0025918Y0088860D01*
X0025759Y0088884D01*
X0025601Y0088912D01*
X0025443Y0088943D01*
X0025287Y0088979D01*
X0025131Y0089018D01*
X0024976Y0089061D01*
X0024822Y0089108D01*
X0024669Y0089159D01*
X0024518Y0089214D01*
X0024368Y0089272D01*
X0024220Y0089334D01*
X0024073Y0089400D01*
X0023928Y0089469D01*
X0023785Y0089542D01*
X0023643Y0089618D01*
X0023504Y0089698D01*
X0023366Y0089781D01*
X0023231Y0089868D01*
X0023097Y0089958D01*
X0022966Y0090051D01*
X0022838Y0090147D01*
X0022712Y0090247D01*
X0022588Y0090350D01*
X0022467Y0090455D01*
X0022348Y0090564D01*
X0022232Y0090675D01*
X0022119Y0090790D01*
X0022009Y0090907D01*
X0021902Y0091027D01*
X0021798Y0091149D01*
X0021697Y0091274D01*
X0021599Y0091402D01*
X0021504Y0091532D01*
X0021412Y0091664D01*
X0021324Y0091798D01*
X0021239Y0091935D01*
X0021157Y0092073D01*
X0021079Y0092214D01*
X0021005Y0092356D01*
X0020934Y0092500D01*
X0020866Y0092646D01*
X0020803Y0092794D01*
X0020742Y0092943D01*
X0020686Y0093094D01*
X0020633Y0093246D01*
X0020584Y0093399D01*
X0020539Y0093553D01*
X0020498Y0093708D01*
X0020460Y0093865D01*
X0020427Y0094022D01*
X0020397Y0094180D01*
X0020371Y0094339D01*
X0020350Y0094498D01*
X0020332Y0094658D01*
X0020318Y0094818D01*
X0020308Y0094979D01*
X0020302Y0095139D01*
X0020300Y0095300D01*
X0008001Y0014300D02*
X0008003Y0014458D01*
X0008009Y0014616D01*
X0008019Y0014774D01*
X0008033Y0014932D01*
X0008051Y0015089D01*
X0008072Y0015246D01*
X0008098Y0015402D01*
X0008128Y0015558D01*
X0008161Y0015713D01*
X0008199Y0015866D01*
X0008240Y0016019D01*
X0008285Y0016171D01*
X0008334Y0016322D01*
X0008387Y0016471D01*
X0008443Y0016619D01*
X0008503Y0016765D01*
X0008567Y0016910D01*
X0008635Y0017053D01*
X0008706Y0017195D01*
X0008780Y0017335D01*
X0008858Y0017472D01*
X0008940Y0017608D01*
X0009024Y0017742D01*
X0009113Y0017873D01*
X0009204Y0018002D01*
X0009299Y0018129D01*
X0009396Y0018254D01*
X0009497Y0018376D01*
X0009601Y0018495D01*
X0009708Y0018612D01*
X0009818Y0018726D01*
X0009931Y0018837D01*
X0010046Y0018946D01*
X0010164Y0019051D01*
X0010285Y0019153D01*
X0010408Y0019253D01*
X0010534Y0019349D01*
X0010662Y0019442D01*
X0010792Y0019532D01*
X0010925Y0019618D01*
X0011060Y0019702D01*
X0011196Y0019781D01*
X0011335Y0019858D01*
X0011476Y0019930D01*
X0011618Y0020000D01*
X0011762Y0020065D01*
X0011908Y0020127D01*
X0012055Y0020185D01*
X0012204Y0020240D01*
X0012354Y0020291D01*
X0012505Y0020338D01*
X0012657Y0020381D01*
X0012810Y0020420D01*
X0012965Y0020456D01*
X0013120Y0020487D01*
X0013276Y0020515D01*
X0013432Y0020539D01*
X0013589Y0020559D01*
X0013747Y0020575D01*
X0013904Y0020587D01*
X0014063Y0020595D01*
X0014221Y0020599D01*
X0014379Y0020599D01*
X0014537Y0020595D01*
X0014696Y0020587D01*
X0014853Y0020575D01*
X0015011Y0020559D01*
X0015168Y0020539D01*
X0015324Y0020515D01*
X0015480Y0020487D01*
X0015635Y0020456D01*
X0015790Y0020420D01*
X0015943Y0020381D01*
X0016095Y0020338D01*
X0016246Y0020291D01*
X0016396Y0020240D01*
X0016545Y0020185D01*
X0016692Y0020127D01*
X0016838Y0020065D01*
X0016982Y0020000D01*
X0017124Y0019930D01*
X0017265Y0019858D01*
X0017404Y0019781D01*
X0017540Y0019702D01*
X0017675Y0019618D01*
X0017808Y0019532D01*
X0017938Y0019442D01*
X0018066Y0019349D01*
X0018192Y0019253D01*
X0018315Y0019153D01*
X0018436Y0019051D01*
X0018554Y0018946D01*
X0018669Y0018837D01*
X0018782Y0018726D01*
X0018892Y0018612D01*
X0018999Y0018495D01*
X0019103Y0018376D01*
X0019204Y0018254D01*
X0019301Y0018129D01*
X0019396Y0018002D01*
X0019487Y0017873D01*
X0019576Y0017742D01*
X0019660Y0017608D01*
X0019742Y0017472D01*
X0019820Y0017335D01*
X0019894Y0017195D01*
X0019965Y0017053D01*
X0020033Y0016910D01*
X0020097Y0016765D01*
X0020157Y0016619D01*
X0020213Y0016471D01*
X0020266Y0016322D01*
X0020315Y0016171D01*
X0020360Y0016019D01*
X0020401Y0015866D01*
X0020439Y0015713D01*
X0020472Y0015558D01*
X0020502Y0015402D01*
X0020528Y0015246D01*
X0020549Y0015089D01*
X0020567Y0014932D01*
X0020581Y0014774D01*
X0020591Y0014616D01*
X0020597Y0014458D01*
X0020599Y0014300D01*
X0020597Y0014142D01*
X0020591Y0013984D01*
X0020581Y0013826D01*
X0020567Y0013668D01*
X0020549Y0013511D01*
X0020528Y0013354D01*
X0020502Y0013198D01*
X0020472Y0013042D01*
X0020439Y0012887D01*
X0020401Y0012734D01*
X0020360Y0012581D01*
X0020315Y0012429D01*
X0020266Y0012278D01*
X0020213Y0012129D01*
X0020157Y0011981D01*
X0020097Y0011835D01*
X0020033Y0011690D01*
X0019965Y0011547D01*
X0019894Y0011405D01*
X0019820Y0011265D01*
X0019742Y0011128D01*
X0019660Y0010992D01*
X0019576Y0010858D01*
X0019487Y0010727D01*
X0019396Y0010598D01*
X0019301Y0010471D01*
X0019204Y0010346D01*
X0019103Y0010224D01*
X0018999Y0010105D01*
X0018892Y0009988D01*
X0018782Y0009874D01*
X0018669Y0009763D01*
X0018554Y0009654D01*
X0018436Y0009549D01*
X0018315Y0009447D01*
X0018192Y0009347D01*
X0018066Y0009251D01*
X0017938Y0009158D01*
X0017808Y0009068D01*
X0017675Y0008982D01*
X0017540Y0008898D01*
X0017404Y0008819D01*
X0017265Y0008742D01*
X0017124Y0008670D01*
X0016982Y0008600D01*
X0016838Y0008535D01*
X0016692Y0008473D01*
X0016545Y0008415D01*
X0016396Y0008360D01*
X0016246Y0008309D01*
X0016095Y0008262D01*
X0015943Y0008219D01*
X0015790Y0008180D01*
X0015635Y0008144D01*
X0015480Y0008113D01*
X0015324Y0008085D01*
X0015168Y0008061D01*
X0015011Y0008041D01*
X0014853Y0008025D01*
X0014696Y0008013D01*
X0014537Y0008005D01*
X0014379Y0008001D01*
X0014221Y0008001D01*
X0014063Y0008005D01*
X0013904Y0008013D01*
X0013747Y0008025D01*
X0013589Y0008041D01*
X0013432Y0008061D01*
X0013276Y0008085D01*
X0013120Y0008113D01*
X0012965Y0008144D01*
X0012810Y0008180D01*
X0012657Y0008219D01*
X0012505Y0008262D01*
X0012354Y0008309D01*
X0012204Y0008360D01*
X0012055Y0008415D01*
X0011908Y0008473D01*
X0011762Y0008535D01*
X0011618Y0008600D01*
X0011476Y0008670D01*
X0011335Y0008742D01*
X0011196Y0008819D01*
X0011060Y0008898D01*
X0010925Y0008982D01*
X0010792Y0009068D01*
X0010662Y0009158D01*
X0010534Y0009251D01*
X0010408Y0009347D01*
X0010285Y0009447D01*
X0010164Y0009549D01*
X0010046Y0009654D01*
X0009931Y0009763D01*
X0009818Y0009874D01*
X0009708Y0009988D01*
X0009601Y0010105D01*
X0009497Y0010224D01*
X0009396Y0010346D01*
X0009299Y0010471D01*
X0009204Y0010598D01*
X0009113Y0010727D01*
X0009024Y0010858D01*
X0008940Y0010992D01*
X0008858Y0011128D01*
X0008780Y0011265D01*
X0008706Y0011405D01*
X0008635Y0011547D01*
X0008567Y0011690D01*
X0008503Y0011835D01*
X0008443Y0011981D01*
X0008387Y0012129D01*
X0008334Y0012278D01*
X0008285Y0012429D01*
X0008240Y0012581D01*
X0008199Y0012734D01*
X0008161Y0012887D01*
X0008128Y0013042D01*
X0008098Y0013198D01*
X0008072Y0013354D01*
X0008051Y0013511D01*
X0008033Y0013668D01*
X0008019Y0013826D01*
X0008009Y0013984D01*
X0008003Y0014142D01*
X0008001Y0014300D01*
X0133001Y0014300D02*
X0133003Y0014458D01*
X0133009Y0014616D01*
X0133019Y0014774D01*
X0133033Y0014932D01*
X0133051Y0015089D01*
X0133072Y0015246D01*
X0133098Y0015402D01*
X0133128Y0015558D01*
X0133161Y0015713D01*
X0133199Y0015866D01*
X0133240Y0016019D01*
X0133285Y0016171D01*
X0133334Y0016322D01*
X0133387Y0016471D01*
X0133443Y0016619D01*
X0133503Y0016765D01*
X0133567Y0016910D01*
X0133635Y0017053D01*
X0133706Y0017195D01*
X0133780Y0017335D01*
X0133858Y0017472D01*
X0133940Y0017608D01*
X0134024Y0017742D01*
X0134113Y0017873D01*
X0134204Y0018002D01*
X0134299Y0018129D01*
X0134396Y0018254D01*
X0134497Y0018376D01*
X0134601Y0018495D01*
X0134708Y0018612D01*
X0134818Y0018726D01*
X0134931Y0018837D01*
X0135046Y0018946D01*
X0135164Y0019051D01*
X0135285Y0019153D01*
X0135408Y0019253D01*
X0135534Y0019349D01*
X0135662Y0019442D01*
X0135792Y0019532D01*
X0135925Y0019618D01*
X0136060Y0019702D01*
X0136196Y0019781D01*
X0136335Y0019858D01*
X0136476Y0019930D01*
X0136618Y0020000D01*
X0136762Y0020065D01*
X0136908Y0020127D01*
X0137055Y0020185D01*
X0137204Y0020240D01*
X0137354Y0020291D01*
X0137505Y0020338D01*
X0137657Y0020381D01*
X0137810Y0020420D01*
X0137965Y0020456D01*
X0138120Y0020487D01*
X0138276Y0020515D01*
X0138432Y0020539D01*
X0138589Y0020559D01*
X0138747Y0020575D01*
X0138904Y0020587D01*
X0139063Y0020595D01*
X0139221Y0020599D01*
X0139379Y0020599D01*
X0139537Y0020595D01*
X0139696Y0020587D01*
X0139853Y0020575D01*
X0140011Y0020559D01*
X0140168Y0020539D01*
X0140324Y0020515D01*
X0140480Y0020487D01*
X0140635Y0020456D01*
X0140790Y0020420D01*
X0140943Y0020381D01*
X0141095Y0020338D01*
X0141246Y0020291D01*
X0141396Y0020240D01*
X0141545Y0020185D01*
X0141692Y0020127D01*
X0141838Y0020065D01*
X0141982Y0020000D01*
X0142124Y0019930D01*
X0142265Y0019858D01*
X0142404Y0019781D01*
X0142540Y0019702D01*
X0142675Y0019618D01*
X0142808Y0019532D01*
X0142938Y0019442D01*
X0143066Y0019349D01*
X0143192Y0019253D01*
X0143315Y0019153D01*
X0143436Y0019051D01*
X0143554Y0018946D01*
X0143669Y0018837D01*
X0143782Y0018726D01*
X0143892Y0018612D01*
X0143999Y0018495D01*
X0144103Y0018376D01*
X0144204Y0018254D01*
X0144301Y0018129D01*
X0144396Y0018002D01*
X0144487Y0017873D01*
X0144576Y0017742D01*
X0144660Y0017608D01*
X0144742Y0017472D01*
X0144820Y0017335D01*
X0144894Y0017195D01*
X0144965Y0017053D01*
X0145033Y0016910D01*
X0145097Y0016765D01*
X0145157Y0016619D01*
X0145213Y0016471D01*
X0145266Y0016322D01*
X0145315Y0016171D01*
X0145360Y0016019D01*
X0145401Y0015866D01*
X0145439Y0015713D01*
X0145472Y0015558D01*
X0145502Y0015402D01*
X0145528Y0015246D01*
X0145549Y0015089D01*
X0145567Y0014932D01*
X0145581Y0014774D01*
X0145591Y0014616D01*
X0145597Y0014458D01*
X0145599Y0014300D01*
X0145597Y0014142D01*
X0145591Y0013984D01*
X0145581Y0013826D01*
X0145567Y0013668D01*
X0145549Y0013511D01*
X0145528Y0013354D01*
X0145502Y0013198D01*
X0145472Y0013042D01*
X0145439Y0012887D01*
X0145401Y0012734D01*
X0145360Y0012581D01*
X0145315Y0012429D01*
X0145266Y0012278D01*
X0145213Y0012129D01*
X0145157Y0011981D01*
X0145097Y0011835D01*
X0145033Y0011690D01*
X0144965Y0011547D01*
X0144894Y0011405D01*
X0144820Y0011265D01*
X0144742Y0011128D01*
X0144660Y0010992D01*
X0144576Y0010858D01*
X0144487Y0010727D01*
X0144396Y0010598D01*
X0144301Y0010471D01*
X0144204Y0010346D01*
X0144103Y0010224D01*
X0143999Y0010105D01*
X0143892Y0009988D01*
X0143782Y0009874D01*
X0143669Y0009763D01*
X0143554Y0009654D01*
X0143436Y0009549D01*
X0143315Y0009447D01*
X0143192Y0009347D01*
X0143066Y0009251D01*
X0142938Y0009158D01*
X0142808Y0009068D01*
X0142675Y0008982D01*
X0142540Y0008898D01*
X0142404Y0008819D01*
X0142265Y0008742D01*
X0142124Y0008670D01*
X0141982Y0008600D01*
X0141838Y0008535D01*
X0141692Y0008473D01*
X0141545Y0008415D01*
X0141396Y0008360D01*
X0141246Y0008309D01*
X0141095Y0008262D01*
X0140943Y0008219D01*
X0140790Y0008180D01*
X0140635Y0008144D01*
X0140480Y0008113D01*
X0140324Y0008085D01*
X0140168Y0008061D01*
X0140011Y0008041D01*
X0139853Y0008025D01*
X0139696Y0008013D01*
X0139537Y0008005D01*
X0139379Y0008001D01*
X0139221Y0008001D01*
X0139063Y0008005D01*
X0138904Y0008013D01*
X0138747Y0008025D01*
X0138589Y0008041D01*
X0138432Y0008061D01*
X0138276Y0008085D01*
X0138120Y0008113D01*
X0137965Y0008144D01*
X0137810Y0008180D01*
X0137657Y0008219D01*
X0137505Y0008262D01*
X0137354Y0008309D01*
X0137204Y0008360D01*
X0137055Y0008415D01*
X0136908Y0008473D01*
X0136762Y0008535D01*
X0136618Y0008600D01*
X0136476Y0008670D01*
X0136335Y0008742D01*
X0136196Y0008819D01*
X0136060Y0008898D01*
X0135925Y0008982D01*
X0135792Y0009068D01*
X0135662Y0009158D01*
X0135534Y0009251D01*
X0135408Y0009347D01*
X0135285Y0009447D01*
X0135164Y0009549D01*
X0135046Y0009654D01*
X0134931Y0009763D01*
X0134818Y0009874D01*
X0134708Y0009988D01*
X0134601Y0010105D01*
X0134497Y0010224D01*
X0134396Y0010346D01*
X0134299Y0010471D01*
X0134204Y0010598D01*
X0134113Y0010727D01*
X0134024Y0010858D01*
X0133940Y0010992D01*
X0133858Y0011128D01*
X0133780Y0011265D01*
X0133706Y0011405D01*
X0133635Y0011547D01*
X0133567Y0011690D01*
X0133503Y0011835D01*
X0133443Y0011981D01*
X0133387Y0012129D01*
X0133334Y0012278D01*
X0133285Y0012429D01*
X0133240Y0012581D01*
X0133199Y0012734D01*
X0133161Y0012887D01*
X0133128Y0013042D01*
X0133098Y0013198D01*
X0133072Y0013354D01*
X0133051Y0013511D01*
X0133033Y0013668D01*
X0133019Y0013826D01*
X0133009Y0013984D01*
X0133003Y0014142D01*
X0133001Y0014300D01*
X0133001Y0244300D02*
X0133003Y0244458D01*
X0133009Y0244616D01*
X0133019Y0244774D01*
X0133033Y0244932D01*
X0133051Y0245089D01*
X0133072Y0245246D01*
X0133098Y0245402D01*
X0133128Y0245558D01*
X0133161Y0245713D01*
X0133199Y0245866D01*
X0133240Y0246019D01*
X0133285Y0246171D01*
X0133334Y0246322D01*
X0133387Y0246471D01*
X0133443Y0246619D01*
X0133503Y0246765D01*
X0133567Y0246910D01*
X0133635Y0247053D01*
X0133706Y0247195D01*
X0133780Y0247335D01*
X0133858Y0247472D01*
X0133940Y0247608D01*
X0134024Y0247742D01*
X0134113Y0247873D01*
X0134204Y0248002D01*
X0134299Y0248129D01*
X0134396Y0248254D01*
X0134497Y0248376D01*
X0134601Y0248495D01*
X0134708Y0248612D01*
X0134818Y0248726D01*
X0134931Y0248837D01*
X0135046Y0248946D01*
X0135164Y0249051D01*
X0135285Y0249153D01*
X0135408Y0249253D01*
X0135534Y0249349D01*
X0135662Y0249442D01*
X0135792Y0249532D01*
X0135925Y0249618D01*
X0136060Y0249702D01*
X0136196Y0249781D01*
X0136335Y0249858D01*
X0136476Y0249930D01*
X0136618Y0250000D01*
X0136762Y0250065D01*
X0136908Y0250127D01*
X0137055Y0250185D01*
X0137204Y0250240D01*
X0137354Y0250291D01*
X0137505Y0250338D01*
X0137657Y0250381D01*
X0137810Y0250420D01*
X0137965Y0250456D01*
X0138120Y0250487D01*
X0138276Y0250515D01*
X0138432Y0250539D01*
X0138589Y0250559D01*
X0138747Y0250575D01*
X0138904Y0250587D01*
X0139063Y0250595D01*
X0139221Y0250599D01*
X0139379Y0250599D01*
X0139537Y0250595D01*
X0139696Y0250587D01*
X0139853Y0250575D01*
X0140011Y0250559D01*
X0140168Y0250539D01*
X0140324Y0250515D01*
X0140480Y0250487D01*
X0140635Y0250456D01*
X0140790Y0250420D01*
X0140943Y0250381D01*
X0141095Y0250338D01*
X0141246Y0250291D01*
X0141396Y0250240D01*
X0141545Y0250185D01*
X0141692Y0250127D01*
X0141838Y0250065D01*
X0141982Y0250000D01*
X0142124Y0249930D01*
X0142265Y0249858D01*
X0142404Y0249781D01*
X0142540Y0249702D01*
X0142675Y0249618D01*
X0142808Y0249532D01*
X0142938Y0249442D01*
X0143066Y0249349D01*
X0143192Y0249253D01*
X0143315Y0249153D01*
X0143436Y0249051D01*
X0143554Y0248946D01*
X0143669Y0248837D01*
X0143782Y0248726D01*
X0143892Y0248612D01*
X0143999Y0248495D01*
X0144103Y0248376D01*
X0144204Y0248254D01*
X0144301Y0248129D01*
X0144396Y0248002D01*
X0144487Y0247873D01*
X0144576Y0247742D01*
X0144660Y0247608D01*
X0144742Y0247472D01*
X0144820Y0247335D01*
X0144894Y0247195D01*
X0144965Y0247053D01*
X0145033Y0246910D01*
X0145097Y0246765D01*
X0145157Y0246619D01*
X0145213Y0246471D01*
X0145266Y0246322D01*
X0145315Y0246171D01*
X0145360Y0246019D01*
X0145401Y0245866D01*
X0145439Y0245713D01*
X0145472Y0245558D01*
X0145502Y0245402D01*
X0145528Y0245246D01*
X0145549Y0245089D01*
X0145567Y0244932D01*
X0145581Y0244774D01*
X0145591Y0244616D01*
X0145597Y0244458D01*
X0145599Y0244300D01*
X0145597Y0244142D01*
X0145591Y0243984D01*
X0145581Y0243826D01*
X0145567Y0243668D01*
X0145549Y0243511D01*
X0145528Y0243354D01*
X0145502Y0243198D01*
X0145472Y0243042D01*
X0145439Y0242887D01*
X0145401Y0242734D01*
X0145360Y0242581D01*
X0145315Y0242429D01*
X0145266Y0242278D01*
X0145213Y0242129D01*
X0145157Y0241981D01*
X0145097Y0241835D01*
X0145033Y0241690D01*
X0144965Y0241547D01*
X0144894Y0241405D01*
X0144820Y0241265D01*
X0144742Y0241128D01*
X0144660Y0240992D01*
X0144576Y0240858D01*
X0144487Y0240727D01*
X0144396Y0240598D01*
X0144301Y0240471D01*
X0144204Y0240346D01*
X0144103Y0240224D01*
X0143999Y0240105D01*
X0143892Y0239988D01*
X0143782Y0239874D01*
X0143669Y0239763D01*
X0143554Y0239654D01*
X0143436Y0239549D01*
X0143315Y0239447D01*
X0143192Y0239347D01*
X0143066Y0239251D01*
X0142938Y0239158D01*
X0142808Y0239068D01*
X0142675Y0238982D01*
X0142540Y0238898D01*
X0142404Y0238819D01*
X0142265Y0238742D01*
X0142124Y0238670D01*
X0141982Y0238600D01*
X0141838Y0238535D01*
X0141692Y0238473D01*
X0141545Y0238415D01*
X0141396Y0238360D01*
X0141246Y0238309D01*
X0141095Y0238262D01*
X0140943Y0238219D01*
X0140790Y0238180D01*
X0140635Y0238144D01*
X0140480Y0238113D01*
X0140324Y0238085D01*
X0140168Y0238061D01*
X0140011Y0238041D01*
X0139853Y0238025D01*
X0139696Y0238013D01*
X0139537Y0238005D01*
X0139379Y0238001D01*
X0139221Y0238001D01*
X0139063Y0238005D01*
X0138904Y0238013D01*
X0138747Y0238025D01*
X0138589Y0238041D01*
X0138432Y0238061D01*
X0138276Y0238085D01*
X0138120Y0238113D01*
X0137965Y0238144D01*
X0137810Y0238180D01*
X0137657Y0238219D01*
X0137505Y0238262D01*
X0137354Y0238309D01*
X0137204Y0238360D01*
X0137055Y0238415D01*
X0136908Y0238473D01*
X0136762Y0238535D01*
X0136618Y0238600D01*
X0136476Y0238670D01*
X0136335Y0238742D01*
X0136196Y0238819D01*
X0136060Y0238898D01*
X0135925Y0238982D01*
X0135792Y0239068D01*
X0135662Y0239158D01*
X0135534Y0239251D01*
X0135408Y0239347D01*
X0135285Y0239447D01*
X0135164Y0239549D01*
X0135046Y0239654D01*
X0134931Y0239763D01*
X0134818Y0239874D01*
X0134708Y0239988D01*
X0134601Y0240105D01*
X0134497Y0240224D01*
X0134396Y0240346D01*
X0134299Y0240471D01*
X0134204Y0240598D01*
X0134113Y0240727D01*
X0134024Y0240858D01*
X0133940Y0240992D01*
X0133858Y0241128D01*
X0133780Y0241265D01*
X0133706Y0241405D01*
X0133635Y0241547D01*
X0133567Y0241690D01*
X0133503Y0241835D01*
X0133443Y0241981D01*
X0133387Y0242129D01*
X0133334Y0242278D01*
X0133285Y0242429D01*
X0133240Y0242581D01*
X0133199Y0242734D01*
X0133161Y0242887D01*
X0133128Y0243042D01*
X0133098Y0243198D01*
X0133072Y0243354D01*
X0133051Y0243511D01*
X0133033Y0243668D01*
X0133019Y0243826D01*
X0133009Y0243984D01*
X0133003Y0244142D01*
X0133001Y0244300D01*
X0005501Y0244300D02*
X0005503Y0244458D01*
X0005509Y0244616D01*
X0005519Y0244774D01*
X0005533Y0244932D01*
X0005551Y0245089D01*
X0005572Y0245246D01*
X0005598Y0245402D01*
X0005628Y0245558D01*
X0005661Y0245713D01*
X0005699Y0245866D01*
X0005740Y0246019D01*
X0005785Y0246171D01*
X0005834Y0246322D01*
X0005887Y0246471D01*
X0005943Y0246619D01*
X0006003Y0246765D01*
X0006067Y0246910D01*
X0006135Y0247053D01*
X0006206Y0247195D01*
X0006280Y0247335D01*
X0006358Y0247472D01*
X0006440Y0247608D01*
X0006524Y0247742D01*
X0006613Y0247873D01*
X0006704Y0248002D01*
X0006799Y0248129D01*
X0006896Y0248254D01*
X0006997Y0248376D01*
X0007101Y0248495D01*
X0007208Y0248612D01*
X0007318Y0248726D01*
X0007431Y0248837D01*
X0007546Y0248946D01*
X0007664Y0249051D01*
X0007785Y0249153D01*
X0007908Y0249253D01*
X0008034Y0249349D01*
X0008162Y0249442D01*
X0008292Y0249532D01*
X0008425Y0249618D01*
X0008560Y0249702D01*
X0008696Y0249781D01*
X0008835Y0249858D01*
X0008976Y0249930D01*
X0009118Y0250000D01*
X0009262Y0250065D01*
X0009408Y0250127D01*
X0009555Y0250185D01*
X0009704Y0250240D01*
X0009854Y0250291D01*
X0010005Y0250338D01*
X0010157Y0250381D01*
X0010310Y0250420D01*
X0010465Y0250456D01*
X0010620Y0250487D01*
X0010776Y0250515D01*
X0010932Y0250539D01*
X0011089Y0250559D01*
X0011247Y0250575D01*
X0011404Y0250587D01*
X0011563Y0250595D01*
X0011721Y0250599D01*
X0011879Y0250599D01*
X0012037Y0250595D01*
X0012196Y0250587D01*
X0012353Y0250575D01*
X0012511Y0250559D01*
X0012668Y0250539D01*
X0012824Y0250515D01*
X0012980Y0250487D01*
X0013135Y0250456D01*
X0013290Y0250420D01*
X0013443Y0250381D01*
X0013595Y0250338D01*
X0013746Y0250291D01*
X0013896Y0250240D01*
X0014045Y0250185D01*
X0014192Y0250127D01*
X0014338Y0250065D01*
X0014482Y0250000D01*
X0014624Y0249930D01*
X0014765Y0249858D01*
X0014904Y0249781D01*
X0015040Y0249702D01*
X0015175Y0249618D01*
X0015308Y0249532D01*
X0015438Y0249442D01*
X0015566Y0249349D01*
X0015692Y0249253D01*
X0015815Y0249153D01*
X0015936Y0249051D01*
X0016054Y0248946D01*
X0016169Y0248837D01*
X0016282Y0248726D01*
X0016392Y0248612D01*
X0016499Y0248495D01*
X0016603Y0248376D01*
X0016704Y0248254D01*
X0016801Y0248129D01*
X0016896Y0248002D01*
X0016987Y0247873D01*
X0017076Y0247742D01*
X0017160Y0247608D01*
X0017242Y0247472D01*
X0017320Y0247335D01*
X0017394Y0247195D01*
X0017465Y0247053D01*
X0017533Y0246910D01*
X0017597Y0246765D01*
X0017657Y0246619D01*
X0017713Y0246471D01*
X0017766Y0246322D01*
X0017815Y0246171D01*
X0017860Y0246019D01*
X0017901Y0245866D01*
X0017939Y0245713D01*
X0017972Y0245558D01*
X0018002Y0245402D01*
X0018028Y0245246D01*
X0018049Y0245089D01*
X0018067Y0244932D01*
X0018081Y0244774D01*
X0018091Y0244616D01*
X0018097Y0244458D01*
X0018099Y0244300D01*
X0018097Y0244142D01*
X0018091Y0243984D01*
X0018081Y0243826D01*
X0018067Y0243668D01*
X0018049Y0243511D01*
X0018028Y0243354D01*
X0018002Y0243198D01*
X0017972Y0243042D01*
X0017939Y0242887D01*
X0017901Y0242734D01*
X0017860Y0242581D01*
X0017815Y0242429D01*
X0017766Y0242278D01*
X0017713Y0242129D01*
X0017657Y0241981D01*
X0017597Y0241835D01*
X0017533Y0241690D01*
X0017465Y0241547D01*
X0017394Y0241405D01*
X0017320Y0241265D01*
X0017242Y0241128D01*
X0017160Y0240992D01*
X0017076Y0240858D01*
X0016987Y0240727D01*
X0016896Y0240598D01*
X0016801Y0240471D01*
X0016704Y0240346D01*
X0016603Y0240224D01*
X0016499Y0240105D01*
X0016392Y0239988D01*
X0016282Y0239874D01*
X0016169Y0239763D01*
X0016054Y0239654D01*
X0015936Y0239549D01*
X0015815Y0239447D01*
X0015692Y0239347D01*
X0015566Y0239251D01*
X0015438Y0239158D01*
X0015308Y0239068D01*
X0015175Y0238982D01*
X0015040Y0238898D01*
X0014904Y0238819D01*
X0014765Y0238742D01*
X0014624Y0238670D01*
X0014482Y0238600D01*
X0014338Y0238535D01*
X0014192Y0238473D01*
X0014045Y0238415D01*
X0013896Y0238360D01*
X0013746Y0238309D01*
X0013595Y0238262D01*
X0013443Y0238219D01*
X0013290Y0238180D01*
X0013135Y0238144D01*
X0012980Y0238113D01*
X0012824Y0238085D01*
X0012668Y0238061D01*
X0012511Y0238041D01*
X0012353Y0238025D01*
X0012196Y0238013D01*
X0012037Y0238005D01*
X0011879Y0238001D01*
X0011721Y0238001D01*
X0011563Y0238005D01*
X0011404Y0238013D01*
X0011247Y0238025D01*
X0011089Y0238041D01*
X0010932Y0238061D01*
X0010776Y0238085D01*
X0010620Y0238113D01*
X0010465Y0238144D01*
X0010310Y0238180D01*
X0010157Y0238219D01*
X0010005Y0238262D01*
X0009854Y0238309D01*
X0009704Y0238360D01*
X0009555Y0238415D01*
X0009408Y0238473D01*
X0009262Y0238535D01*
X0009118Y0238600D01*
X0008976Y0238670D01*
X0008835Y0238742D01*
X0008696Y0238819D01*
X0008560Y0238898D01*
X0008425Y0238982D01*
X0008292Y0239068D01*
X0008162Y0239158D01*
X0008034Y0239251D01*
X0007908Y0239347D01*
X0007785Y0239447D01*
X0007664Y0239549D01*
X0007546Y0239654D01*
X0007431Y0239763D01*
X0007318Y0239874D01*
X0007208Y0239988D01*
X0007101Y0240105D01*
X0006997Y0240224D01*
X0006896Y0240346D01*
X0006799Y0240471D01*
X0006704Y0240598D01*
X0006613Y0240727D01*
X0006524Y0240858D01*
X0006440Y0240992D01*
X0006358Y0241128D01*
X0006280Y0241265D01*
X0006206Y0241405D01*
X0006135Y0241547D01*
X0006067Y0241690D01*
X0006003Y0241835D01*
X0005943Y0241981D01*
X0005887Y0242129D01*
X0005834Y0242278D01*
X0005785Y0242429D01*
X0005740Y0242581D01*
X0005699Y0242734D01*
X0005661Y0242887D01*
X0005628Y0243042D01*
X0005598Y0243198D01*
X0005572Y0243354D01*
X0005551Y0243511D01*
X0005533Y0243668D01*
X0005519Y0243826D01*
X0005509Y0243984D01*
X0005503Y0244142D01*
X0005501Y0244300D01*
D12*
X0021500Y0196800D02*
X0027100Y0196800D01*
X0027100Y0186800D02*
X0021500Y0186800D01*
X0056800Y0092100D02*
X0056800Y0086500D01*
X0066800Y0086500D02*
X0066800Y0092100D01*
X0076800Y0092100D02*
X0076800Y0086500D01*
X0086800Y0086500D02*
X0086800Y0092100D01*
X0096800Y0092100D02*
X0096800Y0086500D01*
X0106800Y0086500D02*
X0106800Y0092100D01*
X0134000Y0127800D02*
X0139600Y0127800D01*
X0139600Y0137800D02*
X0134000Y0137800D01*
X0134000Y0147800D02*
X0139600Y0147800D01*
X0139600Y0157800D02*
X0134000Y0157800D01*
X0064300Y0019600D02*
X0064300Y0014000D01*
X0054300Y0014000D02*
X0054300Y0019600D01*
X0044300Y0019600D02*
X0044300Y0014000D01*
X0034300Y0014000D02*
X0034300Y0019600D01*
D13*
X0138631Y0193060D03*
X0138631Y0200540D03*
X0138631Y0210560D03*
X0138631Y0218040D03*
X0129969Y0214300D03*
X0129969Y0196800D03*
X0043631Y0241800D03*
X0034969Y0238060D03*
X0034969Y0245540D03*
D14*
X0024300Y0245146D03*
X0024300Y0238454D03*
X0056800Y0175146D03*
X0056800Y0168454D03*
X0066800Y0168454D03*
X0066800Y0175146D03*
X0076800Y0175146D03*
X0076800Y0168454D03*
X0086800Y0168454D03*
X0086800Y0175146D03*
X0096800Y0175146D03*
X0096800Y0168454D03*
X0106800Y0168454D03*
X0106800Y0175146D03*
X0116800Y0175146D03*
X0116800Y0168454D03*
X0126800Y0168454D03*
X0126800Y0175146D03*
X0136800Y0175954D03*
X0136800Y0182646D03*
X0134300Y0069146D03*
X0134300Y0062454D03*
X0134300Y0047646D03*
X0134300Y0040954D03*
X0091800Y0022646D03*
X0091800Y0015954D03*
X0076800Y0015954D03*
X0076800Y0022646D03*
X0086800Y0040954D03*
X0086800Y0047646D03*
X0086800Y0062454D03*
X0086800Y0069146D03*
X0044300Y0070146D03*
X0044300Y0063454D03*
X0044300Y0047646D03*
X0044300Y0040954D03*
X0044300Y0125954D03*
X0044300Y0132646D03*
D15*
X0050954Y0126800D03*
X0057646Y0126800D03*
X0125954Y0116800D03*
X0132646Y0116800D03*
D16*
X0123200Y0070100D02*
X0123200Y0064100D01*
X0123200Y0044500D02*
X0123200Y0038500D01*
X0105400Y0038500D02*
X0105400Y0044500D01*
X0105400Y0064100D02*
X0105400Y0070100D01*
X0075700Y0070100D02*
X0075700Y0064100D01*
X0075700Y0044500D02*
X0075700Y0038500D01*
X0057900Y0038500D02*
X0057900Y0044500D01*
X0057900Y0064100D02*
X0057900Y0070100D01*
X0033200Y0070100D02*
X0033200Y0064100D01*
X0033200Y0044500D02*
X0033200Y0038500D01*
X0015400Y0038500D02*
X0015400Y0044500D01*
X0015400Y0064100D02*
X0015400Y0070100D01*
D17*
X0078355Y0006800D03*
X0085245Y0006800D03*
X0130855Y0031800D03*
X0137745Y0031800D03*
X0095245Y0104300D03*
X0088355Y0104300D03*
D18*
X0116800Y0095245D03*
X0116800Y0088355D03*
D19*
X0096800Y0184300D03*
X0086800Y0184300D03*
X0076800Y0184300D03*
X0066800Y0184300D03*
X0056800Y0184300D03*
X0056800Y0224300D03*
X0066800Y0224300D03*
X0076800Y0224300D03*
X0086800Y0224300D03*
X0096800Y0224300D03*
X0106800Y0224300D03*
D20*
X0036800Y0167600D02*
X0036800Y0161000D01*
X0026800Y0161000D02*
X0026800Y0167600D01*
X0016800Y0167600D02*
X0016800Y0161000D01*
D21*
X0083276Y0151200D03*
X0086426Y0151200D03*
X0089576Y0151200D03*
X0092725Y0151200D03*
X0095875Y0151200D03*
X0099024Y0151200D03*
X0102174Y0151200D03*
X0105324Y0151200D03*
X0105324Y0117400D03*
X0102174Y0117400D03*
X0099024Y0117400D03*
X0095875Y0117400D03*
X0092725Y0117400D03*
X0089576Y0117400D03*
X0086426Y0117400D03*
X0083276Y0117400D03*
D22*
X0077400Y0123276D03*
X0077400Y0126426D03*
X0077400Y0129576D03*
X0077400Y0132725D03*
X0077400Y0135875D03*
X0077400Y0139024D03*
X0077400Y0142174D03*
X0077400Y0145324D03*
X0111200Y0145324D03*
X0111200Y0142174D03*
X0111200Y0139024D03*
X0111200Y0135875D03*
X0111200Y0132725D03*
X0111200Y0129576D03*
X0111200Y0126426D03*
X0111200Y0123276D03*
D23*
X0105200Y0123400D02*
X0097228Y0123400D01*
X0095942Y0122867D01*
X0095875Y0122800D01*
X0095808Y0122867D01*
X0094521Y0123400D01*
X0090726Y0123400D01*
X0090726Y0137145D01*
X0091736Y0138155D01*
X0092945Y0139364D01*
X0093600Y0140945D01*
X0093600Y0145398D01*
X0094079Y0145200D01*
X0097671Y0145200D01*
X0098957Y0145733D01*
X0099024Y0145800D01*
X0099091Y0145733D01*
X0099951Y0145377D01*
X0099978Y0145350D01*
X0100081Y0145307D01*
X0100165Y0145232D01*
X0100832Y0144996D01*
X0101484Y0144726D01*
X0101597Y0144726D01*
X0101703Y0144689D01*
X0102409Y0144726D01*
X0103116Y0144726D01*
X0103219Y0144769D01*
X0103332Y0144775D01*
X0103969Y0145080D01*
X0104260Y0145200D01*
X0105200Y0145200D01*
X0105200Y0140378D01*
X0105200Y0137228D01*
X0105200Y0123400D01*
X0105200Y0123618D02*
X0090726Y0123618D01*
X0090726Y0124617D02*
X0105200Y0124617D01*
X0105200Y0125615D02*
X0090726Y0125615D01*
X0090726Y0126614D02*
X0105200Y0126614D01*
X0105200Y0127612D02*
X0090726Y0127612D01*
X0090726Y0128611D02*
X0105200Y0128611D01*
X0105200Y0129609D02*
X0090726Y0129609D01*
X0090726Y0130608D02*
X0105200Y0130608D01*
X0105200Y0131606D02*
X0090726Y0131606D01*
X0090726Y0132605D02*
X0105200Y0132605D01*
X0105200Y0133603D02*
X0090726Y0133603D01*
X0090726Y0134602D02*
X0105200Y0134602D01*
X0105200Y0135601D02*
X0090726Y0135601D01*
X0090726Y0136599D02*
X0105200Y0136599D01*
X0105200Y0137598D02*
X0091179Y0137598D01*
X0092177Y0138596D02*
X0105200Y0138596D01*
X0105200Y0139595D02*
X0093041Y0139595D01*
X0093454Y0140593D02*
X0105200Y0140593D01*
X0105200Y0141592D02*
X0093600Y0141592D01*
X0093600Y0142590D02*
X0105200Y0142590D01*
X0105200Y0143589D02*
X0093600Y0143589D01*
X0093600Y0144587D02*
X0105200Y0144587D01*
X0099447Y0145586D02*
X0098602Y0145586D01*
X0076122Y0107500D02*
X0076122Y0105671D01*
X0076986Y0103584D01*
X0078584Y0101986D01*
X0080671Y0101122D01*
X0082929Y0101122D01*
X0082935Y0101124D01*
X0083321Y0100191D01*
X0084306Y0099207D01*
X0085592Y0098674D01*
X0091118Y0098674D01*
X0092405Y0099207D01*
X0093389Y0100191D01*
X0093589Y0100674D01*
X0094745Y0100674D01*
X0094745Y0103800D01*
X0095745Y0103800D01*
X0095745Y0100674D01*
X0097396Y0100674D01*
X0097402Y0100668D01*
X0096864Y0100445D01*
X0094304Y0097885D01*
X0093231Y0097441D01*
X0091800Y0096010D01*
X0090369Y0097441D01*
X0088053Y0098400D01*
X0085547Y0098400D01*
X0083231Y0097441D01*
X0081800Y0096010D01*
X0080369Y0097441D01*
X0079296Y0097885D01*
X0076100Y0101081D01*
X0076100Y0107500D01*
X0076122Y0107500D01*
X0076100Y0106644D02*
X0076122Y0106644D01*
X0076100Y0105645D02*
X0076133Y0105645D01*
X0076100Y0104647D02*
X0076546Y0104647D01*
X0076960Y0103648D02*
X0076100Y0103648D01*
X0076100Y0102650D02*
X0077921Y0102650D01*
X0079393Y0101651D02*
X0076100Y0101651D01*
X0076528Y0100653D02*
X0083130Y0100653D01*
X0083858Y0099654D02*
X0077527Y0099654D01*
X0078526Y0098656D02*
X0095074Y0098656D01*
X0096073Y0099654D02*
X0092852Y0099654D01*
X0093580Y0100653D02*
X0097365Y0100653D01*
X0095745Y0101651D02*
X0094745Y0101651D01*
X0094745Y0102650D02*
X0095745Y0102650D01*
X0095745Y0103648D02*
X0094745Y0103648D01*
X0093753Y0097657D02*
X0089847Y0097657D01*
X0091151Y0096659D02*
X0092449Y0096659D01*
X0083753Y0097657D02*
X0079847Y0097657D01*
X0081151Y0096659D02*
X0082449Y0096659D01*
X0092346Y0072100D02*
X0101369Y0072100D01*
X0101230Y0071827D01*
X0101011Y0071154D01*
X0100900Y0070454D01*
X0100900Y0067600D01*
X0104900Y0067600D01*
X0104900Y0066600D01*
X0105900Y0066600D01*
X0105900Y0067600D01*
X0109900Y0067600D01*
X0109900Y0070454D01*
X0109789Y0071154D01*
X0109570Y0071827D01*
X0109431Y0072100D01*
X0116993Y0072100D01*
X0116700Y0071393D01*
X0116700Y0062807D01*
X0117690Y0060418D01*
X0119518Y0058590D01*
X0121907Y0057600D01*
X0124493Y0057600D01*
X0126882Y0058590D01*
X0128635Y0060342D01*
X0128635Y0059789D01*
X0129167Y0058502D01*
X0130152Y0057518D01*
X0130654Y0057310D01*
X0130654Y0052790D01*
X0130152Y0052582D01*
X0129167Y0051598D01*
X0128635Y0050311D01*
X0128635Y0048258D01*
X0126882Y0050010D01*
X0124493Y0051000D01*
X0121907Y0051000D01*
X0119518Y0050010D01*
X0117690Y0048182D01*
X0116700Y0045793D01*
X0116700Y0037207D01*
X0117690Y0034818D01*
X0119518Y0032990D01*
X0121907Y0032000D01*
X0124493Y0032000D01*
X0126882Y0032990D01*
X0127288Y0033396D01*
X0127288Y0032300D01*
X0130355Y0032300D01*
X0130355Y0031300D01*
X0127288Y0031300D01*
X0127288Y0029477D01*
X0127390Y0029095D01*
X0127588Y0028753D01*
X0127741Y0028600D01*
X0113445Y0028600D01*
X0111864Y0027945D01*
X0111200Y0027281D01*
X0110710Y0027281D01*
X0108695Y0026447D01*
X0107153Y0024905D01*
X0106319Y0022890D01*
X0106319Y0020710D01*
X0107153Y0018695D01*
X0108695Y0017153D01*
X0110710Y0016319D01*
X0112890Y0016319D01*
X0114905Y0017153D01*
X0116447Y0018695D01*
X0116987Y0020000D01*
X0130121Y0020000D01*
X0129237Y0018468D01*
X0128501Y0015722D01*
X0128501Y0012878D01*
X0129237Y0010132D01*
X0130658Y0007669D01*
X0131228Y0007100D01*
X0085745Y0007100D01*
X0085745Y0007300D01*
X0088812Y0007300D01*
X0088812Y0009123D01*
X0088710Y0009505D01*
X0088512Y0009847D01*
X0088233Y0010126D01*
X0087891Y0010324D01*
X0087509Y0010426D01*
X0085745Y0010426D01*
X0085745Y0007300D01*
X0084745Y0007300D01*
X0084745Y0010426D01*
X0083589Y0010426D01*
X0083389Y0010909D01*
X0083055Y0011243D01*
X0083055Y0015333D01*
X0082530Y0016600D01*
X0083210Y0016319D01*
X0085390Y0016319D01*
X0087405Y0017153D01*
X0087751Y0017500D01*
X0088135Y0017500D01*
X0088135Y0016438D01*
X0091316Y0016438D01*
X0091316Y0015469D01*
X0092284Y0015469D01*
X0092284Y0012485D01*
X0094163Y0012485D01*
X0094544Y0012587D01*
X0094886Y0012785D01*
X0095166Y0013064D01*
X0095363Y0013406D01*
X0095465Y0013788D01*
X0095465Y0015469D01*
X0092284Y0015469D01*
X0092284Y0016438D01*
X0095465Y0016438D01*
X0095465Y0017511D01*
X0095948Y0017711D01*
X0096933Y0018695D01*
X0097465Y0019982D01*
X0097465Y0025311D01*
X0096933Y0026598D01*
X0095948Y0027582D01*
X0094662Y0028115D01*
X0088938Y0028115D01*
X0087652Y0027582D01*
X0086777Y0026707D01*
X0085390Y0027281D01*
X0083210Y0027281D01*
X0081823Y0026707D01*
X0080948Y0027582D01*
X0079662Y0028115D01*
X0073938Y0028115D01*
X0072652Y0027582D01*
X0071667Y0026598D01*
X0071135Y0025311D01*
X0071135Y0020654D01*
X0070600Y0020654D01*
X0070600Y0020853D01*
X0069641Y0023169D01*
X0067869Y0024941D01*
X0065553Y0025900D01*
X0063047Y0025900D01*
X0060731Y0024941D01*
X0058959Y0023169D01*
X0058219Y0021381D01*
X0057978Y0021854D01*
X0057580Y0022401D01*
X0057101Y0022880D01*
X0056554Y0023278D01*
X0055951Y0023585D01*
X0055307Y0023794D01*
X0054700Y0023890D01*
X0054700Y0017200D01*
X0053900Y0017200D01*
X0053900Y0023890D01*
X0053293Y0023794D01*
X0052649Y0023585D01*
X0052046Y0023278D01*
X0051499Y0022880D01*
X0051020Y0022401D01*
X0050622Y0021854D01*
X0050315Y0021251D01*
X0050106Y0020607D01*
X0050000Y0019938D01*
X0050000Y0017200D01*
X0053900Y0017200D01*
X0053900Y0016400D01*
X0054700Y0016400D01*
X0054700Y0009710D01*
X0055307Y0009806D01*
X0055951Y0010015D01*
X0056554Y0010322D01*
X0057101Y0010720D01*
X0057580Y0011199D01*
X0057978Y0011746D01*
X0058219Y0012219D01*
X0058959Y0010431D01*
X0060731Y0008659D01*
X0063047Y0007700D01*
X0065553Y0007700D01*
X0067869Y0008659D01*
X0069641Y0010431D01*
X0069981Y0011254D01*
X0072416Y0011254D01*
X0072652Y0011018D01*
X0073262Y0010765D01*
X0072788Y0009622D01*
X0072788Y0007100D01*
X0022372Y0007100D01*
X0022942Y0007669D01*
X0024363Y0010132D01*
X0024988Y0012463D01*
X0025865Y0012100D01*
X0028268Y0012100D01*
X0028959Y0010431D01*
X0030731Y0008659D01*
X0033047Y0007700D01*
X0035553Y0007700D01*
X0037869Y0008659D01*
X0039641Y0010431D01*
X0040381Y0012219D01*
X0040622Y0011746D01*
X0041020Y0011199D01*
X0041499Y0010720D01*
X0042046Y0010322D01*
X0042649Y0010015D01*
X0043293Y0009806D01*
X0043900Y0009710D01*
X0043900Y0016400D01*
X0044700Y0016400D01*
X0044700Y0017200D01*
X0043900Y0017200D01*
X0043900Y0023890D01*
X0043293Y0023794D01*
X0042649Y0023585D01*
X0042046Y0023278D01*
X0041499Y0022880D01*
X0041020Y0022401D01*
X0040622Y0021854D01*
X0040381Y0021381D01*
X0039641Y0023169D01*
X0037869Y0024941D01*
X0035553Y0025900D01*
X0033047Y0025900D01*
X0030731Y0024941D01*
X0028959Y0023169D01*
X0028408Y0021839D01*
X0016179Y0034067D01*
X0016454Y0034111D01*
X0017127Y0034330D01*
X0017759Y0034651D01*
X0018332Y0035068D01*
X0018832Y0035568D01*
X0019249Y0036141D01*
X0019570Y0036773D01*
X0019789Y0037446D01*
X0019900Y0038146D01*
X0019900Y0041000D01*
X0015900Y0041000D01*
X0015900Y0042000D01*
X0014900Y0042000D01*
X0014900Y0048977D01*
X0014346Y0048889D01*
X0014000Y0048777D01*
X0014000Y0059823D01*
X0014346Y0059711D01*
X0014900Y0059623D01*
X0014900Y0066600D01*
X0015900Y0066600D01*
X0015900Y0067600D01*
X0019900Y0067600D01*
X0019900Y0070454D01*
X0019789Y0071154D01*
X0019570Y0071827D01*
X0019431Y0072100D01*
X0026993Y0072100D01*
X0026700Y0071393D01*
X0026700Y0062807D01*
X0027690Y0060418D01*
X0029518Y0058590D01*
X0031907Y0057600D01*
X0034493Y0057600D01*
X0036882Y0058590D01*
X0038710Y0060418D01*
X0038749Y0060512D01*
X0039167Y0059502D01*
X0039243Y0059427D01*
X0038622Y0057929D01*
X0038622Y0055671D01*
X0039486Y0053584D01*
X0040000Y0053070D01*
X0040000Y0052430D01*
X0039167Y0051598D01*
X0038635Y0050311D01*
X0038635Y0048258D01*
X0036882Y0050010D01*
X0034493Y0051000D01*
X0031907Y0051000D01*
X0029518Y0050010D01*
X0027690Y0048182D01*
X0026700Y0045793D01*
X0026700Y0037207D01*
X0027690Y0034818D01*
X0029518Y0032990D01*
X0031907Y0032000D01*
X0034493Y0032000D01*
X0036882Y0032990D01*
X0038710Y0034818D01*
X0039471Y0036654D01*
X0039516Y0036654D01*
X0040152Y0036018D01*
X0041438Y0035485D01*
X0047162Y0035485D01*
X0048448Y0036018D01*
X0049433Y0037002D01*
X0049965Y0038289D01*
X0049965Y0043618D01*
X0049683Y0044300D01*
X0049965Y0044982D01*
X0049965Y0050311D01*
X0049433Y0051598D01*
X0048600Y0052430D01*
X0048600Y0053070D01*
X0049114Y0053584D01*
X0049978Y0055671D01*
X0049978Y0057929D01*
X0049357Y0059427D01*
X0049433Y0059502D01*
X0049965Y0060789D01*
X0049965Y0066118D01*
X0049683Y0066800D01*
X0049965Y0067482D01*
X0049965Y0072100D01*
X0053869Y0072100D01*
X0053730Y0071827D01*
X0053511Y0071154D01*
X0053400Y0070454D01*
X0053400Y0067600D01*
X0057400Y0067600D01*
X0057400Y0066600D01*
X0058400Y0066600D01*
X0058400Y0067600D01*
X0062400Y0067600D01*
X0062400Y0070454D01*
X0062289Y0071154D01*
X0062070Y0071827D01*
X0061931Y0072100D01*
X0069493Y0072100D01*
X0069200Y0071393D01*
X0069200Y0062807D01*
X0070190Y0060418D01*
X0072018Y0058590D01*
X0074407Y0057600D01*
X0076993Y0057600D01*
X0079382Y0058590D01*
X0081135Y0060342D01*
X0081135Y0059789D01*
X0081513Y0058874D01*
X0081122Y0057929D01*
X0081122Y0055671D01*
X0081986Y0053584D01*
X0082500Y0053070D01*
X0082500Y0052430D01*
X0081667Y0051598D01*
X0081135Y0050311D01*
X0081135Y0048258D01*
X0079382Y0050010D01*
X0076993Y0051000D01*
X0074407Y0051000D01*
X0072018Y0050010D01*
X0070190Y0048182D01*
X0069200Y0045793D01*
X0069200Y0037207D01*
X0070190Y0034818D01*
X0072018Y0032990D01*
X0074407Y0032000D01*
X0076993Y0032000D01*
X0079382Y0032990D01*
X0081210Y0034818D01*
X0081971Y0036654D01*
X0082016Y0036654D01*
X0082652Y0036018D01*
X0083938Y0035485D01*
X0089662Y0035485D01*
X0090948Y0036018D01*
X0091933Y0037002D01*
X0092465Y0038289D01*
X0092465Y0043618D01*
X0092183Y0044300D01*
X0092465Y0044982D01*
X0092465Y0050311D01*
X0091933Y0051598D01*
X0091100Y0052430D01*
X0091100Y0053070D01*
X0091614Y0053584D01*
X0092478Y0055671D01*
X0092478Y0057929D01*
X0092087Y0058874D01*
X0092465Y0059789D01*
X0092465Y0065118D01*
X0092183Y0065800D01*
X0092465Y0066482D01*
X0092465Y0071811D01*
X0092346Y0072100D01*
X0092465Y0071696D02*
X0101187Y0071696D01*
X0100939Y0070697D02*
X0092465Y0070697D01*
X0092465Y0069699D02*
X0100900Y0069699D01*
X0100900Y0068700D02*
X0092465Y0068700D01*
X0092465Y0067702D02*
X0100900Y0067702D01*
X0100900Y0066600D02*
X0100900Y0063746D01*
X0101011Y0063046D01*
X0101230Y0062373D01*
X0101551Y0061741D01*
X0101968Y0061168D01*
X0102468Y0060668D01*
X0103041Y0060251D01*
X0103673Y0059930D01*
X0104346Y0059711D01*
X0104900Y0059623D01*
X0104900Y0066600D01*
X0100900Y0066600D01*
X0100900Y0065705D02*
X0092222Y0065705D01*
X0092465Y0066703D02*
X0104900Y0066703D01*
X0104900Y0065705D02*
X0105900Y0065705D01*
X0105900Y0066600D02*
X0105900Y0059623D01*
X0106454Y0059711D01*
X0107127Y0059930D01*
X0107759Y0060251D01*
X0108332Y0060668D01*
X0108832Y0061168D01*
X0109249Y0061741D01*
X0109570Y0062373D01*
X0109789Y0063046D01*
X0109900Y0063746D01*
X0109900Y0066600D01*
X0105900Y0066600D01*
X0105900Y0066703D02*
X0116700Y0066703D01*
X0116700Y0065705D02*
X0109900Y0065705D01*
X0109900Y0064706D02*
X0116700Y0064706D01*
X0116700Y0063708D02*
X0109894Y0063708D01*
X0109680Y0062709D02*
X0116741Y0062709D01*
X0117154Y0061711D02*
X0109226Y0061711D01*
X0108376Y0060712D02*
X0117568Y0060712D01*
X0118394Y0059714D02*
X0106463Y0059714D01*
X0105900Y0059714D02*
X0104900Y0059714D01*
X0104337Y0059714D02*
X0092434Y0059714D01*
X0092465Y0060712D02*
X0102424Y0060712D01*
X0101574Y0061711D02*
X0092465Y0061711D01*
X0092465Y0062709D02*
X0101120Y0062709D01*
X0100906Y0063708D02*
X0092465Y0063708D01*
X0092465Y0064706D02*
X0100900Y0064706D01*
X0104900Y0064706D02*
X0105900Y0064706D01*
X0105900Y0063708D02*
X0104900Y0063708D01*
X0104900Y0062709D02*
X0105900Y0062709D01*
X0105900Y0061711D02*
X0104900Y0061711D01*
X0104900Y0060712D02*
X0105900Y0060712D01*
X0109900Y0067702D02*
X0116700Y0067702D01*
X0116700Y0068700D02*
X0109900Y0068700D01*
X0109900Y0069699D02*
X0116700Y0069699D01*
X0116700Y0070697D02*
X0109861Y0070697D01*
X0109613Y0071696D02*
X0116825Y0071696D01*
X0117300Y0084788D02*
X0119123Y0084788D01*
X0119505Y0084890D01*
X0119847Y0085088D01*
X0120126Y0085367D01*
X0120324Y0085709D01*
X0120426Y0086091D01*
X0120426Y0087855D01*
X0117300Y0087855D01*
X0117300Y0084788D01*
X0117300Y0085675D02*
X0116300Y0085675D01*
X0116300Y0084788D02*
X0116300Y0087855D01*
X0117300Y0087855D01*
X0117300Y0088855D01*
X0120426Y0088855D01*
X0120426Y0090011D01*
X0120909Y0090211D01*
X0121893Y0091195D01*
X0122426Y0092482D01*
X0122426Y0098008D01*
X0121893Y0099294D01*
X0121188Y0100000D01*
X0135785Y0100000D01*
X0137500Y0099142D01*
X0137500Y0077747D01*
X0136962Y0078284D01*
X0134462Y0080784D01*
X0132735Y0081500D01*
X0101500Y0081500D01*
X0101500Y0082290D01*
X0102141Y0082931D01*
X0102881Y0084719D01*
X0103122Y0084246D01*
X0103520Y0083699D01*
X0103999Y0083220D01*
X0104546Y0082822D01*
X0105149Y0082515D01*
X0105793Y0082306D01*
X0106400Y0082210D01*
X0106400Y0088900D01*
X0107200Y0088900D01*
X0107200Y0089700D01*
X0111100Y0089700D01*
X0111100Y0092438D01*
X0111090Y0092500D01*
X0111174Y0092500D01*
X0111174Y0092482D01*
X0111707Y0091195D01*
X0112691Y0090211D01*
X0113174Y0090011D01*
X0113174Y0088855D01*
X0116300Y0088855D01*
X0116300Y0087855D01*
X0113174Y0087855D01*
X0113174Y0086091D01*
X0113276Y0085709D01*
X0113474Y0085367D01*
X0113753Y0085088D01*
X0114095Y0084890D01*
X0114477Y0084788D01*
X0116300Y0084788D01*
X0116300Y0086673D02*
X0117300Y0086673D01*
X0117300Y0087672D02*
X0116300Y0087672D01*
X0116300Y0088670D02*
X0111100Y0088670D01*
X0111100Y0088900D02*
X0107200Y0088900D01*
X0107200Y0082210D01*
X0107807Y0082306D01*
X0108451Y0082515D01*
X0109054Y0082822D01*
X0109601Y0083220D01*
X0110080Y0083699D01*
X0110478Y0084246D01*
X0110785Y0084849D01*
X0110994Y0085493D01*
X0111100Y0086162D01*
X0111100Y0088900D01*
X0111100Y0087672D02*
X0113174Y0087672D01*
X0113174Y0086673D02*
X0111100Y0086673D01*
X0111023Y0085675D02*
X0113296Y0085675D01*
X0110697Y0084676D02*
X0137500Y0084676D01*
X0137500Y0083678D02*
X0110059Y0083678D01*
X0108773Y0082679D02*
X0137500Y0082679D01*
X0137500Y0081681D02*
X0101500Y0081681D01*
X0101889Y0082679D02*
X0104827Y0082679D01*
X0106400Y0082679D02*
X0107200Y0082679D01*
X0107200Y0083678D02*
X0106400Y0083678D01*
X0106400Y0084676D02*
X0107200Y0084676D01*
X0107200Y0085675D02*
X0106400Y0085675D01*
X0106400Y0086673D02*
X0107200Y0086673D01*
X0107200Y0087672D02*
X0106400Y0087672D01*
X0106400Y0088670D02*
X0107200Y0088670D01*
X0107200Y0089669D02*
X0113174Y0089669D01*
X0112235Y0090668D02*
X0111100Y0090668D01*
X0111100Y0091666D02*
X0111512Y0091666D01*
X0117300Y0088670D02*
X0137500Y0088670D01*
X0137500Y0087672D02*
X0120426Y0087672D01*
X0120426Y0086673D02*
X0137500Y0086673D01*
X0137500Y0085675D02*
X0120304Y0085675D01*
X0120426Y0089669D02*
X0137500Y0089669D01*
X0137500Y0090668D02*
X0121365Y0090668D01*
X0122088Y0091666D02*
X0137500Y0091666D01*
X0137500Y0092665D02*
X0122426Y0092665D01*
X0122426Y0093663D02*
X0137500Y0093663D01*
X0137500Y0094662D02*
X0122426Y0094662D01*
X0122426Y0095660D02*
X0137500Y0095660D01*
X0137500Y0096659D02*
X0122426Y0096659D01*
X0122426Y0097657D02*
X0137500Y0097657D01*
X0137500Y0098656D02*
X0122158Y0098656D01*
X0121533Y0099654D02*
X0136477Y0099654D01*
X0137500Y0080682D02*
X0134564Y0080682D01*
X0135563Y0079684D02*
X0137500Y0079684D01*
X0137500Y0078685D02*
X0136561Y0078685D01*
X0128666Y0059714D02*
X0128006Y0059714D01*
X0127008Y0058715D02*
X0129079Y0058715D01*
X0129953Y0057717D02*
X0124774Y0057717D01*
X0121625Y0057717D02*
X0092478Y0057717D01*
X0092478Y0056718D02*
X0130654Y0056718D01*
X0130654Y0055720D02*
X0092478Y0055720D01*
X0092085Y0054721D02*
X0130654Y0054721D01*
X0130654Y0053723D02*
X0091671Y0053723D01*
X0091100Y0052724D02*
X0130495Y0052724D01*
X0129296Y0051726D02*
X0091804Y0051726D01*
X0092293Y0050727D02*
X0121248Y0050727D01*
X0119236Y0049729D02*
X0092465Y0049729D01*
X0092465Y0048730D02*
X0103856Y0048730D01*
X0103673Y0048670D02*
X0103041Y0048349D01*
X0102468Y0047932D01*
X0101968Y0047432D01*
X0101551Y0046859D01*
X0101230Y0046227D01*
X0101011Y0045554D01*
X0100900Y0044854D01*
X0100900Y0042000D01*
X0104900Y0042000D01*
X0104900Y0048977D01*
X0104346Y0048889D01*
X0103673Y0048670D01*
X0104900Y0048730D02*
X0105900Y0048730D01*
X0105900Y0048977D02*
X0105900Y0042000D01*
X0104900Y0042000D01*
X0104900Y0041000D01*
X0100900Y0041000D01*
X0100900Y0038146D01*
X0101011Y0037446D01*
X0101230Y0036773D01*
X0101551Y0036141D01*
X0101968Y0035568D01*
X0102468Y0035068D01*
X0103041Y0034651D01*
X0103673Y0034330D01*
X0104346Y0034111D01*
X0104900Y0034023D01*
X0104900Y0041000D01*
X0105900Y0041000D01*
X0105900Y0042000D01*
X0109900Y0042000D01*
X0109900Y0044854D01*
X0109789Y0045554D01*
X0109570Y0046227D01*
X0109249Y0046859D01*
X0108832Y0047432D01*
X0108332Y0047932D01*
X0107759Y0048349D01*
X0107127Y0048670D01*
X0106454Y0048889D01*
X0105900Y0048977D01*
X0106944Y0048730D02*
X0118238Y0048730D01*
X0117503Y0047732D02*
X0108532Y0047732D01*
X0109313Y0046733D02*
X0117089Y0046733D01*
X0116700Y0045734D02*
X0109730Y0045734D01*
X0109900Y0044736D02*
X0116700Y0044736D01*
X0116700Y0043737D02*
X0109900Y0043737D01*
X0109900Y0042739D02*
X0116700Y0042739D01*
X0116700Y0041740D02*
X0105900Y0041740D01*
X0105900Y0041000D02*
X0109900Y0041000D01*
X0109900Y0038146D01*
X0109789Y0037446D01*
X0109570Y0036773D01*
X0109249Y0036141D01*
X0108832Y0035568D01*
X0108332Y0035068D01*
X0107759Y0034651D01*
X0107127Y0034330D01*
X0106454Y0034111D01*
X0105900Y0034023D01*
X0105900Y0041000D01*
X0105900Y0040742D02*
X0104900Y0040742D01*
X0104900Y0041740D02*
X0092465Y0041740D01*
X0092465Y0040742D02*
X0100900Y0040742D01*
X0100900Y0039743D02*
X0092465Y0039743D01*
X0092465Y0038745D02*
X0100900Y0038745D01*
X0100963Y0037746D02*
X0092241Y0037746D01*
X0091678Y0036748D02*
X0101242Y0036748D01*
X0101836Y0035749D02*
X0090300Y0035749D01*
X0092465Y0042739D02*
X0100900Y0042739D01*
X0100900Y0043737D02*
X0092416Y0043737D01*
X0092364Y0044736D02*
X0100900Y0044736D01*
X0101070Y0045734D02*
X0092465Y0045734D01*
X0092465Y0046733D02*
X0101487Y0046733D01*
X0102268Y0047732D02*
X0092465Y0047732D01*
X0092152Y0058715D02*
X0119392Y0058715D01*
X0125152Y0050727D02*
X0128807Y0050727D01*
X0128635Y0049729D02*
X0127164Y0049729D01*
X0128162Y0048730D02*
X0128635Y0048730D01*
X0127288Y0032754D02*
X0126313Y0032754D01*
X0127288Y0030757D02*
X0019490Y0030757D01*
X0018491Y0031755D02*
X0130355Y0031755D01*
X0127584Y0028760D02*
X0021487Y0028760D01*
X0020488Y0029758D02*
X0127288Y0029758D01*
X0120087Y0032754D02*
X0078813Y0032754D01*
X0080145Y0033752D02*
X0118755Y0033752D01*
X0117757Y0034751D02*
X0107896Y0034751D01*
X0108964Y0035749D02*
X0117304Y0035749D01*
X0116890Y0036748D02*
X0109558Y0036748D01*
X0109837Y0037746D02*
X0116700Y0037746D01*
X0116700Y0038745D02*
X0109900Y0038745D01*
X0109900Y0039743D02*
X0116700Y0039743D01*
X0116700Y0040742D02*
X0109900Y0040742D01*
X0105900Y0039743D02*
X0104900Y0039743D01*
X0104900Y0038745D02*
X0105900Y0038745D01*
X0105900Y0037746D02*
X0104900Y0037746D01*
X0104900Y0036748D02*
X0105900Y0036748D01*
X0105900Y0035749D02*
X0104900Y0035749D01*
X0104900Y0034751D02*
X0105900Y0034751D01*
X0102904Y0034751D02*
X0081143Y0034751D01*
X0081596Y0035749D02*
X0083300Y0035749D01*
X0080515Y0027761D02*
X0088085Y0027761D01*
X0086833Y0026763D02*
X0086642Y0026763D01*
X0081958Y0026763D02*
X0081767Y0026763D01*
X0082870Y0015779D02*
X0091316Y0015779D01*
X0091316Y0015469D02*
X0088135Y0015469D01*
X0088135Y0013788D01*
X0088237Y0013406D01*
X0088434Y0013064D01*
X0088714Y0012785D01*
X0089056Y0012587D01*
X0089437Y0012485D01*
X0091316Y0012485D01*
X0091316Y0015469D01*
X0091316Y0014781D02*
X0092284Y0014781D01*
X0092284Y0015779D02*
X0128516Y0015779D01*
X0128501Y0014781D02*
X0095465Y0014781D01*
X0095464Y0013782D02*
X0128501Y0013782D01*
X0128526Y0012784D02*
X0094884Y0012784D01*
X0092284Y0012784D02*
X0091316Y0012784D01*
X0091316Y0013782D02*
X0092284Y0013782D01*
X0095465Y0016778D02*
X0109602Y0016778D01*
X0108072Y0017776D02*
X0096013Y0017776D01*
X0096965Y0018775D02*
X0107120Y0018775D01*
X0106707Y0019773D02*
X0097379Y0019773D01*
X0097465Y0020772D02*
X0106319Y0020772D01*
X0106319Y0021770D02*
X0097465Y0021770D01*
X0097465Y0022769D02*
X0106319Y0022769D01*
X0106682Y0023767D02*
X0097465Y0023767D01*
X0097465Y0024766D02*
X0107096Y0024766D01*
X0108013Y0025764D02*
X0097278Y0025764D01*
X0096767Y0026763D02*
X0109458Y0026763D01*
X0111680Y0027761D02*
X0095515Y0027761D01*
X0088135Y0016778D02*
X0086498Y0016778D01*
X0088135Y0014781D02*
X0083055Y0014781D01*
X0083055Y0013782D02*
X0088136Y0013782D01*
X0088716Y0012784D02*
X0083055Y0012784D01*
X0083055Y0011785D02*
X0128794Y0011785D01*
X0129061Y0010787D02*
X0083440Y0010787D01*
X0084745Y0009788D02*
X0085745Y0009788D01*
X0085745Y0008790D02*
X0084745Y0008790D01*
X0084745Y0007791D02*
X0085745Y0007791D01*
X0088812Y0007791D02*
X0130588Y0007791D01*
X0130012Y0008790D02*
X0088812Y0008790D01*
X0088546Y0009788D02*
X0129435Y0009788D01*
X0128784Y0016778D02*
X0113998Y0016778D01*
X0115528Y0017776D02*
X0129051Y0017776D01*
X0129414Y0018775D02*
X0116480Y0018775D01*
X0116893Y0019773D02*
X0129990Y0019773D01*
X0105900Y0042739D02*
X0104900Y0042739D01*
X0104900Y0043737D02*
X0105900Y0043737D01*
X0105900Y0044736D02*
X0104900Y0044736D01*
X0104900Y0045734D02*
X0105900Y0045734D01*
X0105900Y0046733D02*
X0104900Y0046733D01*
X0104900Y0047732D02*
X0105900Y0047732D01*
X0103541Y0083678D02*
X0102450Y0083678D01*
X0102864Y0084676D02*
X0102903Y0084676D01*
X0081448Y0058715D02*
X0079508Y0058715D01*
X0080506Y0059714D02*
X0081166Y0059714D01*
X0081122Y0057717D02*
X0077274Y0057717D01*
X0074125Y0057717D02*
X0049978Y0057717D01*
X0049978Y0056718D02*
X0081122Y0056718D01*
X0081122Y0055720D02*
X0049978Y0055720D01*
X0049585Y0054721D02*
X0081515Y0054721D01*
X0081929Y0053723D02*
X0049171Y0053723D01*
X0048600Y0052724D02*
X0082500Y0052724D01*
X0081796Y0051726D02*
X0049304Y0051726D01*
X0049793Y0050727D02*
X0073748Y0050727D01*
X0071736Y0049729D02*
X0049965Y0049729D01*
X0049965Y0048730D02*
X0056356Y0048730D01*
X0056173Y0048670D02*
X0055541Y0048349D01*
X0054968Y0047932D01*
X0054468Y0047432D01*
X0054051Y0046859D01*
X0053730Y0046227D01*
X0053511Y0045554D01*
X0053400Y0044854D01*
X0053400Y0042000D01*
X0057400Y0042000D01*
X0057400Y0048977D01*
X0056846Y0048889D01*
X0056173Y0048670D01*
X0057400Y0048730D02*
X0058400Y0048730D01*
X0058400Y0048977D02*
X0058400Y0042000D01*
X0057400Y0042000D01*
X0057400Y0041000D01*
X0053400Y0041000D01*
X0053400Y0038146D01*
X0053511Y0037446D01*
X0053730Y0036773D01*
X0054051Y0036141D01*
X0054468Y0035568D01*
X0054968Y0035068D01*
X0055541Y0034651D01*
X0056173Y0034330D01*
X0056846Y0034111D01*
X0057400Y0034023D01*
X0057400Y0041000D01*
X0058400Y0041000D01*
X0058400Y0042000D01*
X0062400Y0042000D01*
X0062400Y0044854D01*
X0062289Y0045554D01*
X0062070Y0046227D01*
X0061749Y0046859D01*
X0061332Y0047432D01*
X0060832Y0047932D01*
X0060259Y0048349D01*
X0059627Y0048670D01*
X0058954Y0048889D01*
X0058400Y0048977D01*
X0059444Y0048730D02*
X0070738Y0048730D01*
X0070003Y0047732D02*
X0061032Y0047732D01*
X0061813Y0046733D02*
X0069589Y0046733D01*
X0069200Y0045734D02*
X0062230Y0045734D01*
X0062400Y0044736D02*
X0069200Y0044736D01*
X0069200Y0043737D02*
X0062400Y0043737D01*
X0062400Y0042739D02*
X0069200Y0042739D01*
X0069200Y0041740D02*
X0058400Y0041740D01*
X0058400Y0041000D02*
X0062400Y0041000D01*
X0062400Y0038146D01*
X0062289Y0037446D01*
X0062070Y0036773D01*
X0061749Y0036141D01*
X0061332Y0035568D01*
X0060832Y0035068D01*
X0060259Y0034651D01*
X0059627Y0034330D01*
X0058954Y0034111D01*
X0058400Y0034023D01*
X0058400Y0041000D01*
X0058400Y0040742D02*
X0057400Y0040742D01*
X0057400Y0041740D02*
X0049965Y0041740D01*
X0049965Y0040742D02*
X0053400Y0040742D01*
X0053400Y0039743D02*
X0049965Y0039743D01*
X0049965Y0038745D02*
X0053400Y0038745D01*
X0053463Y0037746D02*
X0049741Y0037746D01*
X0049178Y0036748D02*
X0053742Y0036748D01*
X0054336Y0035749D02*
X0047800Y0035749D01*
X0049965Y0042739D02*
X0053400Y0042739D01*
X0053400Y0043737D02*
X0049916Y0043737D01*
X0049864Y0044736D02*
X0053400Y0044736D01*
X0053570Y0045734D02*
X0049965Y0045734D01*
X0049965Y0046733D02*
X0053987Y0046733D01*
X0054768Y0047732D02*
X0049965Y0047732D01*
X0049652Y0058715D02*
X0071892Y0058715D01*
X0070894Y0059714D02*
X0058963Y0059714D01*
X0058954Y0059711D02*
X0059627Y0059930D01*
X0060259Y0060251D01*
X0060832Y0060668D01*
X0061332Y0061168D01*
X0061749Y0061741D01*
X0062070Y0062373D01*
X0062289Y0063046D01*
X0062400Y0063746D01*
X0062400Y0066600D01*
X0058400Y0066600D01*
X0058400Y0059623D01*
X0058954Y0059711D01*
X0058400Y0059714D02*
X0057400Y0059714D01*
X0057400Y0059623D02*
X0057400Y0066600D01*
X0053400Y0066600D01*
X0053400Y0063746D01*
X0053511Y0063046D01*
X0053730Y0062373D01*
X0054051Y0061741D01*
X0054468Y0061168D01*
X0054968Y0060668D01*
X0055541Y0060251D01*
X0056173Y0059930D01*
X0056846Y0059711D01*
X0057400Y0059623D01*
X0056837Y0059714D02*
X0049520Y0059714D01*
X0049934Y0060712D02*
X0054924Y0060712D01*
X0054074Y0061711D02*
X0049965Y0061711D01*
X0049965Y0062709D02*
X0053620Y0062709D01*
X0053406Y0063708D02*
X0049965Y0063708D01*
X0049965Y0064706D02*
X0053400Y0064706D01*
X0053400Y0065705D02*
X0049965Y0065705D01*
X0049723Y0066703D02*
X0057400Y0066703D01*
X0057400Y0065705D02*
X0058400Y0065705D01*
X0058400Y0066703D02*
X0069200Y0066703D01*
X0069200Y0065705D02*
X0062400Y0065705D01*
X0062400Y0064706D02*
X0069200Y0064706D01*
X0069200Y0063708D02*
X0062394Y0063708D01*
X0062180Y0062709D02*
X0069241Y0062709D01*
X0069654Y0061711D02*
X0061726Y0061711D01*
X0060876Y0060712D02*
X0070068Y0060712D01*
X0069200Y0067702D02*
X0062400Y0067702D01*
X0062400Y0068700D02*
X0069200Y0068700D01*
X0069200Y0069699D02*
X0062400Y0069699D01*
X0062361Y0070697D02*
X0069200Y0070697D01*
X0069325Y0071696D02*
X0062113Y0071696D01*
X0058400Y0064706D02*
X0057400Y0064706D01*
X0057400Y0063708D02*
X0058400Y0063708D01*
X0058400Y0062709D02*
X0057400Y0062709D01*
X0057400Y0061711D02*
X0058400Y0061711D01*
X0058400Y0060712D02*
X0057400Y0060712D01*
X0053400Y0067702D02*
X0049965Y0067702D01*
X0049965Y0068700D02*
X0053400Y0068700D01*
X0053400Y0069699D02*
X0049965Y0069699D01*
X0049965Y0070697D02*
X0053439Y0070697D01*
X0053687Y0071696D02*
X0049965Y0071696D01*
X0039080Y0059714D02*
X0038006Y0059714D01*
X0038948Y0058715D02*
X0037008Y0058715D01*
X0038622Y0057717D02*
X0034774Y0057717D01*
X0031625Y0057717D02*
X0014000Y0057717D01*
X0014000Y0058715D02*
X0029392Y0058715D01*
X0028394Y0059714D02*
X0016463Y0059714D01*
X0016454Y0059711D02*
X0017127Y0059930D01*
X0017759Y0060251D01*
X0018332Y0060668D01*
X0018832Y0061168D01*
X0019249Y0061741D01*
X0019570Y0062373D01*
X0019789Y0063046D01*
X0019900Y0063746D01*
X0019900Y0066600D01*
X0015900Y0066600D01*
X0015900Y0059623D01*
X0016454Y0059711D01*
X0015900Y0059714D02*
X0014900Y0059714D01*
X0014337Y0059714D02*
X0014000Y0059714D01*
X0014900Y0060712D02*
X0015900Y0060712D01*
X0015900Y0061711D02*
X0014900Y0061711D01*
X0014900Y0062709D02*
X0015900Y0062709D01*
X0015900Y0063708D02*
X0014900Y0063708D01*
X0014900Y0064706D02*
X0015900Y0064706D01*
X0015900Y0065705D02*
X0014900Y0065705D01*
X0015900Y0066703D02*
X0026700Y0066703D01*
X0026700Y0065705D02*
X0019900Y0065705D01*
X0019900Y0064706D02*
X0026700Y0064706D01*
X0026700Y0063708D02*
X0019894Y0063708D01*
X0019680Y0062709D02*
X0026741Y0062709D01*
X0027154Y0061711D02*
X0019226Y0061711D01*
X0018376Y0060712D02*
X0027568Y0060712D01*
X0026700Y0067702D02*
X0019900Y0067702D01*
X0019900Y0068700D02*
X0026700Y0068700D01*
X0026700Y0069699D02*
X0019900Y0069699D01*
X0019861Y0070697D02*
X0026700Y0070697D01*
X0026825Y0071696D02*
X0019613Y0071696D01*
X0014000Y0056718D02*
X0038622Y0056718D01*
X0038622Y0055720D02*
X0014000Y0055720D01*
X0014000Y0054721D02*
X0039015Y0054721D01*
X0039429Y0053723D02*
X0014000Y0053723D01*
X0014000Y0052724D02*
X0040000Y0052724D01*
X0039296Y0051726D02*
X0014000Y0051726D01*
X0014000Y0050727D02*
X0031248Y0050727D01*
X0029236Y0049729D02*
X0014000Y0049729D01*
X0014900Y0048730D02*
X0015900Y0048730D01*
X0015900Y0048977D02*
X0015900Y0042000D01*
X0019900Y0042000D01*
X0019900Y0044854D01*
X0019789Y0045554D01*
X0019570Y0046227D01*
X0019249Y0046859D01*
X0018832Y0047432D01*
X0018332Y0047932D01*
X0017759Y0048349D01*
X0017127Y0048670D01*
X0016454Y0048889D01*
X0015900Y0048977D01*
X0016944Y0048730D02*
X0028238Y0048730D01*
X0027503Y0047732D02*
X0018532Y0047732D01*
X0019313Y0046733D02*
X0027089Y0046733D01*
X0026700Y0045734D02*
X0019730Y0045734D01*
X0019900Y0044736D02*
X0026700Y0044736D01*
X0026700Y0043737D02*
X0019900Y0043737D01*
X0019900Y0042739D02*
X0026700Y0042739D01*
X0026700Y0041740D02*
X0015900Y0041740D01*
X0015900Y0042739D02*
X0014900Y0042739D01*
X0014900Y0043737D02*
X0015900Y0043737D01*
X0015900Y0044736D02*
X0014900Y0044736D01*
X0014900Y0045734D02*
X0015900Y0045734D01*
X0015900Y0046733D02*
X0014900Y0046733D01*
X0014900Y0047732D02*
X0015900Y0047732D01*
X0019900Y0040742D02*
X0026700Y0040742D01*
X0026700Y0039743D02*
X0019900Y0039743D01*
X0019900Y0038745D02*
X0026700Y0038745D01*
X0026700Y0037746D02*
X0019837Y0037746D01*
X0019558Y0036748D02*
X0026890Y0036748D01*
X0027304Y0035749D02*
X0018964Y0035749D01*
X0017896Y0034751D02*
X0027757Y0034751D01*
X0028755Y0033752D02*
X0016494Y0033752D01*
X0017493Y0032754D02*
X0030087Y0032754D01*
X0032719Y0025764D02*
X0024483Y0025764D01*
X0025481Y0024766D02*
X0030556Y0024766D01*
X0029558Y0023767D02*
X0026480Y0023767D01*
X0027478Y0022769D02*
X0028793Y0022769D01*
X0023484Y0026763D02*
X0071833Y0026763D01*
X0071322Y0025764D02*
X0065881Y0025764D01*
X0068044Y0024766D02*
X0071135Y0024766D01*
X0071135Y0023767D02*
X0069042Y0023767D01*
X0069807Y0022769D02*
X0071135Y0022769D01*
X0071135Y0021770D02*
X0070220Y0021770D01*
X0070600Y0020772D02*
X0071135Y0020772D01*
X0073085Y0027761D02*
X0022485Y0027761D01*
X0024806Y0011785D02*
X0028398Y0011785D01*
X0028812Y0010787D02*
X0024539Y0010787D01*
X0024165Y0009788D02*
X0029602Y0009788D01*
X0030601Y0008790D02*
X0023588Y0008790D01*
X0023012Y0007791D02*
X0032827Y0007791D01*
X0035773Y0007791D02*
X0062827Y0007791D01*
X0060601Y0008790D02*
X0037999Y0008790D01*
X0038998Y0009788D02*
X0043405Y0009788D01*
X0043900Y0009788D02*
X0044700Y0009788D01*
X0044700Y0009710D02*
X0045307Y0009806D01*
X0045951Y0010015D01*
X0046554Y0010322D01*
X0047101Y0010720D01*
X0047580Y0011199D01*
X0047978Y0011746D01*
X0048285Y0012349D01*
X0048494Y0012993D01*
X0048600Y0013662D01*
X0048600Y0016400D01*
X0044700Y0016400D01*
X0044700Y0009710D01*
X0045195Y0009788D02*
X0053405Y0009788D01*
X0053293Y0009806D02*
X0053900Y0009710D01*
X0053900Y0016400D01*
X0050000Y0016400D01*
X0050000Y0013662D01*
X0050106Y0012993D01*
X0050315Y0012349D01*
X0050622Y0011746D01*
X0051020Y0011199D01*
X0051499Y0010720D01*
X0052046Y0010322D01*
X0052649Y0010015D01*
X0053293Y0009806D01*
X0053900Y0009788D02*
X0054700Y0009788D01*
X0055195Y0009788D02*
X0059602Y0009788D01*
X0058812Y0010787D02*
X0057168Y0010787D01*
X0057997Y0011785D02*
X0058398Y0011785D01*
X0054700Y0011785D02*
X0053900Y0011785D01*
X0053900Y0010787D02*
X0054700Y0010787D01*
X0054700Y0012784D02*
X0053900Y0012784D01*
X0053900Y0013782D02*
X0054700Y0013782D01*
X0054700Y0014781D02*
X0053900Y0014781D01*
X0053900Y0015779D02*
X0054700Y0015779D01*
X0053900Y0016778D02*
X0044700Y0016778D01*
X0044700Y0017200D02*
X0048600Y0017200D01*
X0048600Y0019938D01*
X0048494Y0020607D01*
X0048285Y0021251D01*
X0047978Y0021854D01*
X0047580Y0022401D01*
X0047101Y0022880D01*
X0046554Y0023278D01*
X0045951Y0023585D01*
X0045307Y0023794D01*
X0044700Y0023890D01*
X0044700Y0017200D01*
X0044700Y0017776D02*
X0043900Y0017776D01*
X0043900Y0018775D02*
X0044700Y0018775D01*
X0044700Y0019773D02*
X0043900Y0019773D01*
X0043900Y0020772D02*
X0044700Y0020772D01*
X0044700Y0021770D02*
X0043900Y0021770D01*
X0043900Y0022769D02*
X0044700Y0022769D01*
X0044700Y0023767D02*
X0043900Y0023767D01*
X0043210Y0023767D02*
X0039042Y0023767D01*
X0039807Y0022769D02*
X0041388Y0022769D01*
X0040580Y0021770D02*
X0040220Y0021770D01*
X0038044Y0024766D02*
X0060556Y0024766D01*
X0059558Y0023767D02*
X0055390Y0023767D01*
X0054700Y0023767D02*
X0053900Y0023767D01*
X0053210Y0023767D02*
X0045390Y0023767D01*
X0047212Y0022769D02*
X0051388Y0022769D01*
X0050580Y0021770D02*
X0048020Y0021770D01*
X0048441Y0020772D02*
X0050159Y0020772D01*
X0050000Y0019773D02*
X0048600Y0019773D01*
X0048600Y0018775D02*
X0050000Y0018775D01*
X0050000Y0017776D02*
X0048600Y0017776D01*
X0048600Y0015779D02*
X0050000Y0015779D01*
X0050000Y0014781D02*
X0048600Y0014781D01*
X0048600Y0013782D02*
X0050000Y0013782D01*
X0050174Y0012784D02*
X0048426Y0012784D01*
X0047997Y0011785D02*
X0050603Y0011785D01*
X0051432Y0010787D02*
X0047168Y0010787D01*
X0044700Y0010787D02*
X0043900Y0010787D01*
X0043900Y0011785D02*
X0044700Y0011785D01*
X0044700Y0012784D02*
X0043900Y0012784D01*
X0043900Y0013782D02*
X0044700Y0013782D01*
X0044700Y0014781D02*
X0043900Y0014781D01*
X0043900Y0015779D02*
X0044700Y0015779D01*
X0040603Y0011785D02*
X0040202Y0011785D01*
X0039788Y0010787D02*
X0041432Y0010787D01*
X0035881Y0025764D02*
X0062719Y0025764D01*
X0058793Y0022769D02*
X0057212Y0022769D01*
X0058020Y0021770D02*
X0058380Y0021770D01*
X0054700Y0021770D02*
X0053900Y0021770D01*
X0053900Y0020772D02*
X0054700Y0020772D01*
X0054700Y0019773D02*
X0053900Y0019773D01*
X0053900Y0018775D02*
X0054700Y0018775D01*
X0054700Y0017776D02*
X0053900Y0017776D01*
X0053900Y0022769D02*
X0054700Y0022769D01*
X0055404Y0034751D02*
X0038643Y0034751D01*
X0039096Y0035749D02*
X0040800Y0035749D01*
X0037645Y0033752D02*
X0071255Y0033752D01*
X0070257Y0034751D02*
X0060396Y0034751D01*
X0061464Y0035749D02*
X0069804Y0035749D01*
X0069390Y0036748D02*
X0062058Y0036748D01*
X0062337Y0037746D02*
X0069200Y0037746D01*
X0069200Y0038745D02*
X0062400Y0038745D01*
X0062400Y0039743D02*
X0069200Y0039743D01*
X0069200Y0040742D02*
X0062400Y0040742D01*
X0058400Y0039743D02*
X0057400Y0039743D01*
X0057400Y0038745D02*
X0058400Y0038745D01*
X0058400Y0037746D02*
X0057400Y0037746D01*
X0057400Y0036748D02*
X0058400Y0036748D01*
X0058400Y0035749D02*
X0057400Y0035749D01*
X0057400Y0034751D02*
X0058400Y0034751D01*
X0058400Y0042739D02*
X0057400Y0042739D01*
X0057400Y0043737D02*
X0058400Y0043737D01*
X0058400Y0044736D02*
X0057400Y0044736D01*
X0057400Y0045734D02*
X0058400Y0045734D01*
X0058400Y0046733D02*
X0057400Y0046733D01*
X0057400Y0047732D02*
X0058400Y0047732D01*
X0072587Y0032754D02*
X0036313Y0032754D01*
X0038162Y0048730D02*
X0038635Y0048730D01*
X0038635Y0049729D02*
X0037164Y0049729D01*
X0038807Y0050727D02*
X0035152Y0050727D01*
X0065773Y0007791D02*
X0072788Y0007791D01*
X0072788Y0008790D02*
X0067999Y0008790D01*
X0068998Y0009788D02*
X0072857Y0009788D01*
X0073210Y0010787D02*
X0069788Y0010787D01*
X0080662Y0048730D02*
X0081135Y0048730D01*
X0081135Y0049729D02*
X0079664Y0049729D01*
X0081307Y0050727D02*
X0077652Y0050727D01*
X0044784Y0131500D02*
X0043816Y0131500D01*
X0043816Y0132162D01*
X0044784Y0132162D01*
X0044784Y0131500D01*
X0044784Y0131606D02*
X0043816Y0131606D01*
X0043816Y0132162D02*
X0040635Y0132162D01*
X0040635Y0131089D01*
X0040313Y0130985D01*
X0040245Y0130928D01*
X0040152Y0130889D01*
X0040092Y0130829D01*
X0039984Y0130784D01*
X0039853Y0130654D01*
X0022093Y0130654D01*
X0021500Y0131247D01*
X0021500Y0156083D01*
X0021800Y0156383D01*
X0022948Y0155235D01*
X0025447Y0154200D01*
X0028153Y0154200D01*
X0030652Y0155235D01*
X0032565Y0157148D01*
X0032964Y0158113D01*
X0033139Y0157873D01*
X0033673Y0157339D01*
X0034284Y0156895D01*
X0034957Y0156552D01*
X0035676Y0156318D01*
X0036300Y0156219D01*
X0036300Y0163800D01*
X0037300Y0163800D01*
X0037300Y0164800D01*
X0036300Y0164800D01*
X0036300Y0172381D01*
X0035676Y0172282D01*
X0034957Y0172048D01*
X0034284Y0171705D01*
X0033673Y0171261D01*
X0033139Y0170727D01*
X0032964Y0170487D01*
X0032565Y0171452D01*
X0031500Y0172517D01*
X0031500Y0182290D01*
X0032441Y0183231D01*
X0033400Y0185547D01*
X0033400Y0188053D01*
X0032441Y0190369D01*
X0031010Y0191800D01*
X0032441Y0193231D01*
X0033400Y0195547D01*
X0033400Y0198053D01*
X0032441Y0200369D01*
X0030669Y0202141D01*
X0028353Y0203100D01*
X0020247Y0203100D01*
X0017931Y0202141D01*
X0017290Y0201500D01*
X0015865Y0201500D01*
X0014138Y0200784D01*
X0007100Y0193747D01*
X0007100Y0234544D01*
X0007632Y0234237D01*
X0010378Y0233501D01*
X0013222Y0233501D01*
X0015968Y0234237D01*
X0018431Y0235658D01*
X0018635Y0235862D01*
X0018635Y0235789D01*
X0019167Y0234502D01*
X0020000Y0233670D01*
X0020000Y0220945D01*
X0020655Y0219364D01*
X0030655Y0209364D01*
X0031864Y0208155D01*
X0033445Y0207500D01*
X0037150Y0207500D01*
X0042500Y0200367D01*
X0042500Y0144940D01*
X0042437Y0144734D01*
X0042500Y0144091D01*
X0042500Y0143445D01*
X0042582Y0143246D01*
X0042603Y0143032D01*
X0042907Y0142461D01*
X0043155Y0141864D01*
X0043307Y0141712D01*
X0043408Y0141522D01*
X0043907Y0141112D01*
X0044364Y0140655D01*
X0044563Y0140572D01*
X0054609Y0132311D01*
X0054300Y0132183D01*
X0053618Y0132465D01*
X0048289Y0132465D01*
X0047557Y0132162D01*
X0044784Y0132162D01*
X0044784Y0133131D01*
X0043816Y0133131D01*
X0043816Y0136115D01*
X0041937Y0136115D01*
X0041556Y0136013D01*
X0041214Y0135815D01*
X0040934Y0135536D01*
X0040737Y0135194D01*
X0040635Y0134812D01*
X0040635Y0133131D01*
X0043816Y0133131D01*
X0043816Y0132162D01*
X0043816Y0132605D02*
X0021500Y0132605D01*
X0021500Y0133603D02*
X0040635Y0133603D01*
X0040635Y0134602D02*
X0021500Y0134602D01*
X0021500Y0135601D02*
X0040999Y0135601D01*
X0043816Y0135601D02*
X0044784Y0135601D01*
X0044784Y0136115D02*
X0044784Y0133131D01*
X0047965Y0133131D01*
X0047965Y0134812D01*
X0047863Y0135194D01*
X0047666Y0135536D01*
X0047386Y0135815D01*
X0047044Y0136013D01*
X0046663Y0136115D01*
X0044784Y0136115D01*
X0044784Y0134602D02*
X0043816Y0134602D01*
X0043816Y0133603D02*
X0044784Y0133603D01*
X0044784Y0132605D02*
X0054251Y0132605D01*
X0053037Y0133603D02*
X0047965Y0133603D01*
X0047965Y0134602D02*
X0051823Y0134602D01*
X0050609Y0135601D02*
X0047601Y0135601D01*
X0048180Y0137598D02*
X0021500Y0137598D01*
X0021500Y0138596D02*
X0046966Y0138596D01*
X0045752Y0139595D02*
X0021500Y0139595D01*
X0021500Y0140593D02*
X0044513Y0140593D01*
X0043371Y0141592D02*
X0021500Y0141592D01*
X0021500Y0142590D02*
X0042839Y0142590D01*
X0042500Y0143589D02*
X0021500Y0143589D01*
X0021500Y0144587D02*
X0042452Y0144587D01*
X0042500Y0145586D02*
X0021500Y0145586D01*
X0021500Y0146584D02*
X0042500Y0146584D01*
X0042500Y0147583D02*
X0021500Y0147583D01*
X0021500Y0148581D02*
X0042500Y0148581D01*
X0042500Y0149580D02*
X0021500Y0149580D01*
X0021500Y0150578D02*
X0042500Y0150578D01*
X0042500Y0151577D02*
X0021500Y0151577D01*
X0021500Y0152575D02*
X0042500Y0152575D01*
X0042500Y0153574D02*
X0021500Y0153574D01*
X0021500Y0154572D02*
X0024549Y0154572D01*
X0022613Y0155571D02*
X0021500Y0155571D01*
X0029051Y0154572D02*
X0042500Y0154572D01*
X0042500Y0155571D02*
X0030987Y0155571D01*
X0031986Y0156569D02*
X0034923Y0156569D01*
X0036300Y0156569D02*
X0037300Y0156569D01*
X0037300Y0156219D02*
X0037924Y0156318D01*
X0038643Y0156552D01*
X0039316Y0156895D01*
X0039927Y0157339D01*
X0040461Y0157873D01*
X0040905Y0158484D01*
X0041248Y0159157D01*
X0041482Y0159876D01*
X0041600Y0160622D01*
X0041600Y0163800D01*
X0037300Y0163800D01*
X0037300Y0156219D01*
X0037300Y0157568D02*
X0036300Y0157568D01*
X0036300Y0158566D02*
X0037300Y0158566D01*
X0037300Y0159565D02*
X0036300Y0159565D01*
X0036300Y0160563D02*
X0037300Y0160563D01*
X0037300Y0161562D02*
X0036300Y0161562D01*
X0036300Y0162560D02*
X0037300Y0162560D01*
X0037300Y0163559D02*
X0036300Y0163559D01*
X0037300Y0164557D02*
X0042500Y0164557D01*
X0041600Y0164800D02*
X0041600Y0167978D01*
X0041482Y0168724D01*
X0041248Y0169443D01*
X0040905Y0170116D01*
X0040461Y0170727D01*
X0039927Y0171261D01*
X0039316Y0171705D01*
X0038643Y0172048D01*
X0037924Y0172282D01*
X0037300Y0172381D01*
X0037300Y0164800D01*
X0041600Y0164800D01*
X0041600Y0165556D02*
X0042500Y0165556D01*
X0042500Y0166554D02*
X0041600Y0166554D01*
X0041600Y0167553D02*
X0042500Y0167553D01*
X0042500Y0168551D02*
X0041509Y0168551D01*
X0041194Y0169550D02*
X0042500Y0169550D01*
X0042500Y0170548D02*
X0040591Y0170548D01*
X0039534Y0171547D02*
X0042500Y0171547D01*
X0042500Y0172545D02*
X0031500Y0172545D01*
X0031500Y0173544D02*
X0042500Y0173544D01*
X0042500Y0174542D02*
X0031500Y0174542D01*
X0031500Y0175541D02*
X0042500Y0175541D01*
X0042500Y0176539D02*
X0031500Y0176539D01*
X0031500Y0177538D02*
X0042500Y0177538D01*
X0042500Y0178537D02*
X0031500Y0178537D01*
X0031500Y0179535D02*
X0042500Y0179535D01*
X0042500Y0180534D02*
X0031500Y0180534D01*
X0031500Y0181532D02*
X0042500Y0181532D01*
X0042500Y0182531D02*
X0031740Y0182531D01*
X0032564Y0183529D02*
X0042500Y0183529D01*
X0042500Y0184528D02*
X0032978Y0184528D01*
X0033391Y0185526D02*
X0042500Y0185526D01*
X0042500Y0186525D02*
X0033400Y0186525D01*
X0033400Y0187523D02*
X0042500Y0187523D01*
X0042500Y0188522D02*
X0033206Y0188522D01*
X0032792Y0189520D02*
X0042500Y0189520D01*
X0042500Y0190519D02*
X0032291Y0190519D01*
X0031292Y0191517D02*
X0042500Y0191517D01*
X0042500Y0192516D02*
X0031725Y0192516D01*
X0032558Y0193514D02*
X0042500Y0193514D01*
X0042500Y0194513D02*
X0032972Y0194513D01*
X0033385Y0195511D02*
X0042500Y0195511D01*
X0042500Y0196510D02*
X0033400Y0196510D01*
X0033400Y0197508D02*
X0042500Y0197508D01*
X0042500Y0198507D02*
X0033212Y0198507D01*
X0032799Y0199505D02*
X0042500Y0199505D01*
X0042397Y0200504D02*
X0032306Y0200504D01*
X0031307Y0201502D02*
X0041648Y0201502D01*
X0040899Y0202501D02*
X0029800Y0202501D01*
X0031527Y0208492D02*
X0007100Y0208492D01*
X0007100Y0209490D02*
X0030529Y0209490D01*
X0029530Y0210489D02*
X0007100Y0210489D01*
X0007100Y0211487D02*
X0028531Y0211487D01*
X0027533Y0212486D02*
X0007100Y0212486D01*
X0007100Y0213484D02*
X0026534Y0213484D01*
X0025536Y0214483D02*
X0007100Y0214483D01*
X0007100Y0215481D02*
X0024537Y0215481D01*
X0023539Y0216480D02*
X0007100Y0216480D01*
X0007100Y0217478D02*
X0022540Y0217478D01*
X0021542Y0218477D02*
X0007100Y0218477D01*
X0007100Y0219475D02*
X0020609Y0219475D01*
X0020195Y0220474D02*
X0007100Y0220474D01*
X0007100Y0221472D02*
X0020000Y0221472D01*
X0020000Y0222471D02*
X0007100Y0222471D01*
X0007100Y0223470D02*
X0020000Y0223470D01*
X0020000Y0224468D02*
X0007100Y0224468D01*
X0007100Y0225467D02*
X0020000Y0225467D01*
X0020000Y0226465D02*
X0007100Y0226465D01*
X0007100Y0227464D02*
X0020000Y0227464D01*
X0020000Y0228462D02*
X0007100Y0228462D01*
X0007100Y0229461D02*
X0020000Y0229461D01*
X0020000Y0230459D02*
X0007100Y0230459D01*
X0007100Y0231458D02*
X0020000Y0231458D01*
X0020000Y0232456D02*
X0007100Y0232456D01*
X0007100Y0233455D02*
X0020000Y0233455D01*
X0019217Y0234453D02*
X0016343Y0234453D01*
X0018073Y0235452D02*
X0018774Y0235452D01*
X0020781Y0250343D02*
X0020442Y0250931D01*
X0019872Y0251500D01*
X0058300Y0251500D01*
X0058300Y0243886D01*
X0058886Y0243300D01*
X0128501Y0243300D01*
X0128501Y0242878D01*
X0129237Y0240132D01*
X0130658Y0237669D01*
X0132669Y0235658D01*
X0135132Y0234237D01*
X0137878Y0233501D01*
X0140722Y0233501D01*
X0143468Y0234237D01*
X0145931Y0235658D01*
X0146500Y0236228D01*
X0146500Y0213181D01*
X0145476Y0214205D01*
X0144082Y0214782D01*
X0143369Y0215495D01*
X0142843Y0215713D01*
X0142887Y0215874D01*
X0142887Y0217556D01*
X0139115Y0217556D01*
X0139115Y0218524D01*
X0142887Y0218524D01*
X0142887Y0220206D01*
X0142784Y0220588D01*
X0142587Y0220930D01*
X0142308Y0221209D01*
X0141966Y0221406D01*
X0141584Y0221509D01*
X0139115Y0221509D01*
X0139115Y0218524D01*
X0138146Y0218524D01*
X0138146Y0221509D01*
X0135677Y0221509D01*
X0135296Y0221406D01*
X0134954Y0221209D01*
X0134675Y0220930D01*
X0134477Y0220588D01*
X0134375Y0220206D01*
X0134375Y0219374D01*
X0133421Y0219768D01*
X0126517Y0219768D01*
X0125231Y0219236D01*
X0124595Y0218600D01*
X0108913Y0218600D01*
X0110241Y0219150D01*
X0111950Y0220859D01*
X0112875Y0223092D01*
X0112875Y0225508D01*
X0111950Y0227741D01*
X0110241Y0229450D01*
X0108008Y0230375D01*
X0105592Y0230375D01*
X0103359Y0229450D01*
X0101800Y0227891D01*
X0100241Y0229450D01*
X0098008Y0230375D01*
X0095592Y0230375D01*
X0093359Y0229450D01*
X0091800Y0227891D01*
X0090241Y0229450D01*
X0088008Y0230375D01*
X0085592Y0230375D01*
X0083359Y0229450D01*
X0081800Y0227891D01*
X0080241Y0229450D01*
X0078008Y0230375D01*
X0075592Y0230375D01*
X0073359Y0229450D01*
X0071800Y0227891D01*
X0070241Y0229450D01*
X0068008Y0230375D01*
X0065592Y0230375D01*
X0063359Y0229450D01*
X0061800Y0227891D01*
X0061100Y0228591D01*
X0061100Y0240155D01*
X0060445Y0241736D01*
X0057945Y0244236D01*
X0056736Y0245445D01*
X0055155Y0246100D01*
X0049005Y0246100D01*
X0048369Y0246736D01*
X0047083Y0247268D01*
X0041225Y0247268D01*
X0041225Y0248205D01*
X0040692Y0249491D01*
X0039708Y0250476D01*
X0038421Y0251009D01*
X0031517Y0251009D01*
X0030231Y0250476D01*
X0029995Y0250240D01*
X0028066Y0250240D01*
X0027162Y0250615D01*
X0021438Y0250615D01*
X0020781Y0250343D01*
X0020731Y0250429D02*
X0020990Y0250429D01*
X0019945Y0251428D02*
X0058300Y0251428D01*
X0058300Y0250429D02*
X0039754Y0250429D01*
X0040717Y0249431D02*
X0058300Y0249431D01*
X0058300Y0248432D02*
X0041131Y0248432D01*
X0041225Y0247434D02*
X0058300Y0247434D01*
X0058300Y0246435D02*
X0048670Y0246435D01*
X0049005Y0237500D02*
X0052500Y0237500D01*
X0052500Y0228591D01*
X0051650Y0227741D01*
X0050725Y0225508D01*
X0050725Y0223092D01*
X0051650Y0220859D01*
X0053359Y0219150D01*
X0055592Y0218225D01*
X0058008Y0218225D01*
X0060241Y0219150D01*
X0061800Y0220709D01*
X0062500Y0220009D01*
X0062500Y0203445D01*
X0063155Y0201864D01*
X0070655Y0194364D01*
X0071864Y0193155D01*
X0073445Y0192500D01*
X0097519Y0192500D01*
X0102500Y0187519D01*
X0102500Y0186413D01*
X0101950Y0187741D01*
X0100241Y0189450D01*
X0098008Y0190375D01*
X0095592Y0190375D01*
X0093359Y0189450D01*
X0091800Y0187891D01*
X0090241Y0189450D01*
X0088008Y0190375D01*
X0085592Y0190375D01*
X0083359Y0189450D01*
X0081800Y0187891D01*
X0080241Y0189450D01*
X0078008Y0190375D01*
X0075592Y0190375D01*
X0073359Y0189450D01*
X0071800Y0187891D01*
X0070241Y0189450D01*
X0068008Y0190375D01*
X0065592Y0190375D01*
X0063359Y0189450D01*
X0061800Y0187891D01*
X0060241Y0189450D01*
X0058008Y0190375D01*
X0055592Y0190375D01*
X0053359Y0189450D01*
X0051650Y0187741D01*
X0051100Y0186413D01*
X0051100Y0201494D01*
X0051178Y0202039D01*
X0051100Y0202342D01*
X0051100Y0202655D01*
X0050890Y0203163D01*
X0050753Y0203696D01*
X0050565Y0203946D01*
X0050445Y0204236D01*
X0050057Y0204624D01*
X0043065Y0213946D01*
X0042945Y0214236D01*
X0042557Y0214624D01*
X0042227Y0215064D01*
X0041957Y0215224D01*
X0041736Y0215445D01*
X0041228Y0215656D01*
X0040755Y0215936D01*
X0040445Y0215980D01*
X0040155Y0216100D01*
X0039606Y0216100D01*
X0039061Y0216178D01*
X0038758Y0216100D01*
X0036081Y0216100D01*
X0028600Y0223581D01*
X0028600Y0233670D01*
X0029433Y0234502D01*
X0029965Y0235789D01*
X0029965Y0240840D01*
X0029995Y0240840D01*
X0030231Y0240604D01*
X0030757Y0240387D01*
X0030713Y0240226D01*
X0030713Y0238544D01*
X0034485Y0238544D01*
X0034485Y0237576D01*
X0030713Y0237576D01*
X0030713Y0235894D01*
X0030816Y0235512D01*
X0031013Y0235170D01*
X0031292Y0234891D01*
X0031634Y0234694D01*
X0032016Y0234591D01*
X0034485Y0234591D01*
X0034485Y0237576D01*
X0035454Y0237576D01*
X0035454Y0234591D01*
X0037923Y0234591D01*
X0038304Y0234694D01*
X0038646Y0234891D01*
X0038925Y0235170D01*
X0039123Y0235512D01*
X0039225Y0235894D01*
X0039225Y0236726D01*
X0040179Y0236331D01*
X0047083Y0236331D01*
X0048369Y0236864D01*
X0049005Y0237500D01*
X0048954Y0237449D02*
X0052500Y0237449D01*
X0052500Y0236450D02*
X0047369Y0236450D01*
X0052500Y0235452D02*
X0039088Y0235452D01*
X0039225Y0236450D02*
X0039892Y0236450D01*
X0035454Y0236450D02*
X0034485Y0236450D01*
X0034485Y0235452D02*
X0035454Y0235452D01*
X0035454Y0237449D02*
X0034485Y0237449D01*
X0034485Y0238447D02*
X0029965Y0238447D01*
X0029965Y0237449D02*
X0030713Y0237449D01*
X0030713Y0236450D02*
X0029965Y0236450D01*
X0029826Y0235452D02*
X0030851Y0235452D01*
X0029383Y0234453D02*
X0052500Y0234453D01*
X0052500Y0233455D02*
X0028600Y0233455D01*
X0028600Y0232456D02*
X0052500Y0232456D01*
X0052500Y0231458D02*
X0028600Y0231458D01*
X0028600Y0230459D02*
X0052500Y0230459D01*
X0052500Y0229461D02*
X0028600Y0229461D01*
X0028600Y0228462D02*
X0052371Y0228462D01*
X0051535Y0227464D02*
X0028600Y0227464D01*
X0028600Y0226465D02*
X0051121Y0226465D01*
X0050725Y0225467D02*
X0028600Y0225467D01*
X0028600Y0224468D02*
X0050725Y0224468D01*
X0050725Y0223470D02*
X0028712Y0223470D01*
X0029710Y0222471D02*
X0050982Y0222471D01*
X0051396Y0221472D02*
X0030709Y0221472D01*
X0031707Y0220474D02*
X0052035Y0220474D01*
X0053033Y0219475D02*
X0032706Y0219475D01*
X0033704Y0218477D02*
X0054984Y0218477D01*
X0058616Y0218477D02*
X0062500Y0218477D01*
X0062500Y0219475D02*
X0060567Y0219475D01*
X0061565Y0220474D02*
X0062035Y0220474D01*
X0062500Y0217478D02*
X0034703Y0217478D01*
X0035701Y0216480D02*
X0062500Y0216480D01*
X0062500Y0215481D02*
X0041649Y0215481D01*
X0042698Y0214483D02*
X0062500Y0214483D01*
X0062500Y0213484D02*
X0043412Y0213484D01*
X0044161Y0212486D02*
X0062500Y0212486D01*
X0062500Y0211487D02*
X0044909Y0211487D01*
X0045658Y0210489D02*
X0062500Y0210489D01*
X0062500Y0209490D02*
X0046407Y0209490D01*
X0047156Y0208492D02*
X0062500Y0208492D01*
X0062500Y0207493D02*
X0047905Y0207493D01*
X0048654Y0206495D02*
X0062500Y0206495D01*
X0062500Y0205496D02*
X0049403Y0205496D01*
X0050183Y0204498D02*
X0062500Y0204498D01*
X0062500Y0203499D02*
X0050804Y0203499D01*
X0051100Y0202501D02*
X0062891Y0202501D01*
X0063517Y0201502D02*
X0051101Y0201502D01*
X0051100Y0200504D02*
X0064515Y0200504D01*
X0065514Y0199505D02*
X0051100Y0199505D01*
X0051100Y0198507D02*
X0066512Y0198507D01*
X0067511Y0197508D02*
X0051100Y0197508D01*
X0051100Y0196510D02*
X0068509Y0196510D01*
X0069508Y0195511D02*
X0051100Y0195511D01*
X0051100Y0194513D02*
X0070506Y0194513D01*
X0071505Y0193514D02*
X0051100Y0193514D01*
X0051100Y0192516D02*
X0073407Y0192516D01*
X0073528Y0189520D02*
X0070072Y0189520D01*
X0071169Y0188522D02*
X0072431Y0188522D01*
X0080072Y0189520D02*
X0083528Y0189520D01*
X0082431Y0188522D02*
X0081169Y0188522D01*
X0090072Y0189520D02*
X0093528Y0189520D01*
X0092431Y0188522D02*
X0091169Y0188522D01*
X0098502Y0191517D02*
X0051100Y0191517D01*
X0051100Y0190519D02*
X0099500Y0190519D01*
X0100072Y0189520D02*
X0100499Y0189520D01*
X0101169Y0188522D02*
X0101497Y0188522D01*
X0102040Y0187523D02*
X0102496Y0187523D01*
X0102454Y0186525D02*
X0102500Y0186525D01*
X0110567Y0219475D02*
X0125810Y0219475D01*
X0125378Y0209304D02*
X0126517Y0208831D01*
X0132375Y0208831D01*
X0132375Y0207895D01*
X0132908Y0206609D01*
X0133892Y0205624D01*
X0135179Y0205091D01*
X0142083Y0205091D01*
X0142327Y0205192D01*
X0142500Y0205019D01*
X0142500Y0203517D01*
X0142308Y0203709D01*
X0141966Y0203906D01*
X0141584Y0204009D01*
X0139115Y0204009D01*
X0139115Y0201024D01*
X0138146Y0201024D01*
X0138146Y0204009D01*
X0135677Y0204009D01*
X0135296Y0203906D01*
X0134954Y0203709D01*
X0134675Y0203430D01*
X0134477Y0203088D01*
X0134375Y0202706D01*
X0134375Y0201874D01*
X0133421Y0202268D01*
X0132413Y0202268D01*
X0125378Y0209304D01*
X0126189Y0208492D02*
X0132375Y0208492D01*
X0132541Y0207493D02*
X0127188Y0207493D01*
X0128186Y0206495D02*
X0133022Y0206495D01*
X0134201Y0205496D02*
X0129185Y0205496D01*
X0130183Y0204498D02*
X0142500Y0204498D01*
X0139115Y0203499D02*
X0138146Y0203499D01*
X0138146Y0202501D02*
X0139115Y0202501D01*
X0139115Y0201502D02*
X0138146Y0201502D01*
X0134375Y0202501D02*
X0132180Y0202501D01*
X0131182Y0203499D02*
X0134744Y0203499D01*
X0143383Y0215481D02*
X0146500Y0215481D01*
X0146500Y0214483D02*
X0144805Y0214483D01*
X0146197Y0213484D02*
X0146500Y0213484D01*
X0146500Y0216480D02*
X0142887Y0216480D01*
X0142887Y0217478D02*
X0146500Y0217478D01*
X0146500Y0218477D02*
X0139115Y0218477D01*
X0139115Y0219475D02*
X0138146Y0219475D01*
X0138146Y0220474D02*
X0139115Y0220474D01*
X0139115Y0221472D02*
X0138146Y0221472D01*
X0135542Y0221472D02*
X0112204Y0221472D01*
X0112618Y0222471D02*
X0146500Y0222471D01*
X0146500Y0223470D02*
X0112875Y0223470D01*
X0112875Y0224468D02*
X0146500Y0224468D01*
X0146500Y0225467D02*
X0112875Y0225467D01*
X0112479Y0226465D02*
X0146500Y0226465D01*
X0146500Y0227464D02*
X0112065Y0227464D01*
X0111229Y0228462D02*
X0146500Y0228462D01*
X0146500Y0229461D02*
X0110215Y0229461D01*
X0111565Y0220474D02*
X0134447Y0220474D01*
X0134375Y0219475D02*
X0134129Y0219475D01*
X0141719Y0221472D02*
X0146500Y0221472D01*
X0146500Y0220474D02*
X0142815Y0220474D01*
X0142887Y0219475D02*
X0146500Y0219475D01*
X0146500Y0230459D02*
X0061100Y0230459D01*
X0061100Y0229461D02*
X0063385Y0229461D01*
X0062371Y0228462D02*
X0061229Y0228462D01*
X0061100Y0231458D02*
X0146500Y0231458D01*
X0146500Y0232456D02*
X0061100Y0232456D01*
X0061100Y0233455D02*
X0146500Y0233455D01*
X0146500Y0234453D02*
X0143843Y0234453D01*
X0145573Y0235452D02*
X0146500Y0235452D01*
X0134757Y0234453D02*
X0061100Y0234453D01*
X0061100Y0235452D02*
X0133027Y0235452D01*
X0131877Y0236450D02*
X0061100Y0236450D01*
X0061100Y0237449D02*
X0130879Y0237449D01*
X0130209Y0238447D02*
X0061100Y0238447D01*
X0061100Y0239446D02*
X0129633Y0239446D01*
X0129153Y0240444D02*
X0060980Y0240444D01*
X0060567Y0241443D02*
X0128885Y0241443D01*
X0128618Y0242441D02*
X0059740Y0242441D01*
X0058746Y0243440D02*
X0058741Y0243440D01*
X0058300Y0244438D02*
X0057743Y0244438D01*
X0058300Y0245437D02*
X0056744Y0245437D01*
X0070215Y0229461D02*
X0073385Y0229461D01*
X0072371Y0228462D02*
X0071229Y0228462D01*
X0080215Y0229461D02*
X0083385Y0229461D01*
X0082371Y0228462D02*
X0081229Y0228462D01*
X0090215Y0229461D02*
X0093385Y0229461D01*
X0092371Y0228462D02*
X0091229Y0228462D01*
X0100215Y0229461D02*
X0103385Y0229461D01*
X0102371Y0228462D02*
X0101229Y0228462D01*
X0063528Y0189520D02*
X0060072Y0189520D01*
X0061169Y0188522D02*
X0062431Y0188522D01*
X0053528Y0189520D02*
X0051100Y0189520D01*
X0051100Y0188522D02*
X0052431Y0188522D01*
X0051560Y0187523D02*
X0051100Y0187523D01*
X0051100Y0186525D02*
X0051146Y0186525D01*
X0040151Y0203499D02*
X0007100Y0203499D01*
X0007100Y0202501D02*
X0018800Y0202501D01*
X0017293Y0201502D02*
X0007100Y0201502D01*
X0007100Y0200504D02*
X0013857Y0200504D01*
X0012858Y0199505D02*
X0007100Y0199505D01*
X0007100Y0198507D02*
X0011860Y0198507D01*
X0010861Y0197508D02*
X0007100Y0197508D01*
X0007100Y0196510D02*
X0009863Y0196510D01*
X0008864Y0195511D02*
X0007100Y0195511D01*
X0007100Y0194513D02*
X0007866Y0194513D01*
X0007100Y0204498D02*
X0039402Y0204498D01*
X0038653Y0205496D02*
X0007100Y0205496D01*
X0007100Y0206495D02*
X0037904Y0206495D01*
X0037155Y0207493D02*
X0007100Y0207493D01*
X0007100Y0234453D02*
X0007257Y0234453D01*
X0027610Y0250429D02*
X0030184Y0250429D01*
X0029965Y0240444D02*
X0030618Y0240444D01*
X0030713Y0239446D02*
X0029965Y0239446D01*
X0032470Y0171547D02*
X0034066Y0171547D01*
X0033009Y0170548D02*
X0032939Y0170548D01*
X0036300Y0170548D02*
X0037300Y0170548D01*
X0037300Y0169550D02*
X0036300Y0169550D01*
X0036300Y0168551D02*
X0037300Y0168551D01*
X0037300Y0167553D02*
X0036300Y0167553D01*
X0036300Y0166554D02*
X0037300Y0166554D01*
X0037300Y0165556D02*
X0036300Y0165556D01*
X0036300Y0171547D02*
X0037300Y0171547D01*
X0041600Y0163559D02*
X0042500Y0163559D01*
X0042500Y0162560D02*
X0041600Y0162560D01*
X0041600Y0161562D02*
X0042500Y0161562D01*
X0042500Y0160563D02*
X0041591Y0160563D01*
X0041381Y0159565D02*
X0042500Y0159565D01*
X0042500Y0158566D02*
X0040947Y0158566D01*
X0040156Y0157568D02*
X0042500Y0157568D01*
X0042500Y0156569D02*
X0038677Y0156569D01*
X0033444Y0157568D02*
X0032739Y0157568D01*
X0021500Y0136599D02*
X0049395Y0136599D01*
X0040635Y0131606D02*
X0021500Y0131606D01*
X0136400Y0158200D02*
X0136400Y0162100D01*
X0136398Y0162100D01*
X0140276Y0165978D01*
X0140900Y0167484D01*
X0140900Y0170998D01*
X0140948Y0171018D01*
X0141933Y0172002D01*
X0142465Y0173289D01*
X0142465Y0178618D01*
X0142183Y0179300D01*
X0142465Y0179982D01*
X0142465Y0181337D01*
X0142500Y0181421D01*
X0142500Y0160981D01*
X0142401Y0161080D01*
X0141854Y0161478D01*
X0141251Y0161785D01*
X0140607Y0161994D01*
X0139938Y0162100D01*
X0137200Y0162100D01*
X0137200Y0158200D01*
X0136400Y0158200D01*
X0136400Y0158566D02*
X0137200Y0158566D01*
X0137200Y0159565D02*
X0136400Y0159565D01*
X0136400Y0160563D02*
X0137200Y0160563D01*
X0137200Y0161562D02*
X0136400Y0161562D01*
X0136859Y0162560D02*
X0142500Y0162560D01*
X0142500Y0161562D02*
X0141689Y0161562D01*
X0142500Y0163559D02*
X0137857Y0163559D01*
X0138856Y0164557D02*
X0142500Y0164557D01*
X0142500Y0165556D02*
X0139854Y0165556D01*
X0140515Y0166554D02*
X0142500Y0166554D01*
X0142500Y0167553D02*
X0140900Y0167553D01*
X0140900Y0168551D02*
X0142500Y0168551D01*
X0142500Y0169550D02*
X0140900Y0169550D01*
X0140900Y0170548D02*
X0142500Y0170548D01*
X0142500Y0171547D02*
X0141477Y0171547D01*
X0142157Y0172545D02*
X0142500Y0172545D01*
X0142465Y0173544D02*
X0142500Y0173544D01*
X0142465Y0174542D02*
X0142500Y0174542D01*
X0142465Y0175541D02*
X0142500Y0175541D01*
X0142465Y0176539D02*
X0142500Y0176539D01*
X0142465Y0177538D02*
X0142500Y0177538D01*
X0142465Y0178537D02*
X0142500Y0178537D01*
X0142500Y0179535D02*
X0142280Y0179535D01*
X0142465Y0180534D02*
X0142500Y0180534D01*
D24*
X0136800Y0175954D02*
X0136800Y0168300D01*
X0126300Y0157800D01*
X0126300Y0149800D01*
X0121824Y0145324D01*
X0111200Y0145324D01*
X0111200Y0142174D02*
X0124674Y0142174D01*
X0130300Y0147800D01*
X0136800Y0147800D01*
X0135524Y0139024D02*
X0136800Y0137800D01*
X0135524Y0139024D02*
X0111200Y0139024D01*
X0111200Y0135875D02*
X0122725Y0135875D01*
X0124300Y0134300D01*
X0105324Y0152824D02*
X0114300Y0161800D01*
X0124300Y0161800D01*
X0126800Y0164300D01*
X0126800Y0168454D01*
X0116800Y0168454D02*
X0115954Y0168454D01*
X0102300Y0154800D01*
X0102300Y0148826D01*
X0102174Y0151200D01*
X0099024Y0151200D02*
X0099300Y0148424D01*
X0095875Y0151200D02*
X0095875Y0155225D01*
X0096800Y0156800D01*
X0091800Y0156800D01*
X0089576Y0154576D01*
X0089576Y0151200D01*
X0086426Y0151200D02*
X0086300Y0148826D01*
X0086300Y0156300D01*
X0091800Y0161800D01*
X0101800Y0161800D01*
X0106800Y0166800D01*
X0106800Y0168454D01*
X0096800Y0168454D02*
X0096800Y0166800D01*
X0094300Y0164300D01*
X0089300Y0164300D01*
X0083276Y0158276D01*
X0083276Y0151200D01*
X0076800Y0166800D02*
X0076800Y0168454D01*
X0105324Y0152824D02*
X0105324Y0151200D01*
D25*
X0124300Y0134300D03*
X0101800Y0104300D03*
X0081800Y0106800D03*
X0086800Y0056800D03*
X0044300Y0056800D03*
X0116800Y0201800D03*
X0139300Y0226800D03*
X0034300Y0226800D03*
D26*
X0096800Y0156800D03*
X0096800Y0141800D03*
X0119300Y0083355D03*
X0111800Y0021800D03*
X0084300Y0021800D03*
X0139300Y0204300D03*
D27*
X0096800Y0089300D02*
X0096800Y0079300D01*
X0094300Y0076800D01*
X0131800Y0076800D01*
X0134300Y0074300D01*
X0134300Y0069146D01*
X0094300Y0076800D02*
X0086800Y0076800D01*
X0086800Y0069146D01*
X0086800Y0076800D02*
X0044300Y0076800D01*
X0009300Y0076800D01*
X0009300Y0189300D01*
X0016800Y0196800D01*
X0024300Y0196800D01*
X0024300Y0186800D02*
X0026800Y0184300D01*
X0026800Y0164300D01*
X0036800Y0164300D02*
X0036800Y0136800D01*
X0040954Y0132646D01*
X0044300Y0132646D01*
X0043454Y0132646D01*
X0044300Y0131800D01*
X0042646Y0126800D02*
X0044300Y0125954D01*
X0020146Y0125954D01*
X0016800Y0129300D01*
X0016800Y0164300D01*
X0042646Y0126800D02*
X0050954Y0126800D01*
X0044300Y0076800D02*
X0044300Y0070146D01*
X0009300Y0034300D02*
X0026800Y0016800D01*
X0034300Y0016800D01*
X0009300Y0034300D02*
X0009300Y0076800D01*
X0065146Y0015954D02*
X0076800Y0015954D01*
X0078355Y0014398D01*
X0078355Y0006800D01*
X0034300Y0226800D02*
X0034969Y0227469D01*
X0034969Y0238060D01*
X0034969Y0245540D02*
X0024694Y0245540D01*
X0024300Y0245146D01*
M02*
