G75*
%MOIN*%
%OFA0B0*%
%FSLAX25Y25*%
%IPPOS*%
%LPD*%
%AMOC8*
5,1,8,0,0,1.08239X$1,22.5*
%
%ADD10C,0.00300*%
%ADD11C,0.00400*%
%ADD12C,0.00600*%
%ADD13C,0.00500*%
%ADD14C,0.00200*%
D10*
X0031950Y0027917D02*
X0032917Y0026950D01*
X0033885Y0027917D01*
X0033885Y0029852D01*
X0034897Y0029852D02*
X0035864Y0029852D01*
X0035380Y0029852D02*
X0035380Y0026950D01*
X0034897Y0026950D02*
X0035864Y0026950D01*
X0036861Y0026950D02*
X0036861Y0029852D01*
X0038796Y0026950D01*
X0038796Y0029852D01*
X0039584Y0032950D02*
X0039584Y0036653D01*
X0041435Y0036653D01*
X0042052Y0036036D01*
X0042052Y0034802D01*
X0041435Y0034184D01*
X0039584Y0034184D01*
X0040818Y0034184D02*
X0042052Y0032950D01*
X0043267Y0033567D02*
X0043267Y0034802D01*
X0045118Y0034802D01*
X0045736Y0034184D01*
X0045736Y0033567D01*
X0045118Y0032950D01*
X0043884Y0032950D01*
X0043267Y0033567D01*
X0043267Y0034802D02*
X0044501Y0036036D01*
X0045736Y0036653D01*
X0059450Y0029852D02*
X0059450Y0027917D01*
X0060417Y0026950D01*
X0061385Y0027917D01*
X0061385Y0029852D01*
X0062397Y0029852D02*
X0062397Y0026950D01*
X0063848Y0026950D01*
X0064331Y0027434D01*
X0064331Y0027917D01*
X0063848Y0028401D01*
X0062397Y0028401D01*
X0063848Y0028401D02*
X0064331Y0028885D01*
X0064331Y0029369D01*
X0063848Y0029852D01*
X0062397Y0029852D01*
X0065343Y0028885D02*
X0065343Y0026950D01*
X0065343Y0028401D02*
X0067278Y0028401D01*
X0067278Y0028885D02*
X0067278Y0026950D01*
X0067278Y0028885D02*
X0066311Y0029852D01*
X0065343Y0028885D01*
X0068290Y0029852D02*
X0070225Y0029852D01*
X0069257Y0029852D02*
X0069257Y0026950D01*
X0073450Y0026450D02*
X0073450Y0030153D01*
X0075302Y0030153D01*
X0075919Y0029536D01*
X0075919Y0028302D01*
X0075302Y0027684D01*
X0073450Y0027684D01*
X0074684Y0027684D02*
X0075919Y0026450D01*
X0077133Y0026450D02*
X0077133Y0030153D01*
X0077133Y0028302D02*
X0079602Y0028302D01*
X0079602Y0030153D02*
X0079602Y0026450D01*
X0084450Y0031950D02*
X0084450Y0035653D01*
X0086302Y0035653D01*
X0086919Y0035036D01*
X0086919Y0033802D01*
X0086302Y0033184D01*
X0084450Y0033184D01*
X0085684Y0033184D02*
X0086919Y0031950D01*
X0088133Y0031950D02*
X0088133Y0032567D01*
X0090602Y0035036D01*
X0090602Y0035653D01*
X0088133Y0035653D01*
X0089950Y0031653D02*
X0091802Y0031653D01*
X0092419Y0031036D01*
X0092419Y0029802D01*
X0091802Y0029184D01*
X0089950Y0029184D01*
X0089950Y0027950D02*
X0089950Y0031653D01*
X0091184Y0029184D02*
X0092419Y0027950D01*
X0093633Y0027950D02*
X0096102Y0027950D01*
X0093633Y0027950D02*
X0093633Y0031653D01*
X0094736Y0007153D02*
X0093501Y0006536D01*
X0092267Y0005302D01*
X0094118Y0005302D01*
X0094736Y0004684D01*
X0094736Y0004067D01*
X0094118Y0003450D01*
X0092884Y0003450D01*
X0092267Y0004067D01*
X0092267Y0005302D01*
X0091052Y0006536D02*
X0090435Y0007153D01*
X0089201Y0007153D01*
X0088584Y0006536D01*
X0088584Y0004067D01*
X0089201Y0003450D01*
X0090435Y0003450D01*
X0091052Y0004067D01*
X0131950Y0034450D02*
X0131950Y0038153D01*
X0133802Y0038153D01*
X0134419Y0037536D01*
X0134419Y0036302D01*
X0133802Y0035684D01*
X0131950Y0035684D01*
X0133184Y0035684D02*
X0134419Y0034450D01*
X0135633Y0035067D02*
X0135633Y0035684D01*
X0136250Y0036302D01*
X0137485Y0036302D01*
X0138102Y0035684D01*
X0138102Y0035067D01*
X0137485Y0034450D01*
X0136250Y0034450D01*
X0135633Y0035067D01*
X0136250Y0036302D02*
X0135633Y0036919D01*
X0135633Y0037536D01*
X0136250Y0038153D01*
X0137485Y0038153D01*
X0138102Y0037536D01*
X0138102Y0036919D01*
X0137485Y0036302D01*
X0141300Y0034595D02*
X0141300Y0032126D01*
X0141918Y0031509D01*
X0143152Y0031509D01*
X0143769Y0032126D01*
X0144984Y0032126D02*
X0145601Y0031509D01*
X0146835Y0031509D01*
X0147452Y0032126D01*
X0147452Y0033361D01*
X0146835Y0033978D01*
X0146218Y0033978D01*
X0144984Y0033361D01*
X0144984Y0035212D01*
X0147452Y0035212D01*
X0143769Y0034595D02*
X0143152Y0035212D01*
X0141918Y0035212D01*
X0141300Y0034595D01*
X0135118Y0071950D02*
X0133884Y0071950D01*
X0133267Y0072567D01*
X0133267Y0073802D02*
X0134501Y0074419D01*
X0135118Y0074419D01*
X0135736Y0073802D01*
X0135736Y0072567D01*
X0135118Y0071950D01*
X0133267Y0073802D02*
X0133267Y0075653D01*
X0135736Y0075653D01*
X0132052Y0075036D02*
X0132052Y0073802D01*
X0131435Y0073184D01*
X0129584Y0073184D01*
X0129584Y0071950D02*
X0129584Y0075653D01*
X0131435Y0075653D01*
X0132052Y0075036D01*
X0130818Y0073184D02*
X0132052Y0071950D01*
X0120736Y0098450D02*
X0118267Y0098450D01*
X0120736Y0100919D01*
X0120736Y0101536D01*
X0120118Y0102153D01*
X0118884Y0102153D01*
X0118267Y0101536D01*
X0117052Y0101536D02*
X0116435Y0102153D01*
X0115201Y0102153D01*
X0114584Y0101536D01*
X0114584Y0099067D01*
X0115201Y0098450D01*
X0116435Y0098450D01*
X0117052Y0099067D01*
X0112278Y0102434D02*
X0112278Y0104369D01*
X0111794Y0104852D01*
X0110343Y0104852D01*
X0110343Y0101950D01*
X0111794Y0101950D01*
X0112278Y0102434D01*
X0109331Y0101950D02*
X0109331Y0104852D01*
X0107397Y0104852D02*
X0109331Y0101950D01*
X0107397Y0101950D02*
X0107397Y0104852D01*
X0106385Y0104369D02*
X0105901Y0104852D01*
X0104934Y0104852D01*
X0104450Y0104369D01*
X0104450Y0102434D01*
X0104934Y0101950D01*
X0105901Y0101950D01*
X0106385Y0102434D01*
X0106385Y0103401D01*
X0105417Y0103401D01*
X0096385Y0107891D02*
X0093916Y0107891D01*
X0095151Y0107891D02*
X0095151Y0111594D01*
X0093916Y0110360D01*
X0092702Y0110977D02*
X0092085Y0111594D01*
X0090851Y0111594D01*
X0090233Y0110977D01*
X0090233Y0108508D01*
X0090851Y0107891D01*
X0092085Y0107891D01*
X0092702Y0108508D01*
X0080396Y0114450D02*
X0078461Y0114450D01*
X0079428Y0114450D02*
X0079428Y0117352D01*
X0078461Y0116385D01*
X0077449Y0116869D02*
X0076966Y0117352D01*
X0075998Y0117352D01*
X0075514Y0116869D01*
X0075514Y0114934D01*
X0075998Y0114450D01*
X0076966Y0114450D01*
X0077449Y0114934D01*
X0074517Y0114450D02*
X0073550Y0114450D01*
X0074034Y0114450D02*
X0074034Y0117352D01*
X0074517Y0117352D02*
X0073550Y0117352D01*
X0058102Y0131950D02*
X0055633Y0131950D01*
X0058102Y0134419D01*
X0058102Y0135036D01*
X0057485Y0135653D01*
X0056250Y0135653D01*
X0055633Y0135036D01*
X0054419Y0135036D02*
X0054419Y0133802D01*
X0053802Y0133184D01*
X0051950Y0133184D01*
X0051950Y0131950D02*
X0051950Y0135653D01*
X0053802Y0135653D01*
X0054419Y0135036D01*
X0053184Y0133184D02*
X0054419Y0131950D01*
X0045602Y0136950D02*
X0043133Y0136950D01*
X0041919Y0136950D02*
X0040684Y0138184D01*
X0041302Y0138184D02*
X0039450Y0138184D01*
X0039450Y0136950D02*
X0039450Y0140653D01*
X0041302Y0140653D01*
X0041919Y0140036D01*
X0041919Y0138802D01*
X0041302Y0138184D01*
X0043133Y0139419D02*
X0044368Y0140653D01*
X0044368Y0136950D01*
X0056947Y0155950D02*
X0056947Y0157802D01*
X0057564Y0158419D01*
X0058798Y0158419D01*
X0059416Y0157802D01*
X0059416Y0155950D01*
X0060650Y0155950D02*
X0056947Y0155950D01*
X0059416Y0157184D02*
X0060650Y0158419D01*
X0060650Y0159633D02*
X0060650Y0161485D01*
X0060033Y0162102D01*
X0059416Y0162102D01*
X0058798Y0161485D01*
X0058798Y0159633D01*
X0056947Y0159633D02*
X0056947Y0161485D01*
X0057564Y0162102D01*
X0058181Y0162102D01*
X0058798Y0161485D01*
X0058181Y0163316D02*
X0056947Y0164551D01*
X0060650Y0164551D01*
X0060650Y0165785D02*
X0060650Y0163316D01*
X0060650Y0159633D02*
X0056947Y0159633D01*
X0066947Y0159633D02*
X0066947Y0161485D01*
X0067564Y0162102D01*
X0068181Y0162102D01*
X0068798Y0161485D01*
X0068798Y0159633D01*
X0068798Y0158419D02*
X0069416Y0157802D01*
X0069416Y0155950D01*
X0070650Y0155950D02*
X0066947Y0155950D01*
X0066947Y0157802D01*
X0067564Y0158419D01*
X0068798Y0158419D01*
X0069416Y0157184D02*
X0070650Y0158419D01*
X0070650Y0159633D02*
X0070650Y0161485D01*
X0070033Y0162102D01*
X0069416Y0162102D01*
X0068798Y0161485D01*
X0067564Y0163316D02*
X0066947Y0163933D01*
X0066947Y0165168D01*
X0067564Y0165785D01*
X0068181Y0165785D01*
X0070650Y0163316D01*
X0070650Y0165785D01*
X0070650Y0159633D02*
X0066947Y0159633D01*
X0076947Y0159633D02*
X0076947Y0161485D01*
X0077564Y0162102D01*
X0078181Y0162102D01*
X0078798Y0161485D01*
X0078798Y0159633D01*
X0078798Y0158419D02*
X0079416Y0157802D01*
X0079416Y0155950D01*
X0080650Y0155950D02*
X0076947Y0155950D01*
X0076947Y0157802D01*
X0077564Y0158419D01*
X0078798Y0158419D01*
X0079416Y0157184D02*
X0080650Y0158419D01*
X0080650Y0159633D02*
X0080650Y0161485D01*
X0080033Y0162102D01*
X0079416Y0162102D01*
X0078798Y0161485D01*
X0077564Y0163316D02*
X0076947Y0163933D01*
X0076947Y0165168D01*
X0077564Y0165785D01*
X0078181Y0165785D01*
X0078798Y0165168D01*
X0079416Y0165785D01*
X0080033Y0165785D01*
X0080650Y0165168D01*
X0080650Y0163933D01*
X0080033Y0163316D01*
X0078798Y0164551D02*
X0078798Y0165168D01*
X0080650Y0159633D02*
X0076947Y0159633D01*
X0086947Y0159633D02*
X0086947Y0161485D01*
X0087564Y0162102D01*
X0088181Y0162102D01*
X0088798Y0161485D01*
X0088798Y0159633D01*
X0088798Y0158419D02*
X0089416Y0157802D01*
X0089416Y0155950D01*
X0090650Y0155950D02*
X0086947Y0155950D01*
X0086947Y0157802D01*
X0087564Y0158419D01*
X0088798Y0158419D01*
X0089416Y0157184D02*
X0090650Y0158419D01*
X0090650Y0159633D02*
X0090650Y0161485D01*
X0090033Y0162102D01*
X0089416Y0162102D01*
X0088798Y0161485D01*
X0088798Y0163316D02*
X0086947Y0165168D01*
X0090650Y0165168D01*
X0088798Y0165785D02*
X0088798Y0163316D01*
X0086947Y0159633D02*
X0090650Y0159633D01*
X0096947Y0159633D02*
X0096947Y0161485D01*
X0097564Y0162102D01*
X0098181Y0162102D01*
X0098798Y0161485D01*
X0098798Y0159633D01*
X0098798Y0158419D02*
X0099416Y0157802D01*
X0099416Y0155950D01*
X0100650Y0155950D02*
X0096947Y0155950D01*
X0096947Y0157802D01*
X0097564Y0158419D01*
X0098798Y0158419D01*
X0099416Y0157184D02*
X0100650Y0158419D01*
X0100650Y0159633D02*
X0100650Y0161485D01*
X0100033Y0162102D01*
X0099416Y0162102D01*
X0098798Y0161485D01*
X0098798Y0163316D02*
X0098181Y0164551D01*
X0098181Y0165168D01*
X0098798Y0165785D01*
X0100033Y0165785D01*
X0100650Y0165168D01*
X0100650Y0163933D01*
X0100033Y0163316D01*
X0098798Y0163316D02*
X0096947Y0163316D01*
X0096947Y0165785D01*
X0096947Y0159633D02*
X0100650Y0159633D01*
X0106947Y0159633D02*
X0106947Y0161485D01*
X0107564Y0162102D01*
X0108181Y0162102D01*
X0108798Y0161485D01*
X0108798Y0159633D01*
X0108798Y0158419D02*
X0109416Y0157802D01*
X0109416Y0155950D01*
X0110650Y0155950D02*
X0106947Y0155950D01*
X0106947Y0157802D01*
X0107564Y0158419D01*
X0108798Y0158419D01*
X0109416Y0157184D02*
X0110650Y0158419D01*
X0110650Y0159633D02*
X0110650Y0161485D01*
X0110033Y0162102D01*
X0109416Y0162102D01*
X0108798Y0161485D01*
X0108798Y0163316D02*
X0108798Y0165168D01*
X0109416Y0165785D01*
X0110033Y0165785D01*
X0110650Y0165168D01*
X0110650Y0163933D01*
X0110033Y0163316D01*
X0108798Y0163316D01*
X0107564Y0164551D01*
X0106947Y0165785D01*
X0106947Y0159633D02*
X0110650Y0159633D01*
X0116947Y0159633D02*
X0116947Y0161485D01*
X0117564Y0162102D01*
X0118181Y0162102D01*
X0118798Y0161485D01*
X0118798Y0159633D01*
X0118798Y0158419D02*
X0119416Y0157802D01*
X0119416Y0155950D01*
X0120650Y0155950D02*
X0116947Y0155950D01*
X0116947Y0157802D01*
X0117564Y0158419D01*
X0118798Y0158419D01*
X0119416Y0157184D02*
X0120650Y0158419D01*
X0120650Y0159633D02*
X0120650Y0161485D01*
X0120033Y0162102D01*
X0119416Y0162102D01*
X0118798Y0161485D01*
X0120033Y0163316D02*
X0120650Y0163316D01*
X0120033Y0163316D02*
X0117564Y0165785D01*
X0116947Y0165785D01*
X0116947Y0163316D01*
X0116947Y0159633D02*
X0120650Y0159633D01*
X0121901Y0161950D02*
X0121901Y0165653D01*
X0123752Y0165653D01*
X0124369Y0165036D01*
X0124369Y0163802D01*
X0123752Y0163184D01*
X0121901Y0163184D01*
X0123135Y0163184D02*
X0124369Y0161950D01*
X0125584Y0161950D02*
X0127435Y0161950D01*
X0128052Y0162567D01*
X0128052Y0163184D01*
X0127435Y0163802D01*
X0125584Y0163802D01*
X0125584Y0165653D02*
X0125584Y0161950D01*
X0127435Y0163802D02*
X0128052Y0164419D01*
X0128052Y0165036D01*
X0127435Y0165653D01*
X0125584Y0165653D01*
X0129267Y0165036D02*
X0129267Y0164419D01*
X0129884Y0163802D01*
X0131118Y0163802D01*
X0131736Y0163184D01*
X0131736Y0162567D01*
X0131118Y0161950D01*
X0129884Y0161950D01*
X0129267Y0162567D01*
X0129267Y0163184D01*
X0129884Y0163802D01*
X0131118Y0163802D02*
X0131736Y0164419D01*
X0131736Y0165036D01*
X0131118Y0165653D01*
X0129884Y0165653D01*
X0129267Y0165036D01*
X0130064Y0175950D02*
X0130681Y0175950D01*
X0131298Y0176567D01*
X0131298Y0177802D01*
X0131916Y0178419D01*
X0132533Y0178419D01*
X0133150Y0177802D01*
X0133150Y0176567D01*
X0132533Y0175950D01*
X0132533Y0179633D02*
X0133150Y0180250D01*
X0133150Y0181485D01*
X0132533Y0182102D01*
X0131916Y0182102D01*
X0131298Y0181485D01*
X0131298Y0180250D01*
X0130681Y0179633D01*
X0130064Y0179633D01*
X0129447Y0180250D01*
X0129447Y0181485D01*
X0130064Y0182102D01*
X0129447Y0183316D02*
X0129447Y0185168D01*
X0130064Y0185785D01*
X0131298Y0185785D01*
X0131916Y0185168D01*
X0131916Y0183316D01*
X0133150Y0183316D02*
X0129447Y0183316D01*
X0131916Y0184551D02*
X0133150Y0185785D01*
X0133150Y0186999D02*
X0130681Y0189468D01*
X0130064Y0189468D01*
X0129447Y0188851D01*
X0129447Y0187617D01*
X0130064Y0186999D01*
X0133150Y0186999D02*
X0133150Y0189468D01*
X0130064Y0178419D02*
X0129447Y0177802D01*
X0129447Y0176567D01*
X0130064Y0175950D01*
X0143447Y0189217D02*
X0144681Y0190452D01*
X0143447Y0191686D01*
X0147150Y0191686D01*
X0146533Y0192901D02*
X0147150Y0193518D01*
X0147150Y0194752D01*
X0146533Y0195369D01*
X0144064Y0195369D01*
X0143447Y0194752D01*
X0143447Y0193518D01*
X0144064Y0192901D01*
X0146533Y0192901D01*
X0147150Y0189217D02*
X0143447Y0189217D01*
X0144064Y0196584D02*
X0144681Y0196584D01*
X0145298Y0197201D01*
X0145298Y0198435D01*
X0145916Y0199052D01*
X0146533Y0199052D01*
X0147150Y0198435D01*
X0147150Y0197201D01*
X0146533Y0196584D01*
X0146533Y0200267D02*
X0147150Y0200884D01*
X0147150Y0202118D01*
X0146533Y0202736D01*
X0145916Y0202736D01*
X0145298Y0202118D01*
X0145298Y0201501D01*
X0145298Y0202118D02*
X0144681Y0202736D01*
X0144064Y0202736D01*
X0143447Y0202118D01*
X0143447Y0200884D01*
X0144064Y0200267D01*
X0144064Y0199052D02*
X0143447Y0198435D01*
X0143447Y0197201D01*
X0144064Y0196584D01*
X0142947Y0211950D02*
X0144181Y0213184D01*
X0142947Y0214419D01*
X0146650Y0214419D01*
X0146033Y0215633D02*
X0146650Y0216250D01*
X0146650Y0217485D01*
X0146033Y0218102D01*
X0143564Y0218102D01*
X0142947Y0217485D01*
X0142947Y0216250D01*
X0143564Y0215633D01*
X0146033Y0215633D01*
X0146033Y0219316D02*
X0146650Y0219933D01*
X0146650Y0221168D01*
X0146033Y0221785D01*
X0145416Y0221785D01*
X0144798Y0221168D01*
X0144798Y0219933D01*
X0144181Y0219316D01*
X0143564Y0219316D01*
X0142947Y0219933D01*
X0142947Y0221168D01*
X0143564Y0221785D01*
X0143564Y0222999D02*
X0142947Y0223617D01*
X0142947Y0224851D01*
X0143564Y0225468D01*
X0144181Y0225468D01*
X0146650Y0222999D01*
X0146650Y0225468D01*
X0146650Y0211950D02*
X0142947Y0211950D01*
X0146731Y0162278D02*
X0146248Y0161794D01*
X0146248Y0160343D01*
X0149150Y0160343D01*
X0149150Y0161794D01*
X0148666Y0162278D01*
X0146731Y0162278D01*
X0146248Y0159331D02*
X0149150Y0159331D01*
X0146248Y0157397D01*
X0149150Y0157397D01*
X0148666Y0156385D02*
X0149150Y0155901D01*
X0149150Y0154934D01*
X0148666Y0154450D01*
X0146731Y0154450D01*
X0146248Y0154934D01*
X0146248Y0155901D01*
X0146731Y0156385D01*
X0147699Y0156385D02*
X0147699Y0155417D01*
X0147699Y0156385D02*
X0148666Y0156385D01*
X0148885Y0149852D02*
X0146950Y0149852D01*
X0147917Y0149852D02*
X0147917Y0146950D01*
X0148401Y0139852D02*
X0146950Y0139852D01*
X0146950Y0136950D01*
X0146950Y0137917D02*
X0148401Y0137917D01*
X0148885Y0138401D01*
X0148885Y0139369D01*
X0148401Y0139852D01*
X0147917Y0137917D02*
X0148885Y0136950D01*
X0148666Y0132278D02*
X0149150Y0131794D01*
X0149150Y0130827D01*
X0148666Y0130343D01*
X0146731Y0130343D01*
X0146248Y0130827D01*
X0146248Y0131794D01*
X0146731Y0132278D01*
X0146731Y0129331D02*
X0146248Y0128848D01*
X0146248Y0127880D01*
X0146731Y0127397D01*
X0148666Y0127397D01*
X0149150Y0127880D01*
X0149150Y0128848D01*
X0148666Y0129331D01*
X0148183Y0126385D02*
X0146248Y0126385D01*
X0148183Y0126385D02*
X0149150Y0125417D01*
X0148183Y0124450D01*
X0146248Y0124450D01*
X0134236Y0112536D02*
X0134236Y0111919D01*
X0133618Y0111302D01*
X0134236Y0110684D01*
X0134236Y0110067D01*
X0133618Y0109450D01*
X0132384Y0109450D01*
X0131767Y0110067D01*
X0130552Y0109450D02*
X0129318Y0110684D01*
X0129935Y0110684D02*
X0128084Y0110684D01*
X0126869Y0110684D02*
X0126252Y0111302D01*
X0125018Y0111302D01*
X0124401Y0111919D01*
X0124401Y0112536D01*
X0125018Y0113153D01*
X0126252Y0113153D01*
X0126869Y0112536D01*
X0128084Y0113153D02*
X0128084Y0109450D01*
X0126869Y0110067D02*
X0126252Y0109450D01*
X0125018Y0109450D01*
X0124401Y0110067D01*
X0123186Y0110067D02*
X0122569Y0109450D01*
X0121335Y0109450D01*
X0120717Y0110067D01*
X0121335Y0111302D02*
X0122569Y0111302D01*
X0123186Y0110684D01*
X0123186Y0110067D01*
X0123186Y0112536D02*
X0122569Y0113153D01*
X0121335Y0113153D01*
X0120717Y0112536D01*
X0120717Y0111919D01*
X0121335Y0111302D01*
X0126869Y0110684D02*
X0126869Y0110067D01*
X0128084Y0113153D02*
X0129935Y0113153D01*
X0130552Y0112536D01*
X0130552Y0111302D01*
X0129935Y0110684D01*
X0131767Y0112536D02*
X0132384Y0113153D01*
X0133618Y0113153D01*
X0134236Y0112536D01*
X0133618Y0111302D02*
X0133001Y0111302D01*
X0088102Y0074802D02*
X0085633Y0074802D01*
X0087485Y0076653D01*
X0087485Y0072950D01*
X0084419Y0072950D02*
X0083184Y0074184D01*
X0083802Y0074184D02*
X0081950Y0074184D01*
X0081950Y0072950D02*
X0081950Y0076653D01*
X0083802Y0076653D01*
X0084419Y0076036D01*
X0084419Y0074802D01*
X0083802Y0074184D01*
X0047102Y0074184D02*
X0047102Y0073567D01*
X0046485Y0072950D01*
X0045250Y0072950D01*
X0044633Y0073567D01*
X0043419Y0072950D02*
X0042184Y0074184D01*
X0042802Y0074184D02*
X0040950Y0074184D01*
X0040950Y0072950D02*
X0040950Y0076653D01*
X0042802Y0076653D01*
X0043419Y0076036D01*
X0043419Y0074802D01*
X0042802Y0074184D01*
X0044633Y0076036D02*
X0045250Y0076653D01*
X0046485Y0076653D01*
X0047102Y0076036D01*
X0047102Y0075419D01*
X0046485Y0074802D01*
X0047102Y0074184D01*
X0046485Y0074802D02*
X0045868Y0074802D01*
X0031950Y0029852D02*
X0031950Y0027917D01*
X0029468Y0230450D02*
X0026999Y0230450D01*
X0025785Y0230450D02*
X0024551Y0231684D01*
X0025168Y0231684D02*
X0023316Y0231684D01*
X0022102Y0231684D02*
X0022102Y0231067D01*
X0021485Y0230450D01*
X0020250Y0230450D01*
X0019633Y0231067D01*
X0018419Y0231067D02*
X0017802Y0230450D01*
X0016567Y0230450D01*
X0015950Y0231067D01*
X0016567Y0232302D02*
X0017802Y0232302D01*
X0018419Y0231684D01*
X0018419Y0231067D01*
X0020250Y0232302D02*
X0019633Y0232919D01*
X0019633Y0233536D01*
X0020250Y0234153D01*
X0021485Y0234153D01*
X0022102Y0233536D01*
X0023316Y0234153D02*
X0023316Y0230450D01*
X0022102Y0231684D02*
X0021485Y0232302D01*
X0020250Y0232302D01*
X0018419Y0233536D02*
X0017802Y0234153D01*
X0016567Y0234153D01*
X0015950Y0233536D01*
X0015950Y0232919D01*
X0016567Y0232302D01*
X0023316Y0234153D02*
X0025168Y0234153D01*
X0025785Y0233536D01*
X0025785Y0232302D01*
X0025168Y0231684D01*
X0026999Y0232919D02*
X0028234Y0234153D01*
X0028234Y0230450D01*
X0043450Y0233450D02*
X0043450Y0237153D01*
X0044684Y0235919D01*
X0045919Y0237153D01*
X0045919Y0233450D01*
X0047133Y0234067D02*
X0047133Y0236536D01*
X0047750Y0237153D01*
X0048985Y0237153D01*
X0049602Y0236536D01*
X0049602Y0234067D01*
X0048985Y0233450D01*
X0047750Y0233450D01*
X0047133Y0234067D01*
X0050816Y0234067D02*
X0051433Y0233450D01*
X0052668Y0233450D01*
X0053285Y0234067D01*
X0053285Y0234684D01*
X0052668Y0235302D01*
X0051433Y0235302D01*
X0050816Y0235919D01*
X0050816Y0236536D01*
X0051433Y0237153D01*
X0052668Y0237153D01*
X0053285Y0236536D01*
X0054499Y0235919D02*
X0055734Y0237153D01*
X0055734Y0233450D01*
X0056968Y0233450D02*
X0054499Y0233450D01*
D11*
X0019951Y0007001D02*
X0020551Y0006400D01*
X0021752Y0006400D01*
X0022353Y0007001D01*
X0022353Y0007601D01*
X0021752Y0008202D01*
X0020551Y0008202D01*
X0019951Y0008802D01*
X0019951Y0009403D01*
X0020551Y0010003D01*
X0021752Y0010003D01*
X0022353Y0009403D01*
X0023634Y0010003D02*
X0023634Y0006400D01*
X0026036Y0006400D01*
X0027317Y0007001D02*
X0027917Y0006400D01*
X0029118Y0006400D01*
X0029719Y0007001D01*
X0029719Y0007601D01*
X0029118Y0008202D01*
X0028518Y0008202D01*
X0029118Y0008202D02*
X0029719Y0008802D01*
X0029719Y0009403D01*
X0029118Y0010003D01*
X0027917Y0010003D01*
X0027317Y0009403D01*
X0060500Y0006603D02*
X0060500Y0006002D01*
X0061101Y0005402D01*
X0062302Y0005402D01*
X0062902Y0004801D01*
X0062902Y0004201D01*
X0062302Y0003600D01*
X0061101Y0003600D01*
X0060500Y0004201D01*
X0060500Y0006603D02*
X0061101Y0007203D01*
X0062302Y0007203D01*
X0062902Y0006603D01*
X0064183Y0007203D02*
X0064183Y0003600D01*
X0066585Y0003600D01*
X0067866Y0005402D02*
X0070268Y0005402D01*
X0069668Y0007203D02*
X0067866Y0005402D01*
X0069668Y0007203D02*
X0069668Y0003600D01*
X0070768Y0072500D02*
X0070768Y0076103D01*
X0072049Y0075503D02*
X0072650Y0076103D01*
X0073851Y0076103D01*
X0074451Y0075503D01*
X0074451Y0074902D01*
X0072049Y0072500D01*
X0074451Y0072500D01*
X0070768Y0072500D02*
X0068366Y0076103D01*
X0068366Y0072500D01*
X0067085Y0076103D02*
X0064683Y0076103D01*
X0065884Y0076103D02*
X0065884Y0072500D01*
X0063402Y0073101D02*
X0062802Y0072500D01*
X0061000Y0072500D01*
X0061000Y0076103D01*
X0062802Y0076103D01*
X0063402Y0075503D01*
X0063402Y0074902D01*
X0062802Y0074302D01*
X0061000Y0074302D01*
X0062802Y0074302D02*
X0063402Y0073701D01*
X0063402Y0073101D01*
X0049719Y0081400D02*
X0047317Y0081400D01*
X0049719Y0083802D01*
X0049719Y0084403D01*
X0049118Y0085003D01*
X0047917Y0085003D01*
X0047317Y0084403D01*
X0046036Y0081400D02*
X0043634Y0081400D01*
X0043634Y0085003D01*
X0042353Y0084403D02*
X0041752Y0085003D01*
X0040551Y0085003D01*
X0039951Y0084403D01*
X0039951Y0083802D01*
X0040551Y0083202D01*
X0041752Y0083202D01*
X0042353Y0082601D01*
X0042353Y0082001D01*
X0041752Y0081400D01*
X0040551Y0081400D01*
X0039951Y0082001D01*
X0030750Y0077103D02*
X0030750Y0073500D01*
X0029549Y0073500D02*
X0031951Y0073500D01*
X0029549Y0075902D02*
X0030750Y0077103D01*
X0028268Y0077103D02*
X0028268Y0073500D01*
X0025866Y0077103D01*
X0025866Y0073500D01*
X0023384Y0073500D02*
X0023384Y0077103D01*
X0022183Y0077103D02*
X0024585Y0077103D01*
X0020902Y0076503D02*
X0020902Y0075902D01*
X0020302Y0075302D01*
X0018500Y0075302D01*
X0018500Y0077103D02*
X0020302Y0077103D01*
X0020902Y0076503D01*
X0020302Y0075302D02*
X0020902Y0074701D01*
X0020902Y0074101D01*
X0020302Y0073500D01*
X0018500Y0073500D01*
X0018500Y0077103D01*
X0109000Y0077103D02*
X0109000Y0073500D01*
X0110802Y0073500D01*
X0111402Y0074101D01*
X0111402Y0074701D01*
X0110802Y0075302D01*
X0109000Y0075302D01*
X0109000Y0077103D02*
X0110802Y0077103D01*
X0111402Y0076503D01*
X0111402Y0075902D01*
X0110802Y0075302D01*
X0112683Y0077103D02*
X0115085Y0077103D01*
X0113884Y0077103D02*
X0113884Y0073500D01*
X0116366Y0073500D02*
X0116366Y0077103D01*
X0118768Y0073500D01*
X0118768Y0077103D01*
X0120049Y0076503D02*
X0120650Y0077103D01*
X0121851Y0077103D01*
X0122451Y0076503D01*
X0122451Y0075902D01*
X0121851Y0075302D01*
X0122451Y0074701D01*
X0122451Y0074101D01*
X0121851Y0073500D01*
X0120650Y0073500D01*
X0120049Y0074101D01*
X0121250Y0075302D02*
X0121851Y0075302D01*
X0135551Y0117400D02*
X0134951Y0118001D01*
X0135551Y0117400D02*
X0136752Y0117400D01*
X0137353Y0118001D01*
X0137353Y0118601D01*
X0136752Y0119202D01*
X0135551Y0119202D01*
X0134951Y0119802D01*
X0134951Y0120403D01*
X0135551Y0121003D01*
X0136752Y0121003D01*
X0137353Y0120403D01*
X0138634Y0121003D02*
X0138634Y0117400D01*
X0141036Y0117400D01*
X0142317Y0117400D02*
X0144719Y0117400D01*
X0143518Y0117400D02*
X0143518Y0121003D01*
X0142317Y0119802D01*
X0138732Y0247000D02*
X0135663Y0247000D01*
X0137197Y0247000D02*
X0137197Y0251604D01*
X0135663Y0250069D01*
X0134128Y0248535D02*
X0134128Y0251604D01*
X0134128Y0248535D02*
X0132594Y0247000D01*
X0131059Y0248535D01*
X0131059Y0251604D01*
X0127990Y0251604D02*
X0127990Y0247000D01*
X0129524Y0247000D02*
X0126455Y0247000D01*
X0124920Y0249302D02*
X0121851Y0249302D01*
X0120316Y0250837D02*
X0119549Y0251604D01*
X0118014Y0251604D01*
X0117247Y0250837D01*
X0117247Y0247767D01*
X0118014Y0247000D01*
X0119549Y0247000D01*
X0120316Y0247767D01*
X0115712Y0251604D02*
X0112643Y0251604D01*
X0112643Y0247000D01*
X0111109Y0247000D02*
X0111109Y0250069D01*
X0109574Y0251604D01*
X0108039Y0250069D01*
X0108039Y0247000D01*
X0108039Y0249302D02*
X0111109Y0249302D01*
X0112643Y0249302D02*
X0114178Y0249302D01*
X0106505Y0249302D02*
X0103435Y0249302D01*
X0101901Y0249302D02*
X0101901Y0247767D01*
X0101133Y0247000D01*
X0099599Y0247000D01*
X0098831Y0247767D01*
X0097297Y0247767D02*
X0097297Y0250837D01*
X0094227Y0247767D01*
X0094995Y0247000D01*
X0096529Y0247000D01*
X0097297Y0247767D01*
X0098831Y0249302D02*
X0100366Y0250069D01*
X0101133Y0250069D01*
X0101901Y0249302D01*
X0101901Y0251604D02*
X0098831Y0251604D01*
X0098831Y0249302D01*
X0097297Y0250837D02*
X0096529Y0251604D01*
X0094995Y0251604D01*
X0094227Y0250837D01*
X0094227Y0247767D01*
X0092693Y0247000D02*
X0089624Y0247000D01*
X0091158Y0247000D02*
X0091158Y0251604D01*
X0089624Y0250069D01*
X0088089Y0248535D02*
X0088089Y0247767D01*
X0087322Y0247000D01*
X0085787Y0247000D01*
X0085020Y0247767D01*
X0085020Y0249302D01*
X0087322Y0249302D01*
X0088089Y0248535D01*
X0086554Y0250837D02*
X0088089Y0251604D01*
X0086554Y0250837D02*
X0085020Y0249302D01*
X0083485Y0247000D02*
X0080416Y0247000D01*
X0081950Y0247000D02*
X0081950Y0251604D01*
X0080416Y0250069D01*
X0078881Y0249302D02*
X0075812Y0249302D01*
X0074277Y0250837D02*
X0073510Y0251604D01*
X0071975Y0251604D01*
X0071208Y0250837D01*
X0071208Y0247767D01*
X0071975Y0247000D01*
X0073510Y0247000D01*
X0074277Y0247767D01*
X0069673Y0247000D02*
X0068139Y0248535D01*
X0068906Y0248535D02*
X0066604Y0248535D01*
X0066604Y0247000D02*
X0066604Y0251604D01*
X0068906Y0251604D01*
X0069673Y0250837D01*
X0069673Y0249302D01*
X0068906Y0248535D01*
X0065069Y0249302D02*
X0064302Y0248535D01*
X0062000Y0248535D01*
X0062000Y0247000D02*
X0062000Y0251604D01*
X0064302Y0251604D01*
X0065069Y0250837D01*
X0065069Y0249302D01*
X0126455Y0250069D02*
X0127990Y0251604D01*
D12*
X0126202Y0232005D02*
X0037398Y0232005D01*
X0037398Y0176497D01*
X0126202Y0176497D01*
X0126202Y0232005D01*
X0126800Y0161800D02*
X0129800Y0161800D01*
X0129800Y0154300D01*
X0131300Y0152800D01*
X0130300Y0151800D01*
X0129800Y0151300D01*
X0129800Y0143800D01*
X0142800Y0143800D01*
X0142800Y0145300D01*
X0141800Y0145300D01*
X0141800Y0150300D01*
X0142800Y0150300D01*
X0142800Y0151800D01*
X0130300Y0151800D01*
X0130300Y0153800D02*
X0142800Y0153800D01*
X0142800Y0155300D01*
X0141800Y0155300D01*
X0141800Y0160300D01*
X0142800Y0160300D01*
X0142800Y0161800D01*
X0143800Y0161800D01*
X0143800Y0160300D01*
X0142800Y0160300D01*
X0142800Y0161800D02*
X0129800Y0161800D01*
X0126800Y0161800D02*
X0126800Y0158800D01*
X0126300Y0158800D01*
X0126300Y0156800D01*
X0126800Y0156800D01*
X0126800Y0153800D01*
X0127300Y0153800D01*
X0127300Y0151800D01*
X0126800Y0151800D01*
X0126800Y0148800D01*
X0126300Y0148800D01*
X0126300Y0146800D01*
X0126800Y0146800D01*
X0126800Y0143800D01*
X0127300Y0143800D01*
X0127300Y0141800D01*
X0126800Y0141800D01*
X0126800Y0138800D01*
X0126300Y0138800D01*
X0126300Y0136800D01*
X0126800Y0136800D01*
X0126800Y0133800D01*
X0127300Y0133800D01*
X0127300Y0131800D01*
X0126800Y0131800D01*
X0126800Y0128800D01*
X0126300Y0128800D01*
X0126300Y0126800D01*
X0126800Y0126800D01*
X0126800Y0123800D01*
X0129800Y0123800D01*
X0129800Y0131300D01*
X0130300Y0131800D01*
X0142800Y0131800D01*
X0142800Y0133800D01*
X0130300Y0133800D01*
X0129800Y0134300D01*
X0129800Y0141800D01*
X0142800Y0141800D01*
X0142800Y0143800D01*
X0142800Y0145300D02*
X0143800Y0145300D01*
X0143800Y0140300D01*
X0142800Y0140300D01*
X0142800Y0141800D01*
X0142800Y0140300D02*
X0141800Y0140300D01*
X0141800Y0135300D01*
X0142800Y0135300D01*
X0142800Y0133800D01*
X0142800Y0135300D02*
X0143800Y0135300D01*
X0143800Y0130300D01*
X0142800Y0130300D01*
X0142800Y0131800D01*
X0142800Y0130300D02*
X0141800Y0130300D01*
X0141800Y0125300D01*
X0142800Y0125300D01*
X0142800Y0123800D01*
X0143800Y0123800D01*
X0143800Y0125300D01*
X0142800Y0125300D01*
X0142800Y0123800D02*
X0129800Y0123800D01*
X0130300Y0131800D02*
X0131300Y0132800D01*
X0130300Y0133800D01*
X0129800Y0141800D02*
X0129800Y0143800D01*
X0142800Y0150300D02*
X0143800Y0150300D01*
X0143800Y0155300D01*
X0142800Y0155300D01*
X0142800Y0153800D02*
X0142800Y0151800D01*
X0145300Y0151800D02*
X0145800Y0151800D01*
X0145800Y0143800D01*
X0145300Y0143800D01*
X0145300Y0141800D01*
X0145800Y0141800D01*
X0145800Y0133800D01*
X0145300Y0133800D01*
X0145300Y0131800D01*
X0145800Y0131800D01*
X0145800Y0123800D01*
X0143800Y0123800D01*
X0145300Y0151800D02*
X0145300Y0153800D01*
X0145800Y0153800D01*
X0145800Y0161800D01*
X0143800Y0161800D01*
X0108099Y0146702D02*
X0108099Y0120501D01*
X0080501Y0120501D01*
X0080501Y0148099D01*
X0106702Y0148099D01*
X0108099Y0146702D01*
X0103686Y0145100D02*
X0103688Y0145175D01*
X0103694Y0145249D01*
X0103704Y0145323D01*
X0103717Y0145396D01*
X0103735Y0145469D01*
X0103756Y0145540D01*
X0103781Y0145611D01*
X0103810Y0145680D01*
X0103843Y0145747D01*
X0103879Y0145812D01*
X0103918Y0145876D01*
X0103960Y0145937D01*
X0104006Y0145996D01*
X0104055Y0146053D01*
X0104107Y0146106D01*
X0104161Y0146157D01*
X0104218Y0146206D01*
X0104278Y0146250D01*
X0104340Y0146292D01*
X0104404Y0146331D01*
X0104470Y0146366D01*
X0104537Y0146397D01*
X0104607Y0146425D01*
X0104677Y0146449D01*
X0104749Y0146470D01*
X0104822Y0146486D01*
X0104895Y0146499D01*
X0104970Y0146508D01*
X0105044Y0146513D01*
X0105119Y0146514D01*
X0105193Y0146511D01*
X0105268Y0146504D01*
X0105341Y0146493D01*
X0105415Y0146479D01*
X0105487Y0146460D01*
X0105558Y0146438D01*
X0105628Y0146412D01*
X0105697Y0146382D01*
X0105763Y0146349D01*
X0105828Y0146312D01*
X0105891Y0146272D01*
X0105952Y0146228D01*
X0106010Y0146182D01*
X0106066Y0146132D01*
X0106119Y0146080D01*
X0106170Y0146025D01*
X0106217Y0145967D01*
X0106261Y0145907D01*
X0106302Y0145844D01*
X0106340Y0145780D01*
X0106374Y0145714D01*
X0106405Y0145645D01*
X0106432Y0145576D01*
X0106455Y0145505D01*
X0106474Y0145433D01*
X0106490Y0145360D01*
X0106502Y0145286D01*
X0106510Y0145212D01*
X0106514Y0145137D01*
X0106514Y0145063D01*
X0106510Y0144988D01*
X0106502Y0144914D01*
X0106490Y0144840D01*
X0106474Y0144767D01*
X0106455Y0144695D01*
X0106432Y0144624D01*
X0106405Y0144555D01*
X0106374Y0144486D01*
X0106340Y0144420D01*
X0106302Y0144356D01*
X0106261Y0144293D01*
X0106217Y0144233D01*
X0106170Y0144175D01*
X0106119Y0144120D01*
X0106066Y0144068D01*
X0106010Y0144018D01*
X0105952Y0143972D01*
X0105891Y0143928D01*
X0105828Y0143888D01*
X0105763Y0143851D01*
X0105697Y0143818D01*
X0105628Y0143788D01*
X0105558Y0143762D01*
X0105487Y0143740D01*
X0105415Y0143721D01*
X0105341Y0143707D01*
X0105268Y0143696D01*
X0105193Y0143689D01*
X0105119Y0143686D01*
X0105044Y0143687D01*
X0104970Y0143692D01*
X0104895Y0143701D01*
X0104822Y0143714D01*
X0104749Y0143730D01*
X0104677Y0143751D01*
X0104607Y0143775D01*
X0104537Y0143803D01*
X0104470Y0143834D01*
X0104404Y0143869D01*
X0104340Y0143908D01*
X0104278Y0143950D01*
X0104218Y0143994D01*
X0104161Y0144043D01*
X0104107Y0144094D01*
X0104055Y0144147D01*
X0104006Y0144204D01*
X0103960Y0144263D01*
X0103918Y0144324D01*
X0103879Y0144388D01*
X0103843Y0144453D01*
X0103810Y0144520D01*
X0103781Y0144589D01*
X0103756Y0144660D01*
X0103735Y0144731D01*
X0103717Y0144804D01*
X0103704Y0144877D01*
X0103694Y0144951D01*
X0103688Y0145025D01*
X0103686Y0145100D01*
X0105800Y0099800D02*
X0107800Y0099800D01*
X0107800Y0099300D01*
X0110800Y0099300D01*
X0110800Y0096300D01*
X0110800Y0083300D01*
X0110800Y0082300D01*
X0109300Y0082300D01*
X0109300Y0083300D01*
X0109300Y0084300D01*
X0104300Y0084300D01*
X0104300Y0083300D01*
X0102800Y0083300D01*
X0102800Y0095800D01*
X0103300Y0096300D01*
X0110800Y0096300D01*
X0105800Y0099300D02*
X0102800Y0099300D01*
X0102800Y0098800D01*
X0100800Y0098800D01*
X0100800Y0099300D01*
X0097800Y0099300D01*
X0097800Y0099800D01*
X0095800Y0099800D01*
X0095800Y0099300D01*
X0092800Y0099300D01*
X0092800Y0098800D01*
X0090800Y0098800D01*
X0090800Y0099300D01*
X0087800Y0099300D01*
X0087800Y0099800D01*
X0085800Y0099800D01*
X0085800Y0099300D01*
X0082800Y0099300D01*
X0082800Y0098800D01*
X0080800Y0098800D01*
X0080800Y0099300D01*
X0077800Y0099300D01*
X0077800Y0099800D01*
X0075800Y0099800D01*
X0075800Y0099300D01*
X0072800Y0099300D01*
X0072800Y0098800D01*
X0070800Y0098800D01*
X0070800Y0099300D01*
X0067800Y0099300D01*
X0067800Y0099800D01*
X0065800Y0099800D01*
X0065800Y0099300D01*
X0062800Y0099300D01*
X0062800Y0098800D01*
X0060800Y0098800D01*
X0060800Y0099300D01*
X0057800Y0099300D01*
X0057800Y0099800D01*
X0055800Y0099800D01*
X0055800Y0099300D01*
X0052800Y0099300D01*
X0052800Y0096300D01*
X0060300Y0096300D01*
X0060800Y0095800D01*
X0060800Y0083300D01*
X0062800Y0083300D01*
X0062800Y0095800D01*
X0063300Y0096300D01*
X0070800Y0096300D01*
X0070800Y0083300D01*
X0072800Y0083300D01*
X0072800Y0096300D01*
X0080800Y0096300D01*
X0082800Y0096300D01*
X0090800Y0096300D01*
X0092800Y0096300D01*
X0100300Y0096300D01*
X0100800Y0095800D01*
X0100800Y0083300D01*
X0102800Y0083300D01*
X0104300Y0083300D02*
X0104300Y0082300D01*
X0099300Y0082300D01*
X0099300Y0083300D01*
X0100800Y0083300D01*
X0099300Y0083300D02*
X0099300Y0084300D01*
X0094300Y0084300D01*
X0094300Y0083300D01*
X0092800Y0083300D01*
X0092800Y0096300D01*
X0090800Y0096300D02*
X0090800Y0083300D01*
X0092800Y0083300D01*
X0094300Y0083300D02*
X0094300Y0082300D01*
X0089300Y0082300D01*
X0089300Y0083300D01*
X0090800Y0083300D01*
X0089300Y0083300D02*
X0089300Y0084300D01*
X0084300Y0084300D01*
X0084300Y0083300D01*
X0082800Y0083300D01*
X0080800Y0083300D01*
X0079300Y0083300D01*
X0079300Y0084300D01*
X0074300Y0084300D01*
X0074300Y0083300D01*
X0072800Y0083300D01*
X0074300Y0083300D02*
X0074300Y0082300D01*
X0069300Y0082300D01*
X0069300Y0083300D01*
X0070800Y0083300D01*
X0069300Y0083300D02*
X0069300Y0084300D01*
X0064300Y0084300D01*
X0064300Y0083300D01*
X0062800Y0083300D01*
X0064300Y0083300D02*
X0064300Y0082300D01*
X0059300Y0082300D01*
X0059300Y0083300D01*
X0060800Y0083300D01*
X0059300Y0083300D02*
X0059300Y0084300D01*
X0054300Y0084300D01*
X0054300Y0083300D01*
X0052800Y0083300D01*
X0052800Y0082300D01*
X0054300Y0082300D01*
X0054300Y0083300D01*
X0052800Y0083300D02*
X0052800Y0096300D01*
X0060800Y0095800D02*
X0061800Y0094800D01*
X0062800Y0095800D01*
X0070800Y0096300D02*
X0072800Y0096300D01*
X0080800Y0096300D02*
X0080800Y0083300D01*
X0079300Y0083300D02*
X0079300Y0082300D01*
X0084300Y0082300D01*
X0084300Y0083300D01*
X0082800Y0083300D02*
X0082800Y0096300D01*
X0082800Y0080800D02*
X0080800Y0080800D01*
X0080800Y0080300D01*
X0072800Y0080300D01*
X0072800Y0080800D01*
X0070800Y0080800D01*
X0070800Y0080300D01*
X0062800Y0080300D01*
X0062800Y0080800D01*
X0060800Y0080800D01*
X0060800Y0080300D01*
X0052800Y0080300D01*
X0052800Y0082300D01*
X0062800Y0066300D02*
X0063800Y0066300D01*
X0063800Y0067300D01*
X0069800Y0067300D01*
X0069800Y0066300D01*
X0070800Y0066300D01*
X0078800Y0062800D02*
X0078800Y0059300D01*
X0078800Y0049300D01*
X0078800Y0045800D01*
X0070800Y0042300D02*
X0069800Y0042300D01*
X0069800Y0041300D01*
X0063800Y0041300D01*
X0063800Y0042300D01*
X0062800Y0042300D01*
X0065800Y0054300D02*
X0065802Y0054363D01*
X0065808Y0054425D01*
X0065818Y0054487D01*
X0065831Y0054549D01*
X0065849Y0054609D01*
X0065870Y0054668D01*
X0065895Y0054726D01*
X0065924Y0054782D01*
X0065956Y0054836D01*
X0065991Y0054888D01*
X0066029Y0054937D01*
X0066071Y0054985D01*
X0066115Y0055029D01*
X0066163Y0055071D01*
X0066212Y0055109D01*
X0066264Y0055144D01*
X0066318Y0055176D01*
X0066374Y0055205D01*
X0066432Y0055230D01*
X0066491Y0055251D01*
X0066551Y0055269D01*
X0066613Y0055282D01*
X0066675Y0055292D01*
X0066737Y0055298D01*
X0066800Y0055300D01*
X0066863Y0055298D01*
X0066925Y0055292D01*
X0066987Y0055282D01*
X0067049Y0055269D01*
X0067109Y0055251D01*
X0067168Y0055230D01*
X0067226Y0055205D01*
X0067282Y0055176D01*
X0067336Y0055144D01*
X0067388Y0055109D01*
X0067437Y0055071D01*
X0067485Y0055029D01*
X0067529Y0054985D01*
X0067571Y0054937D01*
X0067609Y0054888D01*
X0067644Y0054836D01*
X0067676Y0054782D01*
X0067705Y0054726D01*
X0067730Y0054668D01*
X0067751Y0054609D01*
X0067769Y0054549D01*
X0067782Y0054487D01*
X0067792Y0054425D01*
X0067798Y0054363D01*
X0067800Y0054300D01*
X0067798Y0054237D01*
X0067792Y0054175D01*
X0067782Y0054113D01*
X0067769Y0054051D01*
X0067751Y0053991D01*
X0067730Y0053932D01*
X0067705Y0053874D01*
X0067676Y0053818D01*
X0067644Y0053764D01*
X0067609Y0053712D01*
X0067571Y0053663D01*
X0067529Y0053615D01*
X0067485Y0053571D01*
X0067437Y0053529D01*
X0067388Y0053491D01*
X0067336Y0053456D01*
X0067282Y0053424D01*
X0067226Y0053395D01*
X0067168Y0053370D01*
X0067109Y0053349D01*
X0067049Y0053331D01*
X0066987Y0053318D01*
X0066925Y0053308D01*
X0066863Y0053302D01*
X0066800Y0053300D01*
X0066737Y0053302D01*
X0066675Y0053308D01*
X0066613Y0053318D01*
X0066551Y0053331D01*
X0066491Y0053349D01*
X0066432Y0053370D01*
X0066374Y0053395D01*
X0066318Y0053424D01*
X0066264Y0053456D01*
X0066212Y0053491D01*
X0066163Y0053529D01*
X0066115Y0053571D01*
X0066071Y0053615D01*
X0066029Y0053663D01*
X0065991Y0053712D01*
X0065956Y0053764D01*
X0065924Y0053818D01*
X0065895Y0053874D01*
X0065870Y0053932D01*
X0065849Y0053991D01*
X0065831Y0054051D01*
X0065818Y0054113D01*
X0065808Y0054175D01*
X0065802Y0054237D01*
X0065800Y0054300D01*
X0059800Y0054300D02*
X0059802Y0054472D01*
X0059808Y0054643D01*
X0059819Y0054815D01*
X0059834Y0054986D01*
X0059853Y0055157D01*
X0059876Y0055327D01*
X0059903Y0055497D01*
X0059935Y0055666D01*
X0059970Y0055834D01*
X0060010Y0056001D01*
X0060054Y0056167D01*
X0060101Y0056332D01*
X0060153Y0056496D01*
X0060209Y0056658D01*
X0060269Y0056819D01*
X0060333Y0056979D01*
X0060401Y0057137D01*
X0060472Y0057293D01*
X0060547Y0057447D01*
X0060627Y0057600D01*
X0060709Y0057750D01*
X0060796Y0057899D01*
X0060886Y0058045D01*
X0060980Y0058189D01*
X0061077Y0058331D01*
X0061178Y0058470D01*
X0061282Y0058607D01*
X0061389Y0058741D01*
X0061500Y0058872D01*
X0061613Y0059001D01*
X0061730Y0059127D01*
X0061850Y0059250D01*
X0061973Y0059370D01*
X0062099Y0059487D01*
X0062228Y0059600D01*
X0062359Y0059711D01*
X0062493Y0059818D01*
X0062630Y0059922D01*
X0062769Y0060023D01*
X0062911Y0060120D01*
X0063055Y0060214D01*
X0063201Y0060304D01*
X0063350Y0060391D01*
X0063500Y0060473D01*
X0063653Y0060553D01*
X0063807Y0060628D01*
X0063963Y0060699D01*
X0064121Y0060767D01*
X0064281Y0060831D01*
X0064442Y0060891D01*
X0064604Y0060947D01*
X0064768Y0060999D01*
X0064933Y0061046D01*
X0065099Y0061090D01*
X0065266Y0061130D01*
X0065434Y0061165D01*
X0065603Y0061197D01*
X0065773Y0061224D01*
X0065943Y0061247D01*
X0066114Y0061266D01*
X0066285Y0061281D01*
X0066457Y0061292D01*
X0066628Y0061298D01*
X0066800Y0061300D01*
X0066972Y0061298D01*
X0067143Y0061292D01*
X0067315Y0061281D01*
X0067486Y0061266D01*
X0067657Y0061247D01*
X0067827Y0061224D01*
X0067997Y0061197D01*
X0068166Y0061165D01*
X0068334Y0061130D01*
X0068501Y0061090D01*
X0068667Y0061046D01*
X0068832Y0060999D01*
X0068996Y0060947D01*
X0069158Y0060891D01*
X0069319Y0060831D01*
X0069479Y0060767D01*
X0069637Y0060699D01*
X0069793Y0060628D01*
X0069947Y0060553D01*
X0070100Y0060473D01*
X0070250Y0060391D01*
X0070399Y0060304D01*
X0070545Y0060214D01*
X0070689Y0060120D01*
X0070831Y0060023D01*
X0070970Y0059922D01*
X0071107Y0059818D01*
X0071241Y0059711D01*
X0071372Y0059600D01*
X0071501Y0059487D01*
X0071627Y0059370D01*
X0071750Y0059250D01*
X0071870Y0059127D01*
X0071987Y0059001D01*
X0072100Y0058872D01*
X0072211Y0058741D01*
X0072318Y0058607D01*
X0072422Y0058470D01*
X0072523Y0058331D01*
X0072620Y0058189D01*
X0072714Y0058045D01*
X0072804Y0057899D01*
X0072891Y0057750D01*
X0072973Y0057600D01*
X0073053Y0057447D01*
X0073128Y0057293D01*
X0073199Y0057137D01*
X0073267Y0056979D01*
X0073331Y0056819D01*
X0073391Y0056658D01*
X0073447Y0056496D01*
X0073499Y0056332D01*
X0073546Y0056167D01*
X0073590Y0056001D01*
X0073630Y0055834D01*
X0073665Y0055666D01*
X0073697Y0055497D01*
X0073724Y0055327D01*
X0073747Y0055157D01*
X0073766Y0054986D01*
X0073781Y0054815D01*
X0073792Y0054643D01*
X0073798Y0054472D01*
X0073800Y0054300D01*
X0073798Y0054128D01*
X0073792Y0053957D01*
X0073781Y0053785D01*
X0073766Y0053614D01*
X0073747Y0053443D01*
X0073724Y0053273D01*
X0073697Y0053103D01*
X0073665Y0052934D01*
X0073630Y0052766D01*
X0073590Y0052599D01*
X0073546Y0052433D01*
X0073499Y0052268D01*
X0073447Y0052104D01*
X0073391Y0051942D01*
X0073331Y0051781D01*
X0073267Y0051621D01*
X0073199Y0051463D01*
X0073128Y0051307D01*
X0073053Y0051153D01*
X0072973Y0051000D01*
X0072891Y0050850D01*
X0072804Y0050701D01*
X0072714Y0050555D01*
X0072620Y0050411D01*
X0072523Y0050269D01*
X0072422Y0050130D01*
X0072318Y0049993D01*
X0072211Y0049859D01*
X0072100Y0049728D01*
X0071987Y0049599D01*
X0071870Y0049473D01*
X0071750Y0049350D01*
X0071627Y0049230D01*
X0071501Y0049113D01*
X0071372Y0049000D01*
X0071241Y0048889D01*
X0071107Y0048782D01*
X0070970Y0048678D01*
X0070831Y0048577D01*
X0070689Y0048480D01*
X0070545Y0048386D01*
X0070399Y0048296D01*
X0070250Y0048209D01*
X0070100Y0048127D01*
X0069947Y0048047D01*
X0069793Y0047972D01*
X0069637Y0047901D01*
X0069479Y0047833D01*
X0069319Y0047769D01*
X0069158Y0047709D01*
X0068996Y0047653D01*
X0068832Y0047601D01*
X0068667Y0047554D01*
X0068501Y0047510D01*
X0068334Y0047470D01*
X0068166Y0047435D01*
X0067997Y0047403D01*
X0067827Y0047376D01*
X0067657Y0047353D01*
X0067486Y0047334D01*
X0067315Y0047319D01*
X0067143Y0047308D01*
X0066972Y0047302D01*
X0066800Y0047300D01*
X0066628Y0047302D01*
X0066457Y0047308D01*
X0066285Y0047319D01*
X0066114Y0047334D01*
X0065943Y0047353D01*
X0065773Y0047376D01*
X0065603Y0047403D01*
X0065434Y0047435D01*
X0065266Y0047470D01*
X0065099Y0047510D01*
X0064933Y0047554D01*
X0064768Y0047601D01*
X0064604Y0047653D01*
X0064442Y0047709D01*
X0064281Y0047769D01*
X0064121Y0047833D01*
X0063963Y0047901D01*
X0063807Y0047972D01*
X0063653Y0048047D01*
X0063500Y0048127D01*
X0063350Y0048209D01*
X0063201Y0048296D01*
X0063055Y0048386D01*
X0062911Y0048480D01*
X0062769Y0048577D01*
X0062630Y0048678D01*
X0062493Y0048782D01*
X0062359Y0048889D01*
X0062228Y0049000D01*
X0062099Y0049113D01*
X0061973Y0049230D01*
X0061850Y0049350D01*
X0061730Y0049473D01*
X0061613Y0049599D01*
X0061500Y0049728D01*
X0061389Y0049859D01*
X0061282Y0049993D01*
X0061178Y0050130D01*
X0061077Y0050269D01*
X0060980Y0050411D01*
X0060886Y0050555D01*
X0060796Y0050701D01*
X0060709Y0050850D01*
X0060627Y0051000D01*
X0060547Y0051153D01*
X0060472Y0051307D01*
X0060401Y0051463D01*
X0060333Y0051621D01*
X0060269Y0051781D01*
X0060209Y0051942D01*
X0060153Y0052104D01*
X0060101Y0052268D01*
X0060054Y0052433D01*
X0060010Y0052599D01*
X0059970Y0052766D01*
X0059935Y0052934D01*
X0059903Y0053103D01*
X0059876Y0053273D01*
X0059853Y0053443D01*
X0059834Y0053614D01*
X0059819Y0053785D01*
X0059808Y0053957D01*
X0059802Y0054128D01*
X0059800Y0054300D01*
X0054800Y0049800D02*
X0054800Y0045800D01*
X0054800Y0049800D02*
X0054800Y0059300D01*
X0054800Y0062800D01*
X0036300Y0062800D02*
X0036300Y0059300D01*
X0036300Y0049300D01*
X0036300Y0045800D01*
X0028300Y0042300D02*
X0027300Y0042300D01*
X0027300Y0041300D01*
X0021300Y0041300D01*
X0021300Y0042300D01*
X0020300Y0042300D01*
X0023300Y0054300D02*
X0023302Y0054363D01*
X0023308Y0054425D01*
X0023318Y0054487D01*
X0023331Y0054549D01*
X0023349Y0054609D01*
X0023370Y0054668D01*
X0023395Y0054726D01*
X0023424Y0054782D01*
X0023456Y0054836D01*
X0023491Y0054888D01*
X0023529Y0054937D01*
X0023571Y0054985D01*
X0023615Y0055029D01*
X0023663Y0055071D01*
X0023712Y0055109D01*
X0023764Y0055144D01*
X0023818Y0055176D01*
X0023874Y0055205D01*
X0023932Y0055230D01*
X0023991Y0055251D01*
X0024051Y0055269D01*
X0024113Y0055282D01*
X0024175Y0055292D01*
X0024237Y0055298D01*
X0024300Y0055300D01*
X0024363Y0055298D01*
X0024425Y0055292D01*
X0024487Y0055282D01*
X0024549Y0055269D01*
X0024609Y0055251D01*
X0024668Y0055230D01*
X0024726Y0055205D01*
X0024782Y0055176D01*
X0024836Y0055144D01*
X0024888Y0055109D01*
X0024937Y0055071D01*
X0024985Y0055029D01*
X0025029Y0054985D01*
X0025071Y0054937D01*
X0025109Y0054888D01*
X0025144Y0054836D01*
X0025176Y0054782D01*
X0025205Y0054726D01*
X0025230Y0054668D01*
X0025251Y0054609D01*
X0025269Y0054549D01*
X0025282Y0054487D01*
X0025292Y0054425D01*
X0025298Y0054363D01*
X0025300Y0054300D01*
X0025298Y0054237D01*
X0025292Y0054175D01*
X0025282Y0054113D01*
X0025269Y0054051D01*
X0025251Y0053991D01*
X0025230Y0053932D01*
X0025205Y0053874D01*
X0025176Y0053818D01*
X0025144Y0053764D01*
X0025109Y0053712D01*
X0025071Y0053663D01*
X0025029Y0053615D01*
X0024985Y0053571D01*
X0024937Y0053529D01*
X0024888Y0053491D01*
X0024836Y0053456D01*
X0024782Y0053424D01*
X0024726Y0053395D01*
X0024668Y0053370D01*
X0024609Y0053349D01*
X0024549Y0053331D01*
X0024487Y0053318D01*
X0024425Y0053308D01*
X0024363Y0053302D01*
X0024300Y0053300D01*
X0024237Y0053302D01*
X0024175Y0053308D01*
X0024113Y0053318D01*
X0024051Y0053331D01*
X0023991Y0053349D01*
X0023932Y0053370D01*
X0023874Y0053395D01*
X0023818Y0053424D01*
X0023764Y0053456D01*
X0023712Y0053491D01*
X0023663Y0053529D01*
X0023615Y0053571D01*
X0023571Y0053615D01*
X0023529Y0053663D01*
X0023491Y0053712D01*
X0023456Y0053764D01*
X0023424Y0053818D01*
X0023395Y0053874D01*
X0023370Y0053932D01*
X0023349Y0053991D01*
X0023331Y0054051D01*
X0023318Y0054113D01*
X0023308Y0054175D01*
X0023302Y0054237D01*
X0023300Y0054300D01*
X0017300Y0054300D02*
X0017302Y0054472D01*
X0017308Y0054643D01*
X0017319Y0054815D01*
X0017334Y0054986D01*
X0017353Y0055157D01*
X0017376Y0055327D01*
X0017403Y0055497D01*
X0017435Y0055666D01*
X0017470Y0055834D01*
X0017510Y0056001D01*
X0017554Y0056167D01*
X0017601Y0056332D01*
X0017653Y0056496D01*
X0017709Y0056658D01*
X0017769Y0056819D01*
X0017833Y0056979D01*
X0017901Y0057137D01*
X0017972Y0057293D01*
X0018047Y0057447D01*
X0018127Y0057600D01*
X0018209Y0057750D01*
X0018296Y0057899D01*
X0018386Y0058045D01*
X0018480Y0058189D01*
X0018577Y0058331D01*
X0018678Y0058470D01*
X0018782Y0058607D01*
X0018889Y0058741D01*
X0019000Y0058872D01*
X0019113Y0059001D01*
X0019230Y0059127D01*
X0019350Y0059250D01*
X0019473Y0059370D01*
X0019599Y0059487D01*
X0019728Y0059600D01*
X0019859Y0059711D01*
X0019993Y0059818D01*
X0020130Y0059922D01*
X0020269Y0060023D01*
X0020411Y0060120D01*
X0020555Y0060214D01*
X0020701Y0060304D01*
X0020850Y0060391D01*
X0021000Y0060473D01*
X0021153Y0060553D01*
X0021307Y0060628D01*
X0021463Y0060699D01*
X0021621Y0060767D01*
X0021781Y0060831D01*
X0021942Y0060891D01*
X0022104Y0060947D01*
X0022268Y0060999D01*
X0022433Y0061046D01*
X0022599Y0061090D01*
X0022766Y0061130D01*
X0022934Y0061165D01*
X0023103Y0061197D01*
X0023273Y0061224D01*
X0023443Y0061247D01*
X0023614Y0061266D01*
X0023785Y0061281D01*
X0023957Y0061292D01*
X0024128Y0061298D01*
X0024300Y0061300D01*
X0024472Y0061298D01*
X0024643Y0061292D01*
X0024815Y0061281D01*
X0024986Y0061266D01*
X0025157Y0061247D01*
X0025327Y0061224D01*
X0025497Y0061197D01*
X0025666Y0061165D01*
X0025834Y0061130D01*
X0026001Y0061090D01*
X0026167Y0061046D01*
X0026332Y0060999D01*
X0026496Y0060947D01*
X0026658Y0060891D01*
X0026819Y0060831D01*
X0026979Y0060767D01*
X0027137Y0060699D01*
X0027293Y0060628D01*
X0027447Y0060553D01*
X0027600Y0060473D01*
X0027750Y0060391D01*
X0027899Y0060304D01*
X0028045Y0060214D01*
X0028189Y0060120D01*
X0028331Y0060023D01*
X0028470Y0059922D01*
X0028607Y0059818D01*
X0028741Y0059711D01*
X0028872Y0059600D01*
X0029001Y0059487D01*
X0029127Y0059370D01*
X0029250Y0059250D01*
X0029370Y0059127D01*
X0029487Y0059001D01*
X0029600Y0058872D01*
X0029711Y0058741D01*
X0029818Y0058607D01*
X0029922Y0058470D01*
X0030023Y0058331D01*
X0030120Y0058189D01*
X0030214Y0058045D01*
X0030304Y0057899D01*
X0030391Y0057750D01*
X0030473Y0057600D01*
X0030553Y0057447D01*
X0030628Y0057293D01*
X0030699Y0057137D01*
X0030767Y0056979D01*
X0030831Y0056819D01*
X0030891Y0056658D01*
X0030947Y0056496D01*
X0030999Y0056332D01*
X0031046Y0056167D01*
X0031090Y0056001D01*
X0031130Y0055834D01*
X0031165Y0055666D01*
X0031197Y0055497D01*
X0031224Y0055327D01*
X0031247Y0055157D01*
X0031266Y0054986D01*
X0031281Y0054815D01*
X0031292Y0054643D01*
X0031298Y0054472D01*
X0031300Y0054300D01*
X0031298Y0054128D01*
X0031292Y0053957D01*
X0031281Y0053785D01*
X0031266Y0053614D01*
X0031247Y0053443D01*
X0031224Y0053273D01*
X0031197Y0053103D01*
X0031165Y0052934D01*
X0031130Y0052766D01*
X0031090Y0052599D01*
X0031046Y0052433D01*
X0030999Y0052268D01*
X0030947Y0052104D01*
X0030891Y0051942D01*
X0030831Y0051781D01*
X0030767Y0051621D01*
X0030699Y0051463D01*
X0030628Y0051307D01*
X0030553Y0051153D01*
X0030473Y0051000D01*
X0030391Y0050850D01*
X0030304Y0050701D01*
X0030214Y0050555D01*
X0030120Y0050411D01*
X0030023Y0050269D01*
X0029922Y0050130D01*
X0029818Y0049993D01*
X0029711Y0049859D01*
X0029600Y0049728D01*
X0029487Y0049599D01*
X0029370Y0049473D01*
X0029250Y0049350D01*
X0029127Y0049230D01*
X0029001Y0049113D01*
X0028872Y0049000D01*
X0028741Y0048889D01*
X0028607Y0048782D01*
X0028470Y0048678D01*
X0028331Y0048577D01*
X0028189Y0048480D01*
X0028045Y0048386D01*
X0027899Y0048296D01*
X0027750Y0048209D01*
X0027600Y0048127D01*
X0027447Y0048047D01*
X0027293Y0047972D01*
X0027137Y0047901D01*
X0026979Y0047833D01*
X0026819Y0047769D01*
X0026658Y0047709D01*
X0026496Y0047653D01*
X0026332Y0047601D01*
X0026167Y0047554D01*
X0026001Y0047510D01*
X0025834Y0047470D01*
X0025666Y0047435D01*
X0025497Y0047403D01*
X0025327Y0047376D01*
X0025157Y0047353D01*
X0024986Y0047334D01*
X0024815Y0047319D01*
X0024643Y0047308D01*
X0024472Y0047302D01*
X0024300Y0047300D01*
X0024128Y0047302D01*
X0023957Y0047308D01*
X0023785Y0047319D01*
X0023614Y0047334D01*
X0023443Y0047353D01*
X0023273Y0047376D01*
X0023103Y0047403D01*
X0022934Y0047435D01*
X0022766Y0047470D01*
X0022599Y0047510D01*
X0022433Y0047554D01*
X0022268Y0047601D01*
X0022104Y0047653D01*
X0021942Y0047709D01*
X0021781Y0047769D01*
X0021621Y0047833D01*
X0021463Y0047901D01*
X0021307Y0047972D01*
X0021153Y0048047D01*
X0021000Y0048127D01*
X0020850Y0048209D01*
X0020701Y0048296D01*
X0020555Y0048386D01*
X0020411Y0048480D01*
X0020269Y0048577D01*
X0020130Y0048678D01*
X0019993Y0048782D01*
X0019859Y0048889D01*
X0019728Y0049000D01*
X0019599Y0049113D01*
X0019473Y0049230D01*
X0019350Y0049350D01*
X0019230Y0049473D01*
X0019113Y0049599D01*
X0019000Y0049728D01*
X0018889Y0049859D01*
X0018782Y0049993D01*
X0018678Y0050130D01*
X0018577Y0050269D01*
X0018480Y0050411D01*
X0018386Y0050555D01*
X0018296Y0050701D01*
X0018209Y0050850D01*
X0018127Y0051000D01*
X0018047Y0051153D01*
X0017972Y0051307D01*
X0017901Y0051463D01*
X0017833Y0051621D01*
X0017769Y0051781D01*
X0017709Y0051942D01*
X0017653Y0052104D01*
X0017601Y0052268D01*
X0017554Y0052433D01*
X0017510Y0052599D01*
X0017470Y0052766D01*
X0017435Y0052934D01*
X0017403Y0053103D01*
X0017376Y0053273D01*
X0017353Y0053443D01*
X0017334Y0053614D01*
X0017319Y0053785D01*
X0017308Y0053957D01*
X0017302Y0054128D01*
X0017300Y0054300D01*
X0012300Y0049800D02*
X0012300Y0045800D01*
X0012300Y0049800D02*
X0012300Y0059300D01*
X0012300Y0062800D01*
X0020300Y0066300D02*
X0021300Y0066300D01*
X0021300Y0067300D01*
X0027300Y0067300D01*
X0027300Y0066300D01*
X0028300Y0066300D01*
X0050300Y0026800D02*
X0053300Y0026800D01*
X0053300Y0027300D01*
X0055300Y0027300D01*
X0055300Y0026800D01*
X0058300Y0026800D01*
X0058300Y0026300D01*
X0060300Y0026300D01*
X0060300Y0026800D01*
X0063300Y0026800D01*
X0063300Y0027300D01*
X0065300Y0027300D01*
X0065300Y0026800D01*
X0068300Y0026800D01*
X0068300Y0023800D01*
X0068300Y0010800D01*
X0068300Y0009800D01*
X0066800Y0009800D01*
X0066800Y0010800D01*
X0066800Y0011800D01*
X0061800Y0011800D01*
X0061800Y0010800D01*
X0060300Y0010800D01*
X0058300Y0010800D01*
X0058300Y0023300D01*
X0059300Y0022300D01*
X0060300Y0023300D01*
X0060300Y0010800D01*
X0061800Y0010800D02*
X0061800Y0009800D01*
X0056800Y0009800D01*
X0056800Y0010800D01*
X0058300Y0010800D01*
X0056800Y0010800D02*
X0056800Y0011800D01*
X0051800Y0011800D01*
X0051800Y0010800D01*
X0050300Y0010800D01*
X0050300Y0009800D01*
X0051800Y0009800D01*
X0051800Y0010800D01*
X0050300Y0010800D02*
X0050300Y0023800D01*
X0057800Y0023800D01*
X0058300Y0023300D01*
X0060300Y0023300D02*
X0060800Y0023800D01*
X0068300Y0023800D01*
X0068300Y0010800D02*
X0066800Y0010800D01*
X0068300Y0009800D02*
X0068300Y0007800D01*
X0060300Y0007800D01*
X0060300Y0008300D01*
X0058300Y0008300D01*
X0058300Y0007800D01*
X0050300Y0007800D01*
X0050300Y0009800D01*
X0048300Y0009800D02*
X0048300Y0006800D01*
X0045300Y0006800D01*
X0045300Y0006300D01*
X0043300Y0006300D01*
X0043300Y0006800D01*
X0040300Y0006800D01*
X0040300Y0007300D01*
X0038300Y0007300D01*
X0038300Y0006800D01*
X0035300Y0006800D01*
X0035300Y0006300D01*
X0033300Y0006300D01*
X0033300Y0006800D01*
X0030300Y0006800D01*
X0030300Y0009800D01*
X0030300Y0022800D01*
X0030300Y0023800D01*
X0031800Y0023800D01*
X0031800Y0022800D01*
X0031800Y0021800D01*
X0036800Y0021800D01*
X0036800Y0022800D01*
X0038300Y0022800D01*
X0040300Y0022800D01*
X0040300Y0010300D01*
X0039300Y0011300D01*
X0038300Y0010300D01*
X0038300Y0022800D01*
X0036800Y0022800D02*
X0036800Y0023800D01*
X0041800Y0023800D01*
X0041800Y0022800D01*
X0040300Y0022800D01*
X0041800Y0022800D02*
X0041800Y0021800D01*
X0046800Y0021800D01*
X0046800Y0022800D01*
X0048300Y0022800D01*
X0048300Y0023800D01*
X0046800Y0023800D01*
X0046800Y0022800D01*
X0048300Y0022800D02*
X0048300Y0009800D01*
X0040800Y0009800D01*
X0040300Y0010300D01*
X0038300Y0010300D02*
X0037800Y0009800D01*
X0030300Y0009800D01*
X0030300Y0022800D02*
X0031800Y0022800D01*
X0030300Y0023800D02*
X0030300Y0025800D01*
X0038300Y0025800D01*
X0038300Y0025300D01*
X0040300Y0025300D01*
X0040300Y0025800D01*
X0048300Y0025800D01*
X0048300Y0023800D01*
X0050300Y0023800D02*
X0050300Y0026800D01*
X0082800Y0080300D02*
X0082800Y0080800D01*
X0082800Y0080300D02*
X0090800Y0080300D01*
X0090800Y0080800D01*
X0092800Y0080800D01*
X0092800Y0080300D01*
X0100800Y0080300D01*
X0100800Y0080800D01*
X0102800Y0080800D01*
X0102800Y0080300D01*
X0110800Y0080300D01*
X0110800Y0082300D01*
X0110800Y0083300D02*
X0109300Y0083300D01*
X0101800Y0094800D02*
X0102800Y0095800D01*
X0101800Y0094800D02*
X0100800Y0095800D01*
X0105800Y0099300D02*
X0105800Y0099800D01*
X0111300Y0067300D02*
X0111300Y0066300D01*
X0110300Y0066300D01*
X0111300Y0067300D02*
X0117300Y0067300D01*
X0117300Y0066300D01*
X0118300Y0066300D01*
X0126300Y0062800D02*
X0126300Y0059300D01*
X0126300Y0049300D01*
X0126300Y0045800D01*
X0118300Y0042300D02*
X0117300Y0042300D01*
X0117300Y0041300D01*
X0111300Y0041300D01*
X0111300Y0042300D01*
X0110300Y0042300D01*
X0113300Y0054300D02*
X0113302Y0054363D01*
X0113308Y0054425D01*
X0113318Y0054487D01*
X0113331Y0054549D01*
X0113349Y0054609D01*
X0113370Y0054668D01*
X0113395Y0054726D01*
X0113424Y0054782D01*
X0113456Y0054836D01*
X0113491Y0054888D01*
X0113529Y0054937D01*
X0113571Y0054985D01*
X0113615Y0055029D01*
X0113663Y0055071D01*
X0113712Y0055109D01*
X0113764Y0055144D01*
X0113818Y0055176D01*
X0113874Y0055205D01*
X0113932Y0055230D01*
X0113991Y0055251D01*
X0114051Y0055269D01*
X0114113Y0055282D01*
X0114175Y0055292D01*
X0114237Y0055298D01*
X0114300Y0055300D01*
X0114363Y0055298D01*
X0114425Y0055292D01*
X0114487Y0055282D01*
X0114549Y0055269D01*
X0114609Y0055251D01*
X0114668Y0055230D01*
X0114726Y0055205D01*
X0114782Y0055176D01*
X0114836Y0055144D01*
X0114888Y0055109D01*
X0114937Y0055071D01*
X0114985Y0055029D01*
X0115029Y0054985D01*
X0115071Y0054937D01*
X0115109Y0054888D01*
X0115144Y0054836D01*
X0115176Y0054782D01*
X0115205Y0054726D01*
X0115230Y0054668D01*
X0115251Y0054609D01*
X0115269Y0054549D01*
X0115282Y0054487D01*
X0115292Y0054425D01*
X0115298Y0054363D01*
X0115300Y0054300D01*
X0115298Y0054237D01*
X0115292Y0054175D01*
X0115282Y0054113D01*
X0115269Y0054051D01*
X0115251Y0053991D01*
X0115230Y0053932D01*
X0115205Y0053874D01*
X0115176Y0053818D01*
X0115144Y0053764D01*
X0115109Y0053712D01*
X0115071Y0053663D01*
X0115029Y0053615D01*
X0114985Y0053571D01*
X0114937Y0053529D01*
X0114888Y0053491D01*
X0114836Y0053456D01*
X0114782Y0053424D01*
X0114726Y0053395D01*
X0114668Y0053370D01*
X0114609Y0053349D01*
X0114549Y0053331D01*
X0114487Y0053318D01*
X0114425Y0053308D01*
X0114363Y0053302D01*
X0114300Y0053300D01*
X0114237Y0053302D01*
X0114175Y0053308D01*
X0114113Y0053318D01*
X0114051Y0053331D01*
X0113991Y0053349D01*
X0113932Y0053370D01*
X0113874Y0053395D01*
X0113818Y0053424D01*
X0113764Y0053456D01*
X0113712Y0053491D01*
X0113663Y0053529D01*
X0113615Y0053571D01*
X0113571Y0053615D01*
X0113529Y0053663D01*
X0113491Y0053712D01*
X0113456Y0053764D01*
X0113424Y0053818D01*
X0113395Y0053874D01*
X0113370Y0053932D01*
X0113349Y0053991D01*
X0113331Y0054051D01*
X0113318Y0054113D01*
X0113308Y0054175D01*
X0113302Y0054237D01*
X0113300Y0054300D01*
X0107300Y0054300D02*
X0107302Y0054472D01*
X0107308Y0054643D01*
X0107319Y0054815D01*
X0107334Y0054986D01*
X0107353Y0055157D01*
X0107376Y0055327D01*
X0107403Y0055497D01*
X0107435Y0055666D01*
X0107470Y0055834D01*
X0107510Y0056001D01*
X0107554Y0056167D01*
X0107601Y0056332D01*
X0107653Y0056496D01*
X0107709Y0056658D01*
X0107769Y0056819D01*
X0107833Y0056979D01*
X0107901Y0057137D01*
X0107972Y0057293D01*
X0108047Y0057447D01*
X0108127Y0057600D01*
X0108209Y0057750D01*
X0108296Y0057899D01*
X0108386Y0058045D01*
X0108480Y0058189D01*
X0108577Y0058331D01*
X0108678Y0058470D01*
X0108782Y0058607D01*
X0108889Y0058741D01*
X0109000Y0058872D01*
X0109113Y0059001D01*
X0109230Y0059127D01*
X0109350Y0059250D01*
X0109473Y0059370D01*
X0109599Y0059487D01*
X0109728Y0059600D01*
X0109859Y0059711D01*
X0109993Y0059818D01*
X0110130Y0059922D01*
X0110269Y0060023D01*
X0110411Y0060120D01*
X0110555Y0060214D01*
X0110701Y0060304D01*
X0110850Y0060391D01*
X0111000Y0060473D01*
X0111153Y0060553D01*
X0111307Y0060628D01*
X0111463Y0060699D01*
X0111621Y0060767D01*
X0111781Y0060831D01*
X0111942Y0060891D01*
X0112104Y0060947D01*
X0112268Y0060999D01*
X0112433Y0061046D01*
X0112599Y0061090D01*
X0112766Y0061130D01*
X0112934Y0061165D01*
X0113103Y0061197D01*
X0113273Y0061224D01*
X0113443Y0061247D01*
X0113614Y0061266D01*
X0113785Y0061281D01*
X0113957Y0061292D01*
X0114128Y0061298D01*
X0114300Y0061300D01*
X0114472Y0061298D01*
X0114643Y0061292D01*
X0114815Y0061281D01*
X0114986Y0061266D01*
X0115157Y0061247D01*
X0115327Y0061224D01*
X0115497Y0061197D01*
X0115666Y0061165D01*
X0115834Y0061130D01*
X0116001Y0061090D01*
X0116167Y0061046D01*
X0116332Y0060999D01*
X0116496Y0060947D01*
X0116658Y0060891D01*
X0116819Y0060831D01*
X0116979Y0060767D01*
X0117137Y0060699D01*
X0117293Y0060628D01*
X0117447Y0060553D01*
X0117600Y0060473D01*
X0117750Y0060391D01*
X0117899Y0060304D01*
X0118045Y0060214D01*
X0118189Y0060120D01*
X0118331Y0060023D01*
X0118470Y0059922D01*
X0118607Y0059818D01*
X0118741Y0059711D01*
X0118872Y0059600D01*
X0119001Y0059487D01*
X0119127Y0059370D01*
X0119250Y0059250D01*
X0119370Y0059127D01*
X0119487Y0059001D01*
X0119600Y0058872D01*
X0119711Y0058741D01*
X0119818Y0058607D01*
X0119922Y0058470D01*
X0120023Y0058331D01*
X0120120Y0058189D01*
X0120214Y0058045D01*
X0120304Y0057899D01*
X0120391Y0057750D01*
X0120473Y0057600D01*
X0120553Y0057447D01*
X0120628Y0057293D01*
X0120699Y0057137D01*
X0120767Y0056979D01*
X0120831Y0056819D01*
X0120891Y0056658D01*
X0120947Y0056496D01*
X0120999Y0056332D01*
X0121046Y0056167D01*
X0121090Y0056001D01*
X0121130Y0055834D01*
X0121165Y0055666D01*
X0121197Y0055497D01*
X0121224Y0055327D01*
X0121247Y0055157D01*
X0121266Y0054986D01*
X0121281Y0054815D01*
X0121292Y0054643D01*
X0121298Y0054472D01*
X0121300Y0054300D01*
X0121298Y0054128D01*
X0121292Y0053957D01*
X0121281Y0053785D01*
X0121266Y0053614D01*
X0121247Y0053443D01*
X0121224Y0053273D01*
X0121197Y0053103D01*
X0121165Y0052934D01*
X0121130Y0052766D01*
X0121090Y0052599D01*
X0121046Y0052433D01*
X0120999Y0052268D01*
X0120947Y0052104D01*
X0120891Y0051942D01*
X0120831Y0051781D01*
X0120767Y0051621D01*
X0120699Y0051463D01*
X0120628Y0051307D01*
X0120553Y0051153D01*
X0120473Y0051000D01*
X0120391Y0050850D01*
X0120304Y0050701D01*
X0120214Y0050555D01*
X0120120Y0050411D01*
X0120023Y0050269D01*
X0119922Y0050130D01*
X0119818Y0049993D01*
X0119711Y0049859D01*
X0119600Y0049728D01*
X0119487Y0049599D01*
X0119370Y0049473D01*
X0119250Y0049350D01*
X0119127Y0049230D01*
X0119001Y0049113D01*
X0118872Y0049000D01*
X0118741Y0048889D01*
X0118607Y0048782D01*
X0118470Y0048678D01*
X0118331Y0048577D01*
X0118189Y0048480D01*
X0118045Y0048386D01*
X0117899Y0048296D01*
X0117750Y0048209D01*
X0117600Y0048127D01*
X0117447Y0048047D01*
X0117293Y0047972D01*
X0117137Y0047901D01*
X0116979Y0047833D01*
X0116819Y0047769D01*
X0116658Y0047709D01*
X0116496Y0047653D01*
X0116332Y0047601D01*
X0116167Y0047554D01*
X0116001Y0047510D01*
X0115834Y0047470D01*
X0115666Y0047435D01*
X0115497Y0047403D01*
X0115327Y0047376D01*
X0115157Y0047353D01*
X0114986Y0047334D01*
X0114815Y0047319D01*
X0114643Y0047308D01*
X0114472Y0047302D01*
X0114300Y0047300D01*
X0114128Y0047302D01*
X0113957Y0047308D01*
X0113785Y0047319D01*
X0113614Y0047334D01*
X0113443Y0047353D01*
X0113273Y0047376D01*
X0113103Y0047403D01*
X0112934Y0047435D01*
X0112766Y0047470D01*
X0112599Y0047510D01*
X0112433Y0047554D01*
X0112268Y0047601D01*
X0112104Y0047653D01*
X0111942Y0047709D01*
X0111781Y0047769D01*
X0111621Y0047833D01*
X0111463Y0047901D01*
X0111307Y0047972D01*
X0111153Y0048047D01*
X0111000Y0048127D01*
X0110850Y0048209D01*
X0110701Y0048296D01*
X0110555Y0048386D01*
X0110411Y0048480D01*
X0110269Y0048577D01*
X0110130Y0048678D01*
X0109993Y0048782D01*
X0109859Y0048889D01*
X0109728Y0049000D01*
X0109599Y0049113D01*
X0109473Y0049230D01*
X0109350Y0049350D01*
X0109230Y0049473D01*
X0109113Y0049599D01*
X0109000Y0049728D01*
X0108889Y0049859D01*
X0108782Y0049993D01*
X0108678Y0050130D01*
X0108577Y0050269D01*
X0108480Y0050411D01*
X0108386Y0050555D01*
X0108296Y0050701D01*
X0108209Y0050850D01*
X0108127Y0051000D01*
X0108047Y0051153D01*
X0107972Y0051307D01*
X0107901Y0051463D01*
X0107833Y0051621D01*
X0107769Y0051781D01*
X0107709Y0051942D01*
X0107653Y0052104D01*
X0107601Y0052268D01*
X0107554Y0052433D01*
X0107510Y0052599D01*
X0107470Y0052766D01*
X0107435Y0052934D01*
X0107403Y0053103D01*
X0107376Y0053273D01*
X0107353Y0053443D01*
X0107334Y0053614D01*
X0107319Y0053785D01*
X0107308Y0053957D01*
X0107302Y0054128D01*
X0107300Y0054300D01*
X0102300Y0049800D02*
X0102300Y0045800D01*
X0102300Y0049800D02*
X0102300Y0059300D01*
X0102300Y0062800D01*
X0033300Y0182800D02*
X0031300Y0182800D01*
X0030300Y0182800D01*
X0030300Y0184300D01*
X0029300Y0184300D01*
X0029300Y0189300D01*
X0030300Y0189300D01*
X0030300Y0190800D01*
X0017800Y0190800D01*
X0018800Y0191800D01*
X0017800Y0192800D01*
X0030300Y0192800D01*
X0030300Y0190800D01*
X0030300Y0189300D02*
X0031300Y0189300D01*
X0031300Y0194300D01*
X0030300Y0194300D01*
X0030300Y0192800D01*
X0030300Y0194300D02*
X0029300Y0194300D01*
X0029300Y0199300D01*
X0030300Y0199300D01*
X0030300Y0200800D01*
X0031300Y0200800D01*
X0031300Y0199300D01*
X0030300Y0199300D01*
X0030300Y0200800D02*
X0017300Y0200800D01*
X0014300Y0200800D01*
X0014300Y0197800D01*
X0013800Y0197800D01*
X0013800Y0195800D01*
X0014300Y0195800D01*
X0014300Y0192800D01*
X0014800Y0192800D01*
X0014800Y0190800D01*
X0014300Y0190800D01*
X0014300Y0187800D01*
X0013800Y0187800D01*
X0013800Y0185800D01*
X0014300Y0185800D01*
X0014300Y0182800D01*
X0017300Y0182800D01*
X0030300Y0182800D01*
X0031300Y0182800D02*
X0031300Y0184300D01*
X0030300Y0184300D01*
X0033300Y0182800D02*
X0033300Y0190800D01*
X0032800Y0190800D01*
X0032800Y0192800D01*
X0033300Y0192800D01*
X0033300Y0200800D01*
X0031300Y0200800D01*
X0017300Y0200800D02*
X0017300Y0193300D01*
X0017800Y0192800D01*
X0017800Y0190800D02*
X0017300Y0190300D01*
X0017300Y0182800D01*
D13*
X0017259Y0185150D02*
X0019528Y0185150D01*
X0018393Y0185150D02*
X0018393Y0188553D01*
X0017259Y0187419D01*
X0012450Y0187654D02*
X0012450Y0190656D01*
X0011699Y0192258D02*
X0012450Y0193008D01*
X0012450Y0194510D01*
X0011699Y0195260D01*
X0010198Y0195260D01*
X0009447Y0194510D01*
X0009447Y0193759D01*
X0010198Y0192258D01*
X0007946Y0192258D01*
X0007946Y0195260D01*
X0007946Y0187654D02*
X0012450Y0187654D01*
X0011699Y0186053D02*
X0012450Y0185302D01*
X0012450Y0183801D01*
X0011699Y0183050D01*
X0010198Y0183801D02*
X0010198Y0185302D01*
X0010949Y0186053D01*
X0011699Y0186053D01*
X0010198Y0183801D02*
X0009447Y0183050D01*
X0008697Y0183050D01*
X0007946Y0183801D01*
X0007946Y0185302D01*
X0008697Y0186053D01*
X0055147Y0094384D02*
X0058550Y0094384D01*
X0058550Y0093250D02*
X0058550Y0095519D01*
X0056281Y0093250D02*
X0055147Y0094384D01*
X0056050Y0023019D02*
X0056050Y0020750D01*
X0056050Y0021884D02*
X0052647Y0021884D01*
X0053781Y0020750D01*
X0045950Y0012028D02*
X0045950Y0009759D01*
X0045950Y0010893D02*
X0042547Y0010893D01*
X0043681Y0009759D01*
X0129759Y0126150D02*
X0132028Y0126150D01*
X0130893Y0126150D02*
X0130893Y0129553D01*
X0129759Y0128419D01*
D14*
X0126300Y0059300D02*
X0125300Y0059300D01*
X0125300Y0049300D01*
X0126300Y0049300D01*
X0103300Y0049800D02*
X0102300Y0049800D01*
X0103300Y0049800D02*
X0103300Y0059300D01*
X0102300Y0059300D01*
X0078800Y0059300D02*
X0077800Y0059300D01*
X0077800Y0049300D01*
X0078800Y0049300D01*
X0055800Y0049800D02*
X0054800Y0049800D01*
X0055800Y0049800D02*
X0055800Y0059300D01*
X0054800Y0059300D01*
X0036300Y0059300D02*
X0035300Y0059300D01*
X0035300Y0049300D01*
X0036300Y0049300D01*
X0013300Y0049800D02*
X0012300Y0049800D01*
X0013300Y0049800D02*
X0013300Y0059300D01*
X0012300Y0059300D01*
M02*
