G75*
%MOIN*%
%OFA0B0*%
%FSLAX25Y25*%
%IPPOS*%
%LPD*%
%AMOC8*
5,1,8,0,0,1.08239X$1,22.5*
%
%ADD10C,0.13398*%
%ADD11C,0.06400*%
%ADD12R,0.06312X0.04737*%
%ADD13R,0.05131X0.04737*%
%ADD14R,0.04737X0.05131*%
%ADD15C,0.06800*%
%ADD16R,0.04934X0.05052*%
%ADD17R,0.05052X0.04934*%
%ADD18C,0.05950*%
%ADD19C,0.07400*%
%ADD20C,0.13800*%
%ADD21R,0.03000X0.05800*%
%ADD22R,0.05800X0.03000*%
%ADD23C,0.05156*%
%ADD24C,0.04762*%
D10*
X0014300Y0014300D03*
X0139300Y0014300D03*
X0139300Y0244300D03*
X0011800Y0244300D03*
D11*
X0021500Y0196800D02*
X0027100Y0196800D01*
X0027100Y0186800D02*
X0021500Y0186800D01*
X0056800Y0092100D02*
X0056800Y0086500D01*
X0066800Y0086500D02*
X0066800Y0092100D01*
X0076800Y0092100D02*
X0076800Y0086500D01*
X0086800Y0086500D02*
X0086800Y0092100D01*
X0096800Y0092100D02*
X0096800Y0086500D01*
X0106800Y0086500D02*
X0106800Y0092100D01*
X0134000Y0127800D02*
X0139600Y0127800D01*
X0139600Y0137800D02*
X0134000Y0137800D01*
X0134000Y0147800D02*
X0139600Y0147800D01*
X0139600Y0157800D02*
X0134000Y0157800D01*
X0064300Y0019600D02*
X0064300Y0014000D01*
X0054300Y0014000D02*
X0054300Y0019600D01*
X0044300Y0019600D02*
X0044300Y0014000D01*
X0034300Y0014000D02*
X0034300Y0019600D01*
D12*
X0138631Y0193060D03*
X0138631Y0200540D03*
X0138631Y0210560D03*
X0138631Y0218040D03*
X0129969Y0214300D03*
X0129969Y0196800D03*
X0043631Y0241800D03*
X0034969Y0238060D03*
X0034969Y0245540D03*
D13*
X0024300Y0245146D03*
X0024300Y0238454D03*
X0056800Y0175146D03*
X0056800Y0168454D03*
X0066800Y0168454D03*
X0066800Y0175146D03*
X0076800Y0175146D03*
X0076800Y0168454D03*
X0086800Y0168454D03*
X0086800Y0175146D03*
X0096800Y0175146D03*
X0096800Y0168454D03*
X0106800Y0168454D03*
X0106800Y0175146D03*
X0116800Y0175146D03*
X0116800Y0168454D03*
X0126800Y0168454D03*
X0126800Y0175146D03*
X0136800Y0175954D03*
X0136800Y0182646D03*
X0134300Y0069146D03*
X0134300Y0062454D03*
X0134300Y0047646D03*
X0134300Y0040954D03*
X0091800Y0022646D03*
X0091800Y0015954D03*
X0076800Y0015954D03*
X0076800Y0022646D03*
X0086800Y0040954D03*
X0086800Y0047646D03*
X0086800Y0062454D03*
X0086800Y0069146D03*
X0044300Y0070146D03*
X0044300Y0063454D03*
X0044300Y0047646D03*
X0044300Y0040954D03*
X0044300Y0125954D03*
X0044300Y0132646D03*
D14*
X0050954Y0126800D03*
X0057646Y0126800D03*
X0125954Y0116800D03*
X0132646Y0116800D03*
D15*
X0123200Y0070100D02*
X0123200Y0064100D01*
X0123200Y0044500D02*
X0123200Y0038500D01*
X0105400Y0038500D02*
X0105400Y0044500D01*
X0105400Y0064100D02*
X0105400Y0070100D01*
X0075700Y0070100D02*
X0075700Y0064100D01*
X0075700Y0044500D02*
X0075700Y0038500D01*
X0057900Y0038500D02*
X0057900Y0044500D01*
X0057900Y0064100D02*
X0057900Y0070100D01*
X0033200Y0070100D02*
X0033200Y0064100D01*
X0033200Y0044500D02*
X0033200Y0038500D01*
X0015400Y0038500D02*
X0015400Y0044500D01*
X0015400Y0064100D02*
X0015400Y0070100D01*
D16*
X0078355Y0006800D03*
X0085245Y0006800D03*
X0130855Y0031800D03*
X0137745Y0031800D03*
X0095245Y0104300D03*
X0088355Y0104300D03*
D17*
X0116800Y0095245D03*
X0116800Y0088355D03*
D18*
X0096800Y0184300D03*
X0086800Y0184300D03*
X0076800Y0184300D03*
X0066800Y0184300D03*
X0056800Y0184300D03*
X0056800Y0224300D03*
X0066800Y0224300D03*
X0076800Y0224300D03*
X0086800Y0224300D03*
X0096800Y0224300D03*
X0106800Y0224300D03*
D19*
X0036800Y0167600D02*
X0036800Y0161000D01*
X0026800Y0161000D02*
X0026800Y0167600D01*
X0016800Y0167600D02*
X0016800Y0161000D01*
D20*
X0026800Y0095300D03*
D21*
X0083276Y0117400D03*
X0086426Y0117400D03*
X0089576Y0117400D03*
X0092725Y0117400D03*
X0095875Y0117400D03*
X0099024Y0117400D03*
X0102174Y0117400D03*
X0105324Y0117400D03*
X0105324Y0151200D03*
X0102174Y0151200D03*
X0099024Y0151200D03*
X0095875Y0151200D03*
X0092725Y0151200D03*
X0089576Y0151200D03*
X0086426Y0151200D03*
X0083276Y0151200D03*
D22*
X0077400Y0145324D03*
X0077400Y0142174D03*
X0077400Y0139024D03*
X0077400Y0135875D03*
X0077400Y0132725D03*
X0077400Y0129576D03*
X0077400Y0126426D03*
X0077400Y0123276D03*
X0111200Y0123276D03*
X0111200Y0126426D03*
X0111200Y0129576D03*
X0111200Y0132725D03*
X0111200Y0135875D03*
X0111200Y0139024D03*
X0111200Y0142174D03*
X0111200Y0145324D03*
D23*
X0124300Y0134300D03*
X0101800Y0104300D03*
X0081800Y0106800D03*
X0086800Y0056800D03*
X0044300Y0056800D03*
X0116800Y0201800D03*
X0139300Y0226800D03*
X0034300Y0226800D03*
D24*
X0096800Y0156800D03*
X0096800Y0141800D03*
X0119300Y0083355D03*
X0111800Y0021800D03*
X0084300Y0021800D03*
X0139300Y0204300D03*
M02*
